<?xml version="1.0" encoding="UTF-8" standalone="no"?><svg xmlns="http://www.w3.org/2000/svg" xmlns:xlink="http://www.w3.org/1999/xlink" contentScriptType="application/ecmascript" contentStyleType="text/css" height="1357px" preserveAspectRatio="none" style="width:1052px;height:1357px;background:#FFFFFF;" version="1.1" viewBox="0 0 1052 1357" width="1052px" zoomAndPan="magnify"><defs><filter height="300%" id="f1me3x7pw9ru0y" width="300%" x="-1" y="-1"><feGaussianBlur result="blurOut" stdDeviation="2.0"/><feColorMatrix in="blurOut" result="blurOut2" type="matrix" values="0 0 0 0 0 0 0 0 0 0 0 0 0 0 0 0 0 0 .4 0"/><feOffset dx="4.0" dy="4.0" in="blurOut2" result="blurOut3"/><feBlend in="SourceGraphic" in2="blurOut3" mode="normal"/></filter></defs><g><text fill="#000000" font-family="sans-serif" font-size="18" lengthAdjust="spacing" textLength="298" x="370.5" y="18.6855">3MF Volumetric Color &amp; Scalar Fields</text><!--MD5=[ec712a6f9f0ad684330c1a57c4f8a2c9]
cluster Image--><polygon fill="#FFFFFF" filter="url(#f1me3x7pw9ru0y)" points="471,1059.6406,519,1059.6406,526,1083.25,619,1083.25,619,1350.6406,471,1350.6406,471,1059.6406" style="stroke:#000000;stroke-width:1.5;"/><line style="stroke:#000000;stroke-width:1.5;" x1="471" x2="526" y1="1083.25" y2="1083.25"/><text fill="#000000" font-family="sans-serif" font-size="14" font-weight="bold" lengthAdjust="spacing" textLength="42" x="475" y="1076.1738">Image</text><!--MD5=[4271d62f1c23f0ffdcc326a1f059de29]
cluster ScalarFields--><polygon fill="#FFFFFF" filter="url(#f1me3x7pw9ru0y)" points="470,688.6406,562,688.6406,569,712.25,869,712.25,869,1035.6406,470,1035.6406,470,688.6406" style="stroke:#000000;stroke-width:1.5;"/><line style="stroke:#000000;stroke-width:1.5;" x1="470" x2="569" y1="712.25" y2="712.25"/><text fill="#000000" font-family="sans-serif" font-size="14" font-weight="bold" lengthAdjust="spacing" textLength="86" x="474" y="705.1738">ScalarFields</text><!--MD5=[d082272748164006dae375b4a73134ea]
cluster ColorFields--><polygon fill="#FFFFFF" filter="url(#f1me3x7pw9ru0y)" points="16,359.6406,103,359.6406,110,383.25,410,383.25,410,664.6406,16,664.6406,16,359.6406" style="stroke:#000000;stroke-width:1.5;"/><line style="stroke:#000000;stroke-width:1.5;" x1="16" x2="110" y1="383.25" y2="383.25"/><text fill="#000000" font-family="sans-serif" font-size="14" font-weight="bold" lengthAdjust="spacing" textLength="81" x="20" y="376.1738">ColorFields</text><!--MD5=[e7c49030d54697640c80764a1a9ef766]
cluster VolumetricData--><polygon fill="#FFFFFF" filter="url(#f1me3x7pw9ru0y)" points="434,101.6406,546,101.6406,553,125.25,1035,125.25,1035,473.6406,434,473.6406,434,101.6406" style="stroke:#000000;stroke-width:1.5;"/><line style="stroke:#000000;stroke-width:1.5;" x1="434" x2="553" y1="125.25" y2="125.25"/><text fill="#000000" font-family="sans-serif" font-size="14" font-weight="bold" lengthAdjust="spacing" textLength="106" x="438" y="118.1738">VolumetricData</text><!--MD5=[b4808b9c5cf5b1233870d442f2cd9dfd]
class Image3D--><rect codeLine="6" fill="#FEFECE" filter="url(#f1me3x7pw9ru0y)" height="117.1797" id="Image3D" style="stroke:#A80036;stroke-width:1.5;" width="86" x="502" y="1095.6406"/><ellipse cx="518.35" cy="1111.6406" fill="#ADD1B2" rx="11" ry="11" style="stroke:#A80036;stroke-width:1.0;"/><path d="M521.1156,1107.5156 Q521.2719,1107.2969 521.4594,1107.1875 Q521.6469,1107.0781 521.8656,1107.0781 Q522.2406,1107.0781 522.475,1107.3359 Q522.7094,1107.5938 522.7094,1108.2031 L522.7094,1109.6563 Q522.7094,1110.2656 522.475,1110.5313 Q522.2406,1110.7969 521.8656,1110.7969 Q521.5219,1110.7969 521.3188,1110.5938 Q521.1156,1110.4063 521.0063,1109.8906 Q520.9594,1109.5313 520.7719,1109.3438 Q520.4438,1108.9688 519.8344,1108.75 Q519.225,1108.5313 518.6,1108.5313 Q517.8344,1108.5313 517.2016,1108.8594 Q516.5688,1109.1875 516.0766,1109.9375 Q515.5844,1110.6875 515.5844,1111.7188 L515.5844,1112.8125 Q515.5844,1114.0469 516.475,1114.8672 Q517.3656,1115.6875 518.9594,1115.6875 Q519.8969,1115.6875 520.5531,1115.4375 Q520.9438,1115.2813 521.3656,1114.8438 Q521.6313,1114.5781 521.7797,1114.5 Q521.9281,1114.4219 522.1313,1114.4219 Q522.4594,1114.4219 522.7172,1114.6797 Q522.975,1114.9375 522.975,1115.2813 Q522.975,1115.625 522.6313,1116.0313 Q522.1313,1116.6094 521.3344,1116.9375 Q520.2563,1117.3906 518.9594,1117.3906 Q517.4438,1117.3906 516.2406,1116.7656 Q515.2563,1116.2656 514.5688,1115.1953 Q513.8813,1114.125 513.8813,1112.8438 L513.8813,1111.6875 Q513.8813,1110.3594 514.4984,1109.2109 Q515.1156,1108.0625 516.2094,1107.4453 Q517.3031,1106.8281 518.5375,1106.8281 Q519.2719,1106.8281 519.9203,1106.9922 Q520.5688,1107.1563 521.1156,1107.5156 Z " fill="#000000"/><text fill="#000000" font-family="sans-serif" font-size="12" lengthAdjust="spacing" textLength="51" x="532.65" y="1116.5508">Image3D</text><line style="stroke:#A80036;stroke-width:1.5;" x1="503" x2="587" y1="1127.6406" y2="1127.6406"/><text fill="#000000" font-family="sans-serif" font-size="11" lengthAdjust="spacing" textLength="70" x="508" y="1143.0596">id : resourceID</text><text fill="#000000" font-family="sans-serif" font-size="11" lengthAdjust="spacing" textLength="62" x="508" y="1156.8955">name : string</text><text fill="#000000" font-family="sans-serif" font-size="11" lengthAdjust="spacing" textLength="67" x="508" y="1170.7314">rowcount : int</text><text fill="#000000" font-family="sans-serif" font-size="11" lengthAdjust="spacing" textLength="61" x="508" y="1184.5674">colcount : int</text><text fill="#000000" font-family="sans-serif" font-size="11" lengthAdjust="spacing" textLength="74" x="508" y="1198.4033">sheetcount : int</text><line style="stroke:#A80036;stroke-width:1.5;" x1="503" x2="587" y1="1204.8203" y2="1204.8203"/><!--MD5=[cc746aa407199c4bd2a066ce4a9ec816]
class Image3DSheet--><rect codeLine="15" fill="#FEFECE" filter="url(#f1me3x7pw9ru0y)" height="61.8359" id="Image3DSheet" style="stroke:#A80036;stroke-width:1.5;" width="115" x="487.5" y="1272.6406"/><ellipse cx="502.5" cy="1288.6406" fill="#ADD1B2" rx="11" ry="11" style="stroke:#A80036;stroke-width:1.0;"/><path d="M505.2656,1284.5156 Q505.4219,1284.2969 505.6094,1284.1875 Q505.7969,1284.0781 506.0156,1284.0781 Q506.3906,1284.0781 506.625,1284.3359 Q506.8594,1284.5938 506.8594,1285.2031 L506.8594,1286.6563 Q506.8594,1287.2656 506.625,1287.5313 Q506.3906,1287.7969 506.0156,1287.7969 Q505.6719,1287.7969 505.4688,1287.5938 Q505.2656,1287.4063 505.1563,1286.8906 Q505.1094,1286.5313 504.9219,1286.3438 Q504.5938,1285.9688 503.9844,1285.75 Q503.375,1285.5313 502.75,1285.5313 Q501.9844,1285.5313 501.3516,1285.8594 Q500.7188,1286.1875 500.2266,1286.9375 Q499.7344,1287.6875 499.7344,1288.7188 L499.7344,1289.8125 Q499.7344,1291.0469 500.625,1291.8672 Q501.5156,1292.6875 503.1094,1292.6875 Q504.0469,1292.6875 504.7031,1292.4375 Q505.0938,1292.2813 505.5156,1291.8438 Q505.7813,1291.5781 505.9297,1291.5 Q506.0781,1291.4219 506.2813,1291.4219 Q506.6094,1291.4219 506.8672,1291.6797 Q507.125,1291.9375 507.125,1292.2813 Q507.125,1292.625 506.7813,1293.0313 Q506.2813,1293.6094 505.4844,1293.9375 Q504.4063,1294.3906 503.1094,1294.3906 Q501.5938,1294.3906 500.3906,1293.7656 Q499.4063,1293.2656 498.7188,1292.1953 Q498.0313,1291.125 498.0313,1289.8438 L498.0313,1288.6875 Q498.0313,1287.3594 498.6484,1286.2109 Q499.2656,1285.0625 500.3594,1284.4453 Q501.4531,1283.8281 502.6875,1283.8281 Q503.4219,1283.8281 504.0703,1283.9922 Q504.7188,1284.1563 505.2656,1284.5156 Z " fill="#000000"/><text fill="#000000" font-family="sans-serif" font-size="12" lengthAdjust="spacing" textLength="83" x="516.5" y="1293.5508">Image3DSheet</text><line style="stroke:#A80036;stroke-width:1.5;" x1="488.5" x2="601.5" y1="1304.6406" y2="1304.6406"/><line style="stroke:#A80036;stroke-width:1.5;" x1="488.5" x2="601.5" y1="1312.6406" y2="1312.6406"/><text fill="#000000" font-family="sans-serif" font-size="11" lengthAdjust="spacing" textLength="89" x="493.5" y="1328.0596">path : string (PNG)</text><!--MD5=[a9ece860b0b649ceb50b5f0a9d3af6dc]
class ScalarField--><rect codeLine="25" fill="#FEFECE" filter="url(#f1me3x7pw9ru0y)" height="61.8359" id="ScalarField" style="stroke:#A80036;stroke-width:1.5;" width="94" x="618" y="724.6406"/><ellipse cx="633" cy="740.6406" fill="#ADD1B2" rx="11" ry="11" style="stroke:#A80036;stroke-width:1.0;"/><path d="M635.7656,736.5156 Q635.9219,736.2969 636.1094,736.1875 Q636.2969,736.0781 636.5156,736.0781 Q636.8906,736.0781 637.125,736.3359 Q637.3594,736.5938 637.3594,737.2031 L637.3594,738.6563 Q637.3594,739.2656 637.125,739.5313 Q636.8906,739.7969 636.5156,739.7969 Q636.1719,739.7969 635.9688,739.5938 Q635.7656,739.4063 635.6563,738.8906 Q635.6094,738.5313 635.4219,738.3438 Q635.0938,737.9688 634.4844,737.75 Q633.875,737.5313 633.25,737.5313 Q632.4844,737.5313 631.8516,737.8594 Q631.2188,738.1875 630.7266,738.9375 Q630.2344,739.6875 630.2344,740.7188 L630.2344,741.8125 Q630.2344,743.0469 631.125,743.8672 Q632.0156,744.6875 633.6094,744.6875 Q634.5469,744.6875 635.2031,744.4375 Q635.5938,744.2813 636.0156,743.8438 Q636.2813,743.5781 636.4297,743.5 Q636.5781,743.4219 636.7813,743.4219 Q637.1094,743.4219 637.3672,743.6797 Q637.625,743.9375 637.625,744.2813 Q637.625,744.625 637.2813,745.0313 Q636.7813,745.6094 635.9844,745.9375 Q634.9063,746.3906 633.6094,746.3906 Q632.0938,746.3906 630.8906,745.7656 Q629.9063,745.2656 629.2188,744.1953 Q628.5313,743.125 628.5313,741.8438 L628.5313,740.6875 Q628.5313,739.3594 629.1484,738.2109 Q629.7656,737.0625 630.8594,736.4453 Q631.9531,735.8281 633.1875,735.8281 Q633.9219,735.8281 634.5703,735.9922 Q635.2188,736.1563 635.7656,736.5156 Z " fill="#000000"/><text fill="#000000" font-family="sans-serif" font-size="12" lengthAdjust="spacing" textLength="62" x="647" y="745.5508">ScalarField</text><line style="stroke:#A80036;stroke-width:1.5;" x1="619" x2="711" y1="756.6406" y2="756.6406"/><text fill="#000000" font-family="sans-serif" font-size="11" lengthAdjust="spacing" textLength="67" x="624" y="772.0596">id: resourceID</text><line style="stroke:#A80036;stroke-width:1.5;" x1="619" x2="711" y1="778.4766" y2="778.4766"/><!--MD5=[e245fda10101800b637954752fb5e969]
class ScalarFieldComposed--><rect codeLine="30" fill="#FEFECE" filter="url(#f1me3x7pw9ru0y)" height="131.0156" id="ScalarFieldComposed" style="stroke:#A80036;stroke-width:1.5;" width="157" x="486.5" y="867.6406"/><ellipse cx="501.95" cy="883.6406" fill="#ADD1B2" rx="11" ry="11" style="stroke:#A80036;stroke-width:1.0;"/><path d="M504.7156,879.5156 Q504.8719,879.2969 505.0594,879.1875 Q505.2469,879.0781 505.4656,879.0781 Q505.8406,879.0781 506.075,879.3359 Q506.3094,879.5938 506.3094,880.2031 L506.3094,881.6563 Q506.3094,882.2656 506.075,882.5313 Q505.8406,882.7969 505.4656,882.7969 Q505.1219,882.7969 504.9188,882.5938 Q504.7156,882.4063 504.6063,881.8906 Q504.5594,881.5313 504.3719,881.3438 Q504.0438,880.9688 503.4344,880.75 Q502.825,880.5313 502.2,880.5313 Q501.4344,880.5313 500.8016,880.8594 Q500.1688,881.1875 499.6766,881.9375 Q499.1844,882.6875 499.1844,883.7188 L499.1844,884.8125 Q499.1844,886.0469 500.075,886.8672 Q500.9656,887.6875 502.5594,887.6875 Q503.4969,887.6875 504.1531,887.4375 Q504.5438,887.2813 504.9656,886.8438 Q505.2313,886.5781 505.3797,886.5 Q505.5281,886.4219 505.7313,886.4219 Q506.0594,886.4219 506.3172,886.6797 Q506.575,886.9375 506.575,887.2813 Q506.575,887.625 506.2313,888.0313 Q505.7313,888.6094 504.9344,888.9375 Q503.8563,889.3906 502.5594,889.3906 Q501.0438,889.3906 499.8406,888.7656 Q498.8563,888.2656 498.1688,887.1953 Q497.4813,886.125 497.4813,884.8438 L497.4813,883.6875 Q497.4813,882.3594 498.0984,881.2109 Q498.7156,880.0625 499.8094,879.4453 Q500.9031,878.8281 502.1375,878.8281 Q502.8719,878.8281 503.5203,878.9922 Q504.1688,879.1563 504.7156,879.5156 Z " fill="#000000"/><text fill="#000000" font-family="sans-serif" font-size="12" lengthAdjust="spacing" textLength="124" x="516.05" y="888.5508">ScalarFieldComposed</text><line style="stroke:#A80036;stroke-width:1.5;" x1="487.5" x2="642.5" y1="899.6406" y2="899.6406"/><text fill="#000000" font-family="sans-serif" font-size="11" lengthAdjust="spacing" textLength="97" x="492.5" y="915.0596">blendmethod : string</text><text fill="#000000" font-family="sans-serif" font-size="11" lengthAdjust="spacing" textLength="126" x="492.5" y="928.8955">scalarfield1id : resourceID</text><text fill="#000000" font-family="sans-serif" font-size="11" lengthAdjust="spacing" textLength="126" x="492.5" y="942.7314">scalarfield2id : resourceID</text><text fill="#000000" font-family="sans-serif" font-size="11" lengthAdjust="spacing" textLength="145" x="492.5" y="956.5674">scalarmaskfieldid : resourceID</text><text fill="#000000" font-family="sans-serif" font-size="11" lengthAdjust="spacing" textLength="76" x="492.5" y="970.4033">factor1 : double</text><text fill="#000000" font-family="sans-serif" font-size="11" lengthAdjust="spacing" textLength="76" x="492.5" y="984.2393">factor2 : double</text><line style="stroke:#A80036;stroke-width:1.5;" x1="487.5" x2="642.5" y1="990.6563" y2="990.6563"/><!--MD5=[c0e114045df970bda153c32207fd0c9c]
class ScalarFieldFromImage3D--><rect codeLine="40" fill="#FEFECE" filter="url(#f1me3x7pw9ru0y)" height="172.5234" id="ScalarFieldFromImage3D" style="stroke:#A80036;stroke-width:1.5;" width="174" x="679" y="846.6406"/><ellipse cx="694" cy="862.6406" fill="#ADD1B2" rx="11" ry="11" style="stroke:#A80036;stroke-width:1.0;"/><path d="M696.7656,858.5156 Q696.9219,858.2969 697.1094,858.1875 Q697.2969,858.0781 697.5156,858.0781 Q697.8906,858.0781 698.125,858.3359 Q698.3594,858.5938 698.3594,859.2031 L698.3594,860.6563 Q698.3594,861.2656 698.125,861.5313 Q697.8906,861.7969 697.5156,861.7969 Q697.1719,861.7969 696.9688,861.5938 Q696.7656,861.4063 696.6563,860.8906 Q696.6094,860.5313 696.4219,860.3438 Q696.0938,859.9688 695.4844,859.75 Q694.875,859.5313 694.25,859.5313 Q693.4844,859.5313 692.8516,859.8594 Q692.2188,860.1875 691.7266,860.9375 Q691.2344,861.6875 691.2344,862.7188 L691.2344,863.8125 Q691.2344,865.0469 692.125,865.8672 Q693.0156,866.6875 694.6094,866.6875 Q695.5469,866.6875 696.2031,866.4375 Q696.5938,866.2813 697.0156,865.8438 Q697.2813,865.5781 697.4297,865.5 Q697.5781,865.4219 697.7813,865.4219 Q698.1094,865.4219 698.3672,865.6797 Q698.625,865.9375 698.625,866.2813 Q698.625,866.625 698.2813,867.0313 Q697.7813,867.6094 696.9844,867.9375 Q695.9063,868.3906 694.6094,868.3906 Q693.0938,868.3906 691.8906,867.7656 Q690.9063,867.2656 690.2188,866.1953 Q689.5313,865.125 689.5313,863.8438 L689.5313,862.6875 Q689.5313,861.3594 690.1484,860.2109 Q690.7656,859.0625 691.8594,858.4453 Q692.9531,857.8281 694.1875,857.8281 Q694.9219,857.8281 695.5703,857.9922 Q696.2188,858.1563 696.7656,858.5156 Z " fill="#000000"/><text fill="#000000" font-family="sans-serif" font-size="12" lengthAdjust="spacing" textLength="142" x="708" y="867.5508">ScalarFieldFromImage3D</text><line style="stroke:#A80036;stroke-width:1.5;" x1="680" x2="852" y1="878.6406" y2="878.6406"/><text fill="#000000" font-family="sans-serif" font-size="11" lengthAdjust="spacing" textLength="110" x="685" y="894.0596">image3did : resourceID</text><text fill="#000000" font-family="sans-serif" font-size="11" lengthAdjust="spacing" textLength="74" x="685" y="907.8955">channel : string</text><text fill="#000000" font-family="sans-serif" font-size="11" lengthAdjust="spacing" textLength="82" x="685" y="921.7314">transform: matrix</text><text fill="#000000" font-family="sans-serif" font-size="11" lengthAdjust="spacing" textLength="57" x="685" y="935.5674">filter : string</text><text fill="#000000" font-family="sans-serif" font-size="11" lengthAdjust="spacing" textLength="93" x="685" y="949.4033">valueoffset: double</text><text fill="#000000" font-family="sans-serif" font-size="11" lengthAdjust="spacing" textLength="90" x="685" y="963.2393">valuescale: double</text><text fill="#000000" font-family="sans-serif" font-size="11" lengthAdjust="spacing" textLength="78" x="685" y="977.0752">tilestyleu : string</text><text fill="#000000" font-family="sans-serif" font-size="11" lengthAdjust="spacing" textLength="78" x="685" y="990.9111">tilestylev : string</text><text fill="#000000" font-family="sans-serif" font-size="11" lengthAdjust="spacing" textLength="82" x="685" y="1004.7471">tilestylew : string</text><line style="stroke:#A80036;stroke-width:1.5;" x1="680" x2="852" y1="1011.1641" y2="1011.1641"/><!--MD5=[41f8c580327acedeef39b1c4413de103]
class ColorField--><rect codeLine="59" fill="#FEFECE" filter="url(#f1me3x7pw9ru0y)" height="61.8359" id="ColorField" style="stroke:#A80036;stroke-width:1.5;" width="89" x="270.5" y="395.6406"/><ellipse cx="285.5" cy="411.6406" fill="#ADD1B2" rx="11" ry="11" style="stroke:#A80036;stroke-width:1.0;"/><path d="M288.2656,407.5156 Q288.4219,407.2969 288.6094,407.1875 Q288.7969,407.0781 289.0156,407.0781 Q289.3906,407.0781 289.625,407.3359 Q289.8594,407.5938 289.8594,408.2031 L289.8594,409.6563 Q289.8594,410.2656 289.625,410.5313 Q289.3906,410.7969 289.0156,410.7969 Q288.6719,410.7969 288.4688,410.5938 Q288.2656,410.4063 288.1563,409.8906 Q288.1094,409.5313 287.9219,409.3438 Q287.5938,408.9688 286.9844,408.75 Q286.375,408.5313 285.75,408.5313 Q284.9844,408.5313 284.3516,408.8594 Q283.7188,409.1875 283.2266,409.9375 Q282.7344,410.6875 282.7344,411.7188 L282.7344,412.8125 Q282.7344,414.0469 283.625,414.8672 Q284.5156,415.6875 286.1094,415.6875 Q287.0469,415.6875 287.7031,415.4375 Q288.0938,415.2813 288.5156,414.8438 Q288.7813,414.5781 288.9297,414.5 Q289.0781,414.4219 289.2813,414.4219 Q289.6094,414.4219 289.8672,414.6797 Q290.125,414.9375 290.125,415.2813 Q290.125,415.625 289.7813,416.0313 Q289.2813,416.6094 288.4844,416.9375 Q287.4063,417.3906 286.1094,417.3906 Q284.5938,417.3906 283.3906,416.7656 Q282.4063,416.2656 281.7188,415.1953 Q281.0313,414.125 281.0313,412.8438 L281.0313,411.6875 Q281.0313,410.3594 281.6484,409.2109 Q282.2656,408.0625 283.3594,407.4453 Q284.4531,406.8281 285.6875,406.8281 Q286.4219,406.8281 287.0703,406.9922 Q287.7188,407.1563 288.2656,407.5156 Z " fill="#000000"/><text fill="#000000" font-family="sans-serif" font-size="12" lengthAdjust="spacing" textLength="57" x="299.5" y="416.5508">ColorField</text><line style="stroke:#A80036;stroke-width:1.5;" x1="271.5" x2="358.5" y1="427.6406" y2="427.6406"/><text fill="#000000" font-family="sans-serif" font-size="11" lengthAdjust="spacing" textLength="67" x="276.5" y="443.0596">id: resourceID</text><line style="stroke:#A80036;stroke-width:1.5;" x1="271.5" x2="358.5" y1="449.4766" y2="449.4766"/><!--MD5=[650e034fbc06fac58b4ce8939030dc8b]
class ColorFieldComposed--><rect codeLine="64" fill="#FEFECE" filter="url(#f1me3x7pw9ru0y)" height="131.0156" id="ColorFieldComposed" style="stroke:#A80036;stroke-width:1.5;" width="157" x="236.5" y="517.6406"/><ellipse cx="254.2" cy="533.6406" fill="#ADD1B2" rx="11" ry="11" style="stroke:#A80036;stroke-width:1.0;"/><path d="M256.9656,529.5156 Q257.1219,529.2969 257.3094,529.1875 Q257.4969,529.0781 257.7156,529.0781 Q258.0906,529.0781 258.325,529.3359 Q258.5594,529.5938 258.5594,530.2031 L258.5594,531.6563 Q258.5594,532.2656 258.325,532.5313 Q258.0906,532.7969 257.7156,532.7969 Q257.3719,532.7969 257.1688,532.5938 Q256.9656,532.4063 256.8563,531.8906 Q256.8094,531.5313 256.6219,531.3438 Q256.2938,530.9688 255.6844,530.75 Q255.075,530.5313 254.45,530.5313 Q253.6844,530.5313 253.0516,530.8594 Q252.4188,531.1875 251.9266,531.9375 Q251.4344,532.6875 251.4344,533.7188 L251.4344,534.8125 Q251.4344,536.0469 252.325,536.8672 Q253.2156,537.6875 254.8094,537.6875 Q255.7469,537.6875 256.4031,537.4375 Q256.7938,537.2813 257.2156,536.8438 Q257.4813,536.5781 257.6297,536.5 Q257.7781,536.4219 257.9813,536.4219 Q258.3094,536.4219 258.5672,536.6797 Q258.825,536.9375 258.825,537.2813 Q258.825,537.625 258.4813,538.0313 Q257.9813,538.6094 257.1844,538.9375 Q256.1063,539.3906 254.8094,539.3906 Q253.2938,539.3906 252.0906,538.7656 Q251.1063,538.2656 250.4188,537.1953 Q249.7313,536.125 249.7313,534.8438 L249.7313,533.6875 Q249.7313,532.3594 250.3484,531.2109 Q250.9656,530.0625 252.0594,529.4453 Q253.1531,528.8281 254.3875,528.8281 Q255.1219,528.8281 255.7703,528.9922 Q256.4188,529.1563 256.9656,529.5156 Z " fill="#000000"/><text fill="#000000" font-family="sans-serif" font-size="12" lengthAdjust="spacing" textLength="119" x="268.8" y="538.5508">ColorFieldComposed</text><line style="stroke:#A80036;stroke-width:1.5;" x1="237.5" x2="392.5" y1="549.6406" y2="549.6406"/><text fill="#000000" font-family="sans-serif" font-size="11" lengthAdjust="spacing" textLength="97" x="242.5" y="565.0596">blendmethod : string</text><text fill="#000000" font-family="sans-serif" font-size="11" lengthAdjust="spacing" textLength="120" x="242.5" y="578.8955">colorfield1id : resourceID</text><text fill="#000000" font-family="sans-serif" font-size="11" lengthAdjust="spacing" textLength="120" x="242.5" y="592.7314">colorfield2id : resourceID</text><text fill="#000000" font-family="sans-serif" font-size="11" lengthAdjust="spacing" textLength="145" x="242.5" y="606.5674">scalarmaskfieldid : resourceID</text><text fill="#000000" font-family="sans-serif" font-size="11" lengthAdjust="spacing" textLength="76" x="242.5" y="620.4033">factor1 : double</text><text fill="#000000" font-family="sans-serif" font-size="11" lengthAdjust="spacing" textLength="76" x="242.5" y="634.2393">factor2 : double</text><line style="stroke:#A80036;stroke-width:1.5;" x1="237.5" x2="392.5" y1="640.6563" y2="640.6563"/><!--MD5=[1f60fe70d9419e90e3d6524ce79a2e6f]
class ColorFieldFromImage3D--><rect codeLine="74" fill="#FEFECE" filter="url(#f1me3x7pw9ru0y)" height="131.0156" id="ColorFieldFromImage3D" style="stroke:#A80036;stroke-width:1.5;" width="169" x="32.5" y="517.6406"/><ellipse cx="47.5" cy="533.6406" fill="#ADD1B2" rx="11" ry="11" style="stroke:#A80036;stroke-width:1.0;"/><path d="M50.2656,529.5156 Q50.4219,529.2969 50.6094,529.1875 Q50.7969,529.0781 51.0156,529.0781 Q51.3906,529.0781 51.625,529.3359 Q51.8594,529.5938 51.8594,530.2031 L51.8594,531.6563 Q51.8594,532.2656 51.625,532.5313 Q51.3906,532.7969 51.0156,532.7969 Q50.6719,532.7969 50.4688,532.5938 Q50.2656,532.4063 50.1563,531.8906 Q50.1094,531.5313 49.9219,531.3438 Q49.5938,530.9688 48.9844,530.75 Q48.375,530.5313 47.75,530.5313 Q46.9844,530.5313 46.3516,530.8594 Q45.7188,531.1875 45.2266,531.9375 Q44.7344,532.6875 44.7344,533.7188 L44.7344,534.8125 Q44.7344,536.0469 45.625,536.8672 Q46.5156,537.6875 48.1094,537.6875 Q49.0469,537.6875 49.7031,537.4375 Q50.0938,537.2813 50.5156,536.8438 Q50.7813,536.5781 50.9297,536.5 Q51.0781,536.4219 51.2813,536.4219 Q51.6094,536.4219 51.8672,536.6797 Q52.125,536.9375 52.125,537.2813 Q52.125,537.625 51.7813,538.0313 Q51.2813,538.6094 50.4844,538.9375 Q49.4063,539.3906 48.1094,539.3906 Q46.5938,539.3906 45.3906,538.7656 Q44.4063,538.2656 43.7188,537.1953 Q43.0313,536.125 43.0313,534.8438 L43.0313,533.6875 Q43.0313,532.3594 43.6484,531.2109 Q44.2656,530.0625 45.3594,529.4453 Q46.4531,528.8281 47.6875,528.8281 Q48.4219,528.8281 49.0703,528.9922 Q49.7188,529.1563 50.2656,529.5156 Z " fill="#000000"/><text fill="#000000" font-family="sans-serif" font-size="12" lengthAdjust="spacing" textLength="137" x="61.5" y="538.5508">ColorFieldFromImage3D</text><line style="stroke:#A80036;stroke-width:1.5;" x1="33.5" x2="200.5" y1="549.6406" y2="549.6406"/><text fill="#000000" font-family="sans-serif" font-size="11" lengthAdjust="spacing" textLength="110" x="38.5" y="565.0596">image3did : resourceID</text><text fill="#000000" font-family="sans-serif" font-size="11" lengthAdjust="spacing" textLength="82" x="38.5" y="578.8955">transform: matrix</text><text fill="#000000" font-family="sans-serif" font-size="11" lengthAdjust="spacing" textLength="57" x="38.5" y="592.7314">filter : string</text><text fill="#000000" font-family="sans-serif" font-size="11" lengthAdjust="spacing" textLength="78" x="38.5" y="606.5674">tilestyleu : string</text><text fill="#000000" font-family="sans-serif" font-size="11" lengthAdjust="spacing" textLength="78" x="38.5" y="620.4033">tilestylev : string</text><text fill="#000000" font-family="sans-serif" font-size="11" lengthAdjust="spacing" textLength="82" x="38.5" y="634.2393">tilestylew : string</text><line style="stroke:#A80036;stroke-width:1.5;" x1="33.5" x2="200.5" y1="640.6563" y2="640.6563"/><!--MD5=[e3c611ee9481c32d6958c737645ef343]
class VolumeData--><rect codeLine="91" fill="#FEFECE" filter="url(#f1me3x7pw9ru0y)" height="48" id="VolumeData" style="stroke:#A80036;stroke-width:1.5;" width="100" x="694" y="137.6406"/><ellipse cx="709" cy="153.6406" fill="#ADD1B2" rx="11" ry="11" style="stroke:#A80036;stroke-width:1.0;"/><path d="M711.7656,149.5156 Q711.9219,149.2969 712.1094,149.1875 Q712.2969,149.0781 712.5156,149.0781 Q712.8906,149.0781 713.125,149.3359 Q713.3594,149.5938 713.3594,150.2031 L713.3594,151.6563 Q713.3594,152.2656 713.125,152.5313 Q712.8906,152.7969 712.5156,152.7969 Q712.1719,152.7969 711.9688,152.5938 Q711.7656,152.4063 711.6563,151.8906 Q711.6094,151.5313 711.4219,151.3438 Q711.0938,150.9688 710.4844,150.75 Q709.875,150.5313 709.25,150.5313 Q708.4844,150.5313 707.8516,150.8594 Q707.2188,151.1875 706.7266,151.9375 Q706.2344,152.6875 706.2344,153.7188 L706.2344,154.8125 Q706.2344,156.0469 707.125,156.8672 Q708.0156,157.6875 709.6094,157.6875 Q710.5469,157.6875 711.2031,157.4375 Q711.5938,157.2813 712.0156,156.8438 Q712.2813,156.5781 712.4297,156.5 Q712.5781,156.4219 712.7813,156.4219 Q713.1094,156.4219 713.3672,156.6797 Q713.625,156.9375 713.625,157.2813 Q713.625,157.625 713.2813,158.0313 Q712.7813,158.6094 711.9844,158.9375 Q710.9063,159.3906 709.6094,159.3906 Q708.0938,159.3906 706.8906,158.7656 Q705.9063,158.2656 705.2188,157.1953 Q704.5313,156.125 704.5313,154.8438 L704.5313,153.6875 Q704.5313,152.3594 705.1484,151.2109 Q705.7656,150.0625 706.8594,149.4453 Q707.9531,148.8281 709.1875,148.8281 Q709.9219,148.8281 710.5703,148.9922 Q711.2188,149.1563 711.7656,149.5156 Z " fill="#000000"/><text fill="#000000" font-family="sans-serif" font-size="12" lengthAdjust="spacing" textLength="68" x="723" y="158.5508">VolumeData</text><line style="stroke:#A80036;stroke-width:1.5;" x1="695" x2="793" y1="169.6406" y2="169.6406"/><line style="stroke:#A80036;stroke-width:1.5;" x1="695" x2="793" y1="177.6406" y2="177.6406"/><!--MD5=[d4eea0a2640b0744e449422abbb6da5e]
class Boundary--><rect codeLine="93" fill="#FEFECE" filter="url(#f1me3x7pw9ru0y)" height="89.5078" id="Boundary" style="stroke:#A80036;stroke-width:1.5;" width="124" x="603" y="245.6406"/><ellipse cx="636" cy="261.6406" fill="#ADD1B2" rx="11" ry="11" style="stroke:#A80036;stroke-width:1.0;"/><path d="M638.7656,257.5156 Q638.9219,257.2969 639.1094,257.1875 Q639.2969,257.0781 639.5156,257.0781 Q639.8906,257.0781 640.125,257.3359 Q640.3594,257.5938 640.3594,258.2031 L640.3594,259.6563 Q640.3594,260.2656 640.125,260.5313 Q639.8906,260.7969 639.5156,260.7969 Q639.1719,260.7969 638.9688,260.5938 Q638.7656,260.4063 638.6563,259.8906 Q638.6094,259.5313 638.4219,259.3438 Q638.0938,258.9688 637.4844,258.75 Q636.875,258.5313 636.25,258.5313 Q635.4844,258.5313 634.8516,258.8594 Q634.2188,259.1875 633.7266,259.9375 Q633.2344,260.6875 633.2344,261.7188 L633.2344,262.8125 Q633.2344,264.0469 634.125,264.8672 Q635.0156,265.6875 636.6094,265.6875 Q637.5469,265.6875 638.2031,265.4375 Q638.5938,265.2813 639.0156,264.8438 Q639.2813,264.5781 639.4297,264.5 Q639.5781,264.4219 639.7813,264.4219 Q640.1094,264.4219 640.3672,264.6797 Q640.625,264.9375 640.625,265.2813 Q640.625,265.625 640.2813,266.0313 Q639.7813,266.6094 638.9844,266.9375 Q637.9063,267.3906 636.6094,267.3906 Q635.0938,267.3906 633.8906,266.7656 Q632.9063,266.2656 632.2188,265.1953 Q631.5313,264.125 631.5313,262.8438 L631.5313,261.6875 Q631.5313,260.3594 632.1484,259.2109 Q632.7656,258.0625 633.8594,257.4453 Q634.9531,256.8281 636.1875,256.8281 Q636.9219,256.8281 637.5703,256.9922 Q638.2188,257.1563 638.7656,257.5156 Z " fill="#000000"/><text fill="#000000" font-family="sans-serif" font-size="12" lengthAdjust="spacing" textLength="52" x="654" y="266.5508">Boundary</text><line style="stroke:#A80036;stroke-width:1.5;" x1="604" x2="726" y1="277.6406" y2="277.6406"/><text fill="#000000" font-family="sans-serif" font-size="11" lengthAdjust="spacing" textLength="85" x="609" y="293.0596">transform : matrix</text><text fill="#000000" font-family="sans-serif" font-size="11" lengthAdjust="spacing" textLength="108" x="609" y="306.8955">solidthreshold : double</text><text fill="#000000" font-family="sans-serif" font-size="11" lengthAdjust="spacing" textLength="112" x="609" y="320.7314">scalarfield : resourceID</text><line style="stroke:#A80036;stroke-width:1.5;" x1="604" x2="726" y1="327.1484" y2="327.1484"/><!--MD5=[18eee71c88ab61f27581b8cbdd3ef5ee]
class Color--><rect codeLine="100" fill="#FEFECE" filter="url(#f1me3x7pw9ru0y)" height="75.6719" id="Color" style="stroke:#A80036;stroke-width:1.5;" width="118" x="450" y="252.6406"/><ellipse cx="490.2" cy="268.6406" fill="#ADD1B2" rx="11" ry="11" style="stroke:#A80036;stroke-width:1.0;"/><path d="M492.9656,264.5156 Q493.1219,264.2969 493.3094,264.1875 Q493.4969,264.0781 493.7156,264.0781 Q494.0906,264.0781 494.325,264.3359 Q494.5594,264.5938 494.5594,265.2031 L494.5594,266.6563 Q494.5594,267.2656 494.325,267.5313 Q494.0906,267.7969 493.7156,267.7969 Q493.3719,267.7969 493.1688,267.5938 Q492.9656,267.4063 492.8563,266.8906 Q492.8094,266.5313 492.6219,266.3438 Q492.2938,265.9688 491.6844,265.75 Q491.075,265.5313 490.45,265.5313 Q489.6844,265.5313 489.0516,265.8594 Q488.4188,266.1875 487.9266,266.9375 Q487.4344,267.6875 487.4344,268.7188 L487.4344,269.8125 Q487.4344,271.0469 488.325,271.8672 Q489.2156,272.6875 490.8094,272.6875 Q491.7469,272.6875 492.4031,272.4375 Q492.7938,272.2813 493.2156,271.8438 Q493.4813,271.5781 493.6297,271.5 Q493.7781,271.4219 493.9813,271.4219 Q494.3094,271.4219 494.5672,271.6797 Q494.825,271.9375 494.825,272.2813 Q494.825,272.625 494.4813,273.0313 Q493.9813,273.6094 493.1844,273.9375 Q492.1063,274.3906 490.8094,274.3906 Q489.2938,274.3906 488.0906,273.7656 Q487.1063,273.2656 486.4188,272.1953 Q485.7313,271.125 485.7313,269.8438 L485.7313,268.6875 Q485.7313,267.3594 486.3484,266.2109 Q486.9656,265.0625 488.0594,264.4453 Q489.1531,263.8281 490.3875,263.8281 Q491.1219,263.8281 491.7703,263.9922 Q492.4188,264.1563 492.9656,264.5156 Z " fill="#000000"/><text fill="#000000" font-family="sans-serif" font-size="12" lengthAdjust="spacing" textLength="30" x="509.8" y="273.5508">Color</text><line style="stroke:#A80036;stroke-width:1.5;" x1="451" x2="567" y1="284.6406" y2="284.6406"/><text fill="#000000" font-family="sans-serif" font-size="11" lengthAdjust="spacing" textLength="85" x="456" y="300.0596">transform : matrix</text><text fill="#000000" font-family="sans-serif" font-size="11" lengthAdjust="spacing" textLength="106" x="456" y="313.8955">colorfield : resourceID</text><line style="stroke:#A80036;stroke-width:1.5;" x1="451" x2="567" y1="320.3125" y2="320.3125"/><!--MD5=[6b626634f3bb0842bebd5e499c80b711]
class Property--><rect codeLine="106" fill="#FEFECE" filter="url(#f1me3x7pw9ru0y)" height="89.5078" id="Property" style="stroke:#A80036;stroke-width:1.5;" width="124" x="762" y="245.6406"/><ellipse cx="798.15" cy="261.6406" fill="#ADD1B2" rx="11" ry="11" style="stroke:#A80036;stroke-width:1.0;"/><path d="M800.9156,257.5156 Q801.0719,257.2969 801.2594,257.1875 Q801.4469,257.0781 801.6656,257.0781 Q802.0406,257.0781 802.275,257.3359 Q802.5094,257.5938 802.5094,258.2031 L802.5094,259.6563 Q802.5094,260.2656 802.275,260.5313 Q802.0406,260.7969 801.6656,260.7969 Q801.3219,260.7969 801.1188,260.5938 Q800.9156,260.4063 800.8063,259.8906 Q800.7594,259.5313 800.5719,259.3438 Q800.2438,258.9688 799.6344,258.75 Q799.025,258.5313 798.4,258.5313 Q797.6344,258.5313 797.0016,258.8594 Q796.3688,259.1875 795.8766,259.9375 Q795.3844,260.6875 795.3844,261.7188 L795.3844,262.8125 Q795.3844,264.0469 796.275,264.8672 Q797.1656,265.6875 798.7594,265.6875 Q799.6969,265.6875 800.3531,265.4375 Q800.7438,265.2813 801.1656,264.8438 Q801.4313,264.5781 801.5797,264.5 Q801.7281,264.4219 801.9313,264.4219 Q802.2594,264.4219 802.5172,264.6797 Q802.775,264.9375 802.775,265.2813 Q802.775,265.625 802.4313,266.0313 Q801.9313,266.6094 801.1344,266.9375 Q800.0563,267.3906 798.7594,267.3906 Q797.2438,267.3906 796.0406,266.7656 Q795.0563,266.2656 794.3688,265.1953 Q793.6813,264.125 793.6813,262.8438 L793.6813,261.6875 Q793.6813,260.3594 794.2984,259.2109 Q794.9156,258.0625 796.0094,257.4453 Q797.1031,256.8281 798.3375,256.8281 Q799.0719,256.8281 799.7203,256.9922 Q800.3688,257.1563 800.9156,257.5156 Z " fill="#000000"/><text fill="#000000" font-family="sans-serif" font-size="12" lengthAdjust="spacing" textLength="45" x="816.85" y="266.5508">Property</text><line style="stroke:#A80036;stroke-width:1.5;" x1="763" x2="885" y1="277.6406" y2="277.6406"/><text fill="#000000" font-family="sans-serif" font-size="11" lengthAdjust="spacing" textLength="62" x="768" y="293.0596">name : string</text><text fill="#000000" font-family="sans-serif" font-size="11" lengthAdjust="spacing" textLength="85" x="768" y="306.8955">transform : matrix</text><text fill="#000000" font-family="sans-serif" font-size="11" lengthAdjust="spacing" textLength="112" x="768" y="320.7314">scalarfield : resourceID</text><line style="stroke:#A80036;stroke-width:1.5;" x1="763" x2="885" y1="327.1484" y2="327.1484"/><!--MD5=[73d251a377f173325f21997c77c25ad9]
class Composite--><rect codeLine="113" fill="#FEFECE" filter="url(#f1me3x7pw9ru0y)" height="61.8359" id="Composite" style="stroke:#A80036;stroke-width:1.5;" width="97" x="921.5" y="259.6406"/><ellipse cx="938.3" cy="275.6406" fill="#ADD1B2" rx="11" ry="11" style="stroke:#A80036;stroke-width:1.0;"/><path d="M941.0656,271.5156 Q941.2219,271.2969 941.4094,271.1875 Q941.5969,271.0781 941.8156,271.0781 Q942.1906,271.0781 942.425,271.3359 Q942.6594,271.5938 942.6594,272.2031 L942.6594,273.6563 Q942.6594,274.2656 942.425,274.5313 Q942.1906,274.7969 941.8156,274.7969 Q941.4719,274.7969 941.2688,274.5938 Q941.0656,274.4063 940.9563,273.8906 Q940.9094,273.5313 940.7219,273.3438 Q940.3938,272.9688 939.7844,272.75 Q939.175,272.5313 938.55,272.5313 Q937.7844,272.5313 937.1516,272.8594 Q936.5188,273.1875 936.0266,273.9375 Q935.5344,274.6875 935.5344,275.7188 L935.5344,276.8125 Q935.5344,278.0469 936.425,278.8672 Q937.3156,279.6875 938.9094,279.6875 Q939.8469,279.6875 940.5031,279.4375 Q940.8938,279.2813 941.3156,278.8438 Q941.5813,278.5781 941.7297,278.5 Q941.8781,278.4219 942.0813,278.4219 Q942.4094,278.4219 942.6672,278.6797 Q942.925,278.9375 942.925,279.2813 Q942.925,279.625 942.5813,280.0313 Q942.0813,280.6094 941.2844,280.9375 Q940.2063,281.3906 938.9094,281.3906 Q937.3938,281.3906 936.1906,280.7656 Q935.2063,280.2656 934.5188,279.1953 Q933.8313,278.125 933.8313,276.8438 L933.8313,275.6875 Q933.8313,274.3594 934.4484,273.2109 Q935.0656,272.0625 936.1594,271.4453 Q937.2531,270.8281 938.4875,270.8281 Q939.2219,270.8281 939.8703,270.9922 Q940.5188,271.1563 941.0656,271.5156 Z " fill="#000000"/><text fill="#000000" font-family="sans-serif" font-size="12" lengthAdjust="spacing" textLength="61" x="952.7" y="280.5508">Composite</text><line style="stroke:#A80036;stroke-width:1.5;" x1="922.5" x2="1017.5" y1="291.6406" y2="291.6406"/><text fill="#000000" font-family="sans-serif" font-size="11" lengthAdjust="spacing" textLength="85" x="927.5" y="307.0596">transform : matrix</text><line style="stroke:#A80036;stroke-width:1.5;" x1="922.5" x2="1017.5" y1="313.4766" y2="313.4766"/><!--MD5=[f88bdff07e9ce4b1c4346d0643ca85c4]
class MaterialMapping--><rect codeLine="118" fill="#FEFECE" filter="url(#f1me3x7pw9ru0y)" height="61.8359" id="MaterialMapping" style="stroke:#A80036;stroke-width:1.5;" width="124" x="864" y="395.6406"/><ellipse cx="879.9" cy="411.6406" fill="#ADD1B2" rx="11" ry="11" style="stroke:#A80036;stroke-width:1.0;"/><path d="M882.6656,407.5156 Q882.8219,407.2969 883.0094,407.1875 Q883.1969,407.0781 883.4156,407.0781 Q883.7906,407.0781 884.025,407.3359 Q884.2594,407.5938 884.2594,408.2031 L884.2594,409.6563 Q884.2594,410.2656 884.025,410.5313 Q883.7906,410.7969 883.4156,410.7969 Q883.0719,410.7969 882.8688,410.5938 Q882.6656,410.4063 882.5563,409.8906 Q882.5094,409.5313 882.3219,409.3438 Q881.9938,408.9688 881.3844,408.75 Q880.775,408.5313 880.15,408.5313 Q879.3844,408.5313 878.7516,408.8594 Q878.1188,409.1875 877.6266,409.9375 Q877.1344,410.6875 877.1344,411.7188 L877.1344,412.8125 Q877.1344,414.0469 878.025,414.8672 Q878.9156,415.6875 880.5094,415.6875 Q881.4469,415.6875 882.1031,415.4375 Q882.4938,415.2813 882.9156,414.8438 Q883.1813,414.5781 883.3297,414.5 Q883.4781,414.4219 883.6813,414.4219 Q884.0094,414.4219 884.2672,414.6797 Q884.525,414.9375 884.525,415.2813 Q884.525,415.625 884.1813,416.0313 Q883.6813,416.6094 882.8844,416.9375 Q881.8063,417.3906 880.5094,417.3906 Q878.9938,417.3906 877.7906,416.7656 Q876.8063,416.2656 876.1188,415.1953 Q875.4313,414.125 875.4313,412.8438 L875.4313,411.6875 Q875.4313,410.3594 876.0484,409.2109 Q876.6656,408.0625 877.7594,407.4453 Q878.8531,406.8281 880.0875,406.8281 Q880.8219,406.8281 881.4703,406.9922 Q882.1188,407.1563 882.6656,407.5156 Z " fill="#000000"/><text fill="#000000" font-family="sans-serif" font-size="12" lengthAdjust="spacing" textLength="90" x="894.1" y="416.5508">MaterialMapping</text><line style="stroke:#A80036;stroke-width:1.5;" x1="865" x2="987" y1="427.6406" y2="427.6406"/><text fill="#000000" font-family="sans-serif" font-size="11" lengthAdjust="spacing" textLength="112" x="870" y="443.0596">scalarfield : resourceID</text><line style="stroke:#A80036;stroke-width:1.5;" x1="865" x2="987" y1="449.4766" y2="449.4766"/><!--MD5=[49b4333bed3a745cc53311fcf54bbfcc]
class Mesh--><rect codeLine="135" fill="#FEFECE" filter="url(#f1me3x7pw9ru0y)" height="48" id="Mesh" style="stroke:#A80036;stroke-width:1.5;" width="62" x="713" y="29.6406"/><ellipse cx="728" cy="45.6406" fill="#ADD1B2" rx="11" ry="11" style="stroke:#A80036;stroke-width:1.0;"/><path d="M730.7656,41.5156 Q730.9219,41.2969 731.1094,41.1875 Q731.2969,41.0781 731.5156,41.0781 Q731.8906,41.0781 732.125,41.3359 Q732.3594,41.5938 732.3594,42.2031 L732.3594,43.6563 Q732.3594,44.2656 732.125,44.5313 Q731.8906,44.7969 731.5156,44.7969 Q731.1719,44.7969 730.9688,44.5938 Q730.7656,44.4063 730.6563,43.8906 Q730.6094,43.5313 730.4219,43.3438 Q730.0938,42.9688 729.4844,42.75 Q728.875,42.5313 728.25,42.5313 Q727.4844,42.5313 726.8516,42.8594 Q726.2188,43.1875 725.7266,43.9375 Q725.2344,44.6875 725.2344,45.7188 L725.2344,46.8125 Q725.2344,48.0469 726.125,48.8672 Q727.0156,49.6875 728.6094,49.6875 Q729.5469,49.6875 730.2031,49.4375 Q730.5938,49.2813 731.0156,48.8438 Q731.2813,48.5781 731.4297,48.5 Q731.5781,48.4219 731.7813,48.4219 Q732.1094,48.4219 732.3672,48.6797 Q732.625,48.9375 732.625,49.2813 Q732.625,49.625 732.2813,50.0313 Q731.7813,50.6094 730.9844,50.9375 Q729.9063,51.3906 728.6094,51.3906 Q727.0938,51.3906 725.8906,50.7656 Q724.9063,50.2656 724.2188,49.1953 Q723.5313,48.125 723.5313,46.8438 L723.5313,45.6875 Q723.5313,44.3594 724.1484,43.2109 Q724.7656,42.0625 725.8594,41.4453 Q726.9531,40.8281 728.1875,40.8281 Q728.9219,40.8281 729.5703,40.9922 Q730.2188,41.1563 730.7656,41.5156 Z " fill="#000000"/><text fill="#000000" font-family="sans-serif" font-size="12" lengthAdjust="spacing" textLength="30" x="742" y="50.5508">Mesh</text><line style="stroke:#A80036;stroke-width:1.5;" x1="714" x2="774" y1="61.6406" y2="61.6406"/><line style="stroke:#A80036;stroke-width:1.5;" x1="714" x2="774" y1="69.6406" y2="69.6406"/><!--MD5=[29408d007a2d9b191c0ba16e58d67d03]
reverse link Image3D to Image3DSheet--><path codeLine="20" d="M545,1226.0506 C545,1242.4306 545,1258.9906 545,1272.5106 " fill="none" id="Image3D-backto-Image3DSheet" style="stroke:#A80036;stroke-width:1.0;"/><polygon fill="#A80036" points="545,1213.0106,541,1219.0106,545,1225.0106,549,1219.0106,545,1213.0106" style="stroke:#A80036;stroke-width:1.0;"/><text fill="#000000" font-family="sans-serif" font-size="13" lengthAdjust="spacing" textLength="20" x="522.9375" y="1261.9884">1..*</text><!--MD5=[d74a6c9568e73de12bfd457fb68be540]
reverse link ScalarField to ScalarFieldComposed--><path d="M626.76,803.6706 C614.24,823.2706 600.79,846.3406 589.49,867.4906 " fill="none" id="ScalarField-backto-ScalarFieldComposed" style="stroke:#A80036;stroke-width:1.0;"/><polygon fill="none" points="621.04,799.6306,637.91,786.8106,632.72,807.3506,621.04,799.6306" style="stroke:#A80036;stroke-width:1.0;"/><!--MD5=[0ce7407195f1e97a4358e0d88e9f8442]
reverse link ScalarFieldComposed to ScalarField--><path codeLine="53" d="M621.77,856.0106 C636.14,831.5806 649.79,805.9306 658.29,786.8106 " fill="none" id="ScalarFieldComposed-backto-ScalarField" style="stroke:#A80036;stroke-width:1.0;"/><polygon fill="#FFFFFF" points="614.91,867.4906,621.4205,864.3902,621.0626,857.1879,614.5521,860.2884,614.91,867.4906" style="stroke:#A80036;stroke-width:1.0;"/><text fill="#000000" font-family="sans-serif" font-size="13" lengthAdjust="spacing" textLength="22" x="632.8033" y="808.0681">1..3</text><!--MD5=[18d85fd5566c1e83f368fe4c6f55dd82]
reverse link ScalarField to ScalarFieldFromImage3D--><path d="M692.36,804.1806 C699.91,817.3006 708.35,831.9606 716.74,846.5406 " fill="none" id="ScalarField-backto-ScalarFieldFromImage3D" style="stroke:#A80036;stroke-width:1.0;"/><polygon fill="none" points="686.27,807.6406,682.36,786.8106,698.41,800.6506,686.27,807.6406" style="stroke:#A80036;stroke-width:1.0;"/><!--MD5=[d0ca1c57156342ddea3671c8a339907c]
reverse link ScalarFieldFromImage3D to Image3D--><path codeLine="54" d="M675.39,1029.2106 C670.55,1034.1206 665.73,1038.9506 661,1043.6406 C637.31,1067.1406 610.22,1092.7806 588.18,1113.3406 " fill="none" id="ScalarFieldFromImage3D-backto-Image3D" style="stroke:#A80036;stroke-width:1.0;"/><polygon fill="#FFFFFF" points="684.73,1019.7306,677.6701,1021.1998,676.311,1028.2816,683.3708,1026.8125,684.73,1019.7306" style="stroke:#A80036;stroke-width:1.0;"/><text fill="#000000" font-family="sans-serif" font-size="13" lengthAdjust="spacing" textLength="7" x="595.9114" y="1102.7675">1</text><!--MD5=[60ac920e37a8af9da996d7a4fbfc620e]
reverse link ColorField to ColorFieldComposed--><path d="M302.97,477.7906 C302.27,490.4706 302.08,504.2606 302.4,517.5406 " fill="none" id="ColorField-backto-ColorFieldComposed" style="stroke:#A80036;stroke-width:1.0;"/><polygon fill="none" points="296,477.1406,304.65,457.8006,309.96,478.3106,296,477.1406" style="stroke:#A80036;stroke-width:1.0;"/><!--MD5=[81715878fc50d3fa659cc22a365f7bb7]
reverse link ColorFieldComposed to ColorField--><path codeLine="84" d="M328.5,504.3106 C328.48,487.7606 327.63,471.2406 325.96,457.8006 " fill="none" id="ColorFieldComposed-backto-ColorField" style="stroke:#A80036;stroke-width:1.0;"/><polygon fill="#FFFFFF" points="328.34,517.5406,332.4188,511.5939,328.4982,505.5417,324.4195,511.4884,328.34,517.5406" style="stroke:#A80036;stroke-width:1.0;"/><text fill="#000000" font-family="sans-serif" font-size="13" lengthAdjust="spacing" textLength="7" x="320.4287" y="479.0561">2</text><!--MD5=[5fdd5a7cf42a2b23ca6b460e3a90079a]
reverse link ColorField to ColorFieldFromImage3D--><path d="M260.35,470.2906 C241.62,484.9006 220.23,501.5906 199.79,517.5406 " fill="none" id="ColorField-backto-ColorFieldFromImage3D" style="stroke:#A80036;stroke-width:1.0;"/><polygon fill="none" points="256.28,464.5806,276.35,457.8006,264.89,475.6206,256.28,464.5806" style="stroke:#A80036;stroke-width:1.0;"/><!--MD5=[6b53e7c5bc99a2c1aa5d3d076bb73356]
reverse link ColorFieldComposed to ScalarField--><path codeLine="85" d="M405.53,628.2406 C473.44,661.3206 563.69,705.2906 617.89,731.6906 " fill="none" id="ColorFieldComposed-backto-ScalarField" style="stroke:#A80036;stroke-width:1.0;"/><polygon fill="#FFFFFF" points="393.55,622.4006,397.1891,628.6262,404.3353,627.6614,400.6963,621.4359,393.55,622.4006" style="stroke:#A80036;stroke-width:1.0;"/><text fill="#000000" font-family="sans-serif" font-size="13" lengthAdjust="spacing" textLength="58" x="552.0412" y="725.9175">0..1 mask</text><!--MD5=[ec8c281d81354d98033f58e19b071003]
reverse link ColorFieldFromImage3D to Image3D--><path codeLine="86" d="M173.57,659.3406 C260.23,774.5606 423.99,992.2706 501.82,1095.7306 " fill="none" id="ColorFieldFromImage3D-backto-Image3D" style="stroke:#A80036;stroke-width:1.0;"/><polygon fill="#FFFFFF" points="165.68,648.8606,166.0911,656.06,172.8948,658.4495,172.4837,651.2502,165.68,648.8606" style="stroke:#A80036;stroke-width:1.0;"/><text fill="#000000" font-family="sans-serif" font-size="13" lengthAdjust="spacing" textLength="7" x="488.8391" y="1084.728">1</text><!--MD5=[596a96de2425b35a22199f47a395150b]
reverse link VolumeData to Boundary--><path codeLine="123" d="M722.51,197.1906 C713.26,212.0606 702.33,229.6206 692.51,245.4206 " fill="none" id="VolumeData-backto-Boundary" style="stroke:#A80036;stroke-width:1.0;"/><polygon fill="#A80036" points="729.51,185.9306,722.9439,188.9116,723.1702,196.1192,729.7363,193.1382,729.51,185.9306" style="stroke:#A80036;stroke-width:1.0;"/><text fill="#000000" font-family="sans-serif" font-size="13" lengthAdjust="spacing" textLength="22" x="673.0381" y="234.831">0..1</text><!--MD5=[c876c77ee3f6615e576b216c5ad84481]
reverse link VolumeData to Color--><path codeLine="124" d="M687.55,191.6806 C657.29,207.4006 619.46,227.3006 586,245.6406 C580.19,248.8206 574.17,252.1806 568.16,255.5606 " fill="none" id="VolumeData-backto-Color" style="stroke:#A80036;stroke-width:1.0;"/><polygon fill="#A80036" points="699.17,185.6506,692.0022,184.8618,688.5171,191.1748,695.685,191.9637,699.17,185.6506" style="stroke:#A80036;stroke-width:1.0;"/><text fill="#000000" font-family="sans-serif" font-size="13" lengthAdjust="spacing" textLength="22" x="575.8338" y="248.381">0..1</text><!--MD5=[926977b86265bf8127817610d5ce8d65]
reverse link VolumeData to Property--><path codeLine="125" d="M765.77,197.1906 C775.13,212.0606 786.19,229.6206 796.15,245.4206 " fill="none" id="VolumeData-backto-Property" style="stroke:#A80036;stroke-width:1.0;"/><polygon fill="#A80036" points="758.67,185.9306,758.4832,193.1393,765.0655,196.0843,765.2523,188.8756,758.67,185.9306" style="stroke:#A80036;stroke-width:1.0;"/><text fill="#000000" font-family="sans-serif" font-size="13" lengthAdjust="spacing" textLength="20" x="770.3542" y="234.831">0..*</text><!--MD5=[55cd580e7d15a57c2d6990dd7c17c6c7]
reverse link VolumeData to Composite--><path codeLine="126" d="M803.39,191.5006 C833.9,206.8106 871.41,226.4006 904,245.6406 C911.35,249.9806 919.02,254.8006 926.41,259.6106 " fill="none" id="VolumeData-backto-Composite" style="stroke:#A80036;stroke-width:1.0;"/><polygon fill="#A80036" points="791.64,185.6406,795.2269,191.8963,802.381,190.9914,798.7941,184.7357,791.64,185.6406" style="stroke:#A80036;stroke-width:1.0;"/><text fill="#000000" font-family="sans-serif" font-size="13" lengthAdjust="spacing" textLength="22" x="892.4684" y="248.6243">0..1</text><!--MD5=[c5bc44bdff8ae1d90e6600406b8615c7]
reverse link Composite to MaterialMapping--><path codeLine="127" d="M956.03,334.1806 C949.52,354.0106 941.92,377.1606 935.99,395.2006 " fill="none" id="Composite-backto-MaterialMapping" style="stroke:#A80036;stroke-width:1.0;"/><polygon fill="#A80036" points="960.13,321.7106,954.4564,326.1615,956.3828,333.1106,962.0564,328.6597,960.13,321.7106" style="stroke:#A80036;stroke-width:1.0;"/><text fill="#000000" font-family="sans-serif" font-size="13" lengthAdjust="spacing" textLength="20" x="915.9879" y="384.6144">1..*</text><!--MD5=[0366305a9aa6e9db4f13f1d47531dbd6]
reverse link Boundary to ScalarField--><path codeLine="129" d="M665,349.0606 C665,448.3006 665,648.5706 665,724.5106 " fill="none" id="Boundary-backto-ScalarField" style="stroke:#A80036;stroke-width:1.0;"/><polygon fill="#FFFFFF" points="665,336.0306,661,342.0306,665,348.0306,669,342.0306,665,336.0306" style="stroke:#A80036;stroke-width:1.0;"/><text fill="#000000" font-family="sans-serif" font-size="13" lengthAdjust="spacing" textLength="7" x="657.2781" y="713.9884">1</text><!--MD5=[38cd457d94d72759ebb6c0cfbf95a659]
reverse link Color to ColorField--><path codeLine="130" d="M444.23,336.3806 C416.01,355.8706 383.7,378.1906 358.44,395.6406 " fill="none" id="Color-backto-ColorField" style="stroke:#A80036;stroke-width:1.0;"/><polygon fill="#FFFFFF" points="455.22,328.7906,448.0098,328.9071,445.3442,335.6074,452.5544,335.491,455.22,328.7906" style="stroke:#A80036;stroke-width:1.0;"/><text fill="#000000" font-family="sans-serif" font-size="13" lengthAdjust="spacing" textLength="7" x="360.1769" y="384.6609">1</text><!--MD5=[ab73c9575a28518aec1dc8dfa9c040e4]
reverse link Property to ScalarField--><path codeLine="131" d="M804.49,348.4506 C770.48,447.4806 701.48,648.4106 675.35,724.5106 " fill="none" id="Property-backto-ScalarField" style="stroke:#A80036;stroke-width:1.0;"/><polygon fill="#FFFFFF" points="808.75,336.0306,803.0166,340.4042,804.8487,347.3787,810.582,343.0051,808.75,336.0306" style="stroke:#A80036;stroke-width:1.0;"/><text fill="#000000" font-family="sans-serif" font-size="13" lengthAdjust="spacing" textLength="7" x="669.7628" y="713.9884">1</text><!--MD5=[6fd7e8cbba2f10ef908d5dd2560dbd01]
reverse link MaterialMapping to ScalarField--><path codeLine="132" d="M913.63,470.2706 C896.57,522.9906 861.49,613.0406 806,672.6406 C779.95,700.6206 742.16,721.8906 712.26,735.7506 " fill="none" id="MaterialMapping-backto-ScalarField" style="stroke:#A80036;stroke-width:1.0;"/><polygon fill="#FFFFFF" points="917.58,457.7106,911.9641,462.2341,913.9797,469.1578,919.5956,464.6343,917.58,457.7106" style="stroke:#A80036;stroke-width:1.0;"/><text fill="#000000" font-family="sans-serif" font-size="13" lengthAdjust="spacing" textLength="7" x="720.0326" y="729.0146">1</text><!--MD5=[c9df3e22c29f3c34d5c54bbb3658528e]
reverse link Mesh to VolumeData--><path codeLine="136" d="M744,90.9806 C744,106.3206 744,123.7406 744,137.3206 " fill="none" id="Mesh-backto-VolumeData" style="stroke:#A80036;stroke-width:1.0;"/><polygon fill="#A80036" points="744,77.6406,740,83.6406,744,89.6406,748,83.6406,744,77.6406" style="stroke:#A80036;stroke-width:1.0;"/><!--MD5=[e621b4ebe6ba3982269d9701bacf26d3]
@startuml

title 3MF Volumetric Color & Scalar Fields

package Image
{
    Class Image3D
    {
        id : resourceID
        name : string
        rowcount : int
        colcount : int
        sheetcount : int
    }

    Class Image3DSheet
    {
        path : string (PNG)
    }

    Image3D *- - "1..*" Image3DSheet
}

package ScalarFields
{
    Class ScalarField
    {
        id: resourceID
    }

    Class ScalarFieldComposed extends ScalarField
    {
        blendmethod : string
        scalarfield1id : resourceID
        scalarfield2id : resourceID
        scalarmaskfieldid : resourceID
        factor1 : double
        factor2 : double
    }

    Class ScalarFieldFromImage3D extends ScalarField
    {
        image3did : resourceID
        channel : string
        transform: matrix
        filter : string
        valueoffset: double
        valuescale: double
        tilestyleu : string
        tilestylev : string
        tilestylew : string
    }

    ScalarFieldComposed o- - "1..3" ScalarField
    ScalarFieldFromImage3D o- - "1" Image3D
}

package ColorFields
{
    Class ColorField
    {
        id: resourceID
    }

    Class ColorFieldComposed extends ColorField
    {
        blendmethod : string
        colorfield1id : resourceID
        colorfield2id : resourceID
        scalarmaskfieldid : resourceID
        factor1 : double
        factor2 : double
    }

    Class ColorFieldFromImage3D extends ColorField
    {
        image3did : resourceID
        transform: matrix
        filter : string
        tilestyleu : string
        tilestylev : string
        tilestylew : string
    }

    ColorFieldComposed o- - "2" ColorField
    ColorFieldComposed o- - "0..1 mask" ScalarField
    ColorFieldFromImage3D o- - "1" Image3D
}

package VolumetricData
{
    Class VolumeData

    Class Boundary
    {
        transform : matrix
        solidthreshold : double
        scalarfield : resourceID
    }

    Class Color
    {
        transform : matrix
        colorfield : resourceID
    }

    Class Property
    {
        name : string
        transform : matrix
        scalarfield : resourceID
    }

    Class Composite
    {
        transform : matrix
    }

    Class MaterialMapping
    {
        scalarfield : resourceID
    }        

    VolumeData *- - "0..1" Boundary
    VolumeData *- - "0..1" Color
    VolumeData *- - "0..*" Property
    VolumeData *- - "0..1" Composite
    Composite *- - "1..*" MaterialMapping

    Boundary o- - "1" ScalarField
    Color o- - "1" ColorField
    Property o- - "1" ScalarField
    MaterialMapping o- - "1" ScalarField
}

Class Mesh
Mesh *- - VolumeData

@end

PlantUML version 1.2021.14(Fri Nov 12 17:46:50 CET 2021)
(GPL source distribution)
Java Runtime: Java(TM) SE Runtime Environment
JVM: Java HotSpot(TM) Client VM
Default Encoding: Cp1252
Language: en
Country: US
--></g></svg>