<?xml version="1.0" encoding="UTF-8" standalone="no"?><svg xmlns="http://www.w3.org/2000/svg" xmlns:xlink="http://www.w3.org/1999/xlink" contentScriptType="application/ecmascript" contentStyleType="text/css" height="1549px" preserveAspectRatio="none" style="width:1340px;height:1549px;background:#FFFFFF;" version="1.1" viewBox="0 0 1340 1549" width="1340px" zoomAndPan="magnify"><defs><filter height="300%" id="f1qsx3gh0h40or" width="300%" x="-1" y="-1"><feGaussianBlur result="blurOut" stdDeviation="2.0"/><feColorMatrix in="blurOut" result="blurOut2" type="matrix" values="0 0 0 0 0 0 0 0 0 0 0 0 0 0 0 0 0 0 .4 0"/><feOffset dx="4.0" dy="4.0" in="blurOut2" result="blurOut3"/><feBlend in="SourceGraphic" in2="blurOut3" mode="normal"/></filter></defs><g><text fill="#000000" font-family="sans-serif" font-size="18" lengthAdjust="spacing" textLength="335" x="496" y="18.6855">3MF Volumetric 3D-Vector &amp; Scalar Fields</text><!--MD5=[ccbbf86d4e3999496951ea9f45d6e329]
cluster Image3D--><polygon fill="#FFFFFF" filter="url(#f1qsx3gh0h40or)" points="575,1142.6406,641,1142.6406,648,1166.25,709,1166.25,709,1542.6406,575,1542.6406,575,1142.6406" style="stroke:#000000;stroke-width:1.5;"/><line style="stroke:#000000;stroke-width:1.5;" x1="575" x2="648" y1="1166.25" y2="1166.25"/><text fill="#000000" font-family="sans-serif" font-size="14" font-weight="bold" lengthAdjust="spacing" textLength="60" x="579" y="1159.1738">Image3D</text><!--MD5=[4271d62f1c23f0ffdcc326a1f059de29]
cluster ScalarFields--><polygon fill="#FFFFFF" filter="url(#f1qsx3gh0h40or)" points="629,757.6406,721,757.6406,728,781.25,1207,781.25,1207,1118.6406,629,1118.6406,629,757.6406" style="stroke:#000000;stroke-width:1.5;"/><line style="stroke:#000000;stroke-width:1.5;" x1="629" x2="728" y1="781.25" y2="781.25"/><text fill="#000000" font-family="sans-serif" font-size="14" font-weight="bold" lengthAdjust="spacing" textLength="86" x="633" y="774.1738">ScalarFields</text><!--MD5=[9b7c9489c8c7ef081ff8ce48b316676c]
cluster Vector3DFields--><polygon fill="#FFFFFF" filter="url(#f1qsx3gh0h40or)" points="16,359.6406,129,359.6406,136,383.25,638,383.25,638,733.6406,16,733.6406,16,359.6406" style="stroke:#000000;stroke-width:1.5;"/><line style="stroke:#000000;stroke-width:1.5;" x1="16" x2="136" y1="383.25" y2="383.25"/><text fill="#000000" font-family="sans-serif" font-size="14" font-weight="bold" lengthAdjust="spacing" textLength="107" x="20" y="376.1738">Vector3DFields</text><!--MD5=[e7c49030d54697640c80764a1a9ef766]
cluster VolumetricData--><polygon fill="#FFFFFF" filter="url(#f1qsx3gh0h40or)" points="662,101.6406,774,101.6406,781,125.25,1323,125.25,1323,487.6406,662,487.6406,662,101.6406" style="stroke:#000000;stroke-width:1.5;"/><line style="stroke:#000000;stroke-width:1.5;" x1="662" x2="781" y1="125.25" y2="125.25"/><text fill="#000000" font-family="sans-serif" font-size="14" font-weight="bold" lengthAdjust="spacing" textLength="106" x="666" y="118.1738">VolumetricData</text><!--MD5=[b4808b9c5cf5b1233870d442f2cd9dfd]
class Image3D--><rect codeLine="6" fill="#FEFECE" filter="url(#f1qsx3gh0h40or)" height="75.6719" id="Image3D" style="stroke:#A80036;stroke-width:1.5;" width="83" x="600.5" y="1178.6406"/><ellipse cx="615.5" cy="1194.6406" fill="#ADD1B2" rx="11" ry="11" style="stroke:#A80036;stroke-width:1.0;"/><path d="M618.2656,1190.5156 Q618.4219,1190.2969 618.6094,1190.1875 Q618.7969,1190.0781 619.0156,1190.0781 Q619.3906,1190.0781 619.625,1190.3438 Q619.8594,1190.5938 619.8594,1191.2031 L619.8594,1192.6563 Q619.8594,1193.2656 619.625,1193.5313 Q619.3906,1193.7969 619.0156,1193.7969 Q618.6719,1193.7969 618.4688,1193.5938 Q618.2656,1193.4063 618.1563,1192.8906 Q618.1094,1192.5313 617.9219,1192.3438 Q617.5938,1191.9688 616.9844,1191.75 Q616.375,1191.5313 615.75,1191.5313 Q614.9844,1191.5313 614.3438,1191.8594 Q613.7188,1192.1875 613.2188,1192.9375 Q612.7344,1193.6875 612.7344,1194.7188 L612.7344,1195.8125 Q612.7344,1197.0469 613.625,1197.875 Q614.5156,1198.6875 616.1094,1198.6875 Q617.0469,1198.6875 617.7031,1198.4375 Q618.0938,1198.2813 618.5156,1197.8438 Q618.7813,1197.5781 618.9219,1197.5 Q619.0781,1197.4219 619.2813,1197.4219 Q619.6094,1197.4219 619.8594,1197.6875 Q620.125,1197.9375 620.125,1198.2813 Q620.125,1198.625 619.7813,1199.0313 Q619.2813,1199.6094 618.4844,1199.9375 Q617.4063,1200.3906 616.1094,1200.3906 Q614.5938,1200.3906 613.3906,1199.7656 Q612.4063,1199.2656 611.7188,1198.2031 Q611.0313,1197.125 611.0313,1195.8438 L611.0313,1194.6875 Q611.0313,1193.3594 611.6406,1192.2188 Q612.2656,1191.0625 613.3594,1190.4531 Q614.4531,1189.8281 615.6875,1189.8281 Q616.4219,1189.8281 617.0625,1190 Q617.7188,1190.1563 618.2656,1190.5156 Z " fill="#000000"/><text fill="#000000" font-family="sans-serif" font-size="12" lengthAdjust="spacing" textLength="51" x="629.5" y="1199.5508">Image3D</text><line style="stroke:#A80036;stroke-width:1.5;" x1="601.5" x2="682.5" y1="1210.6406" y2="1210.6406"/><text fill="#000000" font-family="sans-serif" font-size="11" lengthAdjust="spacing" textLength="70" x="606.5" y="1226.0596">id : resourceID</text><text fill="#000000" font-family="sans-serif" font-size="11" lengthAdjust="spacing" textLength="62" x="606.5" y="1239.8955">name : string</text><line style="stroke:#A80036;stroke-width:1.5;" x1="601.5" x2="682.5" y1="1246.3125" y2="1246.3125"/><!--MD5=[5209d00a85aa7ef595786af23bff32f7]
class ImageStack--><rect codeLine="12" fill="#FEFECE" filter="url(#f1qsx3gh0h40or)" height="89.5078" id="ImageStack" style="stroke:#A80036;stroke-width:1.5;" width="97" x="593.5" y="1314.6406"/><ellipse cx="608.5" cy="1330.6406" fill="#ADD1B2" rx="11" ry="11" style="stroke:#A80036;stroke-width:1.0;"/><path d="M611.2656,1326.5156 Q611.4219,1326.2969 611.6094,1326.1875 Q611.7969,1326.0781 612.0156,1326.0781 Q612.3906,1326.0781 612.625,1326.3438 Q612.8594,1326.5938 612.8594,1327.2031 L612.8594,1328.6563 Q612.8594,1329.2656 612.625,1329.5313 Q612.3906,1329.7969 612.0156,1329.7969 Q611.6719,1329.7969 611.4688,1329.5938 Q611.2656,1329.4063 611.1563,1328.8906 Q611.1094,1328.5313 610.9219,1328.3438 Q610.5938,1327.9688 609.9844,1327.75 Q609.375,1327.5313 608.75,1327.5313 Q607.9844,1327.5313 607.3438,1327.8594 Q606.7188,1328.1875 606.2188,1328.9375 Q605.7344,1329.6875 605.7344,1330.7188 L605.7344,1331.8125 Q605.7344,1333.0469 606.625,1333.875 Q607.5156,1334.6875 609.1094,1334.6875 Q610.0469,1334.6875 610.7031,1334.4375 Q611.0938,1334.2813 611.5156,1333.8438 Q611.7813,1333.5781 611.9219,1333.5 Q612.0781,1333.4219 612.2813,1333.4219 Q612.6094,1333.4219 612.8594,1333.6875 Q613.125,1333.9375 613.125,1334.2813 Q613.125,1334.625 612.7813,1335.0313 Q612.2813,1335.6094 611.4844,1335.9375 Q610.4063,1336.3906 609.1094,1336.3906 Q607.5938,1336.3906 606.3906,1335.7656 Q605.4063,1335.2656 604.7188,1334.2031 Q604.0313,1333.125 604.0313,1331.8438 L604.0313,1330.6875 Q604.0313,1329.3594 604.6406,1328.2188 Q605.2656,1327.0625 606.3594,1326.4531 Q607.4531,1325.8281 608.6875,1325.8281 Q609.4219,1325.8281 610.0625,1326 Q610.7188,1326.1563 611.2656,1326.5156 Z " fill="#000000"/><text fill="#000000" font-family="sans-serif" font-size="12" lengthAdjust="spacing" textLength="65" x="622.5" y="1335.5508">ImageStack</text><line style="stroke:#A80036;stroke-width:1.5;" x1="594.5" x2="689.5" y1="1346.6406" y2="1346.6406"/><text fill="#000000" font-family="sans-serif" font-size="11" lengthAdjust="spacing" textLength="67" x="599.5" y="1362.0596">rowcount : int</text><text fill="#000000" font-family="sans-serif" font-size="11" lengthAdjust="spacing" textLength="61" x="599.5" y="1375.8955">colcount : int</text><text fill="#000000" font-family="sans-serif" font-size="11" lengthAdjust="spacing" textLength="74" x="599.5" y="1389.7314">sheetcount : int</text><line style="stroke:#A80036;stroke-width:1.5;" x1="594.5" x2="689.5" y1="1396.1484" y2="1396.1484"/><!--MD5=[50b62f71815e52b1c34efb5630645aa3]
class ImageSheet--><rect codeLine="19" fill="#FEFECE" filter="url(#f1qsx3gh0h40or)" height="61.8359" id="ImageSheet" style="stroke:#A80036;stroke-width:1.5;" width="101" x="591.5" y="1464.6406"/><ellipse cx="607.4" cy="1480.6406" fill="#ADD1B2" rx="11" ry="11" style="stroke:#A80036;stroke-width:1.0;"/><path d="M610.1656,1476.5156 Q610.3219,1476.2969 610.5094,1476.1875 Q610.6969,1476.0781 610.9156,1476.0781 Q611.2906,1476.0781 611.525,1476.3438 Q611.7594,1476.5938 611.7594,1477.2031 L611.7594,1478.6563 Q611.7594,1479.2656 611.525,1479.5313 Q611.2906,1479.7969 610.9156,1479.7969 Q610.5719,1479.7969 610.3688,1479.5938 Q610.1656,1479.4063 610.0563,1478.8906 Q610.0094,1478.5313 609.8219,1478.3438 Q609.4938,1477.9688 608.8844,1477.75 Q608.275,1477.5313 607.65,1477.5313 Q606.8844,1477.5313 606.2438,1477.8594 Q605.6188,1478.1875 605.1188,1478.9375 Q604.6344,1479.6875 604.6344,1480.7188 L604.6344,1481.8125 Q604.6344,1483.0469 605.525,1483.875 Q606.4156,1484.6875 608.0094,1484.6875 Q608.9469,1484.6875 609.6031,1484.4375 Q609.9938,1484.2813 610.4156,1483.8438 Q610.6813,1483.5781 610.8219,1483.5 Q610.9781,1483.4219 611.1813,1483.4219 Q611.5094,1483.4219 611.7594,1483.6875 Q612.025,1483.9375 612.025,1484.2813 Q612.025,1484.625 611.6813,1485.0313 Q611.1813,1485.6094 610.3844,1485.9375 Q609.3063,1486.3906 608.0094,1486.3906 Q606.4938,1486.3906 605.2906,1485.7656 Q604.3063,1485.2656 603.6188,1484.2031 Q602.9313,1483.125 602.9313,1481.8438 L602.9313,1480.6875 Q602.9313,1479.3594 603.5406,1478.2188 Q604.1656,1477.0625 605.2594,1476.4531 Q606.3531,1475.8281 607.5875,1475.8281 Q608.3219,1475.8281 608.9625,1476 Q609.6188,1476.1563 610.1656,1476.5156 Z " fill="#000000"/><text fill="#000000" font-family="sans-serif" font-size="12" lengthAdjust="spacing" textLength="67" x="621.6" y="1485.5508">ImageSheet</text><line style="stroke:#A80036;stroke-width:1.5;" x1="592.5" x2="691.5" y1="1496.6406" y2="1496.6406"/><line style="stroke:#A80036;stroke-width:1.5;" x1="592.5" x2="691.5" y1="1504.6406" y2="1504.6406"/><text fill="#000000" font-family="sans-serif" font-size="11" lengthAdjust="spacing" textLength="89" x="597.5" y="1520.0596">path : string (PNG)</text><!--MD5=[a9ece860b0b649ceb50b5f0a9d3af6dc]
class ScalarField--><rect codeLine="29" fill="#FEFECE" filter="url(#f1qsx3gh0h40or)" height="75.6719" id="ScalarField" style="stroke:#A80036;stroke-width:1.5;" width="94" x="878" y="793.6406"/><ellipse cx="893" cy="809.6406" fill="#ADD1B2" rx="11" ry="11" style="stroke:#A80036;stroke-width:1.0;"/><path d="M895.7656,805.5156 Q895.9219,805.2969 896.1094,805.1875 Q896.2969,805.0781 896.5156,805.0781 Q896.8906,805.0781 897.125,805.3438 Q897.3594,805.5938 897.3594,806.2031 L897.3594,807.6563 Q897.3594,808.2656 897.125,808.5313 Q896.8906,808.7969 896.5156,808.7969 Q896.1719,808.7969 895.9688,808.5938 Q895.7656,808.4063 895.6563,807.8906 Q895.6094,807.5313 895.4219,807.3438 Q895.0938,806.9688 894.4844,806.75 Q893.875,806.5313 893.25,806.5313 Q892.4844,806.5313 891.8438,806.8594 Q891.2188,807.1875 890.7188,807.9375 Q890.2344,808.6875 890.2344,809.7188 L890.2344,810.8125 Q890.2344,812.0469 891.125,812.875 Q892.0156,813.6875 893.6094,813.6875 Q894.5469,813.6875 895.2031,813.4375 Q895.5938,813.2813 896.0156,812.8438 Q896.2813,812.5781 896.4219,812.5 Q896.5781,812.4219 896.7813,812.4219 Q897.1094,812.4219 897.3594,812.6875 Q897.625,812.9375 897.625,813.2813 Q897.625,813.625 897.2813,814.0313 Q896.7813,814.6094 895.9844,814.9375 Q894.9063,815.3906 893.6094,815.3906 Q892.0938,815.3906 890.8906,814.7656 Q889.9063,814.2656 889.2188,813.2031 Q888.5313,812.125 888.5313,810.8438 L888.5313,809.6875 Q888.5313,808.3594 889.1406,807.2188 Q889.7656,806.0625 890.8594,805.4531 Q891.9531,804.8281 893.1875,804.8281 Q893.9219,804.8281 894.5625,805 Q895.2188,805.1563 895.7656,805.5156 Z " fill="#000000"/><text fill="#000000" font-family="sans-serif" font-size="12" lengthAdjust="spacing" textLength="62" x="907" y="814.5508">ScalarField</text><line style="stroke:#A80036;stroke-width:1.5;" x1="879" x2="971" y1="825.6406" y2="825.6406"/><text fill="#000000" font-family="sans-serif" font-size="11" lengthAdjust="spacing" textLength="67" x="884" y="841.0596">id: resourceID</text><text fill="#000000" font-family="sans-serif" font-size="11" lengthAdjust="spacing" textLength="59" x="884" y="854.8955">name: string</text><line style="stroke:#A80036;stroke-width:1.5;" x1="879" x2="971" y1="861.3125" y2="861.3125"/><!--MD5=[e245fda10101800b637954752fb5e969]
class ScalarFieldComposed--><rect codeLine="35" fill="#FEFECE" filter="url(#f1qsx3gh0h40or)" height="172.5234" id="ScalarFieldComposed" style="stroke:#A80036;stroke-width:1.5;" width="157" x="645.5" y="929.6406"/><ellipse cx="660.95" cy="945.6406" fill="#ADD1B2" rx="11" ry="11" style="stroke:#A80036;stroke-width:1.0;"/><path d="M663.7156,941.5156 Q663.8719,941.2969 664.0594,941.1875 Q664.2469,941.0781 664.4656,941.0781 Q664.8406,941.0781 665.075,941.3438 Q665.3094,941.5938 665.3094,942.2031 L665.3094,943.6563 Q665.3094,944.2656 665.075,944.5313 Q664.8406,944.7969 664.4656,944.7969 Q664.1219,944.7969 663.9188,944.5938 Q663.7156,944.4063 663.6063,943.8906 Q663.5594,943.5313 663.3719,943.3438 Q663.0438,942.9688 662.4344,942.75 Q661.825,942.5313 661.2,942.5313 Q660.4344,942.5313 659.7938,942.8594 Q659.1688,943.1875 658.6688,943.9375 Q658.1844,944.6875 658.1844,945.7188 L658.1844,946.8125 Q658.1844,948.0469 659.075,948.875 Q659.9656,949.6875 661.5594,949.6875 Q662.4969,949.6875 663.1531,949.4375 Q663.5438,949.2813 663.9656,948.8438 Q664.2313,948.5781 664.3719,948.5 Q664.5281,948.4219 664.7313,948.4219 Q665.0594,948.4219 665.3094,948.6875 Q665.575,948.9375 665.575,949.2813 Q665.575,949.625 665.2313,950.0313 Q664.7313,950.6094 663.9344,950.9375 Q662.8563,951.3906 661.5594,951.3906 Q660.0438,951.3906 658.8406,950.7656 Q657.8563,950.2656 657.1688,949.2031 Q656.4813,948.125 656.4813,946.8438 L656.4813,945.6875 Q656.4813,944.3594 657.0906,943.2188 Q657.7156,942.0625 658.8094,941.4531 Q659.9031,940.8281 661.1375,940.8281 Q661.8719,940.8281 662.5125,941 Q663.1688,941.1563 663.7156,941.5156 Z " fill="#000000"/><text fill="#000000" font-family="sans-serif" font-size="12" lengthAdjust="spacing" textLength="124" x="675.05" y="950.5508">ScalarFieldComposed</text><line style="stroke:#A80036;stroke-width:1.5;" x1="646.5" x2="801.5" y1="961.6406" y2="961.6406"/><text fill="#000000" font-family="sans-serif" font-size="11" lengthAdjust="spacing" textLength="71" x="651.5" y="977.0596">method : string</text><text fill="#000000" font-family="sans-serif" font-size="11" lengthAdjust="spacing" textLength="126" x="651.5" y="990.8955">scalarfield1id : resourceID</text><text fill="#000000" font-family="sans-serif" font-size="11" lengthAdjust="spacing" textLength="126" x="651.5" y="1004.7314">scalarfield2id : resourceID</text><text fill="#000000" font-family="sans-serif" font-size="11" lengthAdjust="spacing" textLength="145" x="651.5" y="1018.5674">scalarmaskfieldid : resourceID</text><text fill="#000000" font-family="sans-serif" font-size="11" lengthAdjust="spacing" textLength="76" x="651.5" y="1032.4033">factor1 : double</text><text fill="#000000" font-family="sans-serif" font-size="11" lengthAdjust="spacing" textLength="76" x="651.5" y="1046.2393">factor2 : double</text><text fill="#000000" font-family="sans-serif" font-size="11" lengthAdjust="spacing" textLength="109" x="651.5" y="1060.0752">transform1 : transform</text><text fill="#000000" font-family="sans-serif" font-size="11" lengthAdjust="spacing" textLength="109" x="651.5" y="1073.9111">transform2 : transform</text><text fill="#000000" font-family="sans-serif" font-size="11" lengthAdjust="spacing" textLength="128" x="651.5" y="1087.7471">transformmask : transform</text><line style="stroke:#A80036;stroke-width:1.5;" x1="646.5" x2="801.5" y1="1094.1641" y2="1094.1641"/><!--MD5=[c0e114045df970bda153c32207fd0c9c]
class ScalarFieldFromImage3D--><rect codeLine="48" fill="#FEFECE" filter="url(#f1qsx3gh0h40or)" height="158.6875" id="ScalarFieldFromImage3D" style="stroke:#A80036;stroke-width:1.5;" width="174" x="838" y="936.6406"/><ellipse cx="853" cy="952.6406" fill="#ADD1B2" rx="11" ry="11" style="stroke:#A80036;stroke-width:1.0;"/><path d="M855.7656,948.5156 Q855.9219,948.2969 856.1094,948.1875 Q856.2969,948.0781 856.5156,948.0781 Q856.8906,948.0781 857.125,948.3438 Q857.3594,948.5938 857.3594,949.2031 L857.3594,950.6563 Q857.3594,951.2656 857.125,951.5313 Q856.8906,951.7969 856.5156,951.7969 Q856.1719,951.7969 855.9688,951.5938 Q855.7656,951.4063 855.6563,950.8906 Q855.6094,950.5313 855.4219,950.3438 Q855.0938,949.9688 854.4844,949.75 Q853.875,949.5313 853.25,949.5313 Q852.4844,949.5313 851.8438,949.8594 Q851.2188,950.1875 850.7188,950.9375 Q850.2344,951.6875 850.2344,952.7188 L850.2344,953.8125 Q850.2344,955.0469 851.125,955.875 Q852.0156,956.6875 853.6094,956.6875 Q854.5469,956.6875 855.2031,956.4375 Q855.5938,956.2813 856.0156,955.8438 Q856.2813,955.5781 856.4219,955.5 Q856.5781,955.4219 856.7813,955.4219 Q857.1094,955.4219 857.3594,955.6875 Q857.625,955.9375 857.625,956.2813 Q857.625,956.625 857.2813,957.0313 Q856.7813,957.6094 855.9844,957.9375 Q854.9063,958.3906 853.6094,958.3906 Q852.0938,958.3906 850.8906,957.7656 Q849.9063,957.2656 849.2188,956.2031 Q848.5313,955.125 848.5313,953.8438 L848.5313,952.6875 Q848.5313,951.3594 849.1406,950.2188 Q849.7656,949.0625 850.8594,948.4531 Q851.9531,947.8281 853.1875,947.8281 Q853.9219,947.8281 854.5625,948 Q855.2188,948.1563 855.7656,948.5156 Z " fill="#000000"/><text fill="#000000" font-family="sans-serif" font-size="12" lengthAdjust="spacing" textLength="142" x="867" y="957.5508">ScalarFieldFromImage3D</text><line style="stroke:#A80036;stroke-width:1.5;" x1="839" x2="1011" y1="968.6406" y2="968.6406"/><text fill="#000000" font-family="sans-serif" font-size="11" lengthAdjust="spacing" textLength="110" x="844" y="984.0596">image3did : resourceID</text><text fill="#000000" font-family="sans-serif" font-size="11" lengthAdjust="spacing" textLength="74" x="844" y="997.8955">channel : string</text><text fill="#000000" font-family="sans-serif" font-size="11" lengthAdjust="spacing" textLength="57" x="844" y="1011.7314">filter : string</text><text fill="#000000" font-family="sans-serif" font-size="11" lengthAdjust="spacing" textLength="93" x="844" y="1025.5674">valueoffset: double</text><text fill="#000000" font-family="sans-serif" font-size="11" lengthAdjust="spacing" textLength="90" x="844" y="1039.4033">valuescale: double</text><text fill="#000000" font-family="sans-serif" font-size="11" lengthAdjust="spacing" textLength="78" x="844" y="1053.2393">tilestyleu : string</text><text fill="#000000" font-family="sans-serif" font-size="11" lengthAdjust="spacing" textLength="78" x="844" y="1067.0752">tilestylev : string</text><text fill="#000000" font-family="sans-serif" font-size="11" lengthAdjust="spacing" textLength="82" x="844" y="1080.9111">tilestylew : string</text><line style="stroke:#A80036;stroke-width:1.5;" x1="839" x2="1011" y1="1087.3281" y2="1087.3281"/><!--MD5=[69bc18c96c3c1cd1f5e45902ed5629e7]
class ScalarFieldConstant--><rect codeLine="60" fill="#FEFECE" filter="url(#f1qsx3gh0h40or)" height="61.8359" id="ScalarFieldConstant" style="stroke:#A80036;stroke-width:1.5;" width="144" x="1047" y="985.1406"/><ellipse cx="1062" cy="1001.1406" fill="#ADD1B2" rx="11" ry="11" style="stroke:#A80036;stroke-width:1.0;"/><path d="M1064.7656,997.0156 Q1064.9219,996.7969 1065.1094,996.6875 Q1065.2969,996.5781 1065.5156,996.5781 Q1065.8906,996.5781 1066.125,996.8438 Q1066.3594,997.0938 1066.3594,997.7031 L1066.3594,999.1563 Q1066.3594,999.7656 1066.125,1000.0313 Q1065.8906,1000.2969 1065.5156,1000.2969 Q1065.1719,1000.2969 1064.9688,1000.0938 Q1064.7656,999.9063 1064.6563,999.3906 Q1064.6094,999.0313 1064.4219,998.8438 Q1064.0938,998.4688 1063.4844,998.25 Q1062.875,998.0313 1062.25,998.0313 Q1061.4844,998.0313 1060.8438,998.3594 Q1060.2188,998.6875 1059.7188,999.4375 Q1059.2344,1000.1875 1059.2344,1001.2188 L1059.2344,1002.3125 Q1059.2344,1003.5469 1060.125,1004.375 Q1061.0156,1005.1875 1062.6094,1005.1875 Q1063.5469,1005.1875 1064.2031,1004.9375 Q1064.5938,1004.7813 1065.0156,1004.3438 Q1065.2813,1004.0781 1065.4219,1004 Q1065.5781,1003.9219 1065.7813,1003.9219 Q1066.1094,1003.9219 1066.3594,1004.1875 Q1066.625,1004.4375 1066.625,1004.7813 Q1066.625,1005.125 1066.2813,1005.5313 Q1065.7813,1006.1094 1064.9844,1006.4375 Q1063.9063,1006.8906 1062.6094,1006.8906 Q1061.0938,1006.8906 1059.8906,1006.2656 Q1058.9063,1005.7656 1058.2188,1004.7031 Q1057.5313,1003.625 1057.5313,1002.3438 L1057.5313,1001.1875 Q1057.5313,999.8594 1058.1406,998.7188 Q1058.7656,997.5625 1059.8594,996.9531 Q1060.9531,996.3281 1062.1875,996.3281 Q1062.9219,996.3281 1063.5625,996.5 Q1064.2188,996.6563 1064.7656,997.0156 Z " fill="#000000"/><text fill="#000000" font-family="sans-serif" font-size="12" lengthAdjust="spacing" textLength="112" x="1076" y="1006.0508">ScalarFieldConstant</text><line style="stroke:#A80036;stroke-width:1.5;" x1="1048" x2="1190" y1="1017.1406" y2="1017.1406"/><text fill="#000000" font-family="sans-serif" font-size="11" lengthAdjust="spacing" textLength="64" x="1053" y="1032.5596">value: double</text><line style="stroke:#A80036;stroke-width:1.5;" x1="1048" x2="1190" y1="1038.9766" y2="1038.9766"/><!--MD5=[63008cefc39366d035a491c89971749e]
class Vector3DField--><rect codeLine="71" fill="#FEFECE" filter="url(#f1qsx3gh0h40or)" height="75.6719" id="Vector3DField" style="stroke:#A80036;stroke-width:1.5;" width="109" x="287.5" y="395.6406"/><ellipse cx="302.5" cy="411.6406" fill="#ADD1B2" rx="11" ry="11" style="stroke:#A80036;stroke-width:1.0;"/><path d="M305.2656,407.5156 Q305.4219,407.2969 305.6094,407.1875 Q305.7969,407.0781 306.0156,407.0781 Q306.3906,407.0781 306.625,407.3438 Q306.8594,407.5938 306.8594,408.2031 L306.8594,409.6563 Q306.8594,410.2656 306.625,410.5313 Q306.3906,410.7969 306.0156,410.7969 Q305.6719,410.7969 305.4688,410.5938 Q305.2656,410.4063 305.1563,409.8906 Q305.1094,409.5313 304.9219,409.3438 Q304.5938,408.9688 303.9844,408.75 Q303.375,408.5313 302.75,408.5313 Q301.9844,408.5313 301.3438,408.8594 Q300.7188,409.1875 300.2188,409.9375 Q299.7344,410.6875 299.7344,411.7188 L299.7344,412.8125 Q299.7344,414.0469 300.625,414.875 Q301.5156,415.6875 303.1094,415.6875 Q304.0469,415.6875 304.7031,415.4375 Q305.0938,415.2813 305.5156,414.8438 Q305.7813,414.5781 305.9219,414.5 Q306.0781,414.4219 306.2813,414.4219 Q306.6094,414.4219 306.8594,414.6875 Q307.125,414.9375 307.125,415.2813 Q307.125,415.625 306.7813,416.0313 Q306.2813,416.6094 305.4844,416.9375 Q304.4063,417.3906 303.1094,417.3906 Q301.5938,417.3906 300.3906,416.7656 Q299.4063,416.2656 298.7188,415.2031 Q298.0313,414.125 298.0313,412.8438 L298.0313,411.6875 Q298.0313,410.3594 298.6406,409.2188 Q299.2656,408.0625 300.3594,407.4531 Q301.4531,406.8281 302.6875,406.8281 Q303.4219,406.8281 304.0625,407 Q304.7188,407.1563 305.2656,407.5156 Z " fill="#000000"/><text fill="#000000" font-family="sans-serif" font-size="12" lengthAdjust="spacing" textLength="77" x="316.5" y="416.5508">Vector3DField</text><line style="stroke:#A80036;stroke-width:1.5;" x1="288.5" x2="395.5" y1="427.6406" y2="427.6406"/><text fill="#000000" font-family="sans-serif" font-size="11" lengthAdjust="spacing" textLength="67" x="293.5" y="443.0596">id: resourceID</text><text fill="#000000" font-family="sans-serif" font-size="11" lengthAdjust="spacing" textLength="59" x="293.5" y="456.8955">name: string</text><line style="stroke:#A80036;stroke-width:1.5;" x1="288.5" x2="395.5" y1="463.3125" y2="463.3125"/><!--MD5=[787dbc6fc10c4e71c9e1316a8f662cf4]
class Vector3DFieldComposed--><rect codeLine="77" fill="#FEFECE" filter="url(#f1qsx3gh0h40or)" height="186.3594" id="Vector3DFieldComposed" style="stroke:#A80036;stroke-width:1.5;" width="171" x="256.5" y="531.6406"/><ellipse cx="271.5" cy="547.6406" fill="#ADD1B2" rx="11" ry="11" style="stroke:#A80036;stroke-width:1.0;"/><path d="M274.2656,543.5156 Q274.4219,543.2969 274.6094,543.1875 Q274.7969,543.0781 275.0156,543.0781 Q275.3906,543.0781 275.625,543.3438 Q275.8594,543.5938 275.8594,544.2031 L275.8594,545.6563 Q275.8594,546.2656 275.625,546.5313 Q275.3906,546.7969 275.0156,546.7969 Q274.6719,546.7969 274.4688,546.5938 Q274.2656,546.4063 274.1563,545.8906 Q274.1094,545.5313 273.9219,545.3438 Q273.5938,544.9688 272.9844,544.75 Q272.375,544.5313 271.75,544.5313 Q270.9844,544.5313 270.3438,544.8594 Q269.7188,545.1875 269.2188,545.9375 Q268.7344,546.6875 268.7344,547.7188 L268.7344,548.8125 Q268.7344,550.0469 269.625,550.875 Q270.5156,551.6875 272.1094,551.6875 Q273.0469,551.6875 273.7031,551.4375 Q274.0938,551.2813 274.5156,550.8438 Q274.7813,550.5781 274.9219,550.5 Q275.0781,550.4219 275.2813,550.4219 Q275.6094,550.4219 275.8594,550.6875 Q276.125,550.9375 276.125,551.2813 Q276.125,551.625 275.7813,552.0313 Q275.2813,552.6094 274.4844,552.9375 Q273.4063,553.3906 272.1094,553.3906 Q270.5938,553.3906 269.3906,552.7656 Q268.4063,552.2656 267.7188,551.2031 Q267.0313,550.125 267.0313,548.8438 L267.0313,547.6875 Q267.0313,546.3594 267.6406,545.2188 Q268.2656,544.0625 269.3594,543.4531 Q270.4531,542.8281 271.6875,542.8281 Q272.4219,542.8281 273.0625,543 Q273.7188,543.1563 274.2656,543.5156 Z " fill="#000000"/><text fill="#000000" font-family="sans-serif" font-size="12" lengthAdjust="spacing" textLength="139" x="285.5" y="552.5508">Vector3DFieldComposed</text><line style="stroke:#A80036;stroke-width:1.5;" x1="257.5" x2="426.5" y1="563.6406" y2="563.6406"/><text fill="#000000" font-family="sans-serif" font-size="11" lengthAdjust="spacing" textLength="71" x="262.5" y="579.0596">method : string</text><text fill="#000000" font-family="sans-serif" font-size="11" lengthAdjust="spacing" textLength="139" x="262.5" y="592.8955">vector3dfield1id : resourceID</text><text fill="#000000" font-family="sans-serif" font-size="11" lengthAdjust="spacing" textLength="139" x="262.5" y="606.7314">vector3dfield2id : resourceID</text><text fill="#000000" font-family="sans-serif" font-size="11" lengthAdjust="spacing" textLength="145" x="262.5" y="620.5674">scalarmaskfieldid : resourceID</text><text fill="#000000" font-family="sans-serif" font-size="11" lengthAdjust="spacing" textLength="76" x="262.5" y="634.4033">factor1 : double</text><text fill="#000000" font-family="sans-serif" font-size="11" lengthAdjust="spacing" textLength="76" x="262.5" y="648.2393">factor2 : double</text><text fill="#000000" font-family="sans-serif" font-size="11" lengthAdjust="spacing" textLength="109" x="262.5" y="662.0752">transform1 : transform</text><text fill="#000000" font-family="sans-serif" font-size="11" lengthAdjust="spacing" textLength="109" x="262.5" y="675.9111">transform2 : transform</text><text fill="#000000" font-family="sans-serif" font-size="11" lengthAdjust="spacing" textLength="128" x="262.5" y="689.7471">transformmask : transform</text><text fill="#000000" font-family="sans-serif" font-size="11" lengthAdjust="spacing" textLength="123" x="262.5" y="703.583">compositionspace : string</text><line style="stroke:#A80036;stroke-width:1.5;" x1="257.5" x2="426.5" y1="710" y2="710"/><!--MD5=[54eb5e7afc514eff8398959b4497c61f]
class Vector3DFieldFromImage3D--><rect codeLine="91" fill="#FEFECE" filter="url(#f1qsx3gh0h40or)" height="144.8516" id="Vector3DFieldFromImage3D" style="stroke:#A80036;stroke-width:1.5;" width="189" x="32.5" y="552.1406"/><ellipse cx="47.5" cy="568.1406" fill="#ADD1B2" rx="11" ry="11" style="stroke:#A80036;stroke-width:1.0;"/><path d="M50.2656,564.0156 Q50.4219,563.7969 50.6094,563.6875 Q50.7969,563.5781 51.0156,563.5781 Q51.3906,563.5781 51.625,563.8438 Q51.8594,564.0938 51.8594,564.7031 L51.8594,566.1563 Q51.8594,566.7656 51.625,567.0313 Q51.3906,567.2969 51.0156,567.2969 Q50.6719,567.2969 50.4688,567.0938 Q50.2656,566.9063 50.1563,566.3906 Q50.1094,566.0313 49.9219,565.8438 Q49.5938,565.4688 48.9844,565.25 Q48.375,565.0313 47.75,565.0313 Q46.9844,565.0313 46.3438,565.3594 Q45.7188,565.6875 45.2188,566.4375 Q44.7344,567.1875 44.7344,568.2188 L44.7344,569.3125 Q44.7344,570.5469 45.625,571.375 Q46.5156,572.1875 48.1094,572.1875 Q49.0469,572.1875 49.7031,571.9375 Q50.0938,571.7813 50.5156,571.3438 Q50.7813,571.0781 50.9219,571 Q51.0781,570.9219 51.2813,570.9219 Q51.6094,570.9219 51.8594,571.1875 Q52.125,571.4375 52.125,571.7813 Q52.125,572.125 51.7813,572.5313 Q51.2813,573.1094 50.4844,573.4375 Q49.4063,573.8906 48.1094,573.8906 Q46.5938,573.8906 45.3906,573.2656 Q44.4063,572.7656 43.7188,571.7031 Q43.0313,570.625 43.0313,569.3438 L43.0313,568.1875 Q43.0313,566.8594 43.6406,565.7188 Q44.2656,564.5625 45.3594,563.9531 Q46.4531,563.3281 47.6875,563.3281 Q48.4219,563.3281 49.0625,563.5 Q49.7188,563.6563 50.2656,564.0156 Z " fill="#000000"/><text fill="#000000" font-family="sans-serif" font-size="12" lengthAdjust="spacing" textLength="157" x="61.5" y="573.0508">Vector3DFieldFromImage3D</text><line style="stroke:#A80036;stroke-width:1.5;" x1="33.5" x2="220.5" y1="584.1406" y2="584.1406"/><text fill="#000000" font-family="sans-serif" font-size="11" lengthAdjust="spacing" textLength="110" x="38.5" y="599.5596">image3did : resourceID</text><text fill="#000000" font-family="sans-serif" font-size="11" lengthAdjust="spacing" textLength="93" x="38.5" y="613.3955">valueoffset: double</text><text fill="#000000" font-family="sans-serif" font-size="11" lengthAdjust="spacing" textLength="90" x="38.5" y="627.2314">valuescale: double</text><text fill="#000000" font-family="sans-serif" font-size="11" lengthAdjust="spacing" textLength="57" x="38.5" y="641.0674">filter : string</text><text fill="#000000" font-family="sans-serif" font-size="11" lengthAdjust="spacing" textLength="78" x="38.5" y="654.9033">tilestyleu : string</text><text fill="#000000" font-family="sans-serif" font-size="11" lengthAdjust="spacing" textLength="78" x="38.5" y="668.7393">tilestylev : string</text><text fill="#000000" font-family="sans-serif" font-size="11" lengthAdjust="spacing" textLength="82" x="38.5" y="682.5752">tilestylew : string</text><line style="stroke:#A80036;stroke-width:1.5;" x1="33.5" x2="220.5" y1="688.9922" y2="688.9922"/><!--MD5=[4bfcfda28bb0918d6c8b2426963687d7]
class Vector3DFieldConstant--><rect codeLine="102" fill="#FEFECE" filter="url(#f1qsx3gh0h40or)" height="89.5078" id="Vector3DFieldConstant" style="stroke:#A80036;stroke-width:1.5;" width="159" x="462.5" y="579.6406"/><ellipse cx="477.5" cy="595.6406" fill="#ADD1B2" rx="11" ry="11" style="stroke:#A80036;stroke-width:1.0;"/><path d="M480.2656,591.5156 Q480.4219,591.2969 480.6094,591.1875 Q480.7969,591.0781 481.0156,591.0781 Q481.3906,591.0781 481.625,591.3438 Q481.8594,591.5938 481.8594,592.2031 L481.8594,593.6563 Q481.8594,594.2656 481.625,594.5313 Q481.3906,594.7969 481.0156,594.7969 Q480.6719,594.7969 480.4688,594.5938 Q480.2656,594.4063 480.1563,593.8906 Q480.1094,593.5313 479.9219,593.3438 Q479.5938,592.9688 478.9844,592.75 Q478.375,592.5313 477.75,592.5313 Q476.9844,592.5313 476.3438,592.8594 Q475.7188,593.1875 475.2188,593.9375 Q474.7344,594.6875 474.7344,595.7188 L474.7344,596.8125 Q474.7344,598.0469 475.625,598.875 Q476.5156,599.6875 478.1094,599.6875 Q479.0469,599.6875 479.7031,599.4375 Q480.0938,599.2813 480.5156,598.8438 Q480.7813,598.5781 480.9219,598.5 Q481.0781,598.4219 481.2813,598.4219 Q481.6094,598.4219 481.8594,598.6875 Q482.125,598.9375 482.125,599.2813 Q482.125,599.625 481.7813,600.0313 Q481.2813,600.6094 480.4844,600.9375 Q479.4063,601.3906 478.1094,601.3906 Q476.5938,601.3906 475.3906,600.7656 Q474.4063,600.2656 473.7188,599.2031 Q473.0313,598.125 473.0313,596.8438 L473.0313,595.6875 Q473.0313,594.3594 473.6406,593.2188 Q474.2656,592.0625 475.3594,591.4531 Q476.4531,590.8281 477.6875,590.8281 Q478.4219,590.8281 479.0625,591 Q479.7188,591.1563 480.2656,591.5156 Z " fill="#000000"/><text fill="#000000" font-family="sans-serif" font-size="12" lengthAdjust="spacing" textLength="127" x="491.5" y="600.5508">Vector3DFieldConstant</text><line style="stroke:#A80036;stroke-width:1.5;" x1="463.5" x2="620.5" y1="611.6406" y2="611.6406"/><text fill="#000000" font-family="sans-serif" font-size="11" lengthAdjust="spacing" textLength="70" x="468.5" y="627.0596">valuex: double</text><text fill="#000000" font-family="sans-serif" font-size="11" lengthAdjust="spacing" textLength="70" x="468.5" y="640.8955">valuey: double</text><text fill="#000000" font-family="sans-serif" font-size="11" lengthAdjust="spacing" textLength="70" x="468.5" y="654.7314">valuez: double</text><line style="stroke:#A80036;stroke-width:1.5;" x1="463.5" x2="620.5" y1="661.1484" y2="661.1484"/><!--MD5=[e3c611ee9481c32d6958c737645ef343]
class VolumeData--><rect codeLine="116" fill="#FEFECE" filter="url(#f1qsx3gh0h40or)" height="48" id="VolumeData" style="stroke:#A80036;stroke-width:1.5;" width="100" x="951" y="137.6406"/><ellipse cx="966" cy="153.6406" fill="#ADD1B2" rx="11" ry="11" style="stroke:#A80036;stroke-width:1.0;"/><path d="M968.7656,149.5156 Q968.9219,149.2969 969.1094,149.1875 Q969.2969,149.0781 969.5156,149.0781 Q969.8906,149.0781 970.125,149.3438 Q970.3594,149.5938 970.3594,150.2031 L970.3594,151.6563 Q970.3594,152.2656 970.125,152.5313 Q969.8906,152.7969 969.5156,152.7969 Q969.1719,152.7969 968.9688,152.5938 Q968.7656,152.4063 968.6563,151.8906 Q968.6094,151.5313 968.4219,151.3438 Q968.0938,150.9688 967.4844,150.75 Q966.875,150.5313 966.25,150.5313 Q965.4844,150.5313 964.8438,150.8594 Q964.2188,151.1875 963.7188,151.9375 Q963.2344,152.6875 963.2344,153.7188 L963.2344,154.8125 Q963.2344,156.0469 964.125,156.875 Q965.0156,157.6875 966.6094,157.6875 Q967.5469,157.6875 968.2031,157.4375 Q968.5938,157.2813 969.0156,156.8438 Q969.2813,156.5781 969.4219,156.5 Q969.5781,156.4219 969.7813,156.4219 Q970.1094,156.4219 970.3594,156.6875 Q970.625,156.9375 970.625,157.2813 Q970.625,157.625 970.2813,158.0313 Q969.7813,158.6094 968.9844,158.9375 Q967.9063,159.3906 966.6094,159.3906 Q965.0938,159.3906 963.8906,158.7656 Q962.9063,158.2656 962.2188,157.2031 Q961.5313,156.125 961.5313,154.8438 L961.5313,153.6875 Q961.5313,152.3594 962.1406,151.2188 Q962.7656,150.0625 963.8594,149.4531 Q964.9531,148.8281 966.1875,148.8281 Q966.9219,148.8281 967.5625,149 Q968.2188,149.1563 968.7656,149.5156 Z " fill="#000000"/><text fill="#000000" font-family="sans-serif" font-size="12" lengthAdjust="spacing" textLength="68" x="980" y="158.5508">VolumeData</text><line style="stroke:#A80036;stroke-width:1.5;" x1="952" x2="1050" y1="169.6406" y2="169.6406"/><line style="stroke:#A80036;stroke-width:1.5;" x1="952" x2="1050" y1="177.6406" y2="177.6406"/><!--MD5=[d4eea0a2640b0744e449422abbb6da5e]
class Boundary--><rect codeLine="118" fill="#FEFECE" filter="url(#f1qsx3gh0h40or)" height="89.5078" id="Boundary" style="stroke:#A80036;stroke-width:1.5;" width="132" x="859" y="245.6406"/><ellipse cx="895.6" cy="261.6406" fill="#ADD1B2" rx="11" ry="11" style="stroke:#A80036;stroke-width:1.0;"/><path d="M898.3656,257.5156 Q898.5219,257.2969 898.7094,257.1875 Q898.8969,257.0781 899.1156,257.0781 Q899.4906,257.0781 899.725,257.3438 Q899.9594,257.5938 899.9594,258.2031 L899.9594,259.6563 Q899.9594,260.2656 899.725,260.5313 Q899.4906,260.7969 899.1156,260.7969 Q898.7719,260.7969 898.5688,260.5938 Q898.3656,260.4063 898.2563,259.8906 Q898.2094,259.5313 898.0219,259.3438 Q897.6938,258.9688 897.0844,258.75 Q896.475,258.5313 895.85,258.5313 Q895.0844,258.5313 894.4438,258.8594 Q893.8188,259.1875 893.3188,259.9375 Q892.8344,260.6875 892.8344,261.7188 L892.8344,262.8125 Q892.8344,264.0469 893.725,264.875 Q894.6156,265.6875 896.2094,265.6875 Q897.1469,265.6875 897.8031,265.4375 Q898.1938,265.2813 898.6156,264.8438 Q898.8813,264.5781 899.0219,264.5 Q899.1781,264.4219 899.3813,264.4219 Q899.7094,264.4219 899.9594,264.6875 Q900.225,264.9375 900.225,265.2813 Q900.225,265.625 899.8813,266.0313 Q899.3813,266.6094 898.5844,266.9375 Q897.5063,267.3906 896.2094,267.3906 Q894.6938,267.3906 893.4906,266.7656 Q892.5063,266.2656 891.8188,265.2031 Q891.1313,264.125 891.1313,262.8438 L891.1313,261.6875 Q891.1313,260.3594 891.7406,259.2188 Q892.3656,258.0625 893.4594,257.4531 Q894.5531,256.8281 895.7875,256.8281 Q896.5219,256.8281 897.1625,257 Q897.8188,257.1563 898.3656,257.5156 Z " fill="#000000"/><text fill="#000000" font-family="sans-serif" font-size="12" lengthAdjust="spacing" textLength="52" x="914.4" y="266.5508">Boundary</text><line style="stroke:#A80036;stroke-width:1.5;" x1="860" x2="990" y1="277.6406" y2="277.6406"/><text fill="#000000" font-family="sans-serif" font-size="11" lengthAdjust="spacing" textLength="85" x="865" y="293.0596">transform : matrix</text><text fill="#000000" font-family="sans-serif" font-size="11" lengthAdjust="spacing" textLength="108" x="865" y="306.8955">solidthreshold : double</text><text fill="#000000" font-family="sans-serif" font-size="11" lengthAdjust="spacing" textLength="120" x="865" y="320.7314">scalarfieldid : resourceID</text><line style="stroke:#A80036;stroke-width:1.5;" x1="860" x2="990" y1="327.1484" y2="327.1484"/><!--MD5=[18eee71c88ab61f27581b8cbdd3ef5ee]
class Color--><rect codeLine="125" fill="#FEFECE" filter="url(#f1qsx3gh0h40or)" height="75.6719" id="Color" style="stroke:#A80036;stroke-width:1.5;" width="145" x="678.5" y="252.6406"/><ellipse cx="731.75" cy="268.6406" fill="#ADD1B2" rx="11" ry="11" style="stroke:#A80036;stroke-width:1.0;"/><path d="M734.5156,264.5156 Q734.6719,264.2969 734.8594,264.1875 Q735.0469,264.0781 735.2656,264.0781 Q735.6406,264.0781 735.875,264.3438 Q736.1094,264.5938 736.1094,265.2031 L736.1094,266.6563 Q736.1094,267.2656 735.875,267.5313 Q735.6406,267.7969 735.2656,267.7969 Q734.9219,267.7969 734.7188,267.5938 Q734.5156,267.4063 734.4063,266.8906 Q734.3594,266.5313 734.1719,266.3438 Q733.8438,265.9688 733.2344,265.75 Q732.625,265.5313 732,265.5313 Q731.2344,265.5313 730.5938,265.8594 Q729.9688,266.1875 729.4688,266.9375 Q728.9844,267.6875 728.9844,268.7188 L728.9844,269.8125 Q728.9844,271.0469 729.875,271.875 Q730.7656,272.6875 732.3594,272.6875 Q733.2969,272.6875 733.9531,272.4375 Q734.3438,272.2813 734.7656,271.8438 Q735.0313,271.5781 735.1719,271.5 Q735.3281,271.4219 735.5313,271.4219 Q735.8594,271.4219 736.1094,271.6875 Q736.375,271.9375 736.375,272.2813 Q736.375,272.625 736.0313,273.0313 Q735.5313,273.6094 734.7344,273.9375 Q733.6563,274.3906 732.3594,274.3906 Q730.8438,274.3906 729.6406,273.7656 Q728.6563,273.2656 727.9688,272.2031 Q727.2813,271.125 727.2813,269.8438 L727.2813,268.6875 Q727.2813,267.3594 727.8906,266.2188 Q728.5156,265.0625 729.6094,264.4531 Q730.7031,263.8281 731.9375,263.8281 Q732.6719,263.8281 733.3125,264 Q733.9688,264.1563 734.5156,264.5156 Z " fill="#000000"/><text fill="#000000" font-family="sans-serif" font-size="12" lengthAdjust="spacing" textLength="30" x="752.25" y="273.5508">Color</text><line style="stroke:#A80036;stroke-width:1.5;" x1="679.5" x2="822.5" y1="284.6406" y2="284.6406"/><text fill="#000000" font-family="sans-serif" font-size="11" lengthAdjust="spacing" textLength="133" x="684.5" y="300.0596">vector3dfieldid : resourceID</text><text fill="#000000" font-family="sans-serif" font-size="11" lengthAdjust="spacing" textLength="85" x="684.5" y="313.8955">transform : matrix</text><line style="stroke:#A80036;stroke-width:1.5;" x1="679.5" x2="822.5" y1="320.3125" y2="320.3125"/><!--MD5=[6b626634f3bb0842bebd5e499c80b711]
class Property--><rect codeLine="131" fill="#FEFECE" filter="url(#f1qsx3gh0h40or)" height="89.5078" id="Property" style="stroke:#A80036;stroke-width:1.5;" width="102" x="1026" y="245.6406"/><ellipse cx="1052.25" cy="261.6406" fill="#ADD1B2" rx="11" ry="11" style="stroke:#A80036;stroke-width:1.0;"/><path d="M1055.0156,257.5156 Q1055.1719,257.2969 1055.3594,257.1875 Q1055.5469,257.0781 1055.7656,257.0781 Q1056.1406,257.0781 1056.375,257.3438 Q1056.6094,257.5938 1056.6094,258.2031 L1056.6094,259.6563 Q1056.6094,260.2656 1056.375,260.5313 Q1056.1406,260.7969 1055.7656,260.7969 Q1055.4219,260.7969 1055.2188,260.5938 Q1055.0156,260.4063 1054.9063,259.8906 Q1054.8594,259.5313 1054.6719,259.3438 Q1054.3438,258.9688 1053.7344,258.75 Q1053.125,258.5313 1052.5,258.5313 Q1051.7344,258.5313 1051.0938,258.8594 Q1050.4688,259.1875 1049.9688,259.9375 Q1049.4844,260.6875 1049.4844,261.7188 L1049.4844,262.8125 Q1049.4844,264.0469 1050.375,264.875 Q1051.2656,265.6875 1052.8594,265.6875 Q1053.7969,265.6875 1054.4531,265.4375 Q1054.8438,265.2813 1055.2656,264.8438 Q1055.5313,264.5781 1055.6719,264.5 Q1055.8281,264.4219 1056.0313,264.4219 Q1056.3594,264.4219 1056.6094,264.6875 Q1056.875,264.9375 1056.875,265.2813 Q1056.875,265.625 1056.5313,266.0313 Q1056.0313,266.6094 1055.2344,266.9375 Q1054.1563,267.3906 1052.8594,267.3906 Q1051.3438,267.3906 1050.1406,266.7656 Q1049.1563,266.2656 1048.4688,265.2031 Q1047.7813,264.125 1047.7813,262.8438 L1047.7813,261.6875 Q1047.7813,260.3594 1048.3906,259.2188 Q1049.0156,258.0625 1050.1094,257.4531 Q1051.2031,256.8281 1052.4375,256.8281 Q1053.1719,256.8281 1053.8125,257 Q1054.4688,257.1563 1055.0156,257.5156 Z " fill="#000000"/><text fill="#000000" font-family="sans-serif" font-size="12" lengthAdjust="spacing" textLength="45" x="1068.75" y="266.5508">Property</text><line style="stroke:#A80036;stroke-width:1.5;" x1="1027" x2="1127" y1="277.6406" y2="277.6406"/><text fill="#000000" font-family="sans-serif" font-size="11" lengthAdjust="spacing" textLength="62" x="1032" y="293.0596">name : string</text><text fill="#000000" font-family="sans-serif" font-size="11" lengthAdjust="spacing" textLength="85" x="1032" y="306.8955">transform : matrix</text><text fill="#000000" font-family="sans-serif" font-size="11" lengthAdjust="spacing" textLength="90" x="1032" y="320.7314">fieldid : resourceID</text><line style="stroke:#A80036;stroke-width:1.5;" x1="1027" x2="1127" y1="327.1484" y2="327.1484"/><!--MD5=[73d251a377f173325f21997c77c25ad9]
class Composite--><rect codeLine="138" fill="#FEFECE" filter="url(#f1qsx3gh0h40or)" height="61.8359" id="Composite" style="stroke:#A80036;stroke-width:1.5;" width="143" x="1163.5" y="259.6406"/><ellipse cx="1201" cy="275.6406" fill="#ADD1B2" rx="11" ry="11" style="stroke:#A80036;stroke-width:1.0;"/><path d="M1203.7656,271.5156 Q1203.9219,271.2969 1204.1094,271.1875 Q1204.2969,271.0781 1204.5156,271.0781 Q1204.8906,271.0781 1205.125,271.3438 Q1205.3594,271.5938 1205.3594,272.2031 L1205.3594,273.6563 Q1205.3594,274.2656 1205.125,274.5313 Q1204.8906,274.7969 1204.5156,274.7969 Q1204.1719,274.7969 1203.9688,274.5938 Q1203.7656,274.4063 1203.6563,273.8906 Q1203.6094,273.5313 1203.4219,273.3438 Q1203.0938,272.9688 1202.4844,272.75 Q1201.875,272.5313 1201.25,272.5313 Q1200.4844,272.5313 1199.8438,272.8594 Q1199.2188,273.1875 1198.7188,273.9375 Q1198.2344,274.6875 1198.2344,275.7188 L1198.2344,276.8125 Q1198.2344,278.0469 1199.125,278.875 Q1200.0156,279.6875 1201.6094,279.6875 Q1202.5469,279.6875 1203.2031,279.4375 Q1203.5938,279.2813 1204.0156,278.8438 Q1204.2813,278.5781 1204.4219,278.5 Q1204.5781,278.4219 1204.7813,278.4219 Q1205.1094,278.4219 1205.3594,278.6875 Q1205.625,278.9375 1205.625,279.2813 Q1205.625,279.625 1205.2813,280.0313 Q1204.7813,280.6094 1203.9844,280.9375 Q1202.9063,281.3906 1201.6094,281.3906 Q1200.0938,281.3906 1198.8906,280.7656 Q1197.9063,280.2656 1197.2188,279.2031 Q1196.5313,278.125 1196.5313,276.8438 L1196.5313,275.6875 Q1196.5313,274.3594 1197.1406,273.2188 Q1197.7656,272.0625 1198.8594,271.4531 Q1199.9531,270.8281 1201.1875,270.8281 Q1201.9219,270.8281 1202.5625,271 Q1203.2188,271.1563 1203.7656,271.5156 Z " fill="#000000"/><text fill="#000000" font-family="sans-serif" font-size="12" lengthAdjust="spacing" textLength="61" x="1220" y="280.5508">Composite</text><line style="stroke:#A80036;stroke-width:1.5;" x1="1164.5" x2="1305.5" y1="291.6406" y2="291.6406"/><text fill="#000000" font-family="sans-serif" font-size="11" lengthAdjust="spacing" textLength="131" x="1169.5" y="307.0596">basematerialid : resourceID</text><line style="stroke:#A80036;stroke-width:1.5;" x1="1164.5" x2="1305.5" y1="313.4766" y2="313.4766"/><!--MD5=[f88bdff07e9ce4b1c4346d0643ca85c4]
class MaterialMapping--><rect codeLine="143" fill="#FEFECE" filter="url(#f1qsx3gh0h40or)" height="75.6719" id="MaterialMapping" style="stroke:#A80036;stroke-width:1.5;" width="132" x="1129" y="395.6406"/><ellipse cx="1148.5" cy="411.6406" fill="#ADD1B2" rx="11" ry="11" style="stroke:#A80036;stroke-width:1.0;"/><path d="M1151.2656,407.5156 Q1151.4219,407.2969 1151.6094,407.1875 Q1151.7969,407.0781 1152.0156,407.0781 Q1152.3906,407.0781 1152.625,407.3438 Q1152.8594,407.5938 1152.8594,408.2031 L1152.8594,409.6563 Q1152.8594,410.2656 1152.625,410.5313 Q1152.3906,410.7969 1152.0156,410.7969 Q1151.6719,410.7969 1151.4688,410.5938 Q1151.2656,410.4063 1151.1563,409.8906 Q1151.1094,409.5313 1150.9219,409.3438 Q1150.5938,408.9688 1149.9844,408.75 Q1149.375,408.5313 1148.75,408.5313 Q1147.9844,408.5313 1147.3438,408.8594 Q1146.7188,409.1875 1146.2188,409.9375 Q1145.7344,410.6875 1145.7344,411.7188 L1145.7344,412.8125 Q1145.7344,414.0469 1146.625,414.875 Q1147.5156,415.6875 1149.1094,415.6875 Q1150.0469,415.6875 1150.7031,415.4375 Q1151.0938,415.2813 1151.5156,414.8438 Q1151.7813,414.5781 1151.9219,414.5 Q1152.0781,414.4219 1152.2813,414.4219 Q1152.6094,414.4219 1152.8594,414.6875 Q1153.125,414.9375 1153.125,415.2813 Q1153.125,415.625 1152.7813,416.0313 Q1152.2813,416.6094 1151.4844,416.9375 Q1150.4063,417.3906 1149.1094,417.3906 Q1147.5938,417.3906 1146.3906,416.7656 Q1145.4063,416.2656 1144.7188,415.2031 Q1144.0313,414.125 1144.0313,412.8438 L1144.0313,411.6875 Q1144.0313,410.3594 1144.6406,409.2188 Q1145.2656,408.0625 1146.3594,407.4531 Q1147.4531,406.8281 1148.6875,406.8281 Q1149.4219,406.8281 1150.0625,407 Q1150.7188,407.1563 1151.2656,407.5156 Z " fill="#000000"/><text fill="#000000" font-family="sans-serif" font-size="12" lengthAdjust="spacing" textLength="90" x="1163.5" y="416.5508">MaterialMapping</text><line style="stroke:#A80036;stroke-width:1.5;" x1="1130" x2="1260" y1="427.6406" y2="427.6406"/><text fill="#000000" font-family="sans-serif" font-size="11" lengthAdjust="spacing" textLength="120" x="1135" y="443.0596">scalarfieldid : resourceID</text><text fill="#000000" font-family="sans-serif" font-size="11" lengthAdjust="spacing" textLength="85" x="1135" y="456.8955">transform : matrix</text><line style="stroke:#A80036;stroke-width:1.5;" x1="1130" x2="1260" y1="463.3125" y2="463.3125"/><!--MD5=[49b4333bed3a745cc53311fcf54bbfcc]
class Mesh--><rect codeLine="161" fill="#FEFECE" filter="url(#f1qsx3gh0h40or)" height="48" id="Mesh" style="stroke:#A80036;stroke-width:1.5;" width="62" x="970" y="29.6406"/><ellipse cx="985" cy="45.6406" fill="#ADD1B2" rx="11" ry="11" style="stroke:#A80036;stroke-width:1.0;"/><path d="M987.7656,41.5156 Q987.9219,41.2969 988.1094,41.1875 Q988.2969,41.0781 988.5156,41.0781 Q988.8906,41.0781 989.125,41.3438 Q989.3594,41.5938 989.3594,42.2031 L989.3594,43.6563 Q989.3594,44.2656 989.125,44.5313 Q988.8906,44.7969 988.5156,44.7969 Q988.1719,44.7969 987.9688,44.5938 Q987.7656,44.4063 987.6563,43.8906 Q987.6094,43.5313 987.4219,43.3438 Q987.0938,42.9688 986.4844,42.75 Q985.875,42.5313 985.25,42.5313 Q984.4844,42.5313 983.8438,42.8594 Q983.2188,43.1875 982.7188,43.9375 Q982.2344,44.6875 982.2344,45.7188 L982.2344,46.8125 Q982.2344,48.0469 983.125,48.875 Q984.0156,49.6875 985.6094,49.6875 Q986.5469,49.6875 987.2031,49.4375 Q987.5938,49.2813 988.0156,48.8438 Q988.2813,48.5781 988.4219,48.5 Q988.5781,48.4219 988.7813,48.4219 Q989.1094,48.4219 989.3594,48.6875 Q989.625,48.9375 989.625,49.2813 Q989.625,49.625 989.2813,50.0313 Q988.7813,50.6094 987.9844,50.9375 Q986.9063,51.3906 985.6094,51.3906 Q984.0938,51.3906 982.8906,50.7656 Q981.9063,50.2656 981.2188,49.2031 Q980.5313,48.125 980.5313,46.8438 L980.5313,45.6875 Q980.5313,44.3594 981.1406,43.2188 Q981.7656,42.0625 982.8594,41.4531 Q983.9531,40.8281 985.1875,40.8281 Q985.9219,40.8281 986.5625,41 Q987.2188,41.1563 987.7656,41.5156 Z " fill="#000000"/><text fill="#000000" font-family="sans-serif" font-size="12" lengthAdjust="spacing" textLength="30" x="999" y="50.5508">Mesh</text><line style="stroke:#A80036;stroke-width:1.5;" x1="971" x2="1031" y1="61.6406" y2="61.6406"/><line style="stroke:#A80036;stroke-width:1.5;" x1="971" x2="1031" y1="69.6406" y2="69.6406"/><!--MD5=[8b4ac80083e0fde280c04cace1314f3e]
reverse link Image3D to ImageStack--><path d="M642,1274.7306 C642,1288.0106 642,1301.9506 642,1314.5706 " fill="none" id="Image3D-backto-ImageStack" style="stroke:#A80036;stroke-width:1.0;"/><polygon fill="none" points="635,1274.6906,642,1254.6906,649,1274.6906,635,1274.6906" style="stroke:#A80036;stroke-width:1.0;"/><!--MD5=[c9f6061d5258eeaaf93fef211747319f]
reverse link ImageStack to ImageSheet--><path codeLine="24" d="M642,1418.0306 C642,1433.9906 642,1450.6806 642,1464.4006 " fill="none" id="ImageStack-backto-ImageSheet" style="stroke:#A80036;stroke-width:1.0;"/><polygon fill="#A80036" points="642,1404.8906,638,1410.8906,642,1416.8906,646,1410.8906,642,1404.8906" style="stroke:#A80036;stroke-width:1.0;"/><text fill="#000000" font-family="sans-serif" font-size="13" lengthAdjust="spacing" textLength="20" x="619.9375" y="1453.8557">1..*</text><!--MD5=[d74a6c9568e73de12bfd457fb68be540]
reverse link ScalarField to ScalarFieldComposed--><path d="M862.16,879.4406 C843.36,895.4706 822.57,913.9306 802.91,931.9606 " fill="none" id="ScalarField-backto-ScalarFieldComposed" style="stroke:#A80036;stroke-width:1.0;"/><polygon fill="none" points="857.93,873.8506,877.74,866.3306,866.95,884.5606,857.93,873.8506" style="stroke:#A80036;stroke-width:1.0;"/><!--MD5=[0ce7407195f1e97a4358e0d88e9f8442]
reverse link ScalarFieldComposed to ScalarField--><path codeLine="65" d="M812.72,946.5006 C842.16,920.5706 872.93,892.0306 894.98,870.0106 " fill="none" id="ScalarFieldComposed-backto-ScalarField" style="stroke:#A80036;stroke-width:1.0;"/><polygon fill="#FFFFFF" points="802.8,955.1906,809.949,954.2462,811.8268,947.2839,804.6778,948.2283,802.8,955.1906" style="stroke:#A80036;stroke-width:1.0;"/><text fill="#000000" font-family="sans-serif" font-size="13" lengthAdjust="spacing" textLength="22" x="866.4424" y="890.9501">1..3</text><!--MD5=[18d85fd5566c1e83f368fe4c6f55dd82]
reverse link ScalarField to ScalarFieldFromImage3D--><path d="M925,890.0306 C925,904.7406 925,920.8106 925,936.3906 " fill="none" id="ScalarField-backto-ScalarFieldFromImage3D" style="stroke:#A80036;stroke-width:1.0;"/><polygon fill="none" points="918,890.0106,925,870.0106,932,890.0106,918,890.0106" style="stroke:#A80036;stroke-width:1.0;"/><!--MD5=[fc63f9763cefb0eee68f4b66859b0994]
reverse link ScalarField to ScalarFieldConstant--><path d="M980.41,883.4506 C996.47,898.2806 1013.98,914.5506 1030,929.6406 C1049.34,947.8606 1070.82,968.4906 1087.84,984.9206 " fill="none" id="ScalarField-backto-ScalarFieldConstant" style="stroke:#A80036;stroke-width:1.0;"/><polygon fill="none" points="975.52,888.4706,965.56,869.7706,985.01,878.1706,975.52,888.4706" style="stroke:#A80036;stroke-width:1.0;"/><!--MD5=[d0ca1c57156342ddea3671c8a339907c]
reverse link ScalarFieldFromImage3D to Image3D--><path codeLine="66" d="M846.53,1104.7306 C837.93,1112.5506 829.01,1120.0006 820,1126.6406 C777.16,1158.2006 721.45,1184.0006 683.86,1199.5406 " fill="none" id="ScalarFieldFromImage3D-backto-Image3D" style="stroke:#A80036;stroke-width:1.0;"/><polygon fill="#FFFFFF" points="856.09,1095.7806,848.9765,1096.9633,847.3323,1103.9844,854.4457,1102.8018,856.09,1095.7806" style="stroke:#A80036;stroke-width:1.0;"/><text fill="#000000" font-family="sans-serif" font-size="13" lengthAdjust="spacing" textLength="7" x="691.3728" y="1192.9348">1</text><!--MD5=[d8f8ac9a2e63a4ff6f1ce47982323481]
reverse link Vector3DField to Vector3DFieldComposed--><path d="M330.15,492.3706 C329.51,504.7906 329.21,518.2106 329.25,531.5606 " fill="none" id="Vector3DField-backto-Vector3DFieldComposed" style="stroke:#A80036;stroke-width:1.0;"/><polygon fill="none" points="323.2,491.4306,331.6,471.9806,337.16,492.4306,323.2,491.4306" style="stroke:#A80036;stroke-width:1.0;"/><!--MD5=[02cf25545f25200d76f36e78bed9dcc5]
reverse link Vector3DFieldComposed to Vector3DField--><path codeLine="109" d="M355.42,518.2306 C355.17,501.6706 354.37,485.5606 353.01,471.9806 " fill="none" id="Vector3DFieldComposed-backto-Vector3DField" style="stroke:#A80036;stroke-width:1.0;"/><polygon fill="#FFFFFF" points="355.5,531.5606,359.467,525.5387,355.4341,519.5608,351.4671,525.5827,355.5,531.5606" style="stroke:#A80036;stroke-width:1.0;"/><text fill="#000000" font-family="sans-serif" font-size="13" lengthAdjust="spacing" textLength="7" x="347.2069" y="492.9153">2</text><!--MD5=[6bd7208c8ce6fe9a196cbc14c38527c1]
reverse link Vector3DField to Vector3DFieldFromImage3D--><path d="M284.74,484.9706 C261.44,505.4606 234.08,529.5106 208.74,551.7906 " fill="none" id="Vector3DField-backto-Vector3DFieldFromImage3D" style="stroke:#A80036;stroke-width:1.0;"/><polygon fill="none" points="280.14,479.7006,299.78,471.7506,289.38,490.2206,280.14,479.7006" style="stroke:#A80036;stroke-width:1.0;"/><!--MD5=[11a3bba0a9635e739938ebbd4a93b356]
reverse link Vector3DField to Vector3DFieldConstant--><path d="M396.69,486.0806 C412.31,500.7806 429.33,516.8306 445,531.6406 C461.53,547.2606 479.62,564.4106 495.65,579.6206 " fill="none" id="Vector3DField-backto-Vector3DFieldConstant" style="stroke:#A80036;stroke-width:1.0;"/><polygon fill="none" points="391.41,490.7206,381.65,471.9206,401.01,480.5306,391.41,490.7206" style="stroke:#A80036;stroke-width:1.0;"/><!--MD5=[a7ed25f9d2b5d64a96871da22d4279b8]
reverse link Vector3DFieldComposed to ScalarField--><path codeLine="110" d="M422.74,726.4506 C429.84,732.1206 437.28,737.2806 445,741.6406 C519.08,783.4706 772.15,814.4206 877.93,825.8406 " fill="none" id="Vector3DFieldComposed-backto-ScalarField" style="stroke:#A80036;stroke-width:1.0;"/><polygon fill="#FFFFFF" points="412.58,717.7906,414.5555,724.7258,421.7171,725.5697,419.7416,718.6345,412.58,717.7906" style="stroke:#A80036;stroke-width:1.0;"/><text fill="#000000" font-family="sans-serif" font-size="13" lengthAdjust="spacing" textLength="58" x="812.0853" y="821.9477">0..1 mask</text><!--MD5=[9e7afa9a9c35ae0fa7726690392ed08a]
reverse link Vector3DFieldFromImage3D to Image3D--><path codeLine="111" d="M198.27,707.2806 C311.44,836.9406 527.82,1084.8406 609.61,1178.5306 " fill="none" id="Vector3DFieldFromImage3D-backto-Image3D" style="stroke:#A80036;stroke-width:1.0;"/><polygon fill="#FFFFFF" points="189.63,697.4006,190.5626,704.5512,197.5218,706.4405,196.5892,699.29,189.63,697.4006" style="stroke:#A80036;stroke-width:1.0;"/><text fill="#000000" font-family="sans-serif" font-size="13" lengthAdjust="spacing" textLength="7" x="596.2171" y="1167.8729">1</text><!--MD5=[596a96de2425b35a22199f47a395150b]
reverse link VolumeData to Boundary--><path codeLine="149" d="M980.32,197.1906 C971.42,212.0606 960.92,229.6206 951.46,245.4206 " fill="none" id="VolumeData-backto-Boundary" style="stroke:#A80036;stroke-width:1.0;"/><polygon fill="#A80036" points="987.06,185.9306,980.5448,189.0213,980.8919,196.224,987.4071,193.1334,987.06,185.9306" style="stroke:#A80036;stroke-width:1.0;"/><text fill="#000000" font-family="sans-serif" font-size="13" lengthAdjust="spacing" textLength="22" x="931.8273" y="234.831">0..1</text><!--MD5=[c876c77ee3f6615e576b216c5ad84481]
reverse link VolumeData to Color--><path codeLine="150" d="M943.78,191.7106 C908.13,209.8206 861.95,233.2806 823.72,252.7006 " fill="none" id="VolumeData-backto-Color" style="stroke:#A80036;stroke-width:1.0;"/><polygon fill="#A80036" points="955.44,185.7906,948.279,184.9419,944.7414,191.2257,951.9024,192.0744,955.44,185.7906" style="stroke:#A80036;stroke-width:1.0;"/><text fill="#000000" font-family="sans-serif" font-size="13" lengthAdjust="spacing" textLength="22" x="831.4379" y="245.992">0..1</text><!--MD5=[926977b86265bf8127817610d5ce8d65]
reverse link VolumeData to Property--><path codeLine="151" d="M1021.68,197.1906 C1030.58,212.0606 1041.08,229.6206 1050.54,245.4206 " fill="none" id="VolumeData-backto-Property" style="stroke:#A80036;stroke-width:1.0;"/><polygon fill="#A80036" points="1014.94,185.9306,1014.5929,193.1334,1021.1081,196.224,1021.4552,189.0213,1014.94,185.9306" style="stroke:#A80036;stroke-width:1.0;"/><text fill="#000000" font-family="sans-serif" font-size="13" lengthAdjust="spacing" textLength="20" x="1024.9571" y="234.831">0..*</text><!--MD5=[55cd580e7d15a57c2d6990dd7c17c6c7]
reverse link VolumeData to Composite--><path codeLine="152" d="M1055.29,192.1106 C1092.55,212.3306 1141.86,239.0906 1179.4,259.4706 " fill="none" id="VolumeData-backto-Composite" style="stroke:#A80036;stroke-width:1.0;"/><polygon fill="#A80036" points="1043.65,185.7906,1047.0165,192.1677,1054.1978,191.5128,1050.8313,185.1358,1043.65,185.7906" style="stroke:#A80036;stroke-width:1.0;"/><text fill="#000000" font-family="sans-serif" font-size="13" lengthAdjust="spacing" textLength="22" x="1143.6638" y="248.9401">0..1</text><!--MD5=[c5bc44bdff8ae1d90e6600406b8615c7]
reverse link Composite to MaterialMapping--><path codeLine="153" d="M1222.86,334.4206 C1217.34,353.8706 1210.88,376.6806 1205.56,395.4106 " fill="none" id="Composite-backto-MaterialMapping" style="stroke:#A80036;stroke-width:1.0;"/><polygon fill="#A80036" points="1226.42,321.8906,1220.9319,326.5683,1223.139,333.4334,1228.6271,328.7557,1226.42,321.8906" style="stroke:#A80036;stroke-width:1.0;"/><text fill="#000000" font-family="sans-serif" font-size="13" lengthAdjust="spacing" textLength="20" x="1185.6598" y="384.7316">1..*</text><!--MD5=[0366305a9aa6e9db4f13f1d47531dbd6]
reverse link Boundary to ScalarField--><path codeLine="155" d="M925,348.9306 C925,459.8506 925,701.1506 925,793.5806 " fill="none" id="Boundary-backto-ScalarField" style="stroke:#A80036;stroke-width:1.0;"/><polygon fill="#FFFFFF" points="925,335.7506,921,341.7506,925,347.7506,929,341.7506,925,335.7506" style="stroke:#A80036;stroke-width:1.0;"/><text fill="#000000" font-family="sans-serif" font-size="13" lengthAdjust="spacing" textLength="7" x="917.3547" y="782.6461">1</text><!--MD5=[6411e52fe5f6d6609af1c29d8c6dad09]
reverse link Color to Vector3DField--><path codeLine="156" d="M665.7,321.0506 C584.76,348.9506 465.55,390.0506 396.65,413.8006 " fill="none" id="Color-backto-Vector3DField" style="stroke:#A80036;stroke-width:1.0;"/><polygon fill="#FFFFFF" points="678.35,316.6906,671.3748,314.8611,667.0033,320.596,673.9784,322.4256,678.35,316.6906" style="stroke:#A80036;stroke-width:1.0;"/><text fill="#000000" font-family="sans-serif" font-size="13" lengthAdjust="spacing" textLength="7" x="404.4639" y="407.6004">1</text><!--MD5=[ab73c9575a28518aec1dc8dfa9c040e4]
reverse link Property to ScalarField--><path codeLine="157" d="M1061.3,348.5106 C1037.66,433.9406 991.39,600.4506 951,741.6406 C946.13,758.6606 940.64,777.4906 935.97,793.4306 " fill="none" id="Property-backto-ScalarField" style="stroke:#A80036;stroke-width:1.0;"/><polygon fill="#FFFFFF" points="1064.82,335.7606,1059.3681,340.4805,1061.628,347.3283,1067.0799,342.6085,1064.82,335.7606" style="stroke:#A80036;stroke-width:1.0;"/><text fill="#000000" font-family="sans-serif" font-size="13" lengthAdjust="spacing" textLength="7" x="930.3006" y="782.7551">1</text><!--MD5=[6fd7e8cbba2f10ef908d5dd2560dbd01]
reverse link MaterialMapping to ScalarField--><path codeLine="158" d="M1183.03,484.6606 C1165.45,549.7406 1127.42,664.2406 1062,741.6406 C1037.56,770.5606 1001.35,793.5206 972.3,808.8706 " fill="none" id="MaterialMapping-backto-ScalarField" style="stroke:#A80036;stroke-width:1.0;"/><polygon fill="#FFFFFF" points="1186.38,471.9406,1180.9877,476.7284,1183.3332,483.5474,1188.7255,478.7596,1186.38,471.9406" style="stroke:#A80036;stroke-width:1.0;"/><text fill="#000000" font-family="sans-serif" font-size="13" lengthAdjust="spacing" textLength="7" x="980.0787" y="801.7061">1</text><!--MD5=[c9df3e22c29f3c34d5c54bbb3658528e]
reverse link Mesh to VolumeData--><path codeLine="162" d="M1001,90.9806 C1001,106.3206 1001,123.7406 1001,137.3206 " fill="none" id="Mesh-backto-VolumeData" style="stroke:#A80036;stroke-width:1.0;"/><polygon fill="#A80036" points="1001,77.6406,997,83.6406,1001,89.6406,1005,83.6406,1001,77.6406" style="stroke:#A80036;stroke-width:1.0;"/><!--MD5=[28d19792065ea120d7e558a5891e5c52]
@startuml

title 3MF Volumetric 3D-Vector & Scalar Fields

package Image3D
{
    class Image3D
    {
        id : resourceID
        name : string
    }
    
    Class ImageStack extends Image3D
    {
        rowcount : int
        colcount : int
        sheetcount : int
    }

    Class ImageSheet
    {
        path : string (PNG)
    }

    ImageStack *- - "1..*" ImageSheet
}

package ScalarFields
{
    Class ScalarField
    {
        id: resourceID
        name: string
    }

    Class ScalarFieldComposed extends ScalarField
    {
        method : string
        scalarfield1id : resourceID
        scalarfield2id : resourceID
        scalarmaskfieldid : resourceID
        factor1 : double
        factor2 : double
        transform1 : transform
        transform2 : transform
        transformmask : transform
    }

    Class ScalarFieldFromImage3D extends ScalarField
    {
        image3did : resourceID
        channel : string
        filter : string
        valueoffset: double
        valuescale: double
        tilestyleu : string
        tilestylev : string
        tilestylew : string
    }

    Class ScalarFieldConstant extends ScalarField
    {
        value: double
    }

    ScalarFieldComposed o- - "1..3" ScalarField
    ScalarFieldFromImage3D o- - "1" Image3D
}

package Vector3DFields
{
    Class Vector3DField
    {
        id: resourceID
        name: string
    }

    Class Vector3DFieldComposed extends Vector3DField
    {
        method : string
        vector3dfield1id : resourceID
        vector3dfield2id : resourceID
        scalarmaskfieldid : resourceID
        factor1 : double
        factor2 : double
        transform1 : transform
        transform2 : transform
        transformmask : transform
        compositionspace : string
    }

    Class Vector3DFieldFromImage3D extends Vector3DField
    {
        image3did : resourceID
        valueoffset: double
        valuescale: double
        filter : string
        tilestyleu : string
        tilestylev : string
        tilestylew : string
    }

    Class Vector3DFieldConstant extends Vector3DField
    {
        valuex: double
        valuey: double
        valuez: double
    }

    Vector3DFieldComposed o- - "2" Vector3DField
    Vector3DFieldComposed o- - "0..1 mask" ScalarField
    Vector3DFieldFromImage3D o- - "1" Image3D
}

package VolumetricData
{
    Class VolumeData

    Class Boundary
    {
        transform : matrix
        solidthreshold : double
        scalarfieldid : resourceID
    }

    Class Color
    {
        vector3dfieldid : resourceID
        transform : matrix
    }

    Class Property
    {
        name : string
        transform : matrix
        fieldid : resourceID
    }

    Class Composite
    {
        basematerialid : resourceID
    }

    Class MaterialMapping
    {
        scalarfieldid : resourceID
        transform : matrix
    }        

    VolumeData *- - "0..1" Boundary
    VolumeData *- - "0..1" Color
    VolumeData *- - "0..*" Property
    VolumeData *- - "0..1" Composite
    Composite *- - "1..*" MaterialMapping

    Boundary o- - "1" ScalarField
    Color o- - "1" Vector3DField
    Property o- - "1" ScalarField
    MaterialMapping o- - "1" ScalarField
}

Class Mesh
Mesh *- - VolumeData

@enduml

PlantUML version 1.2021.14(Fri Nov 12 17:46:50 CET 2021)
(GPL source distribution)
Java Runtime: OpenJDK Runtime Environment
JVM: OpenJDK 64-Bit Server VM
Default Encoding: Cp1252
Language: en
Country: GB
--></g></svg>