<?xml version="1.0" encoding="UTF-8" standalone="no"?><svg xmlns="http://www.w3.org/2000/svg" xmlns:xlink="http://www.w3.org/1999/xlink" contentScriptType="application/ecmascript" contentStyleType="text/css" height="1413px" preserveAspectRatio="none" style="width:1048px;height:1413px;background:#FFFFFF;" version="1.1" viewBox="0 0 1048 1413" width="1048px" zoomAndPan="magnify"><defs><filter height="300%" id="ff0nhgv0023vm" width="300%" x="-1" y="-1"><feGaussianBlur result="blurOut" stdDeviation="2.0"/><feColorMatrix in="blurOut" result="blurOut2" type="matrix" values="0 0 0 0 0 0 0 0 0 0 0 0 0 0 0 0 0 0 .4 0"/><feOffset dx="4.0" dy="4.0" in="blurOut2" result="blurOut3"/><feBlend in="SourceGraphic" in2="blurOut3" mode="normal"/></filter></defs><g><text fill="#000000" font-family="sans-serif" font-size="18" lengthAdjust="spacing" textLength="298" x="368.5" y="18.6855">3MF Volumetric Color &amp; Scalar Fields</text><!--MD5=[ec712a6f9f0ad684330c1a57c4f8a2c9]
cluster Image--><polygon fill="#FFFFFF" filter="url(#ff0nhgv0023vm)" points="471,1115.6406,519,1115.6406,526,1139.25,619,1139.25,619,1406.6406,471,1406.6406,471,1115.6406" style="stroke:#000000;stroke-width:1.5;"/><line style="stroke:#000000;stroke-width:1.5;" x1="471" x2="526" y1="1139.25" y2="1139.25"/><text fill="#000000" font-family="sans-serif" font-size="14" font-weight="bold" lengthAdjust="spacing" textLength="42" x="475" y="1132.1738">Image</text><!--MD5=[4271d62f1c23f0ffdcc326a1f059de29]
cluster ScalarFields--><polygon fill="#FFFFFF" filter="url(#ff0nhgv0023vm)" points="470,744.6406,562,744.6406,569,768.25,869,768.25,869,1091.6406,470,1091.6406,470,744.6406" style="stroke:#000000;stroke-width:1.5;"/><line style="stroke:#000000;stroke-width:1.5;" x1="470" x2="569" y1="768.25" y2="768.25"/><text fill="#000000" font-family="sans-serif" font-size="14" font-weight="bold" lengthAdjust="spacing" textLength="86" x="474" y="761.1738">ScalarFields</text><!--MD5=[d082272748164006dae375b4a73134ea]
cluster ColorFields--><polygon fill="#FFFFFF" filter="url(#ff0nhgv0023vm)" points="16,366.6406,103,366.6406,110,390.25,410,390.25,410,720.6406,16,720.6406,16,366.6406" style="stroke:#000000;stroke-width:1.5;"/><line style="stroke:#000000;stroke-width:1.5;" x1="16" x2="110" y1="390.25" y2="390.25"/><text fill="#000000" font-family="sans-serif" font-size="14" font-weight="bold" lengthAdjust="spacing" textLength="81" x="20" y="383.1738">ColorFields</text><!--MD5=[e7c49030d54697640c80764a1a9ef766]
cluster VolumetricData--><polygon fill="#FFFFFF" filter="url(#ff0nhgv0023vm)" points="434,101.6406,546,101.6406,553,125.25,1031,125.25,1031,487.6406,434,487.6406,434,101.6406" style="stroke:#000000;stroke-width:1.5;"/><line style="stroke:#000000;stroke-width:1.5;" x1="434" x2="553" y1="125.25" y2="125.25"/><text fill="#000000" font-family="sans-serif" font-size="14" font-weight="bold" lengthAdjust="spacing" textLength="106" x="438" y="118.1738">VolumetricData</text><!--MD5=[b4808b9c5cf5b1233870d442f2cd9dfd]
class Image3D--><rect codeLine="6" fill="#FEFECE" filter="url(#ff0nhgv0023vm)" height="117.1797" id="Image3D" style="stroke:#A80036;stroke-width:1.5;" width="86" x="502" y="1151.6406"/><ellipse cx="518.35" cy="1167.6406" fill="#ADD1B2" rx="11" ry="11" style="stroke:#A80036;stroke-width:1.0;"/><path d="M521.1156,1163.5156 Q521.2719,1163.2969 521.4594,1163.1875 Q521.6469,1163.0781 521.8656,1163.0781 Q522.2406,1163.0781 522.475,1163.3438 Q522.7094,1163.5938 522.7094,1164.2031 L522.7094,1165.6563 Q522.7094,1166.2656 522.475,1166.5313 Q522.2406,1166.7969 521.8656,1166.7969 Q521.5219,1166.7969 521.3188,1166.5938 Q521.1156,1166.4063 521.0063,1165.8906 Q520.9594,1165.5313 520.7719,1165.3438 Q520.4438,1164.9688 519.8344,1164.75 Q519.225,1164.5313 518.6,1164.5313 Q517.8344,1164.5313 517.1938,1164.8594 Q516.5688,1165.1875 516.0688,1165.9375 Q515.5844,1166.6875 515.5844,1167.7188 L515.5844,1168.8125 Q515.5844,1170.0469 516.475,1170.875 Q517.3656,1171.6875 518.9594,1171.6875 Q519.8969,1171.6875 520.5531,1171.4375 Q520.9438,1171.2813 521.3656,1170.8438 Q521.6313,1170.5781 521.7719,1170.5 Q521.9281,1170.4219 522.1313,1170.4219 Q522.4594,1170.4219 522.7094,1170.6875 Q522.975,1170.9375 522.975,1171.2813 Q522.975,1171.625 522.6313,1172.0313 Q522.1313,1172.6094 521.3344,1172.9375 Q520.2563,1173.3906 518.9594,1173.3906 Q517.4438,1173.3906 516.2406,1172.7656 Q515.2563,1172.2656 514.5688,1171.2031 Q513.8813,1170.125 513.8813,1168.8438 L513.8813,1167.6875 Q513.8813,1166.3594 514.4906,1165.2188 Q515.1156,1164.0625 516.2094,1163.4531 Q517.3031,1162.8281 518.5375,1162.8281 Q519.2719,1162.8281 519.9125,1163 Q520.5688,1163.1563 521.1156,1163.5156 Z " fill="#000000"/><text fill="#000000" font-family="sans-serif" font-size="12" lengthAdjust="spacing" textLength="51" x="532.65" y="1172.5508">Image3D</text><line style="stroke:#A80036;stroke-width:1.5;" x1="503" x2="587" y1="1183.6406" y2="1183.6406"/><text fill="#000000" font-family="sans-serif" font-size="11" lengthAdjust="spacing" textLength="70" x="508" y="1199.0596">id : resourceID</text><text fill="#000000" font-family="sans-serif" font-size="11" lengthAdjust="spacing" textLength="62" x="508" y="1212.8955">name : string</text><text fill="#000000" font-family="sans-serif" font-size="11" lengthAdjust="spacing" textLength="67" x="508" y="1226.7314">rowcount : int</text><text fill="#000000" font-family="sans-serif" font-size="11" lengthAdjust="spacing" textLength="61" x="508" y="1240.5674">colcount : int</text><text fill="#000000" font-family="sans-serif" font-size="11" lengthAdjust="spacing" textLength="74" x="508" y="1254.4033">sheetcount : int</text><line style="stroke:#A80036;stroke-width:1.5;" x1="503" x2="587" y1="1260.8203" y2="1260.8203"/><!--MD5=[cc746aa407199c4bd2a066ce4a9ec816]
class Image3DSheet--><rect codeLine="15" fill="#FEFECE" filter="url(#ff0nhgv0023vm)" height="61.8359" id="Image3DSheet" style="stroke:#A80036;stroke-width:1.5;" width="115" x="487.5" y="1328.6406"/><ellipse cx="502.5" cy="1344.6406" fill="#ADD1B2" rx="11" ry="11" style="stroke:#A80036;stroke-width:1.0;"/><path d="M505.2656,1340.5156 Q505.4219,1340.2969 505.6094,1340.1875 Q505.7969,1340.0781 506.0156,1340.0781 Q506.3906,1340.0781 506.625,1340.3438 Q506.8594,1340.5938 506.8594,1341.2031 L506.8594,1342.6563 Q506.8594,1343.2656 506.625,1343.5313 Q506.3906,1343.7969 506.0156,1343.7969 Q505.6719,1343.7969 505.4688,1343.5938 Q505.2656,1343.4063 505.1563,1342.8906 Q505.1094,1342.5313 504.9219,1342.3438 Q504.5938,1341.9688 503.9844,1341.75 Q503.375,1341.5313 502.75,1341.5313 Q501.9844,1341.5313 501.3438,1341.8594 Q500.7188,1342.1875 500.2188,1342.9375 Q499.7344,1343.6875 499.7344,1344.7188 L499.7344,1345.8125 Q499.7344,1347.0469 500.625,1347.875 Q501.5156,1348.6875 503.1094,1348.6875 Q504.0469,1348.6875 504.7031,1348.4375 Q505.0938,1348.2813 505.5156,1347.8438 Q505.7813,1347.5781 505.9219,1347.5 Q506.0781,1347.4219 506.2813,1347.4219 Q506.6094,1347.4219 506.8594,1347.6875 Q507.125,1347.9375 507.125,1348.2813 Q507.125,1348.625 506.7813,1349.0313 Q506.2813,1349.6094 505.4844,1349.9375 Q504.4063,1350.3906 503.1094,1350.3906 Q501.5938,1350.3906 500.3906,1349.7656 Q499.4063,1349.2656 498.7188,1348.2031 Q498.0313,1347.125 498.0313,1345.8438 L498.0313,1344.6875 Q498.0313,1343.3594 498.6406,1342.2188 Q499.2656,1341.0625 500.3594,1340.4531 Q501.4531,1339.8281 502.6875,1339.8281 Q503.4219,1339.8281 504.0625,1340 Q504.7188,1340.1563 505.2656,1340.5156 Z " fill="#000000"/><text fill="#000000" font-family="sans-serif" font-size="12" lengthAdjust="spacing" textLength="83" x="516.5" y="1349.5508">Image3DSheet</text><line style="stroke:#A80036;stroke-width:1.5;" x1="488.5" x2="601.5" y1="1360.6406" y2="1360.6406"/><line style="stroke:#A80036;stroke-width:1.5;" x1="488.5" x2="601.5" y1="1368.6406" y2="1368.6406"/><text fill="#000000" font-family="sans-serif" font-size="11" lengthAdjust="spacing" textLength="89" x="493.5" y="1384.0596">path : string (PNG)</text><!--MD5=[a9ece860b0b649ceb50b5f0a9d3af6dc]
class ScalarField--><rect codeLine="25" fill="#FEFECE" filter="url(#ff0nhgv0023vm)" height="61.8359" id="ScalarField" style="stroke:#A80036;stroke-width:1.5;" width="94" x="618" y="780.6406"/><ellipse cx="633" cy="796.6406" fill="#ADD1B2" rx="11" ry="11" style="stroke:#A80036;stroke-width:1.0;"/><path d="M635.7656,792.5156 Q635.9219,792.2969 636.1094,792.1875 Q636.2969,792.0781 636.5156,792.0781 Q636.8906,792.0781 637.125,792.3438 Q637.3594,792.5938 637.3594,793.2031 L637.3594,794.6563 Q637.3594,795.2656 637.125,795.5313 Q636.8906,795.7969 636.5156,795.7969 Q636.1719,795.7969 635.9688,795.5938 Q635.7656,795.4063 635.6563,794.8906 Q635.6094,794.5313 635.4219,794.3438 Q635.0938,793.9688 634.4844,793.75 Q633.875,793.5313 633.25,793.5313 Q632.4844,793.5313 631.8438,793.8594 Q631.2188,794.1875 630.7188,794.9375 Q630.2344,795.6875 630.2344,796.7188 L630.2344,797.8125 Q630.2344,799.0469 631.125,799.875 Q632.0156,800.6875 633.6094,800.6875 Q634.5469,800.6875 635.2031,800.4375 Q635.5938,800.2813 636.0156,799.8438 Q636.2813,799.5781 636.4219,799.5 Q636.5781,799.4219 636.7813,799.4219 Q637.1094,799.4219 637.3594,799.6875 Q637.625,799.9375 637.625,800.2813 Q637.625,800.625 637.2813,801.0313 Q636.7813,801.6094 635.9844,801.9375 Q634.9063,802.3906 633.6094,802.3906 Q632.0938,802.3906 630.8906,801.7656 Q629.9063,801.2656 629.2188,800.2031 Q628.5313,799.125 628.5313,797.8438 L628.5313,796.6875 Q628.5313,795.3594 629.1406,794.2188 Q629.7656,793.0625 630.8594,792.4531 Q631.9531,791.8281 633.1875,791.8281 Q633.9219,791.8281 634.5625,792 Q635.2188,792.1563 635.7656,792.5156 Z " fill="#000000"/><text fill="#000000" font-family="sans-serif" font-size="12" lengthAdjust="spacing" textLength="62" x="647" y="801.5508">ScalarField</text><line style="stroke:#A80036;stroke-width:1.5;" x1="619" x2="711" y1="812.6406" y2="812.6406"/><text fill="#000000" font-family="sans-serif" font-size="11" lengthAdjust="spacing" textLength="67" x="624" y="828.0596">id: resourceID</text><line style="stroke:#A80036;stroke-width:1.5;" x1="619" x2="711" y1="834.4766" y2="834.4766"/><!--MD5=[e245fda10101800b637954752fb5e969]
class ScalarFieldComposed--><rect codeLine="30" fill="#FEFECE" filter="url(#ff0nhgv0023vm)" height="172.5234" id="ScalarFieldComposed" style="stroke:#A80036;stroke-width:1.5;" width="157" x="486.5" y="902.6406"/><ellipse cx="501.95" cy="918.6406" fill="#ADD1B2" rx="11" ry="11" style="stroke:#A80036;stroke-width:1.0;"/><path d="M504.7156,914.5156 Q504.8719,914.2969 505.0594,914.1875 Q505.2469,914.0781 505.4656,914.0781 Q505.8406,914.0781 506.075,914.3438 Q506.3094,914.5938 506.3094,915.2031 L506.3094,916.6563 Q506.3094,917.2656 506.075,917.5313 Q505.8406,917.7969 505.4656,917.7969 Q505.1219,917.7969 504.9188,917.5938 Q504.7156,917.4063 504.6063,916.8906 Q504.5594,916.5313 504.3719,916.3438 Q504.0438,915.9688 503.4344,915.75 Q502.825,915.5313 502.2,915.5313 Q501.4344,915.5313 500.7938,915.8594 Q500.1688,916.1875 499.6688,916.9375 Q499.1844,917.6875 499.1844,918.7188 L499.1844,919.8125 Q499.1844,921.0469 500.075,921.875 Q500.9656,922.6875 502.5594,922.6875 Q503.4969,922.6875 504.1531,922.4375 Q504.5438,922.2813 504.9656,921.8438 Q505.2313,921.5781 505.3719,921.5 Q505.5281,921.4219 505.7313,921.4219 Q506.0594,921.4219 506.3094,921.6875 Q506.575,921.9375 506.575,922.2813 Q506.575,922.625 506.2313,923.0313 Q505.7313,923.6094 504.9344,923.9375 Q503.8563,924.3906 502.5594,924.3906 Q501.0438,924.3906 499.8406,923.7656 Q498.8563,923.2656 498.1688,922.2031 Q497.4813,921.125 497.4813,919.8438 L497.4813,918.6875 Q497.4813,917.3594 498.0906,916.2188 Q498.7156,915.0625 499.8094,914.4531 Q500.9031,913.8281 502.1375,913.8281 Q502.8719,913.8281 503.5125,914 Q504.1688,914.1563 504.7156,914.5156 Z " fill="#000000"/><text fill="#000000" font-family="sans-serif" font-size="12" lengthAdjust="spacing" textLength="124" x="516.05" y="923.5508">ScalarFieldComposed</text><line style="stroke:#A80036;stroke-width:1.5;" x1="487.5" x2="642.5" y1="934.6406" y2="934.6406"/><text fill="#000000" font-family="sans-serif" font-size="11" lengthAdjust="spacing" textLength="97" x="492.5" y="950.0596">blendmethod : string</text><text fill="#000000" font-family="sans-serif" font-size="11" lengthAdjust="spacing" textLength="126" x="492.5" y="963.8955">scalarfield1id : resourceID</text><text fill="#000000" font-family="sans-serif" font-size="11" lengthAdjust="spacing" textLength="126" x="492.5" y="977.7314">scalarfield2id : resourceID</text><text fill="#000000" font-family="sans-serif" font-size="11" lengthAdjust="spacing" textLength="145" x="492.5" y="991.5674">scalarmaskfieldid : resourceID</text><text fill="#000000" font-family="sans-serif" font-size="11" lengthAdjust="spacing" textLength="76" x="492.5" y="1005.4033">factor1 : double</text><text fill="#000000" font-family="sans-serif" font-size="11" lengthAdjust="spacing" textLength="76" x="492.5" y="1019.2393">factor2 : double</text><text fill="#000000" font-family="sans-serif" font-size="11" lengthAdjust="spacing" textLength="109" x="492.5" y="1033.0752">transform1 : transform</text><text fill="#000000" font-family="sans-serif" font-size="11" lengthAdjust="spacing" textLength="109" x="492.5" y="1046.9111">transform2 : transform</text><text fill="#000000" font-family="sans-serif" font-size="11" lengthAdjust="spacing" textLength="128" x="492.5" y="1060.7471">transformmask : transform</text><line style="stroke:#A80036;stroke-width:1.5;" x1="487.5" x2="642.5" y1="1067.1641" y2="1067.1641"/><!--MD5=[c0e114045df970bda153c32207fd0c9c]
class ScalarFieldFromImage3D--><rect codeLine="43" fill="#FEFECE" filter="url(#ff0nhgv0023vm)" height="158.6875" id="ScalarFieldFromImage3D" style="stroke:#A80036;stroke-width:1.5;" width="174" x="679" y="909.6406"/><ellipse cx="694" cy="925.6406" fill="#ADD1B2" rx="11" ry="11" style="stroke:#A80036;stroke-width:1.0;"/><path d="M696.7656,921.5156 Q696.9219,921.2969 697.1094,921.1875 Q697.2969,921.0781 697.5156,921.0781 Q697.8906,921.0781 698.125,921.3438 Q698.3594,921.5938 698.3594,922.2031 L698.3594,923.6563 Q698.3594,924.2656 698.125,924.5313 Q697.8906,924.7969 697.5156,924.7969 Q697.1719,924.7969 696.9688,924.5938 Q696.7656,924.4063 696.6563,923.8906 Q696.6094,923.5313 696.4219,923.3438 Q696.0938,922.9688 695.4844,922.75 Q694.875,922.5313 694.25,922.5313 Q693.4844,922.5313 692.8438,922.8594 Q692.2188,923.1875 691.7188,923.9375 Q691.2344,924.6875 691.2344,925.7188 L691.2344,926.8125 Q691.2344,928.0469 692.125,928.875 Q693.0156,929.6875 694.6094,929.6875 Q695.5469,929.6875 696.2031,929.4375 Q696.5938,929.2813 697.0156,928.8438 Q697.2813,928.5781 697.4219,928.5 Q697.5781,928.4219 697.7813,928.4219 Q698.1094,928.4219 698.3594,928.6875 Q698.625,928.9375 698.625,929.2813 Q698.625,929.625 698.2813,930.0313 Q697.7813,930.6094 696.9844,930.9375 Q695.9063,931.3906 694.6094,931.3906 Q693.0938,931.3906 691.8906,930.7656 Q690.9063,930.2656 690.2188,929.2031 Q689.5313,928.125 689.5313,926.8438 L689.5313,925.6875 Q689.5313,924.3594 690.1406,923.2188 Q690.7656,922.0625 691.8594,921.4531 Q692.9531,920.8281 694.1875,920.8281 Q694.9219,920.8281 695.5625,921 Q696.2188,921.1563 696.7656,921.5156 Z " fill="#000000"/><text fill="#000000" font-family="sans-serif" font-size="12" lengthAdjust="spacing" textLength="142" x="708" y="930.5508">ScalarFieldFromImage3D</text><line style="stroke:#A80036;stroke-width:1.5;" x1="680" x2="852" y1="941.6406" y2="941.6406"/><text fill="#000000" font-family="sans-serif" font-size="11" lengthAdjust="spacing" textLength="110" x="685" y="957.0596">image3did : resourceID</text><text fill="#000000" font-family="sans-serif" font-size="11" lengthAdjust="spacing" textLength="74" x="685" y="970.8955">channel : string</text><text fill="#000000" font-family="sans-serif" font-size="11" lengthAdjust="spacing" textLength="57" x="685" y="984.7314">filter : string</text><text fill="#000000" font-family="sans-serif" font-size="11" lengthAdjust="spacing" textLength="93" x="685" y="998.5674">valueoffset: double</text><text fill="#000000" font-family="sans-serif" font-size="11" lengthAdjust="spacing" textLength="90" x="685" y="1012.4033">valuescale: double</text><text fill="#000000" font-family="sans-serif" font-size="11" lengthAdjust="spacing" textLength="78" x="685" y="1026.2393">tilestyleu : string</text><text fill="#000000" font-family="sans-serif" font-size="11" lengthAdjust="spacing" textLength="78" x="685" y="1040.0752">tilestylev : string</text><text fill="#000000" font-family="sans-serif" font-size="11" lengthAdjust="spacing" textLength="82" x="685" y="1053.9111">tilestylew : string</text><line style="stroke:#A80036;stroke-width:1.5;" x1="680" x2="852" y1="1060.3281" y2="1060.3281"/><!--MD5=[41f8c580327acedeef39b1c4413de103]
class ColorField--><rect codeLine="61" fill="#FEFECE" filter="url(#ff0nhgv0023vm)" height="61.8359" id="ColorField" style="stroke:#A80036;stroke-width:1.5;" width="89" x="270.5" y="402.6406"/><ellipse cx="285.5" cy="418.6406" fill="#ADD1B2" rx="11" ry="11" style="stroke:#A80036;stroke-width:1.0;"/><path d="M288.2656,414.5156 Q288.4219,414.2969 288.6094,414.1875 Q288.7969,414.0781 289.0156,414.0781 Q289.3906,414.0781 289.625,414.3438 Q289.8594,414.5938 289.8594,415.2031 L289.8594,416.6563 Q289.8594,417.2656 289.625,417.5313 Q289.3906,417.7969 289.0156,417.7969 Q288.6719,417.7969 288.4688,417.5938 Q288.2656,417.4063 288.1563,416.8906 Q288.1094,416.5313 287.9219,416.3438 Q287.5938,415.9688 286.9844,415.75 Q286.375,415.5313 285.75,415.5313 Q284.9844,415.5313 284.3438,415.8594 Q283.7188,416.1875 283.2188,416.9375 Q282.7344,417.6875 282.7344,418.7188 L282.7344,419.8125 Q282.7344,421.0469 283.625,421.875 Q284.5156,422.6875 286.1094,422.6875 Q287.0469,422.6875 287.7031,422.4375 Q288.0938,422.2813 288.5156,421.8438 Q288.7813,421.5781 288.9219,421.5 Q289.0781,421.4219 289.2813,421.4219 Q289.6094,421.4219 289.8594,421.6875 Q290.125,421.9375 290.125,422.2813 Q290.125,422.625 289.7813,423.0313 Q289.2813,423.6094 288.4844,423.9375 Q287.4063,424.3906 286.1094,424.3906 Q284.5938,424.3906 283.3906,423.7656 Q282.4063,423.2656 281.7188,422.2031 Q281.0313,421.125 281.0313,419.8438 L281.0313,418.6875 Q281.0313,417.3594 281.6406,416.2188 Q282.2656,415.0625 283.3594,414.4531 Q284.4531,413.8281 285.6875,413.8281 Q286.4219,413.8281 287.0625,414 Q287.7188,414.1563 288.2656,414.5156 Z " fill="#000000"/><text fill="#000000" font-family="sans-serif" font-size="12" lengthAdjust="spacing" textLength="57" x="299.5" y="423.5508">ColorField</text><line style="stroke:#A80036;stroke-width:1.5;" x1="271.5" x2="358.5" y1="434.6406" y2="434.6406"/><text fill="#000000" font-family="sans-serif" font-size="11" lengthAdjust="spacing" textLength="67" x="276.5" y="450.0596">id: resourceID</text><line style="stroke:#A80036;stroke-width:1.5;" x1="271.5" x2="358.5" y1="456.4766" y2="456.4766"/><!--MD5=[650e034fbc06fac58b4ce8939030dc8b]
class ColorFieldComposed--><rect codeLine="66" fill="#FEFECE" filter="url(#ff0nhgv0023vm)" height="172.5234" id="ColorFieldComposed" style="stroke:#A80036;stroke-width:1.5;" width="157" x="236.5" y="531.6406"/><ellipse cx="254.2" cy="547.6406" fill="#ADD1B2" rx="11" ry="11" style="stroke:#A80036;stroke-width:1.0;"/><path d="M256.9656,543.5156 Q257.1219,543.2969 257.3094,543.1875 Q257.4969,543.0781 257.7156,543.0781 Q258.0906,543.0781 258.325,543.3438 Q258.5594,543.5938 258.5594,544.2031 L258.5594,545.6563 Q258.5594,546.2656 258.325,546.5313 Q258.0906,546.7969 257.7156,546.7969 Q257.3719,546.7969 257.1688,546.5938 Q256.9656,546.4063 256.8563,545.8906 Q256.8094,545.5313 256.6219,545.3438 Q256.2938,544.9688 255.6844,544.75 Q255.075,544.5313 254.45,544.5313 Q253.6844,544.5313 253.0438,544.8594 Q252.4188,545.1875 251.9188,545.9375 Q251.4344,546.6875 251.4344,547.7188 L251.4344,548.8125 Q251.4344,550.0469 252.325,550.875 Q253.2156,551.6875 254.8094,551.6875 Q255.7469,551.6875 256.4031,551.4375 Q256.7938,551.2813 257.2156,550.8438 Q257.4813,550.5781 257.6219,550.5 Q257.7781,550.4219 257.9813,550.4219 Q258.3094,550.4219 258.5594,550.6875 Q258.825,550.9375 258.825,551.2813 Q258.825,551.625 258.4813,552.0313 Q257.9813,552.6094 257.1844,552.9375 Q256.1063,553.3906 254.8094,553.3906 Q253.2938,553.3906 252.0906,552.7656 Q251.1063,552.2656 250.4188,551.2031 Q249.7313,550.125 249.7313,548.8438 L249.7313,547.6875 Q249.7313,546.3594 250.3406,545.2188 Q250.9656,544.0625 252.0594,543.4531 Q253.1531,542.8281 254.3875,542.8281 Q255.1219,542.8281 255.7625,543 Q256.4188,543.1563 256.9656,543.5156 Z " fill="#000000"/><text fill="#000000" font-family="sans-serif" font-size="12" lengthAdjust="spacing" textLength="119" x="268.8" y="552.5508">ColorFieldComposed</text><line style="stroke:#A80036;stroke-width:1.5;" x1="237.5" x2="392.5" y1="563.6406" y2="563.6406"/><text fill="#000000" font-family="sans-serif" font-size="11" lengthAdjust="spacing" textLength="97" x="242.5" y="579.0596">blendmethod : string</text><text fill="#000000" font-family="sans-serif" font-size="11" lengthAdjust="spacing" textLength="120" x="242.5" y="592.8955">colorfield1id : resourceID</text><text fill="#000000" font-family="sans-serif" font-size="11" lengthAdjust="spacing" textLength="120" x="242.5" y="606.7314">colorfield2id : resourceID</text><text fill="#000000" font-family="sans-serif" font-size="11" lengthAdjust="spacing" textLength="145" x="242.5" y="620.5674">scalarmaskfieldid : resourceID</text><text fill="#000000" font-family="sans-serif" font-size="11" lengthAdjust="spacing" textLength="76" x="242.5" y="634.4033">factor1 : double</text><text fill="#000000" font-family="sans-serif" font-size="11" lengthAdjust="spacing" textLength="76" x="242.5" y="648.2393">factor2 : double</text><text fill="#000000" font-family="sans-serif" font-size="11" lengthAdjust="spacing" textLength="109" x="242.5" y="662.0752">transform1 : transform</text><text fill="#000000" font-family="sans-serif" font-size="11" lengthAdjust="spacing" textLength="109" x="242.5" y="675.9111">transform2 : transform</text><text fill="#000000" font-family="sans-serif" font-size="11" lengthAdjust="spacing" textLength="128" x="242.5" y="689.7471">transformmask : transform</text><line style="stroke:#A80036;stroke-width:1.5;" x1="237.5" x2="392.5" y1="696.1641" y2="696.1641"/><!--MD5=[1f60fe70d9419e90e3d6524ce79a2e6f]
class ColorFieldFromImage3D--><rect codeLine="79" fill="#FEFECE" filter="url(#ff0nhgv0023vm)" height="117.1797" id="ColorFieldFromImage3D" style="stroke:#A80036;stroke-width:1.5;" width="169" x="32.5" y="559.6406"/><ellipse cx="47.5" cy="575.6406" fill="#ADD1B2" rx="11" ry="11" style="stroke:#A80036;stroke-width:1.0;"/><path d="M50.2656,571.5156 Q50.4219,571.2969 50.6094,571.1875 Q50.7969,571.0781 51.0156,571.0781 Q51.3906,571.0781 51.625,571.3438 Q51.8594,571.5938 51.8594,572.2031 L51.8594,573.6563 Q51.8594,574.2656 51.625,574.5313 Q51.3906,574.7969 51.0156,574.7969 Q50.6719,574.7969 50.4688,574.5938 Q50.2656,574.4063 50.1563,573.8906 Q50.1094,573.5313 49.9219,573.3438 Q49.5938,572.9688 48.9844,572.75 Q48.375,572.5313 47.75,572.5313 Q46.9844,572.5313 46.3438,572.8594 Q45.7188,573.1875 45.2188,573.9375 Q44.7344,574.6875 44.7344,575.7188 L44.7344,576.8125 Q44.7344,578.0469 45.625,578.875 Q46.5156,579.6875 48.1094,579.6875 Q49.0469,579.6875 49.7031,579.4375 Q50.0938,579.2813 50.5156,578.8438 Q50.7813,578.5781 50.9219,578.5 Q51.0781,578.4219 51.2813,578.4219 Q51.6094,578.4219 51.8594,578.6875 Q52.125,578.9375 52.125,579.2813 Q52.125,579.625 51.7813,580.0313 Q51.2813,580.6094 50.4844,580.9375 Q49.4063,581.3906 48.1094,581.3906 Q46.5938,581.3906 45.3906,580.7656 Q44.4063,580.2656 43.7188,579.2031 Q43.0313,578.125 43.0313,576.8438 L43.0313,575.6875 Q43.0313,574.3594 43.6406,573.2188 Q44.2656,572.0625 45.3594,571.4531 Q46.4531,570.8281 47.6875,570.8281 Q48.4219,570.8281 49.0625,571 Q49.7188,571.1563 50.2656,571.5156 Z " fill="#000000"/><text fill="#000000" font-family="sans-serif" font-size="12" lengthAdjust="spacing" textLength="137" x="61.5" y="580.5508">ColorFieldFromImage3D</text><line style="stroke:#A80036;stroke-width:1.5;" x1="33.5" x2="200.5" y1="591.6406" y2="591.6406"/><text fill="#000000" font-family="sans-serif" font-size="11" lengthAdjust="spacing" textLength="110" x="38.5" y="607.0596">image3did : resourceID</text><text fill="#000000" font-family="sans-serif" font-size="11" lengthAdjust="spacing" textLength="57" x="38.5" y="620.8955">filter : string</text><text fill="#000000" font-family="sans-serif" font-size="11" lengthAdjust="spacing" textLength="78" x="38.5" y="634.7314">tilestyleu : string</text><text fill="#000000" font-family="sans-serif" font-size="11" lengthAdjust="spacing" textLength="78" x="38.5" y="648.5674">tilestylev : string</text><text fill="#000000" font-family="sans-serif" font-size="11" lengthAdjust="spacing" textLength="82" x="38.5" y="662.4033">tilestylew : string</text><line style="stroke:#A80036;stroke-width:1.5;" x1="33.5" x2="200.5" y1="668.8203" y2="668.8203"/><!--MD5=[e3c611ee9481c32d6958c737645ef343]
class VolumeData--><rect codeLine="95" fill="#FEFECE" filter="url(#ff0nhgv0023vm)" height="48" id="VolumeData" style="stroke:#A80036;stroke-width:1.5;" width="100" x="694" y="137.6406"/><ellipse cx="709" cy="153.6406" fill="#ADD1B2" rx="11" ry="11" style="stroke:#A80036;stroke-width:1.0;"/><path d="M711.7656,149.5156 Q711.9219,149.2969 712.1094,149.1875 Q712.2969,149.0781 712.5156,149.0781 Q712.8906,149.0781 713.125,149.3438 Q713.3594,149.5938 713.3594,150.2031 L713.3594,151.6563 Q713.3594,152.2656 713.125,152.5313 Q712.8906,152.7969 712.5156,152.7969 Q712.1719,152.7969 711.9688,152.5938 Q711.7656,152.4063 711.6563,151.8906 Q711.6094,151.5313 711.4219,151.3438 Q711.0938,150.9688 710.4844,150.75 Q709.875,150.5313 709.25,150.5313 Q708.4844,150.5313 707.8438,150.8594 Q707.2188,151.1875 706.7188,151.9375 Q706.2344,152.6875 706.2344,153.7188 L706.2344,154.8125 Q706.2344,156.0469 707.125,156.875 Q708.0156,157.6875 709.6094,157.6875 Q710.5469,157.6875 711.2031,157.4375 Q711.5938,157.2813 712.0156,156.8438 Q712.2813,156.5781 712.4219,156.5 Q712.5781,156.4219 712.7813,156.4219 Q713.1094,156.4219 713.3594,156.6875 Q713.625,156.9375 713.625,157.2813 Q713.625,157.625 713.2813,158.0313 Q712.7813,158.6094 711.9844,158.9375 Q710.9063,159.3906 709.6094,159.3906 Q708.0938,159.3906 706.8906,158.7656 Q705.9063,158.2656 705.2188,157.2031 Q704.5313,156.125 704.5313,154.8438 L704.5313,153.6875 Q704.5313,152.3594 705.1406,151.2188 Q705.7656,150.0625 706.8594,149.4531 Q707.9531,148.8281 709.1875,148.8281 Q709.9219,148.8281 710.5625,149 Q711.2188,149.1563 711.7656,149.5156 Z " fill="#000000"/><text fill="#000000" font-family="sans-serif" font-size="12" lengthAdjust="spacing" textLength="68" x="723" y="158.5508">VolumeData</text><line style="stroke:#A80036;stroke-width:1.5;" x1="695" x2="793" y1="169.6406" y2="169.6406"/><line style="stroke:#A80036;stroke-width:1.5;" x1="695" x2="793" y1="177.6406" y2="177.6406"/><!--MD5=[d4eea0a2640b0744e449422abbb6da5e]
class Boundary--><rect codeLine="97" fill="#FEFECE" filter="url(#ff0nhgv0023vm)" height="89.5078" id="Boundary" style="stroke:#A80036;stroke-width:1.5;" width="124" x="603" y="245.6406"/><ellipse cx="636" cy="261.6406" fill="#ADD1B2" rx="11" ry="11" style="stroke:#A80036;stroke-width:1.0;"/><path d="M638.7656,257.5156 Q638.9219,257.2969 639.1094,257.1875 Q639.2969,257.0781 639.5156,257.0781 Q639.8906,257.0781 640.125,257.3438 Q640.3594,257.5938 640.3594,258.2031 L640.3594,259.6563 Q640.3594,260.2656 640.125,260.5313 Q639.8906,260.7969 639.5156,260.7969 Q639.1719,260.7969 638.9688,260.5938 Q638.7656,260.4063 638.6563,259.8906 Q638.6094,259.5313 638.4219,259.3438 Q638.0938,258.9688 637.4844,258.75 Q636.875,258.5313 636.25,258.5313 Q635.4844,258.5313 634.8438,258.8594 Q634.2188,259.1875 633.7188,259.9375 Q633.2344,260.6875 633.2344,261.7188 L633.2344,262.8125 Q633.2344,264.0469 634.125,264.875 Q635.0156,265.6875 636.6094,265.6875 Q637.5469,265.6875 638.2031,265.4375 Q638.5938,265.2813 639.0156,264.8438 Q639.2813,264.5781 639.4219,264.5 Q639.5781,264.4219 639.7813,264.4219 Q640.1094,264.4219 640.3594,264.6875 Q640.625,264.9375 640.625,265.2813 Q640.625,265.625 640.2813,266.0313 Q639.7813,266.6094 638.9844,266.9375 Q637.9063,267.3906 636.6094,267.3906 Q635.0938,267.3906 633.8906,266.7656 Q632.9063,266.2656 632.2188,265.2031 Q631.5313,264.125 631.5313,262.8438 L631.5313,261.6875 Q631.5313,260.3594 632.1406,259.2188 Q632.7656,258.0625 633.8594,257.4531 Q634.9531,256.8281 636.1875,256.8281 Q636.9219,256.8281 637.5625,257 Q638.2188,257.1563 638.7656,257.5156 Z " fill="#000000"/><text fill="#000000" font-family="sans-serif" font-size="12" lengthAdjust="spacing" textLength="52" x="654" y="266.5508">Boundary</text><line style="stroke:#A80036;stroke-width:1.5;" x1="604" x2="726" y1="277.6406" y2="277.6406"/><text fill="#000000" font-family="sans-serif" font-size="11" lengthAdjust="spacing" textLength="85" x="609" y="293.0596">transform : matrix</text><text fill="#000000" font-family="sans-serif" font-size="11" lengthAdjust="spacing" textLength="108" x="609" y="306.8955">solidthreshold : double</text><text fill="#000000" font-family="sans-serif" font-size="11" lengthAdjust="spacing" textLength="112" x="609" y="320.7314">scalarfield : resourceID</text><line style="stroke:#A80036;stroke-width:1.5;" x1="604" x2="726" y1="327.1484" y2="327.1484"/><!--MD5=[18eee71c88ab61f27581b8cbdd3ef5ee]
class Color--><rect codeLine="104" fill="#FEFECE" filter="url(#ff0nhgv0023vm)" height="75.6719" id="Color" style="stroke:#A80036;stroke-width:1.5;" width="118" x="450" y="252.6406"/><ellipse cx="490.2" cy="268.6406" fill="#ADD1B2" rx="11" ry="11" style="stroke:#A80036;stroke-width:1.0;"/><path d="M492.9656,264.5156 Q493.1219,264.2969 493.3094,264.1875 Q493.4969,264.0781 493.7156,264.0781 Q494.0906,264.0781 494.325,264.3438 Q494.5594,264.5938 494.5594,265.2031 L494.5594,266.6563 Q494.5594,267.2656 494.325,267.5313 Q494.0906,267.7969 493.7156,267.7969 Q493.3719,267.7969 493.1688,267.5938 Q492.9656,267.4063 492.8563,266.8906 Q492.8094,266.5313 492.6219,266.3438 Q492.2938,265.9688 491.6844,265.75 Q491.075,265.5313 490.45,265.5313 Q489.6844,265.5313 489.0438,265.8594 Q488.4188,266.1875 487.9188,266.9375 Q487.4344,267.6875 487.4344,268.7188 L487.4344,269.8125 Q487.4344,271.0469 488.325,271.875 Q489.2156,272.6875 490.8094,272.6875 Q491.7469,272.6875 492.4031,272.4375 Q492.7938,272.2813 493.2156,271.8438 Q493.4813,271.5781 493.6219,271.5 Q493.7781,271.4219 493.9813,271.4219 Q494.3094,271.4219 494.5594,271.6875 Q494.825,271.9375 494.825,272.2813 Q494.825,272.625 494.4813,273.0313 Q493.9813,273.6094 493.1844,273.9375 Q492.1063,274.3906 490.8094,274.3906 Q489.2938,274.3906 488.0906,273.7656 Q487.1063,273.2656 486.4188,272.2031 Q485.7313,271.125 485.7313,269.8438 L485.7313,268.6875 Q485.7313,267.3594 486.3406,266.2188 Q486.9656,265.0625 488.0594,264.4531 Q489.1531,263.8281 490.3875,263.8281 Q491.1219,263.8281 491.7625,264 Q492.4188,264.1563 492.9656,264.5156 Z " fill="#000000"/><text fill="#000000" font-family="sans-serif" font-size="12" lengthAdjust="spacing" textLength="30" x="509.8" y="273.5508">Color</text><line style="stroke:#A80036;stroke-width:1.5;" x1="451" x2="567" y1="284.6406" y2="284.6406"/><text fill="#000000" font-family="sans-serif" font-size="11" lengthAdjust="spacing" textLength="85" x="456" y="300.0596">transform : matrix</text><text fill="#000000" font-family="sans-serif" font-size="11" lengthAdjust="spacing" textLength="106" x="456" y="313.8955">colorfield : resourceID</text><line style="stroke:#A80036;stroke-width:1.5;" x1="451" x2="567" y1="320.3125" y2="320.3125"/><!--MD5=[6b626634f3bb0842bebd5e499c80b711]
class Property--><rect codeLine="110" fill="#FEFECE" filter="url(#ff0nhgv0023vm)" height="89.5078" id="Property" style="stroke:#A80036;stroke-width:1.5;" width="124" x="762" y="245.6406"/><ellipse cx="798.15" cy="261.6406" fill="#ADD1B2" rx="11" ry="11" style="stroke:#A80036;stroke-width:1.0;"/><path d="M800.9156,257.5156 Q801.0719,257.2969 801.2594,257.1875 Q801.4469,257.0781 801.6656,257.0781 Q802.0406,257.0781 802.275,257.3438 Q802.5094,257.5938 802.5094,258.2031 L802.5094,259.6563 Q802.5094,260.2656 802.275,260.5313 Q802.0406,260.7969 801.6656,260.7969 Q801.3219,260.7969 801.1188,260.5938 Q800.9156,260.4063 800.8063,259.8906 Q800.7594,259.5313 800.5719,259.3438 Q800.2438,258.9688 799.6344,258.75 Q799.025,258.5313 798.4,258.5313 Q797.6344,258.5313 796.9938,258.8594 Q796.3688,259.1875 795.8688,259.9375 Q795.3844,260.6875 795.3844,261.7188 L795.3844,262.8125 Q795.3844,264.0469 796.275,264.875 Q797.1656,265.6875 798.7594,265.6875 Q799.6969,265.6875 800.3531,265.4375 Q800.7438,265.2813 801.1656,264.8438 Q801.4313,264.5781 801.5719,264.5 Q801.7281,264.4219 801.9313,264.4219 Q802.2594,264.4219 802.5094,264.6875 Q802.775,264.9375 802.775,265.2813 Q802.775,265.625 802.4313,266.0313 Q801.9313,266.6094 801.1344,266.9375 Q800.0563,267.3906 798.7594,267.3906 Q797.2438,267.3906 796.0406,266.7656 Q795.0563,266.2656 794.3688,265.2031 Q793.6813,264.125 793.6813,262.8438 L793.6813,261.6875 Q793.6813,260.3594 794.2906,259.2188 Q794.9156,258.0625 796.0094,257.4531 Q797.1031,256.8281 798.3375,256.8281 Q799.0719,256.8281 799.7125,257 Q800.3688,257.1563 800.9156,257.5156 Z " fill="#000000"/><text fill="#000000" font-family="sans-serif" font-size="12" lengthAdjust="spacing" textLength="45" x="816.85" y="266.5508">Property</text><line style="stroke:#A80036;stroke-width:1.5;" x1="763" x2="885" y1="277.6406" y2="277.6406"/><text fill="#000000" font-family="sans-serif" font-size="11" lengthAdjust="spacing" textLength="62" x="768" y="293.0596">name : string</text><text fill="#000000" font-family="sans-serif" font-size="11" lengthAdjust="spacing" textLength="85" x="768" y="306.8955">transform : matrix</text><text fill="#000000" font-family="sans-serif" font-size="11" lengthAdjust="spacing" textLength="112" x="768" y="320.7314">scalarfield : resourceID</text><line style="stroke:#A80036;stroke-width:1.5;" x1="763" x2="885" y1="327.1484" y2="327.1484"/><!--MD5=[73d251a377f173325f21997c77c25ad9]
class Composite--><rect codeLine="117" fill="#FEFECE" filter="url(#ff0nhgv0023vm)" height="48" id="Composite" style="stroke:#A80036;stroke-width:1.5;" width="93" x="921.5" y="266.6406"/><ellipse cx="936.5" cy="282.6406" fill="#ADD1B2" rx="11" ry="11" style="stroke:#A80036;stroke-width:1.0;"/><path d="M939.2656,278.5156 Q939.4219,278.2969 939.6094,278.1875 Q939.7969,278.0781 940.0156,278.0781 Q940.3906,278.0781 940.625,278.3438 Q940.8594,278.5938 940.8594,279.2031 L940.8594,280.6563 Q940.8594,281.2656 940.625,281.5313 Q940.3906,281.7969 940.0156,281.7969 Q939.6719,281.7969 939.4688,281.5938 Q939.2656,281.4063 939.1563,280.8906 Q939.1094,280.5313 938.9219,280.3438 Q938.5938,279.9688 937.9844,279.75 Q937.375,279.5313 936.75,279.5313 Q935.9844,279.5313 935.3438,279.8594 Q934.7188,280.1875 934.2188,280.9375 Q933.7344,281.6875 933.7344,282.7188 L933.7344,283.8125 Q933.7344,285.0469 934.625,285.875 Q935.5156,286.6875 937.1094,286.6875 Q938.0469,286.6875 938.7031,286.4375 Q939.0938,286.2813 939.5156,285.8438 Q939.7813,285.5781 939.9219,285.5 Q940.0781,285.4219 940.2813,285.4219 Q940.6094,285.4219 940.8594,285.6875 Q941.125,285.9375 941.125,286.2813 Q941.125,286.625 940.7813,287.0313 Q940.2813,287.6094 939.4844,287.9375 Q938.4063,288.3906 937.1094,288.3906 Q935.5938,288.3906 934.3906,287.7656 Q933.4063,287.2656 932.7188,286.2031 Q932.0313,285.125 932.0313,283.8438 L932.0313,282.6875 Q932.0313,281.3594 932.6406,280.2188 Q933.2656,279.0625 934.3594,278.4531 Q935.4531,277.8281 936.6875,277.8281 Q937.4219,277.8281 938.0625,278 Q938.7188,278.1563 939.2656,278.5156 Z " fill="#000000"/><text fill="#000000" font-family="sans-serif" font-size="12" lengthAdjust="spacing" textLength="61" x="950.5" y="287.5508">Composite</text><line style="stroke:#A80036;stroke-width:1.5;" x1="922.5" x2="1013.5" y1="298.6406" y2="298.6406"/><line style="stroke:#A80036;stroke-width:1.5;" x1="922.5" x2="1013.5" y1="306.6406" y2="306.6406"/><!--MD5=[f88bdff07e9ce4b1c4346d0643ca85c4]
class MaterialMapping--><rect codeLine="121" fill="#FEFECE" filter="url(#ff0nhgv0023vm)" height="75.6719" id="MaterialMapping" style="stroke:#A80036;stroke-width:1.5;" width="124" x="862" y="395.6406"/><ellipse cx="877.9" cy="411.6406" fill="#ADD1B2" rx="11" ry="11" style="stroke:#A80036;stroke-width:1.0;"/><path d="M880.6656,407.5156 Q880.8219,407.2969 881.0094,407.1875 Q881.1969,407.0781 881.4156,407.0781 Q881.7906,407.0781 882.025,407.3438 Q882.2594,407.5938 882.2594,408.2031 L882.2594,409.6563 Q882.2594,410.2656 882.025,410.5313 Q881.7906,410.7969 881.4156,410.7969 Q881.0719,410.7969 880.8688,410.5938 Q880.6656,410.4063 880.5563,409.8906 Q880.5094,409.5313 880.3219,409.3438 Q879.9938,408.9688 879.3844,408.75 Q878.775,408.5313 878.15,408.5313 Q877.3844,408.5313 876.7438,408.8594 Q876.1188,409.1875 875.6188,409.9375 Q875.1344,410.6875 875.1344,411.7188 L875.1344,412.8125 Q875.1344,414.0469 876.025,414.875 Q876.9156,415.6875 878.5094,415.6875 Q879.4469,415.6875 880.1031,415.4375 Q880.4938,415.2813 880.9156,414.8438 Q881.1813,414.5781 881.3219,414.5 Q881.4781,414.4219 881.6813,414.4219 Q882.0094,414.4219 882.2594,414.6875 Q882.525,414.9375 882.525,415.2813 Q882.525,415.625 882.1813,416.0313 Q881.6813,416.6094 880.8844,416.9375 Q879.8063,417.3906 878.5094,417.3906 Q876.9938,417.3906 875.7906,416.7656 Q874.8063,416.2656 874.1188,415.2031 Q873.4313,414.125 873.4313,412.8438 L873.4313,411.6875 Q873.4313,410.3594 874.0406,409.2188 Q874.6656,408.0625 875.7594,407.4531 Q876.8531,406.8281 878.0875,406.8281 Q878.8219,406.8281 879.4625,407 Q880.1188,407.1563 880.6656,407.5156 Z " fill="#000000"/><text fill="#000000" font-family="sans-serif" font-size="12" lengthAdjust="spacing" textLength="90" x="892.1" y="416.5508">MaterialMapping</text><line style="stroke:#A80036;stroke-width:1.5;" x1="863" x2="985" y1="427.6406" y2="427.6406"/><text fill="#000000" font-family="sans-serif" font-size="11" lengthAdjust="spacing" textLength="112" x="868" y="443.0596">scalarfield : resourceID</text><text fill="#000000" font-family="sans-serif" font-size="11" lengthAdjust="spacing" textLength="85" x="868" y="456.8955">transform : matrix</text><line style="stroke:#A80036;stroke-width:1.5;" x1="863" x2="985" y1="463.3125" y2="463.3125"/><!--MD5=[49b4333bed3a745cc53311fcf54bbfcc]
class Mesh--><rect codeLine="139" fill="#FEFECE" filter="url(#ff0nhgv0023vm)" height="48" id="Mesh" style="stroke:#A80036;stroke-width:1.5;" width="62" x="713" y="29.6406"/><ellipse cx="728" cy="45.6406" fill="#ADD1B2" rx="11" ry="11" style="stroke:#A80036;stroke-width:1.0;"/><path d="M730.7656,41.5156 Q730.9219,41.2969 731.1094,41.1875 Q731.2969,41.0781 731.5156,41.0781 Q731.8906,41.0781 732.125,41.3438 Q732.3594,41.5938 732.3594,42.2031 L732.3594,43.6563 Q732.3594,44.2656 732.125,44.5313 Q731.8906,44.7969 731.5156,44.7969 Q731.1719,44.7969 730.9688,44.5938 Q730.7656,44.4063 730.6563,43.8906 Q730.6094,43.5313 730.4219,43.3438 Q730.0938,42.9688 729.4844,42.75 Q728.875,42.5313 728.25,42.5313 Q727.4844,42.5313 726.8438,42.8594 Q726.2188,43.1875 725.7188,43.9375 Q725.2344,44.6875 725.2344,45.7188 L725.2344,46.8125 Q725.2344,48.0469 726.125,48.875 Q727.0156,49.6875 728.6094,49.6875 Q729.5469,49.6875 730.2031,49.4375 Q730.5938,49.2813 731.0156,48.8438 Q731.2813,48.5781 731.4219,48.5 Q731.5781,48.4219 731.7813,48.4219 Q732.1094,48.4219 732.3594,48.6875 Q732.625,48.9375 732.625,49.2813 Q732.625,49.625 732.2813,50.0313 Q731.7813,50.6094 730.9844,50.9375 Q729.9063,51.3906 728.6094,51.3906 Q727.0938,51.3906 725.8906,50.7656 Q724.9063,50.2656 724.2188,49.2031 Q723.5313,48.125 723.5313,46.8438 L723.5313,45.6875 Q723.5313,44.3594 724.1406,43.2188 Q724.7656,42.0625 725.8594,41.4531 Q726.9531,40.8281 728.1875,40.8281 Q728.9219,40.8281 729.5625,41 Q730.2188,41.1563 730.7656,41.5156 Z " fill="#000000"/><text fill="#000000" font-family="sans-serif" font-size="12" lengthAdjust="spacing" textLength="30" x="742" y="50.5508">Mesh</text><line style="stroke:#A80036;stroke-width:1.5;" x1="714" x2="774" y1="61.6406" y2="61.6406"/><line style="stroke:#A80036;stroke-width:1.5;" x1="714" x2="774" y1="69.6406" y2="69.6406"/><!--MD5=[29408d007a2d9b191c0ba16e58d67d03]
reverse link Image3D to Image3DSheet--><path codeLine="20" d="M545,1282.0506 C545,1298.4306 545,1314.9906 545,1328.5106 " fill="none" id="Image3D-backto-Image3DSheet" style="stroke:#A80036;stroke-width:1.0;"/><polygon fill="#A80036" points="545,1269.0106,541,1275.0106,545,1281.0106,549,1275.0106,545,1269.0106" style="stroke:#A80036;stroke-width:1.0;"/><text fill="#000000" font-family="sans-serif" font-size="13" lengthAdjust="spacing" textLength="20" x="522.9375" y="1317.9884">1..*</text><!--MD5=[d74a6c9568e73de12bfd457fb68be540]
reverse link ScalarField to ScalarFieldComposed--><path d="M626.73,859.7206 C618.27,872.9706 609.39,887.7906 601.03,902.5406 " fill="none" id="ScalarField-backto-ScalarFieldComposed" style="stroke:#A80036;stroke-width:1.0;"/><polygon fill="none" points="621.04,855.6306,637.91,842.8106,632.72,863.3506,621.04,855.6306" style="stroke:#A80036;stroke-width:1.0;"/><!--MD5=[0ce7407195f1e97a4358e0d88e9f8442]
reverse link ScalarFieldComposed to ScalarField--><path codeLine="55" d="M633.79,890.9906 C643.51,873.4806 652.21,856.4806 658.29,842.8106 " fill="none" id="ScalarFieldComposed-backto-ScalarField" style="stroke:#A80036;stroke-width:1.0;"/><polygon fill="#FFFFFF" points="627.27,902.5406,633.7026,899.2815,633.1682,892.0902,626.7356,895.3494,627.27,902.5406" style="stroke:#A80036;stroke-width:1.0;"/><text fill="#000000" font-family="sans-serif" font-size="13" lengthAdjust="spacing" textLength="22" x="632.8033" y="864.0681">1..3</text><!--MD5=[18d85fd5566c1e83f368fe4c6f55dd82]
reverse link ScalarField to ScalarFieldFromImage3D--><path d="M692.48,860.3906 C701.18,875.5106 711.04,892.6406 720.65,909.3406 " fill="none" id="ScalarField-backto-ScalarFieldFromImage3D" style="stroke:#A80036;stroke-width:1.0;"/><polygon fill="none" points="686.27,863.6406,682.36,842.8106,698.41,856.6506,686.27,863.6406" style="stroke:#A80036;stroke-width:1.0;"/><!--MD5=[d0ca1c57156342ddea3671c8a339907c]
reverse link ScalarFieldFromImage3D to Image3D--><path codeLine="56" d="M682.49,1078.0106 C675.27,1085.3706 668.03,1092.6606 661,1099.6406 C637.31,1123.1406 610.22,1148.7806 588.18,1169.3406 " fill="none" id="ScalarFieldFromImage3D-backto-Image3D" style="stroke:#A80036;stroke-width:1.0;"/><polygon fill="#FFFFFF" points="691.62,1068.6606,684.5659,1070.1572,683.2342,1077.2442,690.2883,1075.7477,691.62,1068.6606" style="stroke:#A80036;stroke-width:1.0;"/><text fill="#000000" font-family="sans-serif" font-size="13" lengthAdjust="spacing" textLength="7" x="595.9114" y="1158.7675">1</text><!--MD5=[60ac920e37a8af9da996d7a4fbfc620e]
reverse link ColorField to ColorFieldComposed--><path d="M303.48,484.8006 C302.55,499.2506 302.15,515.4506 302.27,531.4106 " fill="none" id="ColorField-backto-ColorFieldComposed" style="stroke:#A80036;stroke-width:1.0;"/><polygon fill="none" points="296.51,484.0806,305.24,464.7806,310.46,485.3106,296.51,484.0806" style="stroke:#A80036;stroke-width:1.0;"/><!--MD5=[81715878fc50d3fa659cc22a365f7bb7]
reverse link ColorFieldComposed to ColorField--><path codeLine="88" d="M328.46,518.2406 C328.24,498.7506 327.2,479.7406 325.33,464.7806 " fill="none" id="ColorFieldComposed-backto-ColorField" style="stroke:#A80036;stroke-width:1.0;"/><polygon fill="#FFFFFF" points="328.48,531.4106,332.4734,525.4062,328.4668,519.4106,324.4734,525.415,328.48,531.4106" style="stroke:#A80036;stroke-width:1.0;"/><text fill="#000000" font-family="sans-serif" font-size="13" lengthAdjust="spacing" textLength="7" x="319.6747" y="486.0322">2</text><!--MD5=[5fdd5a7cf42a2b23ca6b460e3a90079a]
reverse link ColorField to ColorFieldFromImage3D--><path d="M267.3,478.6006 C241.03,502.8206 208.11,533.1706 179.77,559.2806 " fill="none" id="ColorField-backto-ColorFieldFromImage3D" style="stroke:#A80036;stroke-width:1.0;"/><polygon fill="none" points="262.85,473.1806,282.3,464.7806,272.34,483.4806,262.85,473.1806" style="stroke:#A80036;stroke-width:1.0;"/><!--MD5=[6b53e7c5bc99a2c1aa5d3d076bb73356]
reverse link ColorFieldComposed to ScalarField--><path codeLine="89" d="M405.1,668.4406 C473.07,705.6306 563.58,755.1506 617.89,784.8606 " fill="none" id="ColorFieldComposed-backto-ScalarField" style="stroke:#A80036;stroke-width:1.0;"/><polygon fill="#FFFFFF" points="393.55,662.1206,396.8947,668.5091,404.0782,667.8788,400.7335,661.4903,393.55,662.1206" style="stroke:#A80036;stroke-width:1.0;"/><text fill="#000000" font-family="sans-serif" font-size="13" lengthAdjust="spacing" textLength="58" x="552.0412" y="778.7956">0..1 mask</text><!--MD5=[ec8c281d81354d98033f58e19b071003]
reverse link ColorFieldFromImage3D to Image3D--><path codeLine="90" d="M166.51,687.4006 C251.47,804.5106 423.53,1041.7006 503.01,1151.2606 " fill="none" id="ColorFieldFromImage3D-backto-Image3D" style="stroke:#A80036;stroke-width:1.0;"/><polygon fill="#FFFFFF" points="158.82,676.7906,159.1059,683.9961,165.8671,686.5034,165.5811,679.298,158.82,676.7906" style="stroke:#A80036;stroke-width:1.0;"/><text fill="#000000" font-family="sans-serif" font-size="13" lengthAdjust="spacing" textLength="7" x="490.4659" y="1140.6152">1</text><!--MD5=[596a96de2425b35a22199f47a395150b]
reverse link VolumeData to Boundary--><path codeLine="127" d="M722.51,197.1906 C713.26,212.0606 702.33,229.6206 692.51,245.4206 " fill="none" id="VolumeData-backto-Boundary" style="stroke:#A80036;stroke-width:1.0;"/><polygon fill="#A80036" points="729.51,185.9306,722.9439,188.9116,723.1702,196.1192,729.7363,193.1382,729.51,185.9306" style="stroke:#A80036;stroke-width:1.0;"/><text fill="#000000" font-family="sans-serif" font-size="13" lengthAdjust="spacing" textLength="22" x="673.0381" y="234.831">0..1</text><!--MD5=[c876c77ee3f6615e576b216c5ad84481]
reverse link VolumeData to Color--><path codeLine="128" d="M687.55,191.6806 C657.29,207.4006 619.46,227.3006 586,245.6406 C580.19,248.8206 574.17,252.1806 568.16,255.5606 " fill="none" id="VolumeData-backto-Color" style="stroke:#A80036;stroke-width:1.0;"/><polygon fill="#A80036" points="699.17,185.6506,692.0022,184.8618,688.5171,191.1748,695.685,191.9637,699.17,185.6506" style="stroke:#A80036;stroke-width:1.0;"/><text fill="#000000" font-family="sans-serif" font-size="13" lengthAdjust="spacing" textLength="22" x="575.8338" y="248.381">0..1</text><!--MD5=[926977b86265bf8127817610d5ce8d65]
reverse link VolumeData to Property--><path codeLine="129" d="M765.77,197.1906 C775.13,212.0606 786.19,229.6206 796.15,245.4206 " fill="none" id="VolumeData-backto-Property" style="stroke:#A80036;stroke-width:1.0;"/><polygon fill="#A80036" points="758.67,185.9306,758.4832,193.1393,765.0655,196.0843,765.2523,188.8756,758.67,185.9306" style="stroke:#A80036;stroke-width:1.0;"/><text fill="#000000" font-family="sans-serif" font-size="13" lengthAdjust="spacing" textLength="20" x="770.3542" y="234.831">0..*</text><!--MD5=[55cd580e7d15a57c2d6990dd7c17c6c7]
reverse link VolumeData to Composite--><path codeLine="130" d="M803.84,191.4806 C834.32,206.7106 871.66,226.2406 904,245.6406 C914.64,252.0206 925.89,259.5006 935.95,266.4606 " fill="none" id="VolumeData-backto-Composite" style="stroke:#A80036;stroke-width:1.0;"/><polygon fill="#A80036" points="792.1,185.6506,795.6931,191.9028,802.8463,190.9908,799.2532,184.7386,792.1,185.6506" style="stroke:#A80036;stroke-width:1.0;"/><text fill="#000000" font-family="sans-serif" font-size="13" lengthAdjust="spacing" textLength="22" x="902.9184" y="255.7547">0..1</text><!--MD5=[c5bc44bdff8ae1d90e6600406b8615c7]
reverse link Composite to MaterialMapping--><path codeLine="131" d="M956.84,327.4106 C950.34,348.2406 942.15,374.4706 935.58,395.5206 " fill="none" id="Composite-backto-MaterialMapping" style="stroke:#A80036;stroke-width:1.0;"/><polygon fill="#A80036" points="960.73,314.9206,955.1251,319.4577,957.1575,326.3765,962.7624,321.8394,960.73,314.9206" style="stroke:#A80036;stroke-width:1.0;"/><text fill="#000000" font-family="sans-serif" font-size="13" lengthAdjust="spacing" textLength="20" x="915.8614" y="384.8612">1..*</text><!--MD5=[0366305a9aa6e9db4f13f1d47531dbd6]
reverse link Boundary to ScalarField--><path codeLine="133" d="M665,348.9806 C665,459.0406 665,696.4606 665,780.4506 " fill="none" id="Boundary-backto-ScalarField" style="stroke:#A80036;stroke-width:1.0;"/><polygon fill="#FFFFFF" points="665,335.8906,661,341.8906,665,347.8906,669,341.8906,665,335.8906" style="stroke:#A80036;stroke-width:1.0;"/><text fill="#000000" font-family="sans-serif" font-size="13" lengthAdjust="spacing" textLength="7" x="657.2781" y="769.916">1</text><!--MD5=[38cd457d94d72759ebb6c0cfbf95a659]
reverse link Color to ColorField--><path codeLine="134" d="M447.36,336.4406 C417.71,357.9906 382.95,383.2606 356.49,402.4806 " fill="none" id="Color-backto-ColorField" style="stroke:#A80036;stroke-width:1.0;"/><polygon fill="#FFFFFF" points="458.03,328.6906,450.8248,328.983,448.3235,335.7463,455.5286,335.454,458.03,328.6906" style="stroke:#A80036;stroke-width:1.0;"/><text fill="#000000" font-family="sans-serif" font-size="13" lengthAdjust="spacing" textLength="7" x="357.3254" y="391.9522">1</text><!--MD5=[ab73c9575a28518aec1dc8dfa9c040e4]
reverse link Property to ScalarField--><path codeLine="135" d="M807.02,348.1906 C781.93,431.5406 733.37,592.2706 691,728.6406 C685.68,745.7506 679.64,764.8406 674.71,780.2906 " fill="none" id="Property-backto-ScalarField" style="stroke:#A80036;stroke-width:1.0;"/><polygon fill="#FFFFFF" points="810.77,335.7306,805.2127,340.3259,807.317,347.2231,812.8743,342.6279,810.77,335.7306" style="stroke:#A80036;stroke-width:1.0;"/><text fill="#000000" font-family="sans-serif" font-size="13" lengthAdjust="spacing" textLength="7" x="668.9908" y="769.723">1</text><!--MD5=[6fd7e8cbba2f10ef908d5dd2560dbd01]
reverse link MaterialMapping to ScalarField--><path codeLine="136" d="M914.5,484.4206 C900.31,547.4706 868.29,656.5806 806,728.6406 C780.81,757.7706 742.59,779.1006 712.3,792.6806 " fill="none" id="MaterialMapping-backto-ScalarField" style="stroke:#A80036;stroke-width:1.0;"/><polygon fill="#FFFFFF" points="917.26,471.6906,912.0781,476.7054,914.7141,483.4175,919.896,478.4027,917.26,471.6906" style="stroke:#A80036;stroke-width:1.0;"/><text fill="#000000" font-family="sans-serif" font-size="13" lengthAdjust="spacing" textLength="7" x="720.0787" y="786.087">1</text><!--MD5=[c9df3e22c29f3c34d5c54bbb3658528e]
reverse link Mesh to VolumeData--><path codeLine="140" d="M744,90.9806 C744,106.3206 744,123.7406 744,137.3206 " fill="none" id="Mesh-backto-VolumeData" style="stroke:#A80036;stroke-width:1.0;"/><polygon fill="#A80036" points="744,77.6406,740,83.6406,744,89.6406,748,83.6406,744,77.6406" style="stroke:#A80036;stroke-width:1.0;"/><!--MD5=[d336e8b13997593390584a7f589f06dc]
@startuml

title 3MF Volumetric Color & Scalar Fields

package Image
{
    Class Image3D
    {
        id : resourceID
        name : string
        rowcount : int
        colcount : int
        sheetcount : int
    }

    Class Image3DSheet
    {
        path : string (PNG)
    }

    Image3D *- - "1..*" Image3DSheet
}

package ScalarFields
{
    Class ScalarField
    {
        id: resourceID
    }

    Class ScalarFieldComposed extends ScalarField
    {
        blendmethod : string
        scalarfield1id : resourceID
        scalarfield2id : resourceID
        scalarmaskfieldid : resourceID
        factor1 : double
        factor2 : double
        transform1 : transform
        transform2 : transform
        transformmask : transform
    }

    Class ScalarFieldFromImage3D extends ScalarField
    {
        image3did : resourceID
        channel : string
        filter : string
        valueoffset: double
        valuescale: double
        tilestyleu : string
        tilestylev : string
        tilestylew : string
    }

    ScalarFieldComposed o- - "1..3" ScalarField
    ScalarFieldFromImage3D o- - "1" Image3D
}

package ColorFields
{
    Class ColorField
    {
        id: resourceID
    }

    Class ColorFieldComposed extends ColorField
    {
        blendmethod : string
        colorfield1id : resourceID
        colorfield2id : resourceID
        scalarmaskfieldid : resourceID
        factor1 : double
        factor2 : double
        transform1 : transform
        transform2 : transform
        transformmask : transform
    }

    Class ColorFieldFromImage3D extends ColorField
    {
        image3did : resourceID
        filter : string
        tilestyleu : string
        tilestylev : string
        tilestylew : string
    }

    ColorFieldComposed o- - "2" ColorField
    ColorFieldComposed o- - "0..1 mask" ScalarField
    ColorFieldFromImage3D o- - "1" Image3D
}

package VolumetricData
{
    Class VolumeData

    Class Boundary
    {
        transform : matrix
        solidthreshold : double
        scalarfield : resourceID
    }

    Class Color
    {
        transform : matrix
        colorfield : resourceID
    }

    Class Property
    {
        name : string
        transform : matrix
        scalarfield : resourceID
    }

    Class Composite
    {
    }

    Class MaterialMapping
    {
        scalarfield : resourceID
        transform : matrix
    }        

    VolumeData *- - "0..1" Boundary
    VolumeData *- - "0..1" Color
    VolumeData *- - "0..*" Property
    VolumeData *- - "0..1" Composite
    Composite *- - "1..*" MaterialMapping

    Boundary o- - "1" ScalarField
    Color o- - "1" ColorField
    Property o- - "1" ScalarField
    MaterialMapping o- - "1" ScalarField
}

Class Mesh
Mesh *- - VolumeData

@enduml

PlantUML version 1.2021.14(Fri Nov 12 17:46:50 CET 2021)
(GPL source distribution)
Java Runtime: OpenJDK Runtime Environment
JVM: OpenJDK 64-Bit Server VM
Default Encoding: Cp1252
Language: en
Country: GB
--></g></svg>