<svg xmlns="http://www.w3.org/2000/svg" xmlns:xlink="http://www.w3.org/1999/xlink" contentStyleType="text/css" height="1698px" preserveAspectRatio="none" style="width:2278px;height:1698px;background:#FFFFFF;" version="1.1" viewBox="0 0 2278 1698" width="2278px" zoomAndPan="magnify"><defs/><g><text fill="#000000" font-family="sans-serif" font-size="14" font-weight="bold" lengthAdjust="spacing" textLength="200" x="1032" y="22.9951">3MF Volumetric &amp; Implicit</text><!--cluster Resources--><g id="cluster_Resources"><path d="M8.5,381.5269 L93.5,381.5269 A3.75,3.75 0 0 1 96,384.0269 L103,403.8238 L903.5,403.8238 A2.5,2.5 0 0 1 906,406.3238 L906,1688.5969 A2.5,2.5 0 0 1 903.5,1691.0969 L8.5,1691.0969 A2.5,2.5 0 0 1 6,1688.5969 L6,384.0269 A2.5,2.5 0 0 1 8.5,381.5269 " fill="none" style="stroke:#000000;stroke-width:1.5;"/><line style="stroke:#000000;stroke-width:1.5;" x1="6" x2="103" y1="403.8238" y2="403.8238"/><text fill="#000000" font-family="sans-serif" font-size="14" font-weight="bold" lengthAdjust="spacing" textLength="84" x="10" y="396.522">Resources</text></g><!--cluster Functions--><g id="cluster_Functions"><path d="M32.5,1205.4269 L110.5,1205.4269 A3.75,3.75 0 0 1 113,1207.9269 L120,1227.7237 L879.5,1227.7237 A2.5,2.5 0 0 1 882,1230.2237 L882,1664.5969 A2.5,2.5 0 0 1 879.5,1667.0969 L32.5,1667.0969 A2.5,2.5 0 0 1 30,1664.5969 L30,1207.9269 A2.5,2.5 0 0 1 32.5,1205.4269 " fill="none" style="stroke:#000000;stroke-width:1.5;"/><line style="stroke:#000000;stroke-width:1.5;" x1="30" x2="120" y1="1227.7237" y2="1227.7237"/><text fill="#000000" font-family="sans-serif" font-size="14" font-weight="bold" lengthAdjust="spacing" textLength="77" x="34" y="1220.422">Functions</text></g><!--cluster VolumetricData--><g id="cluster_VolumetricData"><path d="M226.5,860.3469 L347.5,860.3469 A3.75,3.75 0 0 1 350,862.8469 L357,882.6438 L875.5,882.6438 A2.5,2.5 0 0 1 878,885.1438 L878,1178.9269 A2.5,2.5 0 0 1 875.5,1181.4269 L226.5,1181.4269 A2.5,2.5 0 0 1 224,1178.9269 L224,862.8469 A2.5,2.5 0 0 1 226.5,860.3469 " fill="none" style="stroke:#000000;stroke-width:1.5;"/><line style="stroke:#000000;stroke-width:1.5;" x1="224" x2="357" y1="882.6438" y2="882.6438"/><text fill="#000000" font-family="sans-serif" font-size="14" font-weight="bold" lengthAdjust="spacing" textLength="120" x="228" y="875.342">VolumetricData</text></g><!--cluster Image3D--><g id="cluster_Image3D"><path d="M2101.5,59.5969 L2170.5,59.5969 A3.75,3.75 0 0 1 2173,62.0969 L2180,81.8937 L2268.5,81.8937 A2.5,2.5 0 0 1 2271,84.3937 L2271,486.1769 A2.5,2.5 0 0 1 2268.5,488.6769 L2101.5,488.6769 A2.5,2.5 0 0 1 2099,486.1769 L2099,62.0969 A2.5,2.5 0 0 1 2101.5,59.5969 " fill="none" style="stroke:#000000;stroke-width:1.5;"/><line style="stroke:#000000;stroke-width:1.5;" x1="2099" x2="2180" y1="81.8937" y2="81.8937"/><text fill="#000000" font-family="sans-serif" font-size="14" font-weight="bold" lengthAdjust="spacing" textLength="68" x="2103" y="74.592">Image3D</text></g><!--cluster DataTypes--><g id="cluster_DataTypes"><path d="M1121.5,373.3769 L1205.5,373.3769 A3.75,3.75 0 0 1 1208,375.8769 L1215,395.6737 L1723.5,395.6737 A2.5,2.5 0 0 1 1726,398.1737 L1726,667.5069 A2.5,2.5 0 0 1 1723.5,670.0069 L1121.5,670.0069 A2.5,2.5 0 0 1 1119,667.5069 L1119,375.8769 A2.5,2.5 0 0 1 1121.5,373.3769 " fill="none" style="stroke:#000000;stroke-width:1.5;"/><line style="stroke:#000000;stroke-width:1.5;" x1="1119" x2="1215" y1="395.6737" y2="395.6737"/><text fill="#000000" font-family="sans-serif" font-size="14" font-weight="bold" lengthAdjust="spacing" textLength="83" x="1123" y="388.372">DataTypes</text></g><!--cluster FunctionArguments--><g id="cluster_FunctionArguments"><path d="M883.5,240.9369 L1039.5,240.9369 A3.75,3.75 0 0 1 1042,243.4369 L1049,263.2337 L1093.5,263.2337 A2.5,2.5 0 0 1 1096,265.7337 L1096,337.4369 A2.5,2.5 0 0 1 1093.5,339.9369 L883.5,339.9369 A2.5,2.5 0 0 1 881,337.4369 L881,243.4369 A2.5,2.5 0 0 1 883.5,240.9369 " fill="none" style="stroke:#000000;stroke-width:1.5;"/><line style="stroke:#000000;stroke-width:1.5;" x1="881" x2="1049" y1="263.2337" y2="263.2337"/><text fill="#000000" font-family="sans-serif" font-size="14" font-weight="bold" lengthAdjust="spacing" textLength="155" x="885" y="255.932">FunctionArguments</text></g><!--cluster NodeArguments--><g id="cluster_NodeArguments"><path d="M1908.5,240.9369 L2037.5,240.9369 A3.75,3.75 0 0 1 2040,243.4369 L2047,263.2337 L2072.5,263.2337 A2.5,2.5 0 0 1 2075,265.7337 L2075,337.4369 A2.5,2.5 0 0 1 2072.5,339.9369 L1908.5,339.9369 A2.5,2.5 0 0 1 1906,337.4369 L1906,243.4369 A2.5,2.5 0 0 1 1908.5,240.9369 " fill="none" style="stroke:#000000;stroke-width:1.5;"/><line style="stroke:#000000;stroke-width:1.5;" x1="1906" x2="2047" y1="263.2337" y2="263.2337"/><text fill="#000000" font-family="sans-serif" font-size="14" font-weight="bold" lengthAdjust="spacing" textLength="128" x="1910" y="255.932">NodeArguments</text></g><!--cluster Native--><g id="cluster_Native"><path d="M1122.5,43.2969 L1172.5,43.2969 A3.75,3.75 0 0 1 1175,45.7969 L1182,65.5938 L1879.5,65.5938 A2.5,2.5 0 0 1 1882,68.0938 L1882,345.5769 A2.5,2.5 0 0 1 1879.5,348.0769 L1122.5,348.0769 A2.5,2.5 0 0 1 1120,345.5769 L1120,45.7969 A2.5,2.5 0 0 1 1122.5,43.2969 " fill="none" style="stroke:#000000;stroke-width:1.5;"/><line style="stroke:#000000;stroke-width:1.5;" x1="1120" x2="1182" y1="65.5938" y2="65.5938"/><text fill="#000000" font-family="sans-serif" font-size="14" font-weight="bold" lengthAdjust="spacing" textLength="49" x="1124" y="58.292">Native</text></g><!--class Object--><g id="elem_Object"><rect codeLine="7" fill="#F1F1F1" height="48" id="Object" rx="2.5" ry="2.5" style="stroke:#181818;stroke-width:0.5;" width="77" x="670.5" y="416.5269"/><ellipse cx="685.5" cy="432.5269" fill="#ADD1B2" rx="11" ry="11" style="stroke:#181818;stroke-width:1.0;"/><path d="M688.4688,438.1675 Q687.8906,438.4644 687.25,438.605 Q686.6094,438.7613 685.9063,438.7613 Q683.4063,438.7613 682.0781,437.1206 Q680.7656,435.4644 680.7656,432.3394 Q680.7656,429.2144 682.0781,427.5581 Q683.4063,425.9019 685.9063,425.9019 Q686.6094,425.9019 687.25,426.0581 Q687.9063,426.2144 688.4688,426.5113 L688.4688,429.23 Q687.8438,428.6519 687.25,428.3863 Q686.6563,428.105 686.0313,428.105 Q684.6875,428.105 684,429.1831 Q683.3125,430.2456 683.3125,432.3394 Q683.3125,434.4331 684,435.5113 Q684.6875,436.5738 686.0313,436.5738 Q686.6563,436.5738 687.25,436.3081 Q687.8438,436.0269 688.4688,435.4488 L688.4688,438.1675 Z " fill="#000000"/><text fill="#000000" font-family="sans-serif" font-size="14" lengthAdjust="spacing" textLength="45" x="699.5" y="437.3736">Object</text><line style="stroke:#181818;stroke-width:0.5;" x1="671.5" x2="746.5" y1="448.5269" y2="448.5269"/><line style="stroke:#181818;stroke-width:0.5;" x1="671.5" x2="746.5" y1="456.5269" y2="456.5269"/></g><!--class Mesh--><g id="elem_Mesh"><rect codeLine="8" fill="#F1F1F1" height="48" id="Mesh" rx="2.5" ry="2.5" style="stroke:#181818;stroke-width:0.5;" width="70" x="753" y="606.0069"/><ellipse cx="768" cy="622.0069" fill="#ADD1B2" rx="11" ry="11" style="stroke:#181818;stroke-width:1.0;"/><path d="M770.9688,627.6475 Q770.3906,627.9444 769.75,628.085 Q769.1094,628.2413 768.4063,628.2413 Q765.9063,628.2413 764.5781,626.6006 Q763.2656,624.9444 763.2656,621.8194 Q763.2656,618.6944 764.5781,617.0381 Q765.9063,615.3819 768.4063,615.3819 Q769.1094,615.3819 769.75,615.5381 Q770.4063,615.6944 770.9688,615.9913 L770.9688,618.71 Q770.3438,618.1319 769.75,617.8663 Q769.1563,617.585 768.5313,617.585 Q767.1875,617.585 766.5,618.6631 Q765.8125,619.7256 765.8125,621.8194 Q765.8125,623.9131 766.5,624.9913 Q767.1875,626.0538 768.5313,626.0538 Q769.1563,626.0538 769.75,625.7881 Q770.3438,625.5069 770.9688,624.9288 L770.9688,627.6475 Z " fill="#000000"/><text fill="#000000" font-family="sans-serif" font-size="14" lengthAdjust="spacing" textLength="38" x="782" y="626.8536">Mesh</text><line style="stroke:#181818;stroke-width:0.5;" x1="754" x2="822" y1="638.0069" y2="638.0069"/><line style="stroke:#181818;stroke-width:0.5;" x1="754" x2="822" y1="646.0069" y2="646.0069"/></g><!--class LevelSet--><g id="elem_LevelSet"><rect codeLine="10" fill="#F1F1F1" height="194.6719" id="LevelSet" rx="2.5" ry="2.5" style="stroke:#181818;stroke-width:0.5;" width="175" x="542.5" y="532.6769"/><ellipse cx="596.75" cy="548.6769" fill="#ADD1B2" rx="11" ry="11" style="stroke:#181818;stroke-width:1.0;"/><path d="M599.7188,554.3175 Q599.1406,554.6144 598.5,554.755 Q597.8594,554.9112 597.1563,554.9112 Q594.6563,554.9112 593.3281,553.2706 Q592.0156,551.6144 592.0156,548.4894 Q592.0156,545.3644 593.3281,543.7081 Q594.6563,542.0519 597.1563,542.0519 Q597.8594,542.0519 598.5,542.2081 Q599.1563,542.3644 599.7188,542.6612 L599.7188,545.38 Q599.0938,544.8019 598.5,544.5362 Q597.9063,544.255 597.2813,544.255 Q595.9375,544.255 595.25,545.3331 Q594.5625,546.3956 594.5625,548.4894 Q594.5625,550.5831 595.25,551.6612 Q595.9375,552.7237 597.2813,552.7237 Q597.9063,552.7237 598.5,552.4581 Q599.0938,552.1769 599.7188,551.5987 L599.7188,554.3175 Z " fill="#000000"/><text fill="#000000" font-family="sans-serif" font-size="14" lengthAdjust="spacing" textLength="58" x="617.25" y="553.5236">LevelSet</text><line style="stroke:#181818;stroke-width:0.5;" x1="543.5" x2="716.5" y1="564.6769" y2="564.6769"/><text fill="#000000" font-family="sans-serif" font-size="14" lengthAdjust="spacing" textLength="157" x="548.5" y="581.672">functionid : resourceID</text><text fill="#000000" font-family="sans-serif" font-size="14" lengthAdjust="spacing" textLength="107" x="548.5" y="597.9689">channel : string</text><text fill="#000000" font-family="sans-serif" font-size="14" lengthAdjust="spacing" textLength="119" x="548.5" y="614.2657">transform : Matrix</text><text fill="#000000" font-family="sans-serif" font-size="14" lengthAdjust="spacing" textLength="163" x="548.5" y="630.5626">minfeaturesize : double</text><text fill="#000000" font-family="sans-serif" font-size="14" lengthAdjust="spacing" textLength="144" x="548.5" y="646.8595">meshbboxonly : bool</text><text fill="#000000" font-family="sans-serif" font-size="14" lengthAdjust="spacing" textLength="148" x="548.5" y="663.1564">fallbackvalue : double</text><text fill="#000000" font-family="sans-serif" font-size="14" lengthAdjust="spacing" textLength="159" x="548.5" y="679.4532">solidthreshold : double</text><text fill="#000000" font-family="sans-serif" font-size="14" lengthAdjust="spacing" textLength="140" x="548.5" y="695.7501">meshid : resourceID</text><text fill="#000000" font-family="sans-serif" font-size="14" lengthAdjust="spacing" textLength="151" x="548.5" y="712.047">volumeid : resourceID</text><line style="stroke:#181818;stroke-width:0.5;" x1="543.5" x2="716.5" y1="719.3487" y2="719.3487"/></g><!--class VolumeData--><g id="elem_VolumeData"><rect codeLine="22" fill="#F1F1F1" height="48" id="VolumeData" rx="2.5" ry="2.5" style="stroke:#181818;stroke-width:0.5;" width="116" x="572" y="787.3469"/><ellipse cx="587" cy="803.3469" fill="#ADD1B2" rx="11" ry="11" style="stroke:#181818;stroke-width:1.0;"/><path d="M589.9688,808.9875 Q589.3906,809.2844 588.75,809.425 Q588.1094,809.5813 587.4063,809.5813 Q584.9063,809.5813 583.5781,807.9406 Q582.2656,806.2844 582.2656,803.1594 Q582.2656,800.0344 583.5781,798.3781 Q584.9063,796.7219 587.4063,796.7219 Q588.1094,796.7219 588.75,796.8781 Q589.4063,797.0344 589.9688,797.3313 L589.9688,800.05 Q589.3438,799.4719 588.75,799.2063 Q588.1563,798.925 587.5313,798.925 Q586.1875,798.925 585.5,800.0031 Q584.8125,801.0656 584.8125,803.1594 Q584.8125,805.2531 585.5,806.3313 Q586.1875,807.3938 587.5313,807.3938 Q588.1563,807.3938 588.75,807.1281 Q589.3438,806.8469 589.9688,806.2688 L589.9688,808.9875 Z " fill="#000000"/><text fill="#000000" font-family="sans-serif" font-size="14" lengthAdjust="spacing" textLength="84" x="601" y="808.1936">VolumeData</text><line style="stroke:#181818;stroke-width:0.5;" x1="573" x2="687" y1="819.3469" y2="819.3469"/><line style="stroke:#181818;stroke-width:0.5;" x1="573" x2="687" y1="827.3469" y2="827.3469"/></g><!--class Function--><g id="elem_Function"><rect codeLine="28" fill="#F1F1F1" height="80.5938" id="Function" rx="2.5" ry="2.5" style="stroke:#181818;stroke-width:0.5;" width="146" x="482" y="1240.4269"/><ellipse cx="521.3" cy="1256.4269" fill="#ADD1B2" rx="11" ry="11" style="stroke:#181818;stroke-width:1.0;"/><path d="M524.2688,1262.0675 Q523.6906,1262.3644 523.05,1262.505 Q522.4094,1262.6612 521.7063,1262.6612 Q519.2063,1262.6612 517.8781,1261.0206 Q516.5656,1259.3644 516.5656,1256.2394 Q516.5656,1253.1144 517.8781,1251.4581 Q519.2063,1249.8019 521.7063,1249.8019 Q522.4094,1249.8019 523.05,1249.9581 Q523.7063,1250.1144 524.2688,1250.4112 L524.2688,1253.13 Q523.6438,1252.5519 523.05,1252.2862 Q522.4563,1252.005 521.8313,1252.005 Q520.4875,1252.005 519.8,1253.0831 Q519.1125,1254.1456 519.1125,1256.2394 Q519.1125,1258.3331 519.8,1259.4112 Q520.4875,1260.4737 521.8313,1260.4737 Q522.4563,1260.4737 523.05,1260.2081 Q523.6438,1259.9269 524.2688,1259.3487 L524.2688,1262.0675 Z " fill="#000000"/><text fill="#000000" font-family="sans-serif" font-size="14" lengthAdjust="spacing" textLength="60" x="540.7" y="1261.2736">Function</text><line style="stroke:#181818;stroke-width:0.5;" x1="483" x2="627" y1="1272.4269" y2="1272.4269"/><text fill="#000000" font-family="sans-serif" font-size="14" lengthAdjust="spacing" textLength="97" x="488" y="1289.422">id: resourceID</text><text fill="#000000" font-family="sans-serif" font-size="14" lengthAdjust="spacing" textLength="134" x="488" y="1305.7189">displayname: string</text><line style="stroke:#181818;stroke-width:0.5;" x1="483" x2="627" y1="1313.0206" y2="1313.0206"/></g><!--class Input--><g id="elem_Input"><rect fill="#F1F1F1" height="48" id="Input" rx="2.5" ry="2.5" style="stroke:#181818;stroke-width:0.5;" width="67" x="46.5" y="1438.0569"/><ellipse cx="61.5" cy="1454.0569" fill="#ADD1B2" rx="11" ry="11" style="stroke:#181818;stroke-width:1.0;"/><path d="M64.4688,1459.6975 Q63.8906,1459.9944 63.25,1460.135 Q62.6094,1460.2913 61.9063,1460.2913 Q59.4063,1460.2913 58.0781,1458.6506 Q56.7656,1456.9944 56.7656,1453.8694 Q56.7656,1450.7444 58.0781,1449.0881 Q59.4063,1447.4319 61.9063,1447.4319 Q62.6094,1447.4319 63.25,1447.5881 Q63.9063,1447.7444 64.4688,1448.0413 L64.4688,1450.76 Q63.8438,1450.1819 63.25,1449.9163 Q62.6563,1449.635 62.0313,1449.635 Q60.6875,1449.635 60,1450.7131 Q59.3125,1451.7756 59.3125,1453.8694 Q59.3125,1455.9631 60,1457.0413 Q60.6875,1458.1038 62.0313,1458.1038 Q62.6563,1458.1038 63.25,1457.8381 Q63.8438,1457.5569 64.4688,1456.9788 L64.4688,1459.6975 Z " fill="#000000"/><text fill="#000000" font-family="sans-serif" font-size="14" lengthAdjust="spacing" textLength="35" x="75.5" y="1458.9036">Input</text><line style="stroke:#181818;stroke-width:0.5;" x1="47.5" x2="112.5" y1="1470.0569" y2="1470.0569"/><line style="stroke:#181818;stroke-width:0.5;" x1="47.5" x2="112.5" y1="1478.0569" y2="1478.0569"/></g><!--class Output--><g id="elem_Output"><rect fill="#F1F1F1" height="48" id="Output" rx="2.5" ry="2.5" style="stroke:#181818;stroke-width:0.5;" width="80" x="149" y="1438.0569"/><ellipse cx="164" cy="1454.0569" fill="#ADD1B2" rx="11" ry="11" style="stroke:#181818;stroke-width:1.0;"/><path d="M166.9688,1459.6975 Q166.3906,1459.9944 165.75,1460.135 Q165.1094,1460.2913 164.4063,1460.2913 Q161.9063,1460.2913 160.5781,1458.6506 Q159.2656,1456.9944 159.2656,1453.8694 Q159.2656,1450.7444 160.5781,1449.0881 Q161.9063,1447.4319 164.4063,1447.4319 Q165.1094,1447.4319 165.75,1447.5881 Q166.4063,1447.7444 166.9688,1448.0413 L166.9688,1450.76 Q166.3438,1450.1819 165.75,1449.9163 Q165.1563,1449.635 164.5313,1449.635 Q163.1875,1449.635 162.5,1450.7131 Q161.8125,1451.7756 161.8125,1453.8694 Q161.8125,1455.9631 162.5,1457.0413 Q163.1875,1458.1038 164.5313,1458.1038 Q165.1563,1458.1038 165.75,1457.8381 Q166.3438,1457.5569 166.9688,1456.9788 L166.9688,1459.6975 Z " fill="#000000"/><text fill="#000000" font-family="sans-serif" font-size="14" lengthAdjust="spacing" textLength="48" x="178" y="1458.9036">Output</text><line style="stroke:#181818;stroke-width:0.5;" x1="150" x2="228" y1="1470.0569" y2="1470.0569"/><line style="stroke:#181818;stroke-width:0.5;" x1="150" x2="228" y1="1478.0569" y2="1478.0569"/></g><!--class FunctionFromImage3d--><g id="elem_FunctionFromImage3d"><rect codeLine="37" fill="#F1F1F1" height="162.0781" id="FunctionFromImage3d" rx="2.5" ry="2.5" style="stroke:#181818;stroke-width:0.5;" width="187" x="263.5" y="1381.0169"/><ellipse cx="278.5" cy="1397.0169" fill="#ADD1B2" rx="11" ry="11" style="stroke:#181818;stroke-width:1.0;"/><path d="M281.4688,1402.6575 Q280.8906,1402.9544 280.25,1403.095 Q279.6094,1403.2513 278.9063,1403.2513 Q276.4063,1403.2513 275.0781,1401.6106 Q273.7656,1399.9544 273.7656,1396.8294 Q273.7656,1393.7044 275.0781,1392.0481 Q276.4063,1390.3919 278.9063,1390.3919 Q279.6094,1390.3919 280.25,1390.5481 Q280.9063,1390.7044 281.4688,1391.0013 L281.4688,1393.72 Q280.8438,1393.1419 280.25,1392.8763 Q279.6563,1392.595 279.0313,1392.595 Q277.6875,1392.595 277,1393.6731 Q276.3125,1394.7356 276.3125,1396.8294 Q276.3125,1398.9231 277,1400.0013 Q277.6875,1401.0638 279.0313,1401.0638 Q279.6563,1401.0638 280.25,1400.7981 Q280.8438,1400.5169 281.4688,1399.9388 L281.4688,1402.6575 Z " fill="#000000"/><text fill="#000000" font-family="sans-serif" font-size="14" lengthAdjust="spacing" textLength="155" x="292.5" y="1401.8636">FunctionFromImage3d</text><line style="stroke:#181818;stroke-width:0.5;" x1="264.5" x2="449.5" y1="1413.0169" y2="1413.0169"/><text fill="#000000" font-family="sans-serif" font-size="14" lengthAdjust="spacing" textLength="161" x="269.5" y="1430.012">image3did : resourceID</text><text fill="#000000" font-family="sans-serif" font-size="14" lengthAdjust="spacing" textLength="132" x="269.5" y="1446.3089">valueoffset: double</text><text fill="#000000" font-family="sans-serif" font-size="14" lengthAdjust="spacing" textLength="129" x="269.5" y="1462.6057">valuescale: double</text><text fill="#000000" font-family="sans-serif" font-size="14" lengthAdjust="spacing" textLength="81" x="269.5" y="1478.9026">filter : string</text><text fill="#000000" font-family="sans-serif" font-size="14" lengthAdjust="spacing" textLength="113" x="269.5" y="1495.1995">tilestyleu : string</text><text fill="#000000" font-family="sans-serif" font-size="14" lengthAdjust="spacing" textLength="111" x="269.5" y="1511.4964">tilestylev : string</text><text fill="#000000" font-family="sans-serif" font-size="14" lengthAdjust="spacing" textLength="115" x="269.5" y="1527.7932">tilestylew : string</text><line style="stroke:#181818;stroke-width:0.5;" x1="264.5" x2="449.5" y1="1535.095" y2="1535.095"/></g><!--class Image3D--><g id="elem_Image3D"><rect fill="#F1F1F1" height="48" id="Image3D" rx="2.5" ry="2.5" style="stroke:#181818;stroke-width:0.5;" width="94" x="310" y="1603.0969"/><ellipse cx="325" cy="1619.0969" fill="#ADD1B2" rx="11" ry="11" style="stroke:#181818;stroke-width:1.0;"/><path d="M327.9688,1624.7375 Q327.3906,1625.0344 326.75,1625.175 Q326.1094,1625.3313 325.4063,1625.3313 Q322.9063,1625.3313 321.5781,1623.6906 Q320.2656,1622.0344 320.2656,1618.9094 Q320.2656,1615.7844 321.5781,1614.1281 Q322.9063,1612.4719 325.4063,1612.4719 Q326.1094,1612.4719 326.75,1612.6281 Q327.4063,1612.7844 327.9688,1613.0813 L327.9688,1615.8 Q327.3438,1615.2219 326.75,1614.9563 Q326.1563,1614.675 325.5313,1614.675 Q324.1875,1614.675 323.5,1615.7531 Q322.8125,1616.8156 322.8125,1618.9094 Q322.8125,1621.0031 323.5,1622.0813 Q324.1875,1623.1438 325.5313,1623.1438 Q326.1563,1623.1438 326.75,1622.8781 Q327.3438,1622.5969 327.9688,1622.0188 L327.9688,1624.7375 Z " fill="#000000"/><text fill="#000000" font-family="sans-serif" font-size="14" lengthAdjust="spacing" textLength="62" x="339" y="1623.9436">Image3D</text><line style="stroke:#181818;stroke-width:0.5;" x1="311" x2="403" y1="1635.0969" y2="1635.0969"/><line style="stroke:#181818;stroke-width:0.5;" x1="311" x2="403" y1="1643.0969" y2="1643.0969"/></g><!--class FunctionImplicit--><g id="elem_FunctionImplicit"><rect codeLine="49" fill="#F1F1F1" height="64.2969" id="FunctionImplicit" rx="2.5" ry="2.5" style="stroke:#181818;stroke-width:0.5;" width="139" x="485.5" y="1429.9069"/><ellipse cx="500.5" cy="1445.9069" fill="#ADD1B2" rx="11" ry="11" style="stroke:#181818;stroke-width:1.0;"/><path d="M503.4688,1451.5475 Q502.8906,1451.8444 502.25,1451.985 Q501.6094,1452.1413 500.9063,1452.1413 Q498.4063,1452.1413 497.0781,1450.5006 Q495.7656,1448.8444 495.7656,1445.7194 Q495.7656,1442.5944 497.0781,1440.9381 Q498.4063,1439.2819 500.9063,1439.2819 Q501.6094,1439.2819 502.25,1439.4381 Q502.9063,1439.5944 503.4688,1439.8913 L503.4688,1442.61 Q502.8438,1442.0319 502.25,1441.7663 Q501.6563,1441.485 501.0313,1441.485 Q499.6875,1441.485 499,1442.5631 Q498.3125,1443.6256 498.3125,1445.7194 Q498.3125,1447.8131 499,1448.8913 Q499.6875,1449.9538 501.0313,1449.9538 Q501.6563,1449.9538 502.25,1449.6881 Q502.8438,1449.4069 503.4688,1448.8288 L503.4688,1451.5475 Z " fill="#000000"/><text fill="#000000" font-family="sans-serif" font-size="14" lengthAdjust="spacing" textLength="107" x="514.5" y="1450.7536">FunctionImplicit</text><line style="stroke:#181818;stroke-width:0.5;" x1="486.5" x2="623.5" y1="1461.9069" y2="1461.9069"/><text fill="#000000" font-family="sans-serif" font-size="14" lengthAdjust="spacing" textLength="96" x="491.5" y="1478.902">xmlns: implicit</text><line style="stroke:#181818;stroke-width:0.5;" x1="486.5" x2="623.5" y1="1486.2038" y2="1486.2038"/></g><!--class Node_--><g id="elem_Node_"><rect fill="#F1F1F1" height="48" id="Node_" rx="2.5" ry="2.5" style="stroke:#181818;stroke-width:0.5;" width="76" x="517" y="1603.0969"/><ellipse cx="532" cy="1619.0969" fill="#ADD1B2" rx="11" ry="11" style="stroke:#181818;stroke-width:1.0;"/><path d="M534.9688,1624.7375 Q534.3906,1625.0344 533.75,1625.175 Q533.1094,1625.3313 532.4063,1625.3313 Q529.9063,1625.3313 528.5781,1623.6906 Q527.2656,1622.0344 527.2656,1618.9094 Q527.2656,1615.7844 528.5781,1614.1281 Q529.9063,1612.4719 532.4063,1612.4719 Q533.1094,1612.4719 533.75,1612.6281 Q534.4063,1612.7844 534.9688,1613.0813 L534.9688,1615.8 Q534.3438,1615.2219 533.75,1614.9563 Q533.1563,1614.675 532.5313,1614.675 Q531.1875,1614.675 530.5,1615.7531 Q529.8125,1616.8156 529.8125,1618.9094 Q529.8125,1621.0031 530.5,1622.0813 Q531.1875,1623.1438 532.5313,1623.1438 Q533.1563,1623.1438 533.75,1622.8781 Q534.3438,1622.5969 534.9688,1622.0188 L534.9688,1624.7375 Z " fill="#000000"/><text fill="#000000" font-family="sans-serif" font-size="14" lengthAdjust="spacing" textLength="44" x="546" y="1623.9436">Node_</text><line style="stroke:#181818;stroke-width:0.5;" x1="518" x2="592" y1="1635.0969" y2="1635.0969"/><line style="stroke:#181818;stroke-width:0.5;" x1="518" x2="592" y1="1643.0969" y2="1643.0969"/></g><!--class PrivateExtensionFunction--><g id="elem_PrivateExtensionFunction"><rect codeLine="55" fill="#F1F1F1" height="64.2969" id="PrivateExtensionFunction" rx="2.5" ry="2.5" style="stroke:#181818;stroke-width:0.5;" width="206" x="660" y="1429.9069"/><ellipse cx="675" cy="1445.9069" fill="#ADD1B2" rx="11" ry="11" style="stroke:#181818;stroke-width:1.0;"/><path d="M677.9688,1451.5475 Q677.3906,1451.8444 676.75,1451.985 Q676.1094,1452.1413 675.4063,1452.1413 Q672.9063,1452.1413 671.5781,1450.5006 Q670.2656,1448.8444 670.2656,1445.7194 Q670.2656,1442.5944 671.5781,1440.9381 Q672.9063,1439.2819 675.4063,1439.2819 Q676.1094,1439.2819 676.75,1439.4381 Q677.4063,1439.5944 677.9688,1439.8913 L677.9688,1442.61 Q677.3438,1442.0319 676.75,1441.7663 Q676.1563,1441.485 675.5313,1441.485 Q674.1875,1441.485 673.5,1442.5631 Q672.8125,1443.6256 672.8125,1445.7194 Q672.8125,1447.8131 673.5,1448.8913 Q674.1875,1449.9538 675.5313,1449.9538 Q676.1563,1449.9538 676.75,1449.6881 Q677.3438,1449.4069 677.9688,1448.8288 L677.9688,1451.5475 Z " fill="#000000"/><text fill="#000000" font-family="sans-serif" font-size="14" lengthAdjust="spacing" textLength="174" x="689" y="1450.7536">PrivateExtensionFunction</text><line style="stroke:#181818;stroke-width:0.5;" x1="661" x2="865" y1="1461.9069" y2="1461.9069"/><text fill="#000000" font-family="sans-serif" font-size="14" lengthAdjust="spacing" textLength="77" x="666" y="1478.902">xmlns: XYZ</text><line style="stroke:#181818;stroke-width:0.5;" x1="661" x2="865" y1="1486.2038" y2="1486.2038"/></g><!--class Color--><g id="elem_Color"><rect codeLine="62" fill="#F1F1F1" height="96.8906" id="Color" rx="2.5" ry="2.5" style="stroke:#181818;stroke-width:0.5;" width="175" x="476.5" y="903.4969"/><ellipse cx="541.75" cy="919.4969" fill="#ADD1B2" rx="11" ry="11" style="stroke:#181818;stroke-width:1.0;"/><path d="M544.7188,925.1375 Q544.1406,925.4344 543.5,925.575 Q542.8594,925.7312 542.1563,925.7312 Q539.6563,925.7312 538.3281,924.0906 Q537.0156,922.4344 537.0156,919.3094 Q537.0156,916.1844 538.3281,914.5281 Q539.6563,912.8719 542.1563,912.8719 Q542.8594,912.8719 543.5,913.0281 Q544.1563,913.1844 544.7188,913.4812 L544.7188,916.2 Q544.0938,915.6219 543.5,915.3562 Q542.9063,915.075 542.2813,915.075 Q540.9375,915.075 540.25,916.1531 Q539.5625,917.2156 539.5625,919.3094 Q539.5625,921.4031 540.25,922.4812 Q540.9375,923.5437 542.2813,923.5437 Q542.9063,923.5437 543.5,923.2781 Q544.0938,922.9969 544.7188,922.4187 L544.7188,925.1375 Z " fill="#000000"/><text fill="#000000" font-family="sans-serif" font-size="14" lengthAdjust="spacing" textLength="36" x="562.25" y="924.3436">Color</text><line style="stroke:#181818;stroke-width:0.5;" x1="477.5" x2="650.5" y1="935.4969" y2="935.4969"/><text fill="#000000" font-family="sans-serif" font-size="14" lengthAdjust="spacing" textLength="157" x="482.5" y="952.492">functionid : resourceID</text><text fill="#000000" font-family="sans-serif" font-size="14" lengthAdjust="spacing" textLength="163" x="482.5" y="968.7889">minfeaturesize : double</text><text fill="#000000" font-family="sans-serif" font-size="14" lengthAdjust="spacing" textLength="148" x="482.5" y="985.0857">fallbackvalue : double</text><line style="stroke:#181818;stroke-width:0.5;" x1="477.5" x2="650.5" y1="992.3875" y2="992.3875"/></g><!--class Property--><g id="elem_Property"><rect codeLine="69" fill="#F1F1F1" height="113.1875" id="Property" rx="2.5" ry="2.5" style="stroke:#181818;stroke-width:0.5;" width="175" x="686.5" y="895.3469"/><ellipse cx="740.75" cy="911.3469" fill="#ADD1B2" rx="11" ry="11" style="stroke:#181818;stroke-width:1.0;"/><path d="M743.7188,916.9875 Q743.1406,917.2844 742.5,917.425 Q741.8594,917.5813 741.1563,917.5813 Q738.6563,917.5813 737.3281,915.9406 Q736.0156,914.2844 736.0156,911.1594 Q736.0156,908.0344 737.3281,906.3781 Q738.6563,904.7219 741.1563,904.7219 Q741.8594,904.7219 742.5,904.8781 Q743.1563,905.0344 743.7188,905.3313 L743.7188,908.05 Q743.0938,907.4719 742.5,907.2063 Q741.9063,906.925 741.2813,906.925 Q739.9375,906.925 739.25,908.0031 Q738.5625,909.0656 738.5625,911.1594 Q738.5625,913.2531 739.25,914.3313 Q739.9375,915.3938 741.2813,915.3938 Q741.9063,915.3938 742.5,915.1281 Q743.0938,914.8469 743.7188,914.2688 L743.7188,916.9875 Z " fill="#000000"/><text fill="#000000" font-family="sans-serif" font-size="14" lengthAdjust="spacing" textLength="58" x="761.25" y="916.1936">Property</text><line style="stroke:#181818;stroke-width:0.5;" x1="687.5" x2="860.5" y1="927.3469" y2="927.3469"/><text fill="#000000" font-family="sans-serif" font-size="14" lengthAdjust="spacing" textLength="91" x="692.5" y="944.342">name : string</text><text fill="#000000" font-family="sans-serif" font-size="14" lengthAdjust="spacing" textLength="157" x="692.5" y="960.6389">functionid : resourceID</text><text fill="#000000" font-family="sans-serif" font-size="14" lengthAdjust="spacing" textLength="163" x="692.5" y="976.9357">minfeaturesize : double</text><text fill="#000000" font-family="sans-serif" font-size="14" lengthAdjust="spacing" textLength="148" x="692.5" y="993.2326">fallbackvalue : double</text><line style="stroke:#181818;stroke-width:0.5;" x1="687.5" x2="860.5" y1="1000.5344" y2="1000.5344"/></g><!--class Composite--><g id="elem_Composite"><rect codeLine="77" fill="#F1F1F1" height="64.2969" id="Composite" rx="2.5" ry="2.5" style="stroke:#181818;stroke-width:0.5;" width="201" x="240.5" y="919.7969"/><ellipse cx="299.25" cy="935.7969" fill="#ADD1B2" rx="11" ry="11" style="stroke:#181818;stroke-width:1.0;"/><path d="M302.2188,941.4375 Q301.6406,941.7344 301,941.875 Q300.3594,942.0313 299.6563,942.0313 Q297.1563,942.0313 295.8281,940.3906 Q294.5156,938.7344 294.5156,935.6094 Q294.5156,932.4844 295.8281,930.8281 Q297.1563,929.1719 299.6563,929.1719 Q300.3594,929.1719 301,929.3281 Q301.6563,929.4844 302.2188,929.7813 L302.2188,932.5 Q301.5938,931.9219 301,931.6563 Q300.4063,931.375 299.7813,931.375 Q298.4375,931.375 297.75,932.4531 Q297.0625,933.5156 297.0625,935.6094 Q297.0625,937.7031 297.75,938.7813 Q298.4375,939.8438 299.7813,939.8438 Q300.4063,939.8438 301,939.5781 Q301.5938,939.2969 302.2188,938.7188 L302.2188,941.4375 Z " fill="#000000"/><text fill="#000000" font-family="sans-serif" font-size="14" lengthAdjust="spacing" textLength="75" x="319.75" y="940.6436">Composite</text><line style="stroke:#181818;stroke-width:0.5;" x1="241.5" x2="440.5" y1="951.7969" y2="951.7969"/><text fill="#000000" font-family="sans-serif" font-size="14" lengthAdjust="spacing" textLength="189" x="246.5" y="968.792">basematerialid : resourceID</text><line style="stroke:#181818;stroke-width:0.5;" x1="241.5" x2="440.5" y1="976.0938" y2="976.0938"/></g><!--class MaterialMapping--><g id="elem_MaterialMapping"><rect codeLine="82" fill="#F1F1F1" height="96.8906" id="MaterialMapping" rx="2.5" ry="2.5" style="stroke:#181818;stroke-width:0.5;" width="175" x="302.5" y="1068.5369"/><ellipse cx="331.45" cy="1084.5369" fill="#ADD1B2" rx="11" ry="11" style="stroke:#181818;stroke-width:1.0;"/><path d="M334.4188,1090.1775 Q333.8406,1090.4744 333.2,1090.615 Q332.5594,1090.7713 331.8563,1090.7713 Q329.3563,1090.7713 328.0281,1089.1306 Q326.7156,1087.4744 326.7156,1084.3494 Q326.7156,1081.2244 328.0281,1079.5681 Q329.3563,1077.9119 331.8563,1077.9119 Q332.5594,1077.9119 333.2,1078.0681 Q333.8563,1078.2244 334.4188,1078.5213 L334.4188,1081.24 Q333.7938,1080.6619 333.2,1080.3963 Q332.6063,1080.115 331.9813,1080.115 Q330.6375,1080.115 329.95,1081.1931 Q329.2625,1082.2556 329.2625,1084.3494 Q329.2625,1086.4431 329.95,1087.5213 Q330.6375,1088.5838 331.9813,1088.5838 Q332.6063,1088.5838 333.2,1088.3181 Q333.7938,1088.0369 334.4188,1087.4588 L334.4188,1090.1775 Z " fill="#000000"/><text fill="#000000" font-family="sans-serif" font-size="14" lengthAdjust="spacing" textLength="112" x="348.55" y="1089.3836">MaterialMapping</text><line style="stroke:#181818;stroke-width:0.5;" x1="303.5" x2="476.5" y1="1100.5369" y2="1100.5369"/><text fill="#000000" font-family="sans-serif" font-size="14" lengthAdjust="spacing" textLength="157" x="308.5" y="1117.532">functionid : resourceID</text><text fill="#000000" font-family="sans-serif" font-size="14" lengthAdjust="spacing" textLength="163" x="308.5" y="1133.8289">minfeaturesize : double</text><text fill="#000000" font-family="sans-serif" font-size="14" lengthAdjust="spacing" textLength="148" x="308.5" y="1150.1257">fallbackvalue : double</text><line style="stroke:#181818;stroke-width:0.5;" x1="303.5" x2="476.5" y1="1157.4275" y2="1157.4275"/></g><!--class Image3D--><g id="elem_Image3D"><rect codeLine="105" fill="#F1F1F1" height="80.5938" id="Image3D" rx="2.5" ry="2.5" style="stroke:#181818;stroke-width:0.5;" width="113" x="2128.5" y="94.5969"/><ellipse cx="2152.05" cy="110.5969" fill="#ADD1B2" rx="11" ry="11" style="stroke:#181818;stroke-width:1.0;"/><path d="M2155.0188,116.2375 Q2154.4406,116.5344 2153.8,116.675 Q2153.1594,116.8312 2152.4563,116.8312 Q2149.9563,116.8312 2148.6281,115.1906 Q2147.3156,113.5344 2147.3156,110.4094 Q2147.3156,107.2844 2148.6281,105.6281 Q2149.9563,103.9719 2152.4563,103.9719 Q2153.1594,103.9719 2153.8,104.1281 Q2154.4563,104.2844 2155.0188,104.5812 L2155.0188,107.3 Q2154.3938,106.7219 2153.8,106.4562 Q2153.2063,106.175 2152.5813,106.175 Q2151.2375,106.175 2150.55,107.2531 Q2149.8625,108.3156 2149.8625,110.4094 Q2149.8625,112.5031 2150.55,113.5812 Q2151.2375,114.6437 2152.5813,114.6437 Q2153.2063,114.6437 2153.8,114.3781 Q2154.3938,114.0969 2155.0188,113.5187 L2155.0188,116.2375 Z " fill="#000000"/><text fill="#000000" font-family="sans-serif" font-size="14" lengthAdjust="spacing" textLength="62" x="2167.95" y="115.4436">Image3D</text><line style="stroke:#181818;stroke-width:0.5;" x1="2129.5" x2="2240.5" y1="126.5969" y2="126.5969"/><text fill="#000000" font-family="sans-serif" font-size="14" lengthAdjust="spacing" textLength="101" x="2134.5" y="143.592">id : resourceID</text><text fill="#000000" font-family="sans-serif" font-size="14" lengthAdjust="spacing" textLength="91" x="2134.5" y="159.8889">name : string</text><line style="stroke:#181818;stroke-width:0.5;" x1="2129.5" x2="2240.5" y1="167.1906" y2="167.1906"/></g><!--class ImageStack--><g id="elem_ImageStack"><rect codeLine="111" fill="#F1F1F1" height="96.8906" id="ImageStack" rx="2.5" ry="2.5" style="stroke:#181818;stroke-width:0.5;" width="122" x="2124" y="251.4869"/><ellipse cx="2143.5" cy="267.4869" fill="#ADD1B2" rx="11" ry="11" style="stroke:#181818;stroke-width:1.0;"/><path d="M2146.4688,273.1275 Q2145.8906,273.4244 2145.25,273.565 Q2144.6094,273.7213 2143.9063,273.7213 Q2141.4063,273.7213 2140.0781,272.0806 Q2138.7656,270.4244 2138.7656,267.2994 Q2138.7656,264.1744 2140.0781,262.5181 Q2141.4063,260.8619 2143.9063,260.8619 Q2144.6094,260.8619 2145.25,261.0181 Q2145.9063,261.1744 2146.4688,261.4713 L2146.4688,264.19 Q2145.8438,263.6119 2145.25,263.3463 Q2144.6563,263.065 2144.0313,263.065 Q2142.6875,263.065 2142,264.1431 Q2141.3125,265.2056 2141.3125,267.2994 Q2141.3125,269.3931 2142,270.4713 Q2142.6875,271.5338 2144.0313,271.5338 Q2144.6563,271.5338 2145.25,271.2681 Q2145.8438,270.9869 2146.4688,270.4088 L2146.4688,273.1275 Z " fill="#000000"/><text fill="#000000" font-family="sans-serif" font-size="14" lengthAdjust="spacing" textLength="80" x="2158.5" y="272.3336">ImageStack</text><line style="stroke:#181818;stroke-width:0.5;" x1="2125" x2="2245" y1="283.4869" y2="283.4869"/><text fill="#000000" font-family="sans-serif" font-size="14" lengthAdjust="spacing" textLength="95" x="2130" y="300.482">rowcount : int</text><text fill="#000000" font-family="sans-serif" font-size="14" lengthAdjust="spacing" textLength="90" x="2130" y="316.7789">colcount : int</text><text fill="#000000" font-family="sans-serif" font-size="14" lengthAdjust="spacing" textLength="110" x="2130" y="333.0757">sheetcount : int</text><line style="stroke:#181818;stroke-width:0.5;" x1="2125" x2="2245" y1="340.3775" y2="340.3775"/></g><!--class ImageSheet--><g id="elem_ImageSheet"><rect codeLine="118" fill="#F1F1F1" height="64.2969" id="ImageSheet" rx="2.5" ry="2.5" style="stroke:#181818;stroke-width:0.5;" width="139" x="2115.5" y="408.3769"/><ellipse cx="2141.3" cy="424.3769" fill="#ADD1B2" rx="11" ry="11" style="stroke:#181818;stroke-width:1.0;"/><path d="M2144.2688,430.0175 Q2143.6906,430.3144 2143.05,430.455 Q2142.4094,430.6112 2141.7063,430.6112 Q2139.2063,430.6112 2137.8781,428.9706 Q2136.5656,427.3144 2136.5656,424.1894 Q2136.5656,421.0644 2137.8781,419.4081 Q2139.2063,417.7519 2141.7063,417.7519 Q2142.4094,417.7519 2143.05,417.9081 Q2143.7063,418.0644 2144.2688,418.3612 L2144.2688,421.08 Q2143.6438,420.5019 2143.05,420.2362 Q2142.4563,419.955 2141.8313,419.955 Q2140.4875,419.955 2139.8,421.0331 Q2139.1125,422.0956 2139.1125,424.1894 Q2139.1125,426.2831 2139.8,427.3612 Q2140.4875,428.4237 2141.8313,428.4237 Q2142.4563,428.4237 2143.05,428.1581 Q2143.6438,427.8769 2144.2688,427.2987 L2144.2688,430.0175 Z " fill="#000000"/><text fill="#000000" font-family="sans-serif" font-size="14" lengthAdjust="spacing" textLength="83" x="2157.7" y="429.2236">ImageSheet</text><line style="stroke:#181818;stroke-width:0.5;" x1="2116.5" x2="2253.5" y1="440.3769" y2="440.3769"/><line style="stroke:#181818;stroke-width:0.5;" x1="2116.5" x2="2253.5" y1="448.3769" y2="448.3769"/><text fill="#000000" font-family="sans-serif" font-size="14" lengthAdjust="spacing" textLength="127" x="2121.5" y="465.372">path : string (PNG)</text></g><!--class ScalarRef--><g id="elem_ScalarRef"><rect codeLine="128" fill="#F1F1F1" height="64.2969" id="ScalarRef" rx="2.5" ry="2.5" style="stroke:#181818;stroke-width:0.5;" width="116" x="1292" y="408.3769"/><ellipse cx="1316" cy="424.3769" fill="#ADD1B2" rx="11" ry="11" style="stroke:#181818;stroke-width:1.0;"/><path d="M1318.9688,430.0175 Q1318.3906,430.3144 1317.75,430.455 Q1317.1094,430.6112 1316.4063,430.6112 Q1313.9063,430.6112 1312.5781,428.9706 Q1311.2656,427.3144 1311.2656,424.1894 Q1311.2656,421.0644 1312.5781,419.4081 Q1313.9063,417.7519 1316.4063,417.7519 Q1317.1094,417.7519 1317.75,417.9081 Q1318.4063,418.0644 1318.9688,418.3612 L1318.9688,421.08 Q1318.3438,420.5019 1317.75,420.2362 Q1317.1563,419.955 1316.5313,419.955 Q1315.1875,419.955 1314.5,421.0331 Q1313.8125,422.0956 1313.8125,424.1894 Q1313.8125,426.2831 1314.5,427.3612 Q1315.1875,428.4237 1316.5313,428.4237 Q1317.1563,428.4237 1317.75,428.1581 Q1318.3438,427.8769 1318.9688,427.2987 L1318.9688,430.0175 Z " fill="#000000"/><text fill="#000000" font-family="sans-serif" font-size="14" lengthAdjust="spacing" textLength="64" x="1332" y="429.2236">ScalarRef</text><line style="stroke:#181818;stroke-width:0.5;" x1="1293" x2="1407" y1="440.3769" y2="440.3769"/><text fill="#000000" font-family="sans-serif" font-size="14" lengthAdjust="spacing" textLength="104" x="1298" y="457.372">identifer: string</text><line style="stroke:#181818;stroke-width:0.5;" x1="1293" x2="1407" y1="464.6737" y2="464.6737"/></g><!--class VectorRef--><g id="elem_VectorRef"><rect codeLine="133" fill="#F1F1F1" height="64.2969" id="VectorRef" rx="2.5" ry="2.5" style="stroke:#181818;stroke-width:0.5;" width="116" x="1443" y="408.3769"/><ellipse cx="1465.2" cy="424.3769" fill="#ADD1B2" rx="11" ry="11" style="stroke:#181818;stroke-width:1.0;"/><path d="M1468.1688,430.0175 Q1467.5906,430.3144 1466.95,430.455 Q1466.3094,430.6112 1465.6063,430.6112 Q1463.1063,430.6112 1461.7781,428.9706 Q1460.4656,427.3144 1460.4656,424.1894 Q1460.4656,421.0644 1461.7781,419.4081 Q1463.1063,417.7519 1465.6063,417.7519 Q1466.3094,417.7519 1466.95,417.9081 Q1467.6063,418.0644 1468.1688,418.3612 L1468.1688,421.08 Q1467.5438,420.5019 1466.95,420.2362 Q1466.3563,419.955 1465.7313,419.955 Q1464.3875,419.955 1463.7,421.0331 Q1463.0125,422.0956 1463.0125,424.1894 Q1463.0125,426.2831 1463.7,427.3612 Q1464.3875,428.4237 1465.7313,428.4237 Q1466.3563,428.4237 1466.95,428.1581 Q1467.5438,427.8769 1468.1688,427.2987 L1468.1688,430.0175 Z " fill="#000000"/><text fill="#000000" font-family="sans-serif" font-size="14" lengthAdjust="spacing" textLength="68" x="1480.8" y="429.2236">VectorRef</text><line style="stroke:#181818;stroke-width:0.5;" x1="1444" x2="1558" y1="440.3769" y2="440.3769"/><text fill="#000000" font-family="sans-serif" font-size="14" lengthAdjust="spacing" textLength="104" x="1449" y="457.372">identifer: string</text><line style="stroke:#181818;stroke-width:0.5;" x1="1444" x2="1558" y1="464.6737" y2="464.6737"/></g><!--class MatrixRef--><g id="elem_MatrixRef"><rect codeLine="138" fill="#F1F1F1" height="64.2969" id="MatrixRef" rx="2.5" ry="2.5" style="stroke:#181818;stroke-width:0.5;" width="116" x="1594" y="408.3769"/><ellipse cx="1618.45" cy="424.3769" fill="#ADD1B2" rx="11" ry="11" style="stroke:#181818;stroke-width:1.0;"/><path d="M1621.4188,430.0175 Q1620.8406,430.3144 1620.2,430.455 Q1619.5594,430.6112 1618.8563,430.6112 Q1616.3563,430.6112 1615.0281,428.9706 Q1613.7156,427.3144 1613.7156,424.1894 Q1613.7156,421.0644 1615.0281,419.4081 Q1616.3563,417.7519 1618.8563,417.7519 Q1619.5594,417.7519 1620.2,417.9081 Q1620.8563,418.0644 1621.4188,418.3612 L1621.4188,421.08 Q1620.7938,420.5019 1620.2,420.2362 Q1619.6063,419.955 1618.9813,419.955 Q1617.6375,419.955 1616.95,421.0331 Q1616.2625,422.0956 1616.2625,424.1894 Q1616.2625,426.2831 1616.95,427.3612 Q1617.6375,428.4237 1618.9813,428.4237 Q1619.6063,428.4237 1620.2,428.1581 Q1620.7938,427.8769 1621.4188,427.2987 L1621.4188,430.0175 Z " fill="#000000"/><text fill="#000000" font-family="sans-serif" font-size="14" lengthAdjust="spacing" textLength="63" x="1634.55" y="429.2236">MatrixRef</text><line style="stroke:#181818;stroke-width:0.5;" x1="1595" x2="1709" y1="440.3769" y2="440.3769"/><text fill="#000000" font-family="sans-serif" font-size="14" lengthAdjust="spacing" textLength="104" x="1600" y="457.372">identifer: string</text><line style="stroke:#181818;stroke-width:0.5;" x1="1595" x2="1709" y1="464.6737" y2="464.6737"/></g><!--class ResourceRef--><g id="elem_ResourceRef"><rect codeLine="143" fill="#F1F1F1" height="64.2969" id="ResourceRef" rx="2.5" ry="2.5" style="stroke:#181818;stroke-width:0.5;" width="122" x="1135" y="408.3769"/><ellipse cx="1150" cy="424.3769" fill="#ADD1B2" rx="11" ry="11" style="stroke:#181818;stroke-width:1.0;"/><path d="M1152.9688,430.0175 Q1152.3906,430.3144 1151.75,430.455 Q1151.1094,430.6112 1150.4063,430.6112 Q1147.9063,430.6112 1146.5781,428.9706 Q1145.2656,427.3144 1145.2656,424.1894 Q1145.2656,421.0644 1146.5781,419.4081 Q1147.9063,417.7519 1150.4063,417.7519 Q1151.1094,417.7519 1151.75,417.9081 Q1152.4063,418.0644 1152.9688,418.3612 L1152.9688,421.08 Q1152.3438,420.5019 1151.75,420.2362 Q1151.1563,419.955 1150.5313,419.955 Q1149.1875,419.955 1148.5,421.0331 Q1147.8125,422.0956 1147.8125,424.1894 Q1147.8125,426.2831 1148.5,427.3612 Q1149.1875,428.4237 1150.5313,428.4237 Q1151.1563,428.4237 1151.75,428.1581 Q1152.3438,427.8769 1152.9688,427.2987 L1152.9688,430.0175 Z " fill="#000000"/><text fill="#000000" font-family="sans-serif" font-size="14" lengthAdjust="spacing" textLength="90" x="1164" y="429.2236">ResourceRef</text><line style="stroke:#181818;stroke-width:0.5;" x1="1136" x2="1256" y1="440.3769" y2="440.3769"/><text fill="#000000" font-family="sans-serif" font-size="14" lengthAdjust="spacing" textLength="104" x="1141" y="457.372">identifer: string</text><line style="stroke:#181818;stroke-width:0.5;" x1="1136" x2="1256" y1="464.6737" y2="464.6737"/></g><!--class Scalar--><g id="elem_Scalar"><rect codeLine="148" fill="#F1F1F1" height="48" id="Scalar" rx="2.5" ry="2.5" style="stroke:#181818;stroke-width:0.5;" width="73" x="1313.5" y="606.0069"/><ellipse cx="1328.5" cy="622.0069" fill="#ADD1B2" rx="11" ry="11" style="stroke:#181818;stroke-width:1.0;"/><path d="M1331.4688,627.6475 Q1330.8906,627.9444 1330.25,628.085 Q1329.6094,628.2413 1328.9063,628.2413 Q1326.4063,628.2413 1325.0781,626.6006 Q1323.7656,624.9444 1323.7656,621.8194 Q1323.7656,618.6944 1325.0781,617.0381 Q1326.4063,615.3819 1328.9063,615.3819 Q1329.6094,615.3819 1330.25,615.5381 Q1330.9063,615.6944 1331.4688,615.9913 L1331.4688,618.71 Q1330.8438,618.1319 1330.25,617.8663 Q1329.6563,617.585 1329.0313,617.585 Q1327.6875,617.585 1327,618.6631 Q1326.3125,619.7256 1326.3125,621.8194 Q1326.3125,623.9131 1327,624.9913 Q1327.6875,626.0538 1329.0313,626.0538 Q1329.6563,626.0538 1330.25,625.7881 Q1330.8438,625.5069 1331.4688,624.9288 L1331.4688,627.6475 Z " fill="#000000"/><text fill="#000000" font-family="sans-serif" font-size="14" lengthAdjust="spacing" textLength="41" x="1342.5" y="626.8536">Scalar</text><line style="stroke:#181818;stroke-width:0.5;" x1="1314.5" x2="1385.5" y1="638.0069" y2="638.0069"/><line style="stroke:#181818;stroke-width:0.5;" x1="1314.5" x2="1385.5" y1="646.0069" y2="646.0069"/></g><!--class Vector--><g id="elem_Vector"><rect codeLine="149" fill="#F1F1F1" height="48" id="Vector" rx="2.5" ry="2.5" style="stroke:#181818;stroke-width:0.5;" width="77" x="1462.5" y="606.0069"/><ellipse cx="1477.5" cy="622.0069" fill="#ADD1B2" rx="11" ry="11" style="stroke:#181818;stroke-width:1.0;"/><path d="M1480.4688,627.6475 Q1479.8906,627.9444 1479.25,628.085 Q1478.6094,628.2413 1477.9063,628.2413 Q1475.4063,628.2413 1474.0781,626.6006 Q1472.7656,624.9444 1472.7656,621.8194 Q1472.7656,618.6944 1474.0781,617.0381 Q1475.4063,615.3819 1477.9063,615.3819 Q1478.6094,615.3819 1479.25,615.5381 Q1479.9063,615.6944 1480.4688,615.9913 L1480.4688,618.71 Q1479.8438,618.1319 1479.25,617.8663 Q1478.6563,617.585 1478.0313,617.585 Q1476.6875,617.585 1476,618.6631 Q1475.3125,619.7256 1475.3125,621.8194 Q1475.3125,623.9131 1476,624.9913 Q1476.6875,626.0538 1478.0313,626.0538 Q1478.6563,626.0538 1479.25,625.7881 Q1479.8438,625.5069 1480.4688,624.9288 L1480.4688,627.6475 Z " fill="#000000"/><text fill="#000000" font-family="sans-serif" font-size="14" lengthAdjust="spacing" textLength="45" x="1491.5" y="626.8536">Vector</text><line style="stroke:#181818;stroke-width:0.5;" x1="1463.5" x2="1538.5" y1="638.0069" y2="638.0069"/><line style="stroke:#181818;stroke-width:0.5;" x1="1463.5" x2="1538.5" y1="646.0069" y2="646.0069"/></g><!--class Matrix--><g id="elem_Matrix"><rect codeLine="150" fill="#F1F1F1" height="48" id="Matrix" rx="2.5" ry="2.5" style="stroke:#181818;stroke-width:0.5;" width="72" x="1616" y="606.0069"/><ellipse cx="1631" cy="622.0069" fill="#ADD1B2" rx="11" ry="11" style="stroke:#181818;stroke-width:1.0;"/><path d="M1633.9688,627.6475 Q1633.3906,627.9444 1632.75,628.085 Q1632.1094,628.2413 1631.4063,628.2413 Q1628.9063,628.2413 1627.5781,626.6006 Q1626.2656,624.9444 1626.2656,621.8194 Q1626.2656,618.6944 1627.5781,617.0381 Q1628.9063,615.3819 1631.4063,615.3819 Q1632.1094,615.3819 1632.75,615.5381 Q1633.4063,615.6944 1633.9688,615.9913 L1633.9688,618.71 Q1633.3438,618.1319 1632.75,617.8663 Q1632.1563,617.585 1631.5313,617.585 Q1630.1875,617.585 1629.5,618.6631 Q1628.8125,619.7256 1628.8125,621.8194 Q1628.8125,623.9131 1629.5,624.9913 Q1630.1875,626.0538 1631.5313,626.0538 Q1632.1563,626.0538 1632.75,625.7881 Q1633.3438,625.5069 1633.9688,624.9288 L1633.9688,627.6475 Z " fill="#000000"/><text fill="#000000" font-family="sans-serif" font-size="14" lengthAdjust="spacing" textLength="40" x="1645" y="626.8536">Matrix</text><line style="stroke:#181818;stroke-width:0.5;" x1="1617" x2="1687" y1="638.0069" y2="638.0069"/><line style="stroke:#181818;stroke-width:0.5;" x1="1617" x2="1687" y1="646.0069" y2="646.0069"/></g><!--class Image3D--><g id="elem_Image3D"><rect fill="#F1F1F1" height="48" id="Image3D" rx="2.5" ry="2.5" style="stroke:#181818;stroke-width:0.5;" width="94" x="1149" y="606.0069"/><ellipse cx="1164" cy="622.0069" fill="#ADD1B2" rx="11" ry="11" style="stroke:#181818;stroke-width:1.0;"/><path d="M1166.9688,627.6475 Q1166.3906,627.9444 1165.75,628.085 Q1165.1094,628.2413 1164.4063,628.2413 Q1161.9063,628.2413 1160.5781,626.6006 Q1159.2656,624.9444 1159.2656,621.8194 Q1159.2656,618.6944 1160.5781,617.0381 Q1161.9063,615.3819 1164.4063,615.3819 Q1165.1094,615.3819 1165.75,615.5381 Q1166.4063,615.6944 1166.9688,615.9913 L1166.9688,618.71 Q1166.3438,618.1319 1165.75,617.8663 Q1165.1563,617.585 1164.5313,617.585 Q1163.1875,617.585 1162.5,618.6631 Q1161.8125,619.7256 1161.8125,621.8194 Q1161.8125,623.9131 1162.5,624.9913 Q1163.1875,626.0538 1164.5313,626.0538 Q1165.1563,626.0538 1165.75,625.7881 Q1166.3438,625.5069 1166.9688,624.9288 L1166.9688,627.6475 Z " fill="#000000"/><text fill="#000000" font-family="sans-serif" font-size="14" lengthAdjust="spacing" textLength="62" x="1178" y="626.8536">Image3D</text><line style="stroke:#181818;stroke-width:0.5;" x1="1150" x2="1242" y1="638.0069" y2="638.0069"/><line style="stroke:#181818;stroke-width:0.5;" x1="1150" x2="1242" y1="646.0069" y2="646.0069"/></g><!--class Input--><g id="elem_Input"><rect codeLine="162" fill="#F1F1F1" height="48" id="Input" rx="2.5" ry="2.5" style="stroke:#181818;stroke-width:0.5;" width="67" x="897.5" y="275.9369"/><ellipse cx="912.5" cy="291.9369" fill="#ADD1B2" rx="11" ry="11" style="stroke:#181818;stroke-width:1.0;"/><path d="M915.4688,297.5775 Q914.8906,297.8744 914.25,298.015 Q913.6094,298.1712 912.9063,298.1712 Q910.4063,298.1712 909.0781,296.5306 Q907.7656,294.8744 907.7656,291.7494 Q907.7656,288.6244 909.0781,286.9681 Q910.4063,285.3119 912.9063,285.3119 Q913.6094,285.3119 914.25,285.4681 Q914.9063,285.6244 915.4688,285.9212 L915.4688,288.64 Q914.8438,288.0619 914.25,287.7962 Q913.6563,287.515 913.0313,287.515 Q911.6875,287.515 911,288.5931 Q910.3125,289.6556 910.3125,291.7494 Q910.3125,293.8431 911,294.9212 Q911.6875,295.9837 913.0313,295.9837 Q913.6563,295.9837 914.25,295.7181 Q914.8438,295.4369 915.4688,294.8587 L915.4688,297.5775 Z " fill="#000000"/><text fill="#000000" font-family="sans-serif" font-size="14" lengthAdjust="spacing" textLength="35" x="926.5" y="296.7836">Input</text><line style="stroke:#181818;stroke-width:0.5;" x1="898.5" x2="963.5" y1="307.9369" y2="307.9369"/><line style="stroke:#181818;stroke-width:0.5;" x1="898.5" x2="963.5" y1="315.9369" y2="315.9369"/></g><!--class Output--><g id="elem_Output"><rect codeLine="166" fill="#F1F1F1" height="48" id="Output" rx="2.5" ry="2.5" style="stroke:#181818;stroke-width:0.5;" width="80" x="1000" y="275.9369"/><ellipse cx="1015" cy="291.9369" fill="#ADD1B2" rx="11" ry="11" style="stroke:#181818;stroke-width:1.0;"/><path d="M1017.9688,297.5775 Q1017.3906,297.8744 1016.75,298.015 Q1016.1094,298.1712 1015.4063,298.1712 Q1012.9063,298.1712 1011.5781,296.5306 Q1010.2656,294.8744 1010.2656,291.7494 Q1010.2656,288.6244 1011.5781,286.9681 Q1012.9063,285.3119 1015.4063,285.3119 Q1016.1094,285.3119 1016.75,285.4681 Q1017.4063,285.6244 1017.9688,285.9212 L1017.9688,288.64 Q1017.3438,288.0619 1016.75,287.7962 Q1016.1563,287.515 1015.5313,287.515 Q1014.1875,287.515 1013.5,288.5931 Q1012.8125,289.6556 1012.8125,291.7494 Q1012.8125,293.8431 1013.5,294.9212 Q1014.1875,295.9837 1015.5313,295.9837 Q1016.1563,295.9837 1016.75,295.7181 Q1017.3438,295.4369 1017.9688,294.8587 L1017.9688,297.5775 Z " fill="#000000"/><text fill="#000000" font-family="sans-serif" font-size="14" lengthAdjust="spacing" textLength="48" x="1029" y="296.7836">Output</text><line style="stroke:#181818;stroke-width:0.5;" x1="1001" x2="1079" y1="307.9369" y2="307.9369"/><line style="stroke:#181818;stroke-width:0.5;" x1="1001" x2="1079" y1="315.9369" y2="315.9369"/></g><!--class In--><g id="elem_In"><rect codeLine="180" fill="#F1F1F1" height="48" id="In" rx="2.5" ry="2.5" style="stroke:#181818;stroke-width:0.5;" width="44" x="1922" y="275.9369"/><ellipse cx="1937" cy="291.9369" fill="#ADD1B2" rx="11" ry="11" style="stroke:#181818;stroke-width:1.0;"/><path d="M1939.9688,297.5775 Q1939.3906,297.8744 1938.75,298.015 Q1938.1094,298.1712 1937.4063,298.1712 Q1934.9063,298.1712 1933.5781,296.5306 Q1932.2656,294.8744 1932.2656,291.7494 Q1932.2656,288.6244 1933.5781,286.9681 Q1934.9063,285.3119 1937.4063,285.3119 Q1938.1094,285.3119 1938.75,285.4681 Q1939.4063,285.6244 1939.9688,285.9212 L1939.9688,288.64 Q1939.3438,288.0619 1938.75,287.7962 Q1938.1563,287.515 1937.5313,287.515 Q1936.1875,287.515 1935.5,288.5931 Q1934.8125,289.6556 1934.8125,291.7494 Q1934.8125,293.8431 1935.5,294.9212 Q1936.1875,295.9837 1937.5313,295.9837 Q1938.1563,295.9837 1938.75,295.7181 Q1939.3438,295.4369 1939.9688,294.8587 L1939.9688,297.5775 Z " fill="#000000"/><text fill="#000000" font-family="sans-serif" font-size="14" lengthAdjust="spacing" textLength="12" x="1951" y="296.7836">In</text><line style="stroke:#181818;stroke-width:0.5;" x1="1923" x2="1965" y1="307.9369" y2="307.9369"/><line style="stroke:#181818;stroke-width:0.5;" x1="1923" x2="1965" y1="315.9369" y2="315.9369"/></g><!--class Out--><g id="elem_Out"><rect codeLine="184" fill="#F1F1F1" height="48" id="Out" rx="2.5" ry="2.5" style="stroke:#181818;stroke-width:0.5;" width="57" x="2001.5" y="275.9369"/><ellipse cx="2016.5" cy="291.9369" fill="#ADD1B2" rx="11" ry="11" style="stroke:#181818;stroke-width:1.0;"/><path d="M2019.4688,297.5775 Q2018.8906,297.8744 2018.25,298.015 Q2017.6094,298.1712 2016.9063,298.1712 Q2014.4063,298.1712 2013.0781,296.5306 Q2011.7656,294.8744 2011.7656,291.7494 Q2011.7656,288.6244 2013.0781,286.9681 Q2014.4063,285.3119 2016.9063,285.3119 Q2017.6094,285.3119 2018.25,285.4681 Q2018.9063,285.6244 2019.4688,285.9212 L2019.4688,288.64 Q2018.8438,288.0619 2018.25,287.7962 Q2017.6563,287.515 2017.0313,287.515 Q2015.6875,287.515 2015,288.5931 Q2014.3125,289.6556 2014.3125,291.7494 Q2014.3125,293.8431 2015,294.9212 Q2015.6875,295.9837 2017.0313,295.9837 Q2017.6563,295.9837 2018.25,295.7181 Q2018.8438,295.4369 2019.4688,294.8587 L2019.4688,297.5775 Z " fill="#000000"/><text fill="#000000" font-family="sans-serif" font-size="14" lengthAdjust="spacing" textLength="25" x="2030.5" y="296.7836">Out</text><line style="stroke:#181818;stroke-width:0.5;" x1="2002.5" x2="2057.5" y1="307.9369" y2="307.9369"/><line style="stroke:#181818;stroke-width:0.5;" x1="2002.5" x2="2057.5" y1="315.9369" y2="315.9369"/></g><!--class Node_--><g id="elem_Node_"><rect codeLine="200" fill="#F1F1F1" height="113.1875" id="Node_" rx="2.5" ry="2.5" style="stroke:#181818;stroke-width:0.5;" width="146" x="1512" y="78.2969"/><ellipse cx="1558.75" cy="94.2969" fill="#ADD1B2" rx="11" ry="11" style="stroke:#181818;stroke-width:1.0;"/><path d="M1561.7188,99.9375 Q1561.1406,100.2344 1560.5,100.375 Q1559.8594,100.5313 1559.1563,100.5313 Q1556.6563,100.5313 1555.3281,98.8906 Q1554.0156,97.2344 1554.0156,94.1094 Q1554.0156,90.9844 1555.3281,89.3281 Q1556.6563,87.6719 1559.1563,87.6719 Q1559.8594,87.6719 1560.5,87.8281 Q1561.1563,87.9844 1561.7188,88.2813 L1561.7188,91 Q1561.0938,90.4219 1560.5,90.1563 Q1559.9063,89.875 1559.2813,89.875 Q1557.9375,89.875 1557.25,90.9531 Q1556.5625,92.0156 1556.5625,94.1094 Q1556.5625,96.2031 1557.25,97.2813 Q1557.9375,98.3438 1559.2813,98.3438 Q1559.9063,98.3438 1560.5,98.0781 Q1561.0938,97.7969 1561.7188,97.2188 L1561.7188,99.9375 Z " fill="#000000"/><text fill="#000000" font-family="sans-serif" font-size="14" lengthAdjust="spacing" textLength="44" x="1579.25" y="99.1436">Node_</text><line style="stroke:#181818;stroke-width:0.5;" x1="1513" x2="1657" y1="110.2969" y2="110.2969"/><text fill="#000000" font-family="sans-serif" font-size="14" lengthAdjust="spacing" textLength="96" x="1518" y="127.292">xmlns: implicit</text><text fill="#000000" font-family="sans-serif" font-size="14" lengthAdjust="spacing" textLength="4" x="1518" y="143.5889">&#160;</text><text fill="#000000" font-family="sans-serif" font-size="14" lengthAdjust="spacing" textLength="107" x="1518" y="159.8857">identifier: string</text><text fill="#000000" font-family="sans-serif" font-size="14" lengthAdjust="spacing" textLength="134" x="1518" y="176.1826">displayname: string</text><line style="stroke:#181818;stroke-width:0.5;" x1="1513" x2="1657" y1="183.4844" y2="183.4844"/></g><!--class Addition--><g id="elem_Addition"><rect codeLine="208" fill="#F1F1F1" height="48" id="Addition" rx="2.5" ry="2.5" style="stroke:#181818;stroke-width:0.5;" width="88" x="1136" y="275.9369"/><ellipse cx="1151" cy="291.9369" fill="#ADD1B2" rx="11" ry="11" style="stroke:#181818;stroke-width:1.0;"/><path d="M1153.9688,297.5775 Q1153.3906,297.8744 1152.75,298.015 Q1152.1094,298.1712 1151.4063,298.1712 Q1148.9063,298.1712 1147.5781,296.5306 Q1146.2656,294.8744 1146.2656,291.7494 Q1146.2656,288.6244 1147.5781,286.9681 Q1148.9063,285.3119 1151.4063,285.3119 Q1152.1094,285.3119 1152.75,285.4681 Q1153.4063,285.6244 1153.9688,285.9212 L1153.9688,288.64 Q1153.3438,288.0619 1152.75,287.7962 Q1152.1563,287.515 1151.5313,287.515 Q1150.1875,287.515 1149.5,288.5931 Q1148.8125,289.6556 1148.8125,291.7494 Q1148.8125,293.8431 1149.5,294.9212 Q1150.1875,295.9837 1151.5313,295.9837 Q1152.1563,295.9837 1152.75,295.7181 Q1153.3438,295.4369 1153.9688,294.8587 L1153.9688,297.5775 Z " fill="#000000"/><text fill="#000000" font-family="sans-serif" font-size="14" lengthAdjust="spacing" textLength="56" x="1165" y="296.7836">Addition</text><line style="stroke:#181818;stroke-width:0.5;" x1="1137" x2="1223" y1="307.9369" y2="307.9369"/><line style="stroke:#181818;stroke-width:0.5;" x1="1137" x2="1223" y1="315.9369" y2="315.9369"/></g><!--class Min--><g id="elem_Min"><rect codeLine="212" fill="#F1F1F1" height="48" id="Min" rx="2.5" ry="2.5" style="stroke:#181818;stroke-width:0.5;" width="56" x="1259" y="275.9369"/><ellipse cx="1274" cy="291.9369" fill="#ADD1B2" rx="11" ry="11" style="stroke:#181818;stroke-width:1.0;"/><path d="M1276.9688,297.5775 Q1276.3906,297.8744 1275.75,298.015 Q1275.1094,298.1712 1274.4063,298.1712 Q1271.9063,298.1712 1270.5781,296.5306 Q1269.2656,294.8744 1269.2656,291.7494 Q1269.2656,288.6244 1270.5781,286.9681 Q1271.9063,285.3119 1274.4063,285.3119 Q1275.1094,285.3119 1275.75,285.4681 Q1276.4063,285.6244 1276.9688,285.9212 L1276.9688,288.64 Q1276.3438,288.0619 1275.75,287.7962 Q1275.1563,287.515 1274.5313,287.515 Q1273.1875,287.515 1272.5,288.5931 Q1271.8125,289.6556 1271.8125,291.7494 Q1271.8125,293.8431 1272.5,294.9212 Q1273.1875,295.9837 1274.5313,295.9837 Q1275.1563,295.9837 1275.75,295.7181 Q1276.3438,295.4369 1276.9688,294.8587 L1276.9688,297.5775 Z " fill="#000000"/><text fill="#000000" font-family="sans-serif" font-size="14" lengthAdjust="spacing" textLength="24" x="1288" y="296.7836">Min</text><line style="stroke:#181818;stroke-width:0.5;" x1="1260" x2="1314" y1="307.9369" y2="307.9369"/><line style="stroke:#181818;stroke-width:0.5;" x1="1260" x2="1314" y1="315.9369" y2="315.9369"/></g><!--class MatVecMul--><g id="elem_MatVecMul"><rect codeLine="216" fill="#F1F1F1" height="48" id="MatVecMul" rx="2.5" ry="2.5" style="stroke:#181818;stroke-width:0.5;" width="107" x="1350.5" y="275.9369"/><ellipse cx="1365.5" cy="291.9369" fill="#ADD1B2" rx="11" ry="11" style="stroke:#181818;stroke-width:1.0;"/><path d="M1368.4688,297.5775 Q1367.8906,297.8744 1367.25,298.015 Q1366.6094,298.1712 1365.9063,298.1712 Q1363.4063,298.1712 1362.0781,296.5306 Q1360.7656,294.8744 1360.7656,291.7494 Q1360.7656,288.6244 1362.0781,286.9681 Q1363.4063,285.3119 1365.9063,285.3119 Q1366.6094,285.3119 1367.25,285.4681 Q1367.9063,285.6244 1368.4688,285.9212 L1368.4688,288.64 Q1367.8438,288.0619 1367.25,287.7962 Q1366.6563,287.515 1366.0313,287.515 Q1364.6875,287.515 1364,288.5931 Q1363.3125,289.6556 1363.3125,291.7494 Q1363.3125,293.8431 1364,294.9212 Q1364.6875,295.9837 1366.0313,295.9837 Q1366.6563,295.9837 1367.25,295.7181 Q1367.8438,295.4369 1368.4688,294.8587 L1368.4688,297.5775 Z " fill="#000000"/><text fill="#000000" font-family="sans-serif" font-size="14" lengthAdjust="spacing" textLength="75" x="1379.5" y="296.7836">MatVecMul</text><line style="stroke:#181818;stroke-width:0.5;" x1="1351.5" x2="1456.5" y1="307.9369" y2="307.9369"/><line style="stroke:#181818;stroke-width:0.5;" x1="1351.5" x2="1456.5" y1="315.9369" y2="315.9369"/></g><!--class FunctionCall--><g id="elem_FunctionCall"><rect codeLine="220" fill="#F1F1F1" height="64.2969" id="FunctionCall" rx="2.5" ry="2.5" style="stroke:#181818;stroke-width:0.5;" width="185" x="1492.5" y="267.7869"/><ellipse cx="1538.75" cy="283.7869" fill="#ADD1B2" rx="11" ry="11" style="stroke:#181818;stroke-width:1.0;"/><path d="M1541.7188,289.4275 Q1541.1406,289.7244 1540.5,289.865 Q1539.8594,290.0213 1539.1563,290.0213 Q1536.6563,290.0213 1535.3281,288.3806 Q1534.0156,286.7244 1534.0156,283.5994 Q1534.0156,280.4744 1535.3281,278.8181 Q1536.6563,277.1619 1539.1563,277.1619 Q1539.8594,277.1619 1540.5,277.3181 Q1541.1563,277.4744 1541.7188,277.7713 L1541.7188,280.49 Q1541.0938,279.9119 1540.5,279.6463 Q1539.9063,279.365 1539.2813,279.365 Q1537.9375,279.365 1537.25,280.4431 Q1536.5625,281.5056 1536.5625,283.5994 Q1536.5625,285.6931 1537.25,286.7713 Q1537.9375,287.8338 1539.2813,287.8338 Q1539.9063,287.8338 1540.5,287.5681 Q1541.0938,287.2869 1541.7188,286.7088 L1541.7188,289.4275 Z " fill="#000000"/><text fill="#000000" font-family="sans-serif" font-size="14" lengthAdjust="spacing" textLength="84" x="1559.25" y="288.6336">FunctionCall</text><line style="stroke:#181818;stroke-width:0.5;" x1="1493.5" x2="1676.5" y1="299.7869" y2="299.7869"/><text fill="#000000" font-family="sans-serif" font-size="14" lengthAdjust="spacing" textLength="173" x="1498.5" y="316.782">functionID : ResourceRef</text><line style="stroke:#181818;stroke-width:0.5;" x1="1493.5" x2="1676.5" y1="324.0838" y2="324.0838"/></g><!--class Mesh--><g id="elem_Mesh"><rect codeLine="225" fill="#F1F1F1" height="64.2969" id="Mesh" rx="2.5" ry="2.5" style="stroke:#181818;stroke-width:0.5;" width="154" x="1712" y="267.7869"/><ellipse cx="1765.75" cy="283.7869" fill="#ADD1B2" rx="11" ry="11" style="stroke:#181818;stroke-width:1.0;"/><path d="M1768.7188,289.4275 Q1768.1406,289.7244 1767.5,289.865 Q1766.8594,290.0213 1766.1563,290.0213 Q1763.6563,290.0213 1762.3281,288.3806 Q1761.0156,286.7244 1761.0156,283.5994 Q1761.0156,280.4744 1762.3281,278.8181 Q1763.6563,277.1619 1766.1563,277.1619 Q1766.8594,277.1619 1767.5,277.3181 Q1768.1563,277.4744 1768.7188,277.7713 L1768.7188,280.49 Q1768.0938,279.9119 1767.5,279.6463 Q1766.9063,279.365 1766.2813,279.365 Q1764.9375,279.365 1764.25,280.4431 Q1763.5625,281.5056 1763.5625,283.5994 Q1763.5625,285.6931 1764.25,286.7713 Q1764.9375,287.8338 1766.2813,287.8338 Q1766.9063,287.8338 1767.5,287.5681 Q1768.0938,287.2869 1768.7188,286.7088 L1768.7188,289.4275 Z " fill="#000000"/><text fill="#000000" font-family="sans-serif" font-size="14" lengthAdjust="spacing" textLength="38" x="1786.25" y="288.6336">Mesh</text><line style="stroke:#181818;stroke-width:0.5;" x1="1713" x2="1865" y1="299.7869" y2="299.7869"/><text fill="#000000" font-family="sans-serif" font-size="14" lengthAdjust="spacing" textLength="142" x="1718" y="316.782">mesh : ResourceRef</text><line style="stroke:#181818;stroke-width:0.5;" x1="1713" x2="1865" y1="324.0838" y2="324.0838"/></g><!--reverse link Object to Mesh--><g id="link_Object_Mesh"><path d="M725.8404,481.4841 C741.0204,517.5041 762.97,569.6169 778.15,605.6469 " fill="none" id="Object-backto-Mesh" style="stroke:#181818;stroke-width:1.0;"/><polygon fill="none" points="718.85,464.8969,720.3113,483.8142,731.3694,479.1539,718.85,464.8969" style="stroke:#181818;stroke-width:1.0;"/></g><!--reverse link Object to LevelSet--><g id="link_Object_LevelSet"><path d="M692.1599,481.4842 C684.8399,498.8542 681.31,507.2469 670.67,532.4869 " fill="none" id="Object-backto-LevelSet" style="stroke:#181818;stroke-width:1.0;"/><polygon fill="none" points="699.15,464.8969,686.6308,479.1541,697.6889,483.8142,699.15,464.8969" style="stroke:#181818;stroke-width:1.0;"/></g><!--reverse link Mesh to VolumeData--><g id="link_Mesh_VolumeData"><path codeLine="23" d="M773.4282,665.3701 C764.2182,685.9501 753.87,705.0569 735,727.3469 C715.33,750.5769 688.3,771.7669 666.59,786.9269 " fill="none" id="Mesh-backto-VolumeData" style="stroke:#181818;stroke-width:1.0;"/><polygon fill="#181818" points="778.33,654.4169,772.228,658.2595,773.4282,665.3701,779.5302,661.5274,778.33,654.4169" style="stroke:#181818;stroke-width:1.0;"/></g><!--reverse link LevelSet to VolumeData--><g id="link_LevelSet_VolumeData"><path codeLine="24" d="M630,739.7669 C630,761.9369 630,771.5169 630,787.0569 " fill="none" id="LevelSet-backto-VolumeData" style="stroke:#181818;stroke-width:1.0;"/><polygon fill="#181818" points="630,727.7669,626,733.7669,630,739.7669,634,733.7669,630,727.7669" style="stroke:#181818;stroke-width:1.0;"/></g><!--reverse link Function to Input--><g id="link_Function_Input"><path codeLine="34" d="M469.7758,1283.3331 C379.7258,1287.9631 237.84,1306.6269 132,1381.0169 C111.94,1395.1169 97.69,1419.6669 89.24,1437.8669 " fill="none" id="Function-backto-Input" style="stroke:#181818;stroke-width:1.0;"/><polygon fill="#181818" points="481.76,1282.7169,475.5625,1279.0302,469.7758,1283.3331,475.9733,1287.0197,481.76,1282.7169" style="stroke:#181818;stroke-width:1.0;"/><text fill="#000000" font-family="sans-serif" font-size="13" lengthAdjust="spacing" textLength="8" x="82.5827" y="1426.8302">1</text></g><!--reverse link Function to Output--><g id="link_Function_Output"><path codeLine="35" d="M469.7734,1293.9629 C403.0934,1306.0829 316.5,1329.4569 246,1381.0169 C225.9,1395.7169 210.18,1419.6869 200.39,1437.5669 " fill="none" id="Function-backto-Output" style="stroke:#181818;stroke-width:1.0;"/><polygon fill="#181818" points="481.58,1291.8169,474.9614,1288.9544,469.7734,1293.9629,476.3921,1296.8254,481.58,1291.8169" style="stroke:#181818;stroke-width:1.0;"/><text fill="#000000" font-family="sans-serif" font-size="13" lengthAdjust="spacing" textLength="8" x="194.1913" y="1426.8524">1</text></g><!--reverse link Function to FunctionFromImage3d--><g id="link_Function_FunctionFromImage3d"><path d="M498.2102,1333.162 C478.8602,1350.692 468.66,1359.9269 445.84,1380.5869 " fill="none" id="Function-backto-FunctionFromImage3d" style="stroke:#181818;stroke-width:1.0;"/><polygon fill="none" points="511.55,1321.0769,494.1818,1328.7154,502.2386,1337.6086,511.55,1321.0769" style="stroke:#181818;stroke-width:1.0;"/></g><!--reverse link FunctionFromImage3d to Image3D--><g id="link_FunctionFromImage3d_Image3D"><path codeLine="47" d="M357,1555.1469 C357,1577.0469 357,1587.0869 357,1602.9469 " fill="none" id="FunctionFromImage3d-backto-Image3D" style="stroke:#181818;stroke-width:1.0;"/><polygon fill="none" points="357,1543.1469,353,1549.1469,357,1555.1469,361,1549.1469,357,1543.1469" style="stroke:#181818;stroke-width:1.0;"/><text fill="#000000" font-family="sans-serif" font-size="13" lengthAdjust="spacing" textLength="8" x="347.975" y="1591.9205">1</text></g><!--reverse link Function to FunctionImplicit--><g id="link_Function_FunctionImplicit"><path d="M555,1339.0769 C555,1371.6569 555,1399.3469 555,1429.5469 " fill="none" id="Function-backto-FunctionImplicit" style="stroke:#181818;stroke-width:1.0;"/><polygon fill="none" points="555,1321.0769,549,1339.0769,561,1339.0769,555,1321.0769" style="stroke:#181818;stroke-width:1.0;"/></g><!--reverse link FunctionImplicit to Node_--><g id="link_FunctionImplicit_Node_"><path codeLine="53" d="M555,1506.4969 C555,1538.1369 555,1574.2269 555,1602.6769 " fill="none" id="FunctionImplicit-backto-Node_" style="stroke:#181818;stroke-width:1.0;"/><polygon fill="#181818" points="555,1494.4969,551,1500.4969,555,1506.4969,559,1500.4969,555,1494.4969" style="stroke:#181818;stroke-width:1.0;"/><text fill="#000000" font-family="sans-serif" font-size="13" lengthAdjust="spacing" textLength="23" x="529.1969" y="1591.9795">0..*</text></g><!--reverse link Function to PrivateExtensionFunction--><g id="link_Function_PrivateExtensionFunction"><path d="M614.5325,1333.0509 C652.3425,1365.6509 691.59,1399.4969 726.54,1429.6269 " fill="none" id="Function-backto-PrivateExtensionFunction" style="stroke:#181818;stroke-width:1.0;"/><polygon fill="none" points="600.9,1321.2969,610.6145,1337.595,618.4505,1328.5067,600.9,1321.2969" style="stroke:#181818;stroke-width:1.0;"/></g><!--reverse link VolumeData to Color--><g id="link_VolumeData_Color"><path codeLine="89" d="M613.7892,846.3804 C605.0192,864.7904 597.63,880.3269 586.73,903.2069 " fill="none" id="VolumeData-backto-Color" style="stroke:#181818;stroke-width:1.0;"/><polygon fill="#181818" points="618.95,835.5469,612.7584,839.2434,613.7892,846.3804,619.9808,842.6839,618.95,835.5469" style="stroke:#181818;stroke-width:1.0;"/><text fill="#000000" font-family="sans-serif" font-size="13" lengthAdjust="spacing" textLength="24" x="564.2389" y="892.375">0..1</text></g><!--reverse link VolumeData to Property--><g id="link_VolumeData_Property"><path codeLine="90" d="M662.7474,843.8668 C679.6474,860.1268 694.33,874.2569 715.92,895.0469 " fill="none" id="VolumeData-backto-Property" style="stroke:#181818;stroke-width:1.0;"/><polygon fill="#181818" points="654.1,835.5469,655.6504,842.5893,662.7474,843.8668,661.197,836.8244,654.1,835.5469" style="stroke:#181818;stroke-width:1.0;"/><text fill="#000000" font-family="sans-serif" font-size="13" lengthAdjust="spacing" textLength="23" x="684.4399" y="884.2739">0..*</text></g><!--reverse link VolumeData to Composite--><g id="link_VolumeData_Composite"><path codeLine="91" d="M560.0382,821.0188 C525.8282,826.6288 494.33,834.7169 459,852.3469 C425.32,869.1569 392.94,897.3569 370.65,919.3069 " fill="none" id="VolumeData-backto-Composite" style="stroke:#181818;stroke-width:1.0;"/><polygon fill="#181818" points="571.88,819.0769,565.3118,816.1006,560.0382,821.0188,566.6064,823.9951,571.88,819.0769" style="stroke:#181818;stroke-width:1.0;"/><text fill="#000000" font-family="sans-serif" font-size="13" lengthAdjust="spacing" textLength="24" x="350.0145" y="908.735">0..1</text></g><!--reverse link Composite to MaterialMapping--><g id="link_Composite_MaterialMapping"><path codeLine="92" d="M353.9008,995.87 C361.0408,1019.65 367.53,1041.2269 375.66,1068.2569 " fill="none" id="Composite-backto-MaterialMapping" style="stroke:#181818;stroke-width:1.0;"/><polygon fill="#181818" points="350.45,984.3769,348.3444,991.2737,353.9008,995.87,356.0065,988.9732,350.45,984.3769" style="stroke:#181818;stroke-width:1.0;"/><text fill="#000000" font-family="sans-serif" font-size="13" lengthAdjust="spacing" textLength="23" x="349.0263" y="1057.4264">1..*</text></g><!--reverse link Color to Function--><g id="link_Color_Function"><path codeLine="94" d="M562.35,1012.8023 C560.57,1077.5123 557.75,1179.7069 556.1,1239.9469 " fill="none" id="Color-backto-Function" style="stroke:#181818;stroke-width:1.0;"/><polygon fill="none" points="562.68,1000.8069,558.5165,1006.6946,562.35,1012.8023,566.5135,1006.9146,562.68,1000.8069" style="stroke:#181818;stroke-width:1.0;"/><text fill="#000000" font-family="sans-serif" font-size="13" lengthAdjust="spacing" textLength="8" x="547.6378" y="1229.3302">1</text></g><!--reverse link Property to Function--><g id="link_Property_Function"><path codeLine="95" d="M729.9191,1018.7151 C685.8191,1084.5151 620.31,1182.2769 581.56,1240.0869 " fill="none" id="Property-backto-Function" style="stroke:#181818;stroke-width:1.0;"/><polygon fill="none" points="736.6,1008.7469,729.9368,1011.5041,729.9191,1018.7151,736.5823,1015.958,736.6,1008.7469" style="stroke:#181818;stroke-width:1.0;"/><text fill="#000000" font-family="sans-serif" font-size="13" lengthAdjust="spacing" textLength="8" x="577.1555" y="1229.4925">1</text></g><!--reverse link MaterialMapping to Function--><g id="link_MaterialMapping_Function"><path codeLine="96" d="M447.1818,1174.0348 C471.3318,1197.6948 491.59,1217.5669 514.52,1240.0369 " fill="none" id="MaterialMapping-backto-Function" style="stroke:#181818;stroke-width:1.0;"/><polygon fill="none" points="438.61,1165.6369,440.0966,1172.6931,447.1818,1174.0348,445.6952,1166.9785,438.61,1165.6369" style="stroke:#181818;stroke-width:1.0;"/><text fill="#000000" font-family="sans-serif" font-size="13" lengthAdjust="spacing" textLength="8" x="499.431" y="1229.4346">1</text></g><!--reverse link Image3D to ImageStack--><g id="link_Image3D_ImageStack"><path d="M2185,193.3569 C2185,216.1669 2185,227.0169 2185,251.1069 " fill="none" id="Image3D-backto-ImageStack" style="stroke:#181818;stroke-width:1.0;"/><polygon fill="none" points="2185,175.3569,2179,193.3569,2191,193.3569,2185,175.3569" style="stroke:#181818;stroke-width:1.0;"/></g><!--reverse link ImageStack to ImageSheet--><g id="link_ImageStack_ImageSheet"><path codeLine="123" d="M2185,360.6269 C2185,380.3569 2185,390.6869 2185,408.2769 " fill="none" id="ImageStack-backto-ImageSheet" style="stroke:#181818;stroke-width:1.0;"/><polygon fill="#181818" points="2185,348.6269,2181,354.6269,2185,360.6269,2189,354.6269,2185,348.6269" style="stroke:#181818;stroke-width:1.0;"/><text fill="#000000" font-family="sans-serif" font-size="13" lengthAdjust="spacing" textLength="23" x="2159.6281" y="397.1594">1..*</text></g><!--reverse link ScalarRef to Scalar--><g id="link_ScalarRef_Scalar"><path codeLine="152" d="M1350,484.9069 C1350,522.3269 1350,572.0169 1350,605.5469 " fill="none" id="ScalarRef-backto-Scalar" style="stroke:#181818;stroke-width:1.0;"/><polygon fill="none" points="1350,472.9069,1346,478.9069,1350,484.9069,1354,478.9069,1350,472.9069" style="stroke:#181818;stroke-width:1.0;"/><text fill="#000000" font-family="sans-serif" font-size="13" lengthAdjust="spacing" textLength="23" x="1324.1969" y="594.8397">0..*</text></g><!--reverse link VectorRef to Vector--><g id="link_VectorRef_Vector"><path codeLine="153" d="M1501,484.9069 C1501,522.3269 1501,572.0169 1501,605.5469 " fill="none" id="VectorRef-backto-Vector" style="stroke:#181818;stroke-width:1.0;"/><polygon fill="none" points="1501,472.9069,1497,478.9069,1501,484.9069,1505,478.9069,1501,472.9069" style="stroke:#181818;stroke-width:1.0;"/><text fill="#000000" font-family="sans-serif" font-size="13" lengthAdjust="spacing" textLength="23" x="1475.1969" y="594.8397">0..*</text></g><!--reverse link MatrixRef to Matrix--><g id="link_MatrixRef_Matrix"><path codeLine="154" d="M1652,484.9069 C1652,522.3269 1652,572.0169 1652,605.5469 " fill="none" id="MatrixRef-backto-Matrix" style="stroke:#181818;stroke-width:1.0;"/><polygon fill="none" points="1652,472.9069,1648,478.9069,1652,484.9069,1656,478.9069,1652,472.9069" style="stroke:#181818;stroke-width:1.0;"/><text fill="#000000" font-family="sans-serif" font-size="13" lengthAdjust="spacing" textLength="23" x="1626.1969" y="594.8397">0..*</text></g><!--reverse link ResourceRef to Mesh--><g id="link_ResourceRef_Mesh"><path codeLine="155" d="M1123.8052,471.4812 C1081.2552,489.3412 1034.4,509.4669 984,532.6769 C927.17,558.8369 862.18,591.2969 823.15,611.0669 " fill="none" id="ResourceRef-backto-Mesh" style="stroke:#181818;stroke-width:1.0;"/><polygon fill="none" points="1134.87,466.8369,1127.7895,465.4708,1123.8052,471.4812,1130.8857,472.8473,1134.87,466.8369" style="stroke:#181818;stroke-width:1.0;"/><text fill="#000000" font-family="sans-serif" font-size="13" lengthAdjust="spacing" textLength="23" x="830.8764" y="603.7656">0..*</text></g><!--reverse link ResourceRef to Image3D--><g id="link_ResourceRef_Image3D"><path codeLine="156" d="M1196,484.9069 C1196,522.3269 1196,572.0169 1196,605.5469 " fill="none" id="ResourceRef-backto-Image3D" style="stroke:#181818;stroke-width:1.0;"/><polygon fill="none" points="1196,472.9069,1192,478.9069,1196,484.9069,1200,478.9069,1196,472.9069" style="stroke:#181818;stroke-width:1.0;"/><text fill="#000000" font-family="sans-serif" font-size="13" lengthAdjust="spacing" textLength="23" x="1170.1969" y="594.8397">0..*</text></g><!--reverse link ResourceRef to Function--><g id="link_ResourceRef_Function"><path codeLine="157" d="M1159.5089,481.9507 C1107.3289,542.4007 1010,672.2969 1010,810.3469 C1010,810.3469 1010,810.3469 1010,952.9369 C1010,1073.3069 972.56,1114.9469 878,1189.4269 C805.5,1246.5269 698.96,1267.5369 628.32,1275.2569 " fill="none" id="ResourceRef-backto-Function" style="stroke:#181818;stroke-width:1.0;"/><polygon fill="none" points="1167.35,472.8669,1160.4015,474.7951,1159.5089,481.9507,1166.4574,480.0225,1167.35,472.8669" style="stroke:#181818;stroke-width:1.0;"/><text fill="#000000" font-family="sans-serif" font-size="13" lengthAdjust="spacing" textLength="23" x="635.8743" y="1271.1748">0..*</text></g><!--reverse link Input to Scalar--><g id="link_Input_Scalar"><path codeLine="170" d="M929.6437,336.1653 C928.9637,377.7353 934.32,452.6169 985,496.6769 C1078.36,577.8369 1151.12,475.8469 1261,532.6769 C1293.36,549.4169 1320.04,582.8569 1335.49,605.5869 " fill="none" id="Input-backto-Scalar" style="stroke:#181818;stroke-width:1.0;"/><polygon fill="#181818" points="929.84,324.1669,925.7424,330.1006,929.6437,336.1653,933.7413,330.2315,929.84,324.1669" style="stroke:#181818;stroke-width:1.0;"/><text fill="#000000" font-family="sans-serif" font-size="13" lengthAdjust="spacing" textLength="23" x="1306.1501" y="594.8895">0..*</text></g><!--reverse link Input to Vector--><g id="link_Input_Vector"><path codeLine="171" d="M959.8121,333.3871 C970.0321,345.2771 974.34,351.0969 984,365.3769 C1021.3,420.4969 1000.56,459.8569 1056,496.6769 C1185.54,582.6869 1263.49,466.0869 1404,532.6769 C1438.53,549.0369 1467.99,582.9269 1485.11,605.8169 " fill="none" id="Input-backto-Vector" style="stroke:#181818;stroke-width:1.0;"/><polygon fill="#181818" points="951.99,324.2869,952.8676,331.4444,959.8121,333.3871,958.9345,326.2296,951.99,324.2869" style="stroke:#181818;stroke-width:1.0;"/><text fill="#000000" font-family="sans-serif" font-size="13" lengthAdjust="spacing" textLength="23" x="1455.0913" y="594.7802">0..*</text></g><!--reverse link Input to Matrix--><g id="link_Input_Matrix"><path codeLine="172" d="M954.6303,333.7141 C963.7903,345.1541 968.76,348.6569 983,356.0769 C1008.1,369.1669 1022.77,349.2169 1046,365.3769 C1100.63,403.3869 1062.17,460.4569 1118,496.6769 C1200.12,549.9469 1468.32,491.2369 1557,532.6769 C1591.26,548.6869 1620,582.6569 1636.62,605.6669 " fill="none" id="Input-backto-Matrix" style="stroke:#181818;stroke-width:1.0;"/><polygon fill="#181818" points="947.13,324.3469,947.7578,331.5306,954.6303,333.7141,954.0026,326.5304,947.13,324.3469" style="stroke:#181818;stroke-width:1.0;"/><text fill="#000000" font-family="sans-serif" font-size="13" lengthAdjust="spacing" textLength="23" x="1607.068" y="594.989">0..*</text></g><!--reverse link Output to ScalarRef--><g id="link_Output_ScalarRef"><path codeLine="173" d="M1075.4835,331.8469 C1090.2235,343.5969 1100.22,349.2669 1120,356.0769 C1152.41,367.2569 1242.65,351.5069 1274,365.3769 C1294.9,374.6269 1313.39,392.3169 1326.89,408.0969 " fill="none" id="Output-backto-ScalarRef" style="stroke:#181818;stroke-width:1.0;"/><polygon fill="#181818" points="1066.1,324.3669,1068.2984,331.2347,1075.4835,331.8469,1073.2851,324.9791,1066.1,324.3669" style="stroke:#181818;stroke-width:1.0;"/><text fill="#000000" font-family="sans-serif" font-size="13" lengthAdjust="spacing" textLength="23" x="1297.0762" y="397.3159">0..*</text></g><!--reverse link Output to VectorRef--><g id="link_Output_VectorRef"><path codeLine="174" d="M1075.0126,331.8479 C1089.7626,343.7379 1099.96,349.5069 1120,356.0769 C1152.22,366.6469 1393.8,352.1169 1425,365.3769 C1446.21,374.3869 1464.82,392.2769 1478.32,408.2269 " fill="none" id="Output-backto-VectorRef" style="stroke:#181818;stroke-width:1.0;"/><polygon fill="#181818" points="1065.67,324.3169,1067.8309,331.1966,1075.0126,331.8479,1072.8516,324.9682,1065.67,324.3169" style="stroke:#181818;stroke-width:1.0;"/><text fill="#000000" font-family="sans-serif" font-size="13" lengthAdjust="spacing" textLength="23" x="1448.2704" y="397.099">0..*</text></g><!--reverse link Output to MatrixRef--><g id="link_Output_MatrixRef"><path codeLine="175" d="M1074.9764,331.9356 C1089.7264,343.8456 1099.93,349.6069 1120,356.0769 C1168.23,371.6369 1529.26,345.7969 1576,365.3769 C1597.25,374.2769 1615.87,392.1669 1629.36,408.1469 " fill="none" id="Output-backto-MatrixRef" style="stroke:#181818;stroke-width:1.0;"/><polygon fill="#181818" points="1065.64,324.3969,1067.7953,331.2784,1074.9764,331.9356,1072.8211,325.0541,1065.64,324.3969" style="stroke:#181818;stroke-width:1.0;"/><text fill="#000000" font-family="sans-serif" font-size="13" lengthAdjust="spacing" textLength="23" x="1599.6387" y="397.3758">0..*</text></g><!--reverse link Out to Scalar--><g id="link_Out_Scalar"><path codeLine="188" d="M2009.7356,334.1674 C2001.6256,345.8974 1996.99,349.1769 1983,356.0769 C1946.88,373.8969 1836.3,344.2769 1802,365.3769 C1744.76,400.5969 1782.87,459.3169 1727,496.6769 C1621.97,566.9069 1558.23,476.6169 1445,532.6769 C1411.32,549.3469 1382.63,582.8069 1365.85,605.5669 " fill="none" id="Out-backto-Scalar" style="stroke:#181818;stroke-width:1.0;"/><polygon fill="#181818" points="2016.56,324.2969,2009.8576,326.9574,2009.7356,334.1674,2016.438,331.5069,2016.56,324.2969" style="stroke:#181818;stroke-width:1.0;"/><text fill="#000000" font-family="sans-serif" font-size="13" lengthAdjust="spacing" textLength="23" x="1372.5166" y="594.8646">0..*</text></g><!--reverse link Out to Vector--><g id="link_Out_Vector"><path codeLine="189" d="M2009.2471,334.0057 C2001.1071,345.5557 1996.63,348.7669 1983,356.0769 C1952.63,372.3869 1935.91,348.2469 1906,365.3769 C1842.34,401.8269 1868.69,458.5869 1806,496.6769 C1726.2,545.1669 1682.06,490.0069 1599,532.6769 C1565.04,550.1169 1535.25,583.3869 1517.68,605.8869 " fill="none" id="Out-backto-Vector" style="stroke:#181818;stroke-width:1.0;"/><polygon fill="#181818" points="2016.16,324.1969,2009.434,326.797,2009.2471,334.0057,2015.9732,331.4056,2016.16,324.1969" style="stroke:#181818;stroke-width:1.0;"/><text fill="#000000" font-family="sans-serif" font-size="13" lengthAdjust="spacing" textLength="23" x="1524.9011" y="594.8682">0..*</text></g><!--reverse link Out to Matrix--><g id="link_Out_Matrix"><path codeLine="190" d="M2016.061,335.3013 C1999.251,375.1013 1964.96,445.7369 1910,496.6769 C1843.17,558.6069 1741.87,599.1169 1688.25,617.5369 " fill="none" id="Out-backto-Matrix" style="stroke:#181818;stroke-width:1.0;"/><polygon fill="#181818" points="2020.73,324.2469,2014.7107,328.2178,2016.061,335.3013,2022.0803,331.3304,2020.73,324.2469" style="stroke:#181818;stroke-width:1.0;"/><text fill="#000000" font-family="sans-serif" font-size="13" lengthAdjust="spacing" textLength="23" x="1695.8602" y="611.4316">0..*</text></g><!--reverse link In to ScalarRef--><g id="link_In_ScalarRef"><path codeLine="191" d="M1916.8754,333.0738 C1905.7354,344.9638 1898.76,349.5069 1882,356.0769 C1834.82,374.5769 1472.74,345.7969 1426,365.3769 C1404.75,374.2769 1386.13,392.1669 1372.64,408.1469 " fill="none" id="In-backto-ScalarRef" style="stroke:#181818;stroke-width:1.0;"/><polygon fill="#181818" points="1925.08,324.3169,1918.0587,325.9605,1916.8754,333.0738,1923.8967,331.4302,1925.08,324.3169" style="stroke:#181818;stroke-width:1.0;"/><text fill="#000000" font-family="sans-serif" font-size="13" lengthAdjust="spacing" textLength="23" x="1351.8332" y="397.3758">0..*</text></g><!--reverse link In to VectorRef--><g id="link_In_VectorRef"><path codeLine="192" d="M1916.838,332.997 C1905.698,344.867 1898.73,349.4269 1882,356.0769 C1819,381.1569 1639.41,338.8569 1577,365.3769 C1555.79,374.3869 1537.18,392.2769 1523.68,408.2269 " fill="none" id="In-backto-VectorRef" style="stroke:#181818;stroke-width:1.0;"/><polygon fill="#181818" points="1925.05,324.2469,1918.0273,325.8846,1916.838,332.997,1923.8607,331.3592,1925.05,324.2469" style="stroke:#181818;stroke-width:1.0;"/><text fill="#000000" font-family="sans-serif" font-size="13" lengthAdjust="spacing" textLength="23" x="1502.9859" y="397.099">0..*</text></g><!--reverse link In to MatrixRef--><g id="link_In_MatrixRef"><path codeLine="193" d="M1916.3988,332.9509 C1905.2488,344.6709 1898.46,349.1269 1882,356.0769 C1829.46,378.2769 1807.57,345.7869 1754,365.3769 C1728.5,374.6969 1703.78,392.3869 1685.05,408.1469 " fill="none" id="In-backto-MatrixRef" style="stroke:#181818;stroke-width:1.0;"/><polygon fill="#181818" points="1924.67,324.2569,1917.6364,325.8468,1916.3988,332.9509,1923.4324,331.361,1924.67,324.2569" style="stroke:#181818;stroke-width:1.0;"/><text fill="#000000" font-family="sans-serif" font-size="13" lengthAdjust="spacing" textLength="23" x="1666.2927" y="397.3758">0..*</text></g><!--reverse link Node_ to Addition--><g id="link_Node__Addition"><path d="M1493.7466,147.5506 C1420.7266,158.9806 1325.52,181.1369 1241,232.9369 C1223.17,243.8569 1207.3,261.4269 1196.21,275.6969 " fill="none" id="Node_-backto-Addition" style="stroke:#181818;stroke-width:1.0;"/><polygon fill="none" points="1511.53,144.7669,1492.8187,141.6227,1494.6744,153.4784,1511.53,144.7669" style="stroke:#181818;stroke-width:1.0;"/></g><!--reverse link Node_ to Min--><g id="link_Node__Min"><path d="M1494.2253,156.493 C1440.5753,170.893 1385.67,191.6469 1333,232.9369 C1318.49,244.3069 1306.71,261.4969 1298.71,275.4869 " fill="none" id="Node_-backto-Min" style="stroke:#181818;stroke-width:1.0;"/><polygon fill="none" points="1511.61,151.8269,1492.6699,150.6981,1495.7807,162.2879,1511.61,151.8269" style="stroke:#181818;stroke-width:1.0;"/></g><!--reverse link Node_ to MatVecMul--><g id="link_Node__MatVecMul"><path d="M1507.5694,203.7134 C1492.3994,217.1134 1489.82,219.5169 1475,232.9369 C1459.53,246.9369 1442.39,262.8669 1428.83,275.5569 " fill="none" id="Node_-backto-MatVecMul" style="stroke:#181818;stroke-width:1.0;"/><polygon fill="none" points="1521.06,191.7969,1503.5972,199.2166,1511.5416,208.2103,1521.06,191.7969" style="stroke:#181818;stroke-width:1.0;"/></g><!--reverse link Node_ to FunctionCall--><g id="link_Node__FunctionCall"><path d="M1585,209.5469 C1585,235.0069 1585,246.2269 1585,267.7469 " fill="none" id="Node_-backto-FunctionCall" style="stroke:#181818;stroke-width:1.0;"/><polygon fill="none" points="1585,191.5469,1579,209.5469,1591,209.5469,1585,191.5469" style="stroke:#181818;stroke-width:1.0;"/></g><!--reverse link Node_ to Mesh--><g id="link_Node__Mesh"><path d="M1668.98,203.016 C1700.58,228.276 1722.7,245.9469 1749.51,267.3669 " fill="none" id="Node_-backto-Mesh" style="stroke:#181818;stroke-width:1.0;"/><polygon fill="none" points="1654.92,191.7769,1665.2336,207.7026,1672.7263,198.3293,1654.92,191.7769" style="stroke:#181818;stroke-width:1.0;"/></g><!--reverse link Node_ to In--><g id="link_Node__In"><path codeLine="230" d="M1670.1122,151.734 C1733.0822,165.524 1812.64,188.8469 1882,232.9369 C1899.65,244.1469 1915.69,261.5269 1927.04,275.6369 " fill="none" id="Node_-backto-In" style="stroke:#181818;stroke-width:1.0;"/><polygon fill="#181818" points="1658.39,149.1669,1663.3954,154.3578,1670.1122,151.734,1665.1068,146.543,1658.39,149.1669" style="stroke:#181818;stroke-width:1.0;"/><text fill="#000000" font-family="sans-serif" font-size="13" lengthAdjust="spacing" textLength="24" x="1895.981" y="264.9687">0..1</text></g><!--reverse link Node_ to Out--><g id="link_Node__Out"><path codeLine="231" d="M1670.2762,139.5164 C1755.1462,145.8964 1883.94,165.8069 1983,232.9369 C1998.6,243.5069 2010.75,261.0969 2018.78,275.4569 " fill="none" id="Node_-backto-Out" style="stroke:#181818;stroke-width:1.0;"/><polygon fill="#181818" points="1658.31,138.6169,1663.9933,143.0554,1670.2762,139.5164,1664.593,135.0779,1658.31,138.6169" style="stroke:#181818;stroke-width:1.0;"/><text fill="#000000" font-family="sans-serif" font-size="13" lengthAdjust="spacing" textLength="24" x="1989.1201" y="264.7448">0..1</text></g><!--SRC=[nLTBRnCn4Bxlhx1wu2LHWRXngrAA8f46KLG15-JipZO6hxsoPqD3bV-Ez-NrOzs6NhhA8PblF9xvvh4JPCY1l5jTa6l9cmfGiPmy8ykgvYndc3tdK291IHIxsI8fc88ScHGPoheLRoIYh1nvLjFyDxq1yWMqR5GEEhlBY7aMd6fDrfjVHj4Hh41l2TmYYCAY3lm9Ti2l04ELLgEtspvb8xhRMK7U4pLSl3otUBwbGW0te3O1YXiBeA92br9L1bfHWzrQg6AY18gDCSV-Wi4BsMmuJBXnVBEHjrBmlK4tKlB97yhvnl2mexoPEQebPmLkZUMjvCMywLGekovDS-Z1eQrFvZb5sWaxab-zVXtABRi1re5Z8Yy6SdL0Ud_JY5hnfD0-h9YDedqAfcjEzu9M4ENbaDclumMTZoTlJyXIr0scuNM3BPvmyqB9QbcPiDuLjgGU2g5NJoMaIqgRPrcM6Z1AfiLrJZdCmYNZ22gkpgv26GUDUmxD0_Zk0VmFcM4vPD6bHuvyTx_FKuoEe-9OEcyhBlHxm-emOTBEMCjTQj-Sdhuw8PUoW9-XAvyLsr643wq3kerYh8d_S-dRzn-1DmUl4QO9QHiex8Q5v58bRdbeI1qpT8uOBeUO7Lc3mdt2hRR_valdgHnUoAgMcY4aFDvG3PN9jsAKftoBZAw60ojQrswWJvsZQUhQCZSzvzVHZ8vfXIYlALCXcrOopCpEMiYFesrSiSCWwgJHYxH6O7bUqJ1YFjFsC0uTTtSOPNxQKgcAw_gGXSQkq5ndfyIyVIN_vB8HQ6mnCOshNF8viTu2O0ZCNDog1HVL5BVMOVBYy-N7b-vfns4dROwrmyHUMmDVztMmUrsP5n1LNw2C60I1h0ILPklQx5poSKVxjUfHHySLyZyFvqwqTmT7r4VXYNhlxeQJbg6-IFi-wuKTRcbmyLwO3QNUn-hYpbxf1EHfcFNiFjmjp8IARIQd2aRPcRenSq6WNmtJ6dMNHVlZi4H5Q7V87K8EEH7c41DX3YdzNR7HCUinxbTZZ4ybvx3HRWuf9kwX8ORMIGRMoVZNoUYN8XsvZ_bH-vWNiHCpHRO3BzX-WVAxALp9mZPZGP_Tjxrx3NnM5CnRnCBR_Kd1ZbMaQCXODVmuzR4F5kQbd3pXllsNvsOEXyF7zy3zrpfdglqBbpRIdN1VqaC9HlAs00__0000]--></g></svg>