<?xml version="1.0" encoding="us-ascii" standalone="no"?><svg xmlns="http://www.w3.org/2000/svg" xmlns:xlink="http://www.w3.org/1999/xlink" contentStyleType="text/css" height="1278px" preserveAspectRatio="none" style="width:1947px;height:1278px;background:#FFFFFF;" version="1.1" viewBox="0 0 1947 1278" width="1947px" zoomAndPan="magnify"><defs/><g><text fill="#000000" font-family="sans-serif" font-size="14" font-weight="bold" lengthAdjust="spacing" textLength="211" x="861" y="22.9951">3MF Volumetric &amp; Implicit</text><!--cluster Image3D--><g id="cluster_Image3D"><path d="M1310.5,43.2969 L1381.5,43.2969 A3.75,3.75 0 0 1 1384,45.7969 L1391,65.5938 L1483.5,65.5938 A2.5,2.5 0 0 1 1486,68.0938 L1486,478.2969 A2.5,2.5 0 0 1 1483.5,480.7969 L1310.5,480.7969 A2.5,2.5 0 0 1 1308,478.2969 L1308,45.7969 A2.5,2.5 0 0 1 1310.5,43.2969 " fill="none" style="stroke:#000000;stroke-width:1.5;"/><line style="stroke:#000000;stroke-width:1.5;" x1="1308" x2="1391" y1="65.5938" y2="65.5938"/><text fill="#000000" font-family="sans-serif" font-size="14" font-weight="bold" lengthAdjust="spacing" textLength="70" x="1312" y="58.292">Image3D</text></g><!--cluster DataTypes--><g id="cluster_DataTypes"><path d="M811.5,1048.2969 L899.5,1048.2969 A3.75,3.75 0 0 1 902,1050.7969 L909,1070.5938 L1105.5,1070.5938 A2.5,2.5 0 0 1 1108,1073.0938 L1108,1268.7969 A2.5,2.5 0 0 1 1105.5,1271.2969 L811.5,1271.2969 A2.5,2.5 0 0 1 809,1268.7969 L809,1050.7969 A2.5,2.5 0 0 1 811.5,1048.2969 " fill="none" style="stroke:#000000;stroke-width:1.5;"/><line style="stroke:#000000;stroke-width:1.5;" x1="809" x2="909" y1="1070.5938" y2="1070.5938"/><text fill="#000000" font-family="sans-serif" font-size="14" font-weight="bold" lengthAdjust="spacing" textLength="87" x="813" y="1063.292">DataTypes</text></g><!--cluster FunctionArguments--><g id="cluster_FunctionArguments"><path d="M708.5,883.2969 L869.5,883.2969 A3.75,3.75 0 0 1 872,885.7969 L879,905.5938 L924.5,905.5938 A2.5,2.5 0 0 1 927,908.0938 L927,979.7969 A2.5,2.5 0 0 1 924.5,982.2969 L708.5,982.2969 A2.5,2.5 0 0 1 706,979.7969 L706,885.7969 A2.5,2.5 0 0 1 708.5,883.2969 " fill="none" style="stroke:#000000;stroke-width:1.5;"/><line style="stroke:#000000;stroke-width:1.5;" x1="706" x2="879" y1="905.5938" y2="905.5938"/><text fill="#000000" font-family="sans-serif" font-size="14" font-weight="bold" lengthAdjust="spacing" textLength="160" x="710" y="898.292">FunctionArguments</text></g><!--cluster NodeArguments--><g id="cluster_NodeArguments"><path d="M1039.5,883.2969 L1169.5,883.2969 A3.75,3.75 0 0 1 1172,885.7969 L1179,905.5938 L1205.5,905.5938 A2.5,2.5 0 0 1 1208,908.0938 L1208,979.7969 A2.5,2.5 0 0 1 1205.5,982.2969 L1039.5,982.2969 A2.5,2.5 0 0 1 1037,979.7969 L1037,885.7969 A2.5,2.5 0 0 1 1039.5,883.2969 " fill="none" style="stroke:#000000;stroke-width:1.5;"/><line style="stroke:#000000;stroke-width:1.5;" x1="1037" x2="1179" y1="905.5938" y2="905.5938"/><text fill="#000000" font-family="sans-serif" font-size="14" font-weight="bold" lengthAdjust="spacing" textLength="129" x="1041" y="898.292">NodeArguments</text></g><!--cluster Functions--><g id="cluster_Functions"><path d="M8.5,669.2969 L89.5,669.2969 A3.75,3.75 0 0 1 92,671.7969 L99,691.5938 L664.5,691.5938 A2.5,2.5 0 0 1 667,694.0938 L667,1152.7969 A2.5,2.5 0 0 1 664.5,1155.2969 L8.5,1155.2969 A2.5,2.5 0 0 1 6,1152.7969 L6,671.7969 A2.5,2.5 0 0 1 8.5,669.2969 " fill="none" style="stroke:#000000;stroke-width:1.5;"/><line style="stroke:#000000;stroke-width:1.5;" x1="6" x2="99" y1="691.5938" y2="691.5938"/><text fill="#000000" font-family="sans-serif" font-size="14" font-weight="bold" lengthAdjust="spacing" textLength="80" x="10" y="684.292">Functions</text></g><!--cluster Native--><g id="cluster_Native"><path d="M1252.5,653.2969 L1305.5,653.2969 A3.75,3.75 0 0 1 1308,655.7969 L1315,675.5938 L1937.5,675.5938 A2.5,2.5 0 0 1 1940,678.0938 L1940,1152.7969 A2.5,2.5 0 0 1 1937.5,1155.2969 L1252.5,1155.2969 A2.5,2.5 0 0 1 1250,1152.7969 L1250,655.7969 A2.5,2.5 0 0 1 1252.5,653.2969 " fill="none" style="stroke:#000000;stroke-width:1.5;"/><line style="stroke:#000000;stroke-width:1.5;" x1="1250" x2="1315" y1="675.5938" y2="675.5938"/><text fill="#000000" font-family="sans-serif" font-size="14" font-weight="bold" lengthAdjust="spacing" textLength="52" x="1254" y="668.292">Native</text></g><!--cluster VolumetricData--><g id="cluster_VolumetricData"><path d="M48.5,208.7969 L177.5,208.7969 A3.75,3.75 0 0 1 180,211.2969 L187,231.0938 L936.5,231.0938 A2.5,2.5 0 0 1 939,233.5938 L939,626.7969 A2.5,2.5 0 0 1 936.5,629.2969 L48.5,629.2969 A2.5,2.5 0 0 1 46,626.7969 L46,211.2969 A2.5,2.5 0 0 1 48.5,208.7969 " fill="none" style="stroke:#000000;stroke-width:1.5;"/><line style="stroke:#000000;stroke-width:1.5;" x1="46" x2="187" y1="231.0938" y2="231.0938"/><text fill="#000000" font-family="sans-serif" font-size="14" font-weight="bold" lengthAdjust="spacing" textLength="128" x="50" y="223.792">VolumetricData</text></g><!--class Image3D--><g id="elem_Image3D"><rect codeLine="5" fill="#F1F1F1" height="80.5938" id="Image3D" rx="2.5" ry="2.5" style="stroke:#181818;stroke-width:0.5;" width="115" x="1339.5" y="78.2969"/><ellipse cx="1363.05" cy="94.2969" fill="#ADD1B2" rx="11" ry="11" style="stroke:#181818;stroke-width:1.0;"/><path d="M1365.3938,89.9688 C1364.4563,89.5313 1363.8625,89.3906 1362.9875,89.3906 C1360.3625,89.3906 1358.3625,91.4688 1358.3625,94.1875 L1358.3625,95.3125 C1358.3625,97.8906 1360.4719,99.7813 1363.3625,99.7813 C1364.5813,99.7813 1365.7375,99.4844 1366.4875,98.9375 C1367.0656,98.5313 1367.3938,98.0781 1367.3938,97.6875 C1367.3938,97.2344 1367.0031,96.8438 1366.5344,96.8438 C1366.3156,96.8438 1366.1125,96.9219 1365.925,97.1094 C1365.4719,97.5938 1365.4719,97.5938 1365.2844,97.6875 C1364.8625,97.9531 1364.175,98.0781 1363.4094,98.0781 C1361.3625,98.0781 1360.0656,96.9844 1360.0656,95.2813 L1360.0656,94.1875 C1360.0656,92.4063 1361.3156,91.0938 1363.05,91.0938 C1363.6281,91.0938 1364.2375,91.25 1364.7063,91.5 C1365.1906,91.7813 1365.3625,92 1365.4563,92.4063 C1365.5188,92.8125 1365.55,92.9375 1365.6906,93.0625 C1365.8313,93.2031 1366.0656,93.3125 1366.2844,93.3125 C1366.55,93.3125 1366.8156,93.1719 1366.9875,92.9531 C1367.0969,92.7969 1367.1281,92.6094 1367.1281,92.1875 L1367.1281,90.7656 C1367.1281,90.3281 1367.1125,90.2031 1367.0188,90.0469 C1366.8625,89.7813 1366.5813,89.6406 1366.2844,89.6406 C1365.9875,89.6406 1365.7844,89.7344 1365.5656,90.0469 L1365.3938,89.9688 Z " fill="#000000"/><text fill="#000000" font-family="sans-serif" font-size="14" lengthAdjust="spacing" textLength="64" x="1378.95" y="99.1436">Image3D</text><line style="stroke:#181818;stroke-width:0.5;" x1="1340.5" x2="1453.5" y1="110.2969" y2="110.2969"/><text fill="#000000" font-family="sans-serif" font-size="14" lengthAdjust="spacing" textLength="103" x="1345.5" y="127.292">id : resourceID</text><text fill="#000000" font-family="sans-serif" font-size="14" lengthAdjust="spacing" textLength="95" x="1345.5" y="143.5889">name : string</text><line style="stroke:#181818;stroke-width:0.5;" x1="1340.5" x2="1453.5" y1="150.8906" y2="150.8906"/></g><!--class ImageStack--><g id="elem_ImageStack"><rect codeLine="11" fill="#F1F1F1" height="96.8906" id="ImageStack" rx="2.5" ry="2.5" style="stroke:#181818;stroke-width:0.5;" width="127" x="1333.5" y="219.2969"/><ellipse cx="1353" cy="235.2969" fill="#ADD1B2" rx="11" ry="11" style="stroke:#181818;stroke-width:1.0;"/><path d="M1355.3438,230.9688 C1354.4063,230.5313 1353.8125,230.3906 1352.9375,230.3906 C1350.3125,230.3906 1348.3125,232.4688 1348.3125,235.1875 L1348.3125,236.3125 C1348.3125,238.8906 1350.4219,240.7813 1353.3125,240.7813 C1354.5313,240.7813 1355.6875,240.4844 1356.4375,239.9375 C1357.0156,239.5313 1357.3438,239.0781 1357.3438,238.6875 C1357.3438,238.2344 1356.9531,237.8438 1356.4844,237.8438 C1356.2656,237.8438 1356.0625,237.9219 1355.875,238.1094 C1355.4219,238.5938 1355.4219,238.5938 1355.2344,238.6875 C1354.8125,238.9531 1354.125,239.0781 1353.3594,239.0781 C1351.3125,239.0781 1350.0156,237.9844 1350.0156,236.2813 L1350.0156,235.1875 C1350.0156,233.4063 1351.2656,232.0938 1353,232.0938 C1353.5781,232.0938 1354.1875,232.25 1354.6563,232.5 C1355.1406,232.7813 1355.3125,233 1355.4063,233.4063 C1355.4688,233.8125 1355.5,233.9375 1355.6406,234.0625 C1355.7813,234.2031 1356.0156,234.3125 1356.2344,234.3125 C1356.5,234.3125 1356.7656,234.1719 1356.9375,233.9531 C1357.0469,233.7969 1357.0781,233.6094 1357.0781,233.1875 L1357.0781,231.7656 C1357.0781,231.3281 1357.0625,231.2031 1356.9688,231.0469 C1356.8125,230.7813 1356.5313,230.6406 1356.2344,230.6406 C1355.9375,230.6406 1355.7344,230.7344 1355.5156,231.0469 L1355.3438,230.9688 Z " fill="#000000"/><text fill="#000000" font-family="sans-serif" font-size="14" lengthAdjust="spacing" textLength="85" x="1368" y="240.1436">ImageStack</text><line style="stroke:#181818;stroke-width:0.5;" x1="1334.5" x2="1459.5" y1="251.2969" y2="251.2969"/><text fill="#000000" font-family="sans-serif" font-size="14" lengthAdjust="spacing" textLength="100" x="1339.5" y="268.292">rowcount : int</text><text fill="#000000" font-family="sans-serif" font-size="14" lengthAdjust="spacing" textLength="95" x="1339.5" y="284.5889">colcount : int</text><text fill="#000000" font-family="sans-serif" font-size="14" lengthAdjust="spacing" textLength="115" x="1339.5" y="300.8857">sheetcount : int</text><line style="stroke:#181818;stroke-width:0.5;" x1="1334.5" x2="1459.5" y1="308.1875" y2="308.1875"/></g><!--class ImageSheet--><g id="elem_ImageSheet"><rect codeLine="18" fill="#F1F1F1" height="64.2969" id="ImageSheet" rx="2.5" ry="2.5" style="stroke:#181818;stroke-width:0.5;" width="145" x="1324.5" y="400.7969"/><ellipse cx="1351.2" cy="416.7969" fill="#ADD1B2" rx="11" ry="11" style="stroke:#181818;stroke-width:1.0;"/><path d="M1353.5438,412.4688 C1352.6063,412.0313 1352.0125,411.8906 1351.1375,411.8906 C1348.5125,411.8906 1346.5125,413.9688 1346.5125,416.6875 L1346.5125,417.8125 C1346.5125,420.3906 1348.6219,422.2813 1351.5125,422.2813 C1352.7313,422.2813 1353.8875,421.9844 1354.6375,421.4375 C1355.2156,421.0313 1355.5438,420.5781 1355.5438,420.1875 C1355.5438,419.7344 1355.1531,419.3438 1354.6844,419.3438 C1354.4656,419.3438 1354.2625,419.4219 1354.075,419.6094 C1353.6219,420.0938 1353.6219,420.0938 1353.4344,420.1875 C1353.0125,420.4531 1352.325,420.5781 1351.5594,420.5781 C1349.5125,420.5781 1348.2156,419.4844 1348.2156,417.7813 L1348.2156,416.6875 C1348.2156,414.9063 1349.4656,413.5938 1351.2,413.5938 C1351.7781,413.5938 1352.3875,413.75 1352.8563,414 C1353.3406,414.2813 1353.5125,414.5 1353.6063,414.9063 C1353.6688,415.3125 1353.7,415.4375 1353.8406,415.5625 C1353.9813,415.7031 1354.2156,415.8125 1354.4344,415.8125 C1354.7,415.8125 1354.9656,415.6719 1355.1375,415.4531 C1355.2469,415.2969 1355.2781,415.1094 1355.2781,414.6875 L1355.2781,413.2656 C1355.2781,412.8281 1355.2625,412.7031 1355.1688,412.5469 C1355.0125,412.2813 1354.7313,412.1406 1354.4344,412.1406 C1354.1375,412.1406 1353.9344,412.2344 1353.7156,412.5469 L1353.5438,412.4688 Z " fill="#000000"/><text fill="#000000" font-family="sans-serif" font-size="14" lengthAdjust="spacing" textLength="87" x="1367.8" y="421.6436">ImageSheet</text><line style="stroke:#181818;stroke-width:0.5;" x1="1325.5" x2="1468.5" y1="432.7969" y2="432.7969"/><line style="stroke:#181818;stroke-width:0.5;" x1="1325.5" x2="1468.5" y1="440.7969" y2="440.7969"/><text fill="#000000" font-family="sans-serif" font-size="14" lengthAdjust="spacing" textLength="133" x="1330.5" y="457.792">path : string (PNG)</text></g><!--class ScalarRef--><g id="elem_ScalarRef"><rect codeLine="28" fill="#F1F1F1" height="64.2969" id="ScalarRef" rx="2.5" ry="2.5" style="stroke:#181818;stroke-width:0.5;" width="126" x="825" y="1083.2969"/><ellipse cx="851.7" cy="1099.2969" fill="#ADD1B2" rx="11" ry="11" style="stroke:#181818;stroke-width:1.0;"/><path d="M854.0438,1094.9688 C853.1063,1094.5313 852.5125,1094.3906 851.6375,1094.3906 C849.0125,1094.3906 847.0125,1096.4688 847.0125,1099.1875 L847.0125,1100.3125 C847.0125,1102.8906 849.1219,1104.7813 852.0125,1104.7813 C853.2313,1104.7813 854.3875,1104.4844 855.1375,1103.9375 C855.7156,1103.5313 856.0438,1103.0781 856.0438,1102.6875 C856.0438,1102.2344 855.6531,1101.8438 855.1844,1101.8438 C854.9656,1101.8438 854.7625,1101.9219 854.575,1102.1094 C854.1219,1102.5938 854.1219,1102.5938 853.9344,1102.6875 C853.5125,1102.9531 852.825,1103.0781 852.0594,1103.0781 C850.0125,1103.0781 848.7156,1101.9844 848.7156,1100.2813 L848.7156,1099.1875 C848.7156,1097.4063 849.9656,1096.0938 851.7,1096.0938 C852.2781,1096.0938 852.8875,1096.25 853.3563,1096.5 C853.8406,1096.7813 854.0125,1097 854.1063,1097.4063 C854.1688,1097.8125 854.2,1097.9375 854.3406,1098.0625 C854.4813,1098.2031 854.7156,1098.3125 854.9344,1098.3125 C855.2,1098.3125 855.4656,1098.1719 855.6375,1097.9531 C855.7469,1097.7969 855.7781,1097.6094 855.7781,1097.1875 L855.7781,1095.7656 C855.7781,1095.3281 855.7625,1095.2031 855.6688,1095.0469 C855.5125,1094.7813 855.2313,1094.6406 854.9344,1094.6406 C854.6375,1094.6406 854.4344,1094.7344 854.2156,1095.0469 L854.0438,1094.9688 Z " fill="#000000"/><text fill="#000000" font-family="sans-serif" font-size="14" lengthAdjust="spacing" textLength="68" x="868.3" y="1104.1436">ScalarRef</text><line style="stroke:#181818;stroke-width:0.5;" x1="826" x2="950" y1="1115.2969" y2="1115.2969"/><text fill="#000000" font-family="sans-serif" font-size="14" lengthAdjust="spacing" textLength="114" x="831" y="1132.292">identifer: string</text><line style="stroke:#181818;stroke-width:0.5;" x1="826" x2="950" y1="1139.5938" y2="1139.5938"/></g><!--class VectorRef--><g id="elem_VectorRef"><rect codeLine="33" fill="#F1F1F1" height="64.2969" id="VectorRef" rx="2.5" ry="2.5" style="stroke:#181818;stroke-width:0.5;" width="106" x="986" y="1083.2969"/><ellipse cx="1001" cy="1099.2969" fill="#ADD1B2" rx="11" ry="11" style="stroke:#181818;stroke-width:1.0;"/><path d="M1003.3438,1094.9688 C1002.4063,1094.5313 1001.8125,1094.3906 1000.9375,1094.3906 C998.3125,1094.3906 996.3125,1096.4688 996.3125,1099.1875 L996.3125,1100.3125 C996.3125,1102.8906 998.4219,1104.7813 1001.3125,1104.7813 C1002.5313,1104.7813 1003.6875,1104.4844 1004.4375,1103.9375 C1005.0156,1103.5313 1005.3438,1103.0781 1005.3438,1102.6875 C1005.3438,1102.2344 1004.9531,1101.8438 1004.4844,1101.8438 C1004.2656,1101.8438 1004.0625,1101.9219 1003.875,1102.1094 C1003.4219,1102.5938 1003.4219,1102.5938 1003.2344,1102.6875 C1002.8125,1102.9531 1002.125,1103.0781 1001.3594,1103.0781 C999.3125,1103.0781 998.0156,1101.9844 998.0156,1100.2813 L998.0156,1099.1875 C998.0156,1097.4063 999.2656,1096.0938 1001,1096.0938 C1001.5781,1096.0938 1002.1875,1096.25 1002.6563,1096.5 C1003.1406,1096.7813 1003.3125,1097 1003.4063,1097.4063 C1003.4688,1097.8125 1003.5,1097.9375 1003.6406,1098.0625 C1003.7813,1098.2031 1004.0156,1098.3125 1004.2344,1098.3125 C1004.5,1098.3125 1004.7656,1098.1719 1004.9375,1097.9531 C1005.0469,1097.7969 1005.0781,1097.6094 1005.0781,1097.1875 L1005.0781,1095.7656 C1005.0781,1095.3281 1005.0625,1095.2031 1004.9688,1095.0469 C1004.8125,1094.7813 1004.5313,1094.6406 1004.2344,1094.6406 C1003.9375,1094.6406 1003.7344,1094.7344 1003.5156,1095.0469 L1003.3438,1094.9688 Z " fill="#000000"/><text fill="#000000" font-family="sans-serif" font-size="14" lengthAdjust="spacing" textLength="74" x="1015" y="1104.1436">VectorRef</text><line style="stroke:#181818;stroke-width:0.5;" x1="987" x2="1091" y1="1115.2969" y2="1115.2969"/><text fill="#000000" font-family="sans-serif" font-size="14" lengthAdjust="spacing" textLength="91" x="992" y="1132.292">name: string</text><line style="stroke:#181818;stroke-width:0.5;" x1="987" x2="1091" y1="1139.5938" y2="1139.5938"/></g><!--class Scalar--><g id="elem_Scalar"><rect codeLine="38" fill="#F1F1F1" height="48" id="Scalar" rx="2.5" ry="2.5" style="stroke:#181818;stroke-width:0.5;" width="75" x="850.5" y="1207.2969"/><ellipse cx="865.5" cy="1223.2969" fill="#ADD1B2" rx="11" ry="11" style="stroke:#181818;stroke-width:1.0;"/><path d="M867.8438,1218.9688 C866.9063,1218.5313 866.3125,1218.3906 865.4375,1218.3906 C862.8125,1218.3906 860.8125,1220.4688 860.8125,1223.1875 L860.8125,1224.3125 C860.8125,1226.8906 862.9219,1228.7813 865.8125,1228.7813 C867.0313,1228.7813 868.1875,1228.4844 868.9375,1227.9375 C869.5156,1227.5313 869.8438,1227.0781 869.8438,1226.6875 C869.8438,1226.2344 869.4531,1225.8438 868.9844,1225.8438 C868.7656,1225.8438 868.5625,1225.9219 868.375,1226.1094 C867.9219,1226.5938 867.9219,1226.5938 867.7344,1226.6875 C867.3125,1226.9531 866.625,1227.0781 865.8594,1227.0781 C863.8125,1227.0781 862.5156,1225.9844 862.5156,1224.2813 L862.5156,1223.1875 C862.5156,1221.4063 863.7656,1220.0938 865.5,1220.0938 C866.0781,1220.0938 866.6875,1220.25 867.1563,1220.5 C867.6406,1220.7813 867.8125,1221 867.9063,1221.4063 C867.9688,1221.8125 868,1221.9375 868.1406,1222.0625 C868.2813,1222.2031 868.5156,1222.3125 868.7344,1222.3125 C869,1222.3125 869.2656,1222.1719 869.4375,1221.9531 C869.5469,1221.7969 869.5781,1221.6094 869.5781,1221.1875 L869.5781,1219.7656 C869.5781,1219.3281 869.5625,1219.2031 869.4688,1219.0469 C869.3125,1218.7813 869.0313,1218.6406 868.7344,1218.6406 C868.4375,1218.6406 868.2344,1218.7344 868.0156,1219.0469 L867.8438,1218.9688 Z " fill="#000000"/><text fill="#000000" font-family="sans-serif" font-size="14" lengthAdjust="spacing" textLength="43" x="879.5" y="1228.1436">Scalar</text><line style="stroke:#181818;stroke-width:0.5;" x1="851.5" x2="924.5" y1="1239.2969" y2="1239.2969"/><line style="stroke:#181818;stroke-width:0.5;" x1="851.5" x2="924.5" y1="1247.2969" y2="1247.2969"/></g><!--class Vector--><g id="elem_Vector"><rect codeLine="39" fill="#F1F1F1" height="48" id="Vector" rx="2.5" ry="2.5" style="stroke:#181818;stroke-width:0.5;" width="81" x="998.5" y="1207.2969"/><ellipse cx="1013.5" cy="1223.2969" fill="#ADD1B2" rx="11" ry="11" style="stroke:#181818;stroke-width:1.0;"/><path d="M1015.8438,1218.9688 C1014.9063,1218.5313 1014.3125,1218.3906 1013.4375,1218.3906 C1010.8125,1218.3906 1008.8125,1220.4688 1008.8125,1223.1875 L1008.8125,1224.3125 C1008.8125,1226.8906 1010.9219,1228.7813 1013.8125,1228.7813 C1015.0313,1228.7813 1016.1875,1228.4844 1016.9375,1227.9375 C1017.5156,1227.5313 1017.8438,1227.0781 1017.8438,1226.6875 C1017.8438,1226.2344 1017.4531,1225.8438 1016.9844,1225.8438 C1016.7656,1225.8438 1016.5625,1225.9219 1016.375,1226.1094 C1015.9219,1226.5938 1015.9219,1226.5938 1015.7344,1226.6875 C1015.3125,1226.9531 1014.625,1227.0781 1013.8594,1227.0781 C1011.8125,1227.0781 1010.5156,1225.9844 1010.5156,1224.2813 L1010.5156,1223.1875 C1010.5156,1221.4063 1011.7656,1220.0938 1013.5,1220.0938 C1014.0781,1220.0938 1014.6875,1220.25 1015.1563,1220.5 C1015.6406,1220.7813 1015.8125,1221 1015.9063,1221.4063 C1015.9688,1221.8125 1016,1221.9375 1016.1406,1222.0625 C1016.2813,1222.2031 1016.5156,1222.3125 1016.7344,1222.3125 C1017,1222.3125 1017.2656,1222.1719 1017.4375,1221.9531 C1017.5469,1221.7969 1017.5781,1221.6094 1017.5781,1221.1875 L1017.5781,1219.7656 C1017.5781,1219.3281 1017.5625,1219.2031 1017.4688,1219.0469 C1017.3125,1218.7813 1017.0313,1218.6406 1016.7344,1218.6406 C1016.4375,1218.6406 1016.2344,1218.7344 1016.0156,1219.0469 L1015.8438,1218.9688 Z " fill="#000000"/><text fill="#000000" font-family="sans-serif" font-size="14" lengthAdjust="spacing" textLength="49" x="1027.5" y="1228.1436">Vector</text><line style="stroke:#181818;stroke-width:0.5;" x1="999.5" x2="1078.5" y1="1239.2969" y2="1239.2969"/><line style="stroke:#181818;stroke-width:0.5;" x1="999.5" x2="1078.5" y1="1247.2969" y2="1247.2969"/></g><!--class Input--><g id="elem_Input"><rect codeLine="47" fill="#F1F1F1" height="48" id="Input" rx="2.5" ry="2.5" style="stroke:#181818;stroke-width:0.5;" width="70" x="722" y="918.2969"/><ellipse cx="737" cy="934.2969" fill="#ADD1B2" rx="11" ry="11" style="stroke:#181818;stroke-width:1.0;"/><path d="M739.3438,929.9688 C738.4063,929.5313 737.8125,929.3906 736.9375,929.3906 C734.3125,929.3906 732.3125,931.4688 732.3125,934.1875 L732.3125,935.3125 C732.3125,937.8906 734.4219,939.7813 737.3125,939.7813 C738.5313,939.7813 739.6875,939.4844 740.4375,938.9375 C741.0156,938.5313 741.3438,938.0781 741.3438,937.6875 C741.3438,937.2344 740.9531,936.8438 740.4844,936.8438 C740.2656,936.8438 740.0625,936.9219 739.875,937.1094 C739.4219,937.5938 739.4219,937.5938 739.2344,937.6875 C738.8125,937.9531 738.125,938.0781 737.3594,938.0781 C735.3125,938.0781 734.0156,936.9844 734.0156,935.2813 L734.0156,934.1875 C734.0156,932.4063 735.2656,931.0938 737,931.0938 C737.5781,931.0938 738.1875,931.25 738.6563,931.5 C739.1406,931.7813 739.3125,932 739.4063,932.4063 C739.4688,932.8125 739.5,932.9375 739.6406,933.0625 C739.7813,933.2031 740.0156,933.3125 740.2344,933.3125 C740.5,933.3125 740.7656,933.1719 740.9375,932.9531 C741.0469,932.7969 741.0781,932.6094 741.0781,932.1875 L741.0781,930.7656 C741.0781,930.3281 741.0625,930.2031 740.9688,930.0469 C740.8125,929.7813 740.5313,929.6406 740.2344,929.6406 C739.9375,929.6406 739.7344,929.7344 739.5156,930.0469 L739.3438,929.9688 Z " fill="#000000"/><text fill="#000000" font-family="sans-serif" font-size="14" lengthAdjust="spacing" textLength="38" x="751" y="939.1436">Input</text><line style="stroke:#181818;stroke-width:0.5;" x1="723" x2="791" y1="950.2969" y2="950.2969"/><line style="stroke:#181818;stroke-width:0.5;" x1="723" x2="791" y1="958.2969" y2="958.2969"/></g><!--class Output--><g id="elem_Output"><rect codeLine="51" fill="#F1F1F1" height="48" id="Output" rx="2.5" ry="2.5" style="stroke:#181818;stroke-width:0.5;" width="83" x="827.5" y="918.2969"/><ellipse cx="842.5" cy="934.2969" fill="#ADD1B2" rx="11" ry="11" style="stroke:#181818;stroke-width:1.0;"/><path d="M844.8438,929.9688 C843.9063,929.5313 843.3125,929.3906 842.4375,929.3906 C839.8125,929.3906 837.8125,931.4688 837.8125,934.1875 L837.8125,935.3125 C837.8125,937.8906 839.9219,939.7813 842.8125,939.7813 C844.0313,939.7813 845.1875,939.4844 845.9375,938.9375 C846.5156,938.5313 846.8438,938.0781 846.8438,937.6875 C846.8438,937.2344 846.4531,936.8438 845.9844,936.8438 C845.7656,936.8438 845.5625,936.9219 845.375,937.1094 C844.9219,937.5938 844.9219,937.5938 844.7344,937.6875 C844.3125,937.9531 843.625,938.0781 842.8594,938.0781 C840.8125,938.0781 839.5156,936.9844 839.5156,935.2813 L839.5156,934.1875 C839.5156,932.4063 840.7656,931.0938 842.5,931.0938 C843.0781,931.0938 843.6875,931.25 844.1563,931.5 C844.6406,931.7813 844.8125,932 844.9063,932.4063 C844.9688,932.8125 845,932.9375 845.1406,933.0625 C845.2813,933.2031 845.5156,933.3125 845.7344,933.3125 C846,933.3125 846.2656,933.1719 846.4375,932.9531 C846.5469,932.7969 846.5781,932.6094 846.5781,932.1875 L846.5781,930.7656 C846.5781,930.3281 846.5625,930.2031 846.4688,930.0469 C846.3125,929.7813 846.0313,929.6406 845.7344,929.6406 C845.4375,929.6406 845.2344,929.7344 845.0156,930.0469 L844.8438,929.9688 Z " fill="#000000"/><text fill="#000000" font-family="sans-serif" font-size="14" lengthAdjust="spacing" textLength="51" x="856.5" y="939.1436">Output</text><line style="stroke:#181818;stroke-width:0.5;" x1="828.5" x2="909.5" y1="950.2969" y2="950.2969"/><line style="stroke:#181818;stroke-width:0.5;" x1="828.5" x2="909.5" y1="958.2969" y2="958.2969"/></g><!--class In--><g id="elem_In"><rect codeLine="63" fill="#F1F1F1" height="48" id="In" rx="2.5" ry="2.5" style="stroke:#181818;stroke-width:0.5;" width="45" x="1053.5" y="918.2969"/><ellipse cx="1068.5" cy="934.2969" fill="#ADD1B2" rx="11" ry="11" style="stroke:#181818;stroke-width:1.0;"/><path d="M1070.8438,929.9688 C1069.9063,929.5313 1069.3125,929.3906 1068.4375,929.3906 C1065.8125,929.3906 1063.8125,931.4688 1063.8125,934.1875 L1063.8125,935.3125 C1063.8125,937.8906 1065.9219,939.7813 1068.8125,939.7813 C1070.0313,939.7813 1071.1875,939.4844 1071.9375,938.9375 C1072.5156,938.5313 1072.8438,938.0781 1072.8438,937.6875 C1072.8438,937.2344 1072.4531,936.8438 1071.9844,936.8438 C1071.7656,936.8438 1071.5625,936.9219 1071.375,937.1094 C1070.9219,937.5938 1070.9219,937.5938 1070.7344,937.6875 C1070.3125,937.9531 1069.625,938.0781 1068.8594,938.0781 C1066.8125,938.0781 1065.5156,936.9844 1065.5156,935.2813 L1065.5156,934.1875 C1065.5156,932.4063 1066.7656,931.0938 1068.5,931.0938 C1069.0781,931.0938 1069.6875,931.25 1070.1563,931.5 C1070.6406,931.7813 1070.8125,932 1070.9063,932.4063 C1070.9688,932.8125 1071,932.9375 1071.1406,933.0625 C1071.2813,933.2031 1071.5156,933.3125 1071.7344,933.3125 C1072,933.3125 1072.2656,933.1719 1072.4375,932.9531 C1072.5469,932.7969 1072.5781,932.6094 1072.5781,932.1875 L1072.5781,930.7656 C1072.5781,930.3281 1072.5625,930.2031 1072.4688,930.0469 C1072.3125,929.7813 1072.0313,929.6406 1071.7344,929.6406 C1071.4375,929.6406 1071.2344,929.7344 1071.0156,930.0469 L1070.8438,929.9688 Z " fill="#000000"/><text fill="#000000" font-family="sans-serif" font-size="14" lengthAdjust="spacing" textLength="13" x="1082.5" y="939.1436">In</text><line style="stroke:#181818;stroke-width:0.5;" x1="1054.5" x2="1097.5" y1="950.2969" y2="950.2969"/><line style="stroke:#181818;stroke-width:0.5;" x1="1054.5" x2="1097.5" y1="958.2969" y2="958.2969"/></g><!--class Out--><g id="elem_Out"><rect codeLine="67" fill="#F1F1F1" height="48" id="Out" rx="2.5" ry="2.5" style="stroke:#181818;stroke-width:0.5;" width="58" x="1134" y="918.2969"/><ellipse cx="1149" cy="934.2969" fill="#ADD1B2" rx="11" ry="11" style="stroke:#181818;stroke-width:1.0;"/><path d="M1151.3438,929.9688 C1150.4063,929.5313 1149.8125,929.3906 1148.9375,929.3906 C1146.3125,929.3906 1144.3125,931.4688 1144.3125,934.1875 L1144.3125,935.3125 C1144.3125,937.8906 1146.4219,939.7813 1149.3125,939.7813 C1150.5313,939.7813 1151.6875,939.4844 1152.4375,938.9375 C1153.0156,938.5313 1153.3438,938.0781 1153.3438,937.6875 C1153.3438,937.2344 1152.9531,936.8438 1152.4844,936.8438 C1152.2656,936.8438 1152.0625,936.9219 1151.875,937.1094 C1151.4219,937.5938 1151.4219,937.5938 1151.2344,937.6875 C1150.8125,937.9531 1150.125,938.0781 1149.3594,938.0781 C1147.3125,938.0781 1146.0156,936.9844 1146.0156,935.2813 L1146.0156,934.1875 C1146.0156,932.4063 1147.2656,931.0938 1149,931.0938 C1149.5781,931.0938 1150.1875,931.25 1150.6563,931.5 C1151.1406,931.7813 1151.3125,932 1151.4063,932.4063 C1151.4688,932.8125 1151.5,932.9375 1151.6406,933.0625 C1151.7813,933.2031 1152.0156,933.3125 1152.2344,933.3125 C1152.5,933.3125 1152.7656,933.1719 1152.9375,932.9531 C1153.0469,932.7969 1153.0781,932.6094 1153.0781,932.1875 L1153.0781,930.7656 C1153.0781,930.3281 1153.0625,930.2031 1152.9688,930.0469 C1152.8125,929.7813 1152.5313,929.6406 1152.2344,929.6406 C1151.9375,929.6406 1151.7344,929.7344 1151.5156,930.0469 L1151.3438,929.9688 Z " fill="#000000"/><text fill="#000000" font-family="sans-serif" font-size="14" lengthAdjust="spacing" textLength="26" x="1163" y="939.1436">Out</text><line style="stroke:#181818;stroke-width:0.5;" x1="1135" x2="1191" y1="950.2969" y2="950.2969"/><line style="stroke:#181818;stroke-width:0.5;" x1="1135" x2="1191" y1="958.2969" y2="958.2969"/></g><!--class Function--><g id="elem_Function"><rect codeLine="79" fill="#F1F1F1" height="80.5938" id="Function" rx="2.5" ry="2.5" style="stroke:#181818;stroke-width:0.5;" width="153" x="466.5" y="704.2969"/><ellipse cx="508.05" cy="720.2969" fill="#ADD1B2" rx="11" ry="11" style="stroke:#181818;stroke-width:1.0;"/><path d="M510.3938,715.9688 C509.4563,715.5313 508.8625,715.3906 507.9875,715.3906 C505.3625,715.3906 503.3625,717.4688 503.3625,720.1875 L503.3625,721.3125 C503.3625,723.8906 505.4719,725.7813 508.3625,725.7813 C509.5813,725.7813 510.7375,725.4844 511.4875,724.9375 C512.0656,724.5313 512.3938,724.0781 512.3938,723.6875 C512.3938,723.2344 512.0031,722.8438 511.5344,722.8438 C511.3156,722.8438 511.1125,722.9219 510.925,723.1094 C510.4719,723.5938 510.4719,723.5938 510.2844,723.6875 C509.8625,723.9531 509.175,724.0781 508.4094,724.0781 C506.3625,724.0781 505.0656,722.9844 505.0656,721.2813 L505.0656,720.1875 C505.0656,718.4063 506.3156,717.0938 508.05,717.0938 C508.6281,717.0938 509.2375,717.25 509.7063,717.5 C510.1906,717.7813 510.3625,718 510.4563,718.4063 C510.5188,718.8125 510.55,718.9375 510.6906,719.0625 C510.8313,719.2031 511.0656,719.3125 511.2844,719.3125 C511.55,719.3125 511.8156,719.1719 511.9875,718.9531 C512.0969,718.7969 512.1281,718.6094 512.1281,718.1875 L512.1281,716.7656 C512.1281,716.3281 512.1125,716.2031 512.0188,716.0469 C511.8625,715.7813 511.5813,715.6406 511.2844,715.6406 C510.9875,715.6406 510.7844,715.7344 510.5656,716.0469 L510.3938,715.9688 Z " fill="#000000"/><text fill="#000000" font-family="sans-serif" font-size="14" lengthAdjust="spacing" textLength="62" x="527.95" y="725.1436">Function</text><line style="stroke:#181818;stroke-width:0.5;" x1="467.5" x2="618.5" y1="736.2969" y2="736.2969"/><text fill="#000000" font-family="sans-serif" font-size="14" lengthAdjust="spacing" textLength="99" x="472.5" y="753.292">id: resourceID</text><text fill="#000000" font-family="sans-serif" font-size="14" lengthAdjust="spacing" textLength="141" x="472.5" y="769.5889">displayname: string</text><line style="stroke:#181818;stroke-width:0.5;" x1="467.5" x2="618.5" y1="776.8906" y2="776.8906"/></g><!--class FunctionFromImage3d--><g id="elem_FunctionFromImage3d"><rect codeLine="88" fill="#F1F1F1" height="162.0781" id="FunctionFromImage3d" rx="2.5" ry="2.5" style="stroke:#181818;stroke-width:0.5;" width="193" x="22.5" y="861.2969"/><ellipse cx="37.5" cy="877.2969" fill="#ADD1B2" rx="11" ry="11" style="stroke:#181818;stroke-width:1.0;"/><path d="M39.8438,872.9688 C38.9063,872.5313 38.3125,872.3906 37.4375,872.3906 C34.8125,872.3906 32.8125,874.4688 32.8125,877.1875 L32.8125,878.3125 C32.8125,880.8906 34.9219,882.7813 37.8125,882.7813 C39.0313,882.7813 40.1875,882.4844 40.9375,881.9375 C41.5156,881.5313 41.8438,881.0781 41.8438,880.6875 C41.8438,880.2344 41.4531,879.8438 40.9844,879.8438 C40.7656,879.8438 40.5625,879.9219 40.375,880.1094 C39.9219,880.5938 39.9219,880.5938 39.7344,880.6875 C39.3125,880.9531 38.625,881.0781 37.8594,881.0781 C35.8125,881.0781 34.5156,879.9844 34.5156,878.2813 L34.5156,877.1875 C34.5156,875.4063 35.7656,874.0938 37.5,874.0938 C38.0781,874.0938 38.6875,874.25 39.1563,874.5 C39.6406,874.7813 39.8125,875 39.9063,875.4063 C39.9688,875.8125 40,875.9375 40.1406,876.0625 C40.2813,876.2031 40.5156,876.3125 40.7344,876.3125 C41,876.3125 41.2656,876.1719 41.4375,875.9531 C41.5469,875.7969 41.5781,875.6094 41.5781,875.1875 L41.5781,873.7656 C41.5781,873.3281 41.5625,873.2031 41.4688,873.0469 C41.3125,872.7813 41.0313,872.6406 40.7344,872.6406 C40.4375,872.6406 40.2344,872.7344 40.0156,873.0469 L39.8438,872.9688 Z " fill="#000000"/><text fill="#000000" font-family="sans-serif" font-size="14" lengthAdjust="spacing" textLength="161" x="51.5" y="882.1436">FunctionFromImage3d</text><line style="stroke:#181818;stroke-width:0.5;" x1="23.5" x2="214.5" y1="893.2969" y2="893.2969"/><text fill="#000000" font-family="sans-serif" font-size="14" lengthAdjust="spacing" textLength="165" x="28.5" y="910.292">image3did : resourceID</text><text fill="#000000" font-family="sans-serif" font-size="14" lengthAdjust="spacing" textLength="139" x="28.5" y="926.5889">valueoffset: double</text><text fill="#000000" font-family="sans-serif" font-size="14" lengthAdjust="spacing" textLength="131" x="28.5" y="942.8857">valuescale: double</text><text fill="#000000" font-family="sans-serif" font-size="14" lengthAdjust="spacing" textLength="91" x="28.5" y="959.1826">filter : string</text><text fill="#000000" font-family="sans-serif" font-size="14" lengthAdjust="spacing" textLength="122" x="28.5" y="975.4795">tilestyleu : string</text><text fill="#000000" font-family="sans-serif" font-size="14" lengthAdjust="spacing" textLength="122" x="28.5" y="991.7764">tilestylev : string</text><text fill="#000000" font-family="sans-serif" font-size="14" lengthAdjust="spacing" textLength="125" x="28.5" y="1008.0732">tilestylew : string</text><line style="stroke:#181818;stroke-width:0.5;" x1="23.5" x2="214.5" y1="1015.375" y2="1015.375"/></g><!--class Image3D--><g id="elem_Image3D"><rect fill="#F1F1F1" height="48" id="Image3D" rx="2.5" ry="2.5" style="stroke:#181818;stroke-width:0.5;" width="96" x="71" y="1091.2969"/><ellipse cx="86" cy="1107.2969" fill="#ADD1B2" rx="11" ry="11" style="stroke:#181818;stroke-width:1.0;"/><path d="M88.3438,1102.9688 C87.4063,1102.5313 86.8125,1102.3906 85.9375,1102.3906 C83.3125,1102.3906 81.3125,1104.4688 81.3125,1107.1875 L81.3125,1108.3125 C81.3125,1110.8906 83.4219,1112.7813 86.3125,1112.7813 C87.5313,1112.7813 88.6875,1112.4844 89.4375,1111.9375 C90.0156,1111.5313 90.3438,1111.0781 90.3438,1110.6875 C90.3438,1110.2344 89.9531,1109.8438 89.4844,1109.8438 C89.2656,1109.8438 89.0625,1109.9219 88.875,1110.1094 C88.4219,1110.5938 88.4219,1110.5938 88.2344,1110.6875 C87.8125,1110.9531 87.125,1111.0781 86.3594,1111.0781 C84.3125,1111.0781 83.0156,1109.9844 83.0156,1108.2813 L83.0156,1107.1875 C83.0156,1105.4063 84.2656,1104.0938 86,1104.0938 C86.5781,1104.0938 87.1875,1104.25 87.6563,1104.5 C88.1406,1104.7813 88.3125,1105 88.4063,1105.4063 C88.4688,1105.8125 88.5,1105.9375 88.6406,1106.0625 C88.7813,1106.2031 89.0156,1106.3125 89.2344,1106.3125 C89.5,1106.3125 89.7656,1106.1719 89.9375,1105.9531 C90.0469,1105.7969 90.0781,1105.6094 90.0781,1105.1875 L90.0781,1103.7656 C90.0781,1103.3281 90.0625,1103.2031 89.9688,1103.0469 C89.8125,1102.7813 89.5313,1102.6406 89.2344,1102.6406 C88.9375,1102.6406 88.7344,1102.7344 88.5156,1103.0469 L88.3438,1102.9688 Z " fill="#000000"/><text fill="#000000" font-family="sans-serif" font-size="14" lengthAdjust="spacing" textLength="64" x="100" y="1112.1436">Image3D</text><line style="stroke:#181818;stroke-width:0.5;" x1="72" x2="166" y1="1123.2969" y2="1123.2969"/><line style="stroke:#181818;stroke-width:0.5;" x1="72" x2="166" y1="1131.2969" y2="1131.2969"/></g><!--class FunctionImplicit--><g id="elem_FunctionImplicit"><rect codeLine="100" fill="#F1F1F1" height="64.2969" id="FunctionImplicit" rx="2.5" ry="2.5" style="stroke:#181818;stroke-width:0.5;" width="149" x="250.5" y="910.2969"/><ellipse cx="265.5" cy="926.2969" fill="#ADD1B2" rx="11" ry="11" style="stroke:#181818;stroke-width:1.0;"/><path d="M267.8438,921.9688 C266.9063,921.5313 266.3125,921.3906 265.4375,921.3906 C262.8125,921.3906 260.8125,923.4688 260.8125,926.1875 L260.8125,927.3125 C260.8125,929.8906 262.9219,931.7813 265.8125,931.7813 C267.0313,931.7813 268.1875,931.4844 268.9375,930.9375 C269.5156,930.5313 269.8438,930.0781 269.8438,929.6875 C269.8438,929.2344 269.4531,928.8438 268.9844,928.8438 C268.7656,928.8438 268.5625,928.9219 268.375,929.1094 C267.9219,929.5938 267.9219,929.5938 267.7344,929.6875 C267.3125,929.9531 266.625,930.0781 265.8594,930.0781 C263.8125,930.0781 262.5156,928.9844 262.5156,927.2813 L262.5156,926.1875 C262.5156,924.4063 263.7656,923.0938 265.5,923.0938 C266.0781,923.0938 266.6875,923.25 267.1563,923.5 C267.6406,923.7813 267.8125,924 267.9063,924.4063 C267.9688,924.8125 268,924.9375 268.1406,925.0625 C268.2813,925.2031 268.5156,925.3125 268.7344,925.3125 C269,925.3125 269.2656,925.1719 269.4375,924.9531 C269.5469,924.7969 269.5781,924.6094 269.5781,924.1875 L269.5781,922.7656 C269.5781,922.3281 269.5625,922.2031 269.4688,922.0469 C269.3125,921.7813 269.0313,921.6406 268.7344,921.6406 C268.4375,921.6406 268.2344,921.7344 268.0156,922.0469 L267.8438,921.9688 Z " fill="#000000"/><text fill="#000000" font-family="sans-serif" font-size="14" lengthAdjust="spacing" textLength="117" x="279.5" y="931.1436">FunctionImplicit</text><line style="stroke:#181818;stroke-width:0.5;" x1="251.5" x2="398.5" y1="942.2969" y2="942.2969"/><text fill="#000000" font-family="sans-serif" font-size="14" lengthAdjust="spacing" textLength="106" x="256.5" y="959.292">xmlns: implicit</text><line style="stroke:#181818;stroke-width:0.5;" x1="251.5" x2="398.5" y1="966.5938" y2="966.5938"/></g><!--class Node_--><g id="elem_Node_"><rect fill="#F1F1F1" height="48" id="Node_" rx="2.5" ry="2.5" style="stroke:#181818;stroke-width:0.5;" width="76" x="287" y="1091.2969"/><ellipse cx="302" cy="1107.2969" fill="#ADD1B2" rx="11" ry="11" style="stroke:#181818;stroke-width:1.0;"/><path d="M304.3438,1102.9688 C303.4063,1102.5313 302.8125,1102.3906 301.9375,1102.3906 C299.3125,1102.3906 297.3125,1104.4688 297.3125,1107.1875 L297.3125,1108.3125 C297.3125,1110.8906 299.4219,1112.7813 302.3125,1112.7813 C303.5313,1112.7813 304.6875,1112.4844 305.4375,1111.9375 C306.0156,1111.5313 306.3438,1111.0781 306.3438,1110.6875 C306.3438,1110.2344 305.9531,1109.8438 305.4844,1109.8438 C305.2656,1109.8438 305.0625,1109.9219 304.875,1110.1094 C304.4219,1110.5938 304.4219,1110.5938 304.2344,1110.6875 C303.8125,1110.9531 303.125,1111.0781 302.3594,1111.0781 C300.3125,1111.0781 299.0156,1109.9844 299.0156,1108.2813 L299.0156,1107.1875 C299.0156,1105.4063 300.2656,1104.0938 302,1104.0938 C302.5781,1104.0938 303.1875,1104.25 303.6563,1104.5 C304.1406,1104.7813 304.3125,1105 304.4063,1105.4063 C304.4688,1105.8125 304.5,1105.9375 304.6406,1106.0625 C304.7813,1106.2031 305.0156,1106.3125 305.2344,1106.3125 C305.5,1106.3125 305.7656,1106.1719 305.9375,1105.9531 C306.0469,1105.7969 306.0781,1105.6094 306.0781,1105.1875 L306.0781,1103.7656 C306.0781,1103.3281 306.0625,1103.2031 305.9688,1103.0469 C305.8125,1102.7813 305.5313,1102.6406 305.2344,1102.6406 C304.9375,1102.6406 304.7344,1102.7344 304.5156,1103.0469 L304.3438,1102.9688 Z " fill="#000000"/><text fill="#000000" font-family="sans-serif" font-size="14" lengthAdjust="spacing" textLength="44" x="316" y="1112.1436">Node_</text><line style="stroke:#181818;stroke-width:0.5;" x1="288" x2="362" y1="1123.2969" y2="1123.2969"/><line style="stroke:#181818;stroke-width:0.5;" x1="288" x2="362" y1="1131.2969" y2="1131.2969"/></g><!--class PrivateExtensionFunction--><g id="elem_PrivateExtensionFunction"><rect codeLine="106" fill="#F1F1F1" height="64.2969" id="PrivateExtensionFunction" rx="2.5" ry="2.5" style="stroke:#181818;stroke-width:0.5;" width="216" x="435" y="910.2969"/><ellipse cx="450" cy="926.2969" fill="#ADD1B2" rx="11" ry="11" style="stroke:#181818;stroke-width:1.0;"/><path d="M452.3438,921.9688 C451.4063,921.5313 450.8125,921.3906 449.9375,921.3906 C447.3125,921.3906 445.3125,923.4688 445.3125,926.1875 L445.3125,927.3125 C445.3125,929.8906 447.4219,931.7813 450.3125,931.7813 C451.5313,931.7813 452.6875,931.4844 453.4375,930.9375 C454.0156,930.5313 454.3438,930.0781 454.3438,929.6875 C454.3438,929.2344 453.9531,928.8438 453.4844,928.8438 C453.2656,928.8438 453.0625,928.9219 452.875,929.1094 C452.4219,929.5938 452.4219,929.5938 452.2344,929.6875 C451.8125,929.9531 451.125,930.0781 450.3594,930.0781 C448.3125,930.0781 447.0156,928.9844 447.0156,927.2813 L447.0156,926.1875 C447.0156,924.4063 448.2656,923.0938 450,923.0938 C450.5781,923.0938 451.1875,923.25 451.6563,923.5 C452.1406,923.7813 452.3125,924 452.4063,924.4063 C452.4688,924.8125 452.5,924.9375 452.6406,925.0625 C452.7813,925.2031 453.0156,925.3125 453.2344,925.3125 C453.5,925.3125 453.7656,925.1719 453.9375,924.9531 C454.0469,924.7969 454.0781,924.6094 454.0781,924.1875 L454.0781,922.7656 C454.0781,922.3281 454.0625,922.2031 453.9688,922.0469 C453.8125,921.7813 453.5313,921.6406 453.2344,921.6406 C452.9375,921.6406 452.7344,921.7344 452.5156,922.0469 L452.3438,921.9688 Z " fill="#000000"/><text fill="#000000" font-family="sans-serif" font-size="14" lengthAdjust="spacing" textLength="184" x="464" y="931.1436">PrivateExtensionFunction</text><line style="stroke:#181818;stroke-width:0.5;" x1="436" x2="650" y1="942.2969" y2="942.2969"/><text fill="#000000" font-family="sans-serif" font-size="14" lengthAdjust="spacing" textLength="80" x="441" y="959.292">xmlns: XYZ</text><line style="stroke:#181818;stroke-width:0.5;" x1="436" x2="650" y1="966.5938" y2="966.5938"/></g><!--class Node_--><g id="elem_Node_"><rect codeLine="114" fill="#F1F1F1" height="113.1875" id="Node_" rx="2.5" ry="2.5" style="stroke:#181818;stroke-width:0.5;" width="153" x="1337.5" y="688.2969"/><ellipse cx="1387.75" cy="704.2969" fill="#ADD1B2" rx="11" ry="11" style="stroke:#181818;stroke-width:1.0;"/><path d="M1390.0938,699.9688 C1389.1563,699.5313 1388.5625,699.3906 1387.6875,699.3906 C1385.0625,699.3906 1383.0625,701.4688 1383.0625,704.1875 L1383.0625,705.3125 C1383.0625,707.8906 1385.1719,709.7813 1388.0625,709.7813 C1389.2813,709.7813 1390.4375,709.4844 1391.1875,708.9375 C1391.7656,708.5313 1392.0938,708.0781 1392.0938,707.6875 C1392.0938,707.2344 1391.7031,706.8438 1391.2344,706.8438 C1391.0156,706.8438 1390.8125,706.9219 1390.625,707.1094 C1390.1719,707.5938 1390.1719,707.5938 1389.9844,707.6875 C1389.5625,707.9531 1388.875,708.0781 1388.1094,708.0781 C1386.0625,708.0781 1384.7656,706.9844 1384.7656,705.2813 L1384.7656,704.1875 C1384.7656,702.4063 1386.0156,701.0938 1387.75,701.0938 C1388.3281,701.0938 1388.9375,701.25 1389.4063,701.5 C1389.8906,701.7813 1390.0625,702 1390.1563,702.4063 C1390.2188,702.8125 1390.25,702.9375 1390.3906,703.0625 C1390.5313,703.2031 1390.7656,703.3125 1390.9844,703.3125 C1391.25,703.3125 1391.5156,703.1719 1391.6875,702.9531 C1391.7969,702.7969 1391.8281,702.6094 1391.8281,702.1875 L1391.8281,700.7656 C1391.8281,700.3281 1391.8125,700.2031 1391.7188,700.0469 C1391.5625,699.7813 1391.2813,699.6406 1390.9844,699.6406 C1390.6875,699.6406 1390.4844,699.7344 1390.2656,700.0469 L1390.0938,699.9688 Z " fill="#000000"/><text fill="#000000" font-family="sans-serif" font-size="14" lengthAdjust="spacing" textLength="44" x="1408.25" y="709.1436">Node_</text><line style="stroke:#181818;stroke-width:0.5;" x1="1338.5" x2="1489.5" y1="720.2969" y2="720.2969"/><text fill="#000000" font-family="sans-serif" font-size="14" lengthAdjust="spacing" textLength="106" x="1343.5" y="737.292">xmlns: implicit</text><text fill="#000000" font-family="sans-serif" font-size="14" lengthAdjust="spacing" textLength="4" x="1343.5" y="753.5889">&#160;</text><text fill="#000000" font-family="sans-serif" font-size="14" lengthAdjust="spacing" textLength="118" x="1343.5" y="769.8857">identifier: string</text><text fill="#000000" font-family="sans-serif" font-size="14" lengthAdjust="spacing" textLength="141" x="1343.5" y="786.1826">displayname: string</text><line style="stroke:#181818;stroke-width:0.5;" x1="1338.5" x2="1489.5" y1="793.4844" y2="793.4844"/></g><!--class Add--><g id="elem_Add"><rect codeLine="122" fill="#F1F1F1" height="48" id="Add" rx="2.5" ry="2.5" style="stroke:#181818;stroke-width:0.5;" width="60" x="1864" y="918.2969"/><ellipse cx="1879" cy="934.2969" fill="#ADD1B2" rx="11" ry="11" style="stroke:#181818;stroke-width:1.0;"/><path d="M1881.3438,929.9688 C1880.4063,929.5313 1879.8125,929.3906 1878.9375,929.3906 C1876.3125,929.3906 1874.3125,931.4688 1874.3125,934.1875 L1874.3125,935.3125 C1874.3125,937.8906 1876.4219,939.7813 1879.3125,939.7813 C1880.5313,939.7813 1881.6875,939.4844 1882.4375,938.9375 C1883.0156,938.5313 1883.3438,938.0781 1883.3438,937.6875 C1883.3438,937.2344 1882.9531,936.8438 1882.4844,936.8438 C1882.2656,936.8438 1882.0625,936.9219 1881.875,937.1094 C1881.4219,937.5938 1881.4219,937.5938 1881.2344,937.6875 C1880.8125,937.9531 1880.125,938.0781 1879.3594,938.0781 C1877.3125,938.0781 1876.0156,936.9844 1876.0156,935.2813 L1876.0156,934.1875 C1876.0156,932.4063 1877.2656,931.0938 1879,931.0938 C1879.5781,931.0938 1880.1875,931.25 1880.6563,931.5 C1881.1406,931.7813 1881.3125,932 1881.4063,932.4063 C1881.4688,932.8125 1881.5,932.9375 1881.6406,933.0625 C1881.7813,933.2031 1882.0156,933.3125 1882.2344,933.3125 C1882.5,933.3125 1882.7656,933.1719 1882.9375,932.9531 C1883.0469,932.7969 1883.0781,932.6094 1883.0781,932.1875 L1883.0781,930.7656 C1883.0781,930.3281 1883.0625,930.2031 1882.9688,930.0469 C1882.8125,929.7813 1882.5313,929.6406 1882.2344,929.6406 C1881.9375,929.6406 1881.7344,929.7344 1881.5156,930.0469 L1881.3438,929.9688 Z " fill="#000000"/><text fill="#000000" font-family="sans-serif" font-size="14" lengthAdjust="spacing" textLength="28" x="1893" y="939.1436">Add</text><line style="stroke:#181818;stroke-width:0.5;" x1="1865" x2="1923" y1="950.2969" y2="950.2969"/><line style="stroke:#181818;stroke-width:0.5;" x1="1865" x2="1923" y1="958.2969" y2="958.2969"/></g><!--class Min--><g id="elem_Min"><rect codeLine="126" fill="#F1F1F1" height="48" id="Min" rx="2.5" ry="2.5" style="stroke:#181818;stroke-width:0.5;" width="57" x="1266.5" y="918.2969"/><ellipse cx="1281.5" cy="934.2969" fill="#ADD1B2" rx="11" ry="11" style="stroke:#181818;stroke-width:1.0;"/><path d="M1283.8438,929.9688 C1282.9063,929.5313 1282.3125,929.3906 1281.4375,929.3906 C1278.8125,929.3906 1276.8125,931.4688 1276.8125,934.1875 L1276.8125,935.3125 C1276.8125,937.8906 1278.9219,939.7813 1281.8125,939.7813 C1283.0313,939.7813 1284.1875,939.4844 1284.9375,938.9375 C1285.5156,938.5313 1285.8438,938.0781 1285.8438,937.6875 C1285.8438,937.2344 1285.4531,936.8438 1284.9844,936.8438 C1284.7656,936.8438 1284.5625,936.9219 1284.375,937.1094 C1283.9219,937.5938 1283.9219,937.5938 1283.7344,937.6875 C1283.3125,937.9531 1282.625,938.0781 1281.8594,938.0781 C1279.8125,938.0781 1278.5156,936.9844 1278.5156,935.2813 L1278.5156,934.1875 C1278.5156,932.4063 1279.7656,931.0938 1281.5,931.0938 C1282.0781,931.0938 1282.6875,931.25 1283.1563,931.5 C1283.6406,931.7813 1283.8125,932 1283.9063,932.4063 C1283.9688,932.8125 1284,932.9375 1284.1406,933.0625 C1284.2813,933.2031 1284.5156,933.3125 1284.7344,933.3125 C1285,933.3125 1285.2656,933.1719 1285.4375,932.9531 C1285.5469,932.7969 1285.5781,932.6094 1285.5781,932.1875 L1285.5781,930.7656 C1285.5781,930.3281 1285.5625,930.2031 1285.4688,930.0469 C1285.3125,929.7813 1285.0313,929.6406 1284.7344,929.6406 C1284.4375,929.6406 1284.2344,929.7344 1284.0156,930.0469 L1283.8438,929.9688 Z " fill="#000000"/><text fill="#000000" font-family="sans-serif" font-size="14" lengthAdjust="spacing" textLength="25" x="1295.5" y="939.1436">Min</text><line style="stroke:#181818;stroke-width:0.5;" x1="1267.5" x2="1322.5" y1="950.2969" y2="950.2969"/><line style="stroke:#181818;stroke-width:0.5;" x1="1267.5" x2="1322.5" y1="958.2969" y2="958.2969"/></g><!--class MatVecMul--><g id="elem_MatVecMul"><rect codeLine="130" fill="#F1F1F1" height="48" id="MatVecMul" rx="2.5" ry="2.5" style="stroke:#181818;stroke-width:0.5;" width="110" x="1359" y="918.2969"/><ellipse cx="1374" cy="934.2969" fill="#ADD1B2" rx="11" ry="11" style="stroke:#181818;stroke-width:1.0;"/><path d="M1376.3438,929.9688 C1375.4063,929.5313 1374.8125,929.3906 1373.9375,929.3906 C1371.3125,929.3906 1369.3125,931.4688 1369.3125,934.1875 L1369.3125,935.3125 C1369.3125,937.8906 1371.4219,939.7813 1374.3125,939.7813 C1375.5313,939.7813 1376.6875,939.4844 1377.4375,938.9375 C1378.0156,938.5313 1378.3438,938.0781 1378.3438,937.6875 C1378.3438,937.2344 1377.9531,936.8438 1377.4844,936.8438 C1377.2656,936.8438 1377.0625,936.9219 1376.875,937.1094 C1376.4219,937.5938 1376.4219,937.5938 1376.2344,937.6875 C1375.8125,937.9531 1375.125,938.0781 1374.3594,938.0781 C1372.3125,938.0781 1371.0156,936.9844 1371.0156,935.2813 L1371.0156,934.1875 C1371.0156,932.4063 1372.2656,931.0938 1374,931.0938 C1374.5781,931.0938 1375.1875,931.25 1375.6563,931.5 C1376.1406,931.7813 1376.3125,932 1376.4063,932.4063 C1376.4688,932.8125 1376.5,932.9375 1376.6406,933.0625 C1376.7813,933.2031 1377.0156,933.3125 1377.2344,933.3125 C1377.5,933.3125 1377.7656,933.1719 1377.9375,932.9531 C1378.0469,932.7969 1378.0781,932.6094 1378.0781,932.1875 L1378.0781,930.7656 C1378.0781,930.3281 1378.0625,930.2031 1377.9688,930.0469 C1377.8125,929.7813 1377.5313,929.6406 1377.2344,929.6406 C1376.9375,929.6406 1376.7344,929.7344 1376.5156,930.0469 L1376.3438,929.9688 Z " fill="#000000"/><text fill="#000000" font-family="sans-serif" font-size="14" lengthAdjust="spacing" textLength="78" x="1388" y="939.1436">MatVecMul</text><line style="stroke:#181818;stroke-width:0.5;" x1="1360" x2="1468" y1="950.2969" y2="950.2969"/><line style="stroke:#181818;stroke-width:0.5;" x1="1360" x2="1468" y1="958.2969" y2="958.2969"/></g><!--class FunctionCall--><g id="elem_FunctionCall"><rect codeLine="134" fill="#F1F1F1" height="48" id="FunctionCall" rx="2.5" ry="2.5" style="stroke:#181818;stroke-width:0.5;" width="120" x="1504" y="918.2969"/><ellipse cx="1519" cy="934.2969" fill="#ADD1B2" rx="11" ry="11" style="stroke:#181818;stroke-width:1.0;"/><path d="M1521.3438,929.9688 C1520.4063,929.5313 1519.8125,929.3906 1518.9375,929.3906 C1516.3125,929.3906 1514.3125,931.4688 1514.3125,934.1875 L1514.3125,935.3125 C1514.3125,937.8906 1516.4219,939.7813 1519.3125,939.7813 C1520.5313,939.7813 1521.6875,939.4844 1522.4375,938.9375 C1523.0156,938.5313 1523.3438,938.0781 1523.3438,937.6875 C1523.3438,937.2344 1522.9531,936.8438 1522.4844,936.8438 C1522.2656,936.8438 1522.0625,936.9219 1521.875,937.1094 C1521.4219,937.5938 1521.4219,937.5938 1521.2344,937.6875 C1520.8125,937.9531 1520.125,938.0781 1519.3594,938.0781 C1517.3125,938.0781 1516.0156,936.9844 1516.0156,935.2813 L1516.0156,934.1875 C1516.0156,932.4063 1517.2656,931.0938 1519,931.0938 C1519.5781,931.0938 1520.1875,931.25 1520.6563,931.5 C1521.1406,931.7813 1521.3125,932 1521.4063,932.4063 C1521.4688,932.8125 1521.5,932.9375 1521.6406,933.0625 C1521.7813,933.2031 1522.0156,933.3125 1522.2344,933.3125 C1522.5,933.3125 1522.7656,933.1719 1522.9375,932.9531 C1523.0469,932.7969 1523.0781,932.6094 1523.0781,932.1875 L1523.0781,930.7656 C1523.0781,930.3281 1523.0625,930.2031 1522.9688,930.0469 C1522.8125,929.7813 1522.5313,929.6406 1522.2344,929.6406 C1521.9375,929.6406 1521.7344,929.7344 1521.5156,930.0469 L1521.3438,929.9688 Z " fill="#000000"/><text fill="#000000" font-family="sans-serif" font-size="14" lengthAdjust="spacing" textLength="88" x="1533" y="939.1436">FunctionCall</text><line style="stroke:#181818;stroke-width:0.5;" x1="1505" x2="1623" y1="950.2969" y2="950.2969"/><line style="stroke:#181818;stroke-width:0.5;" x1="1505" x2="1623" y1="958.2969" y2="958.2969"/></g><!--class DistanceFromMesh--><g id="elem_DistanceFromMesh"><rect codeLine="138" fill="#F1F1F1" height="64.2969" id="DistanceFromMesh" rx="2.5" ry="2.5" style="stroke:#181818;stroke-width:0.5;" width="169" x="1659.5" y="910.2969"/><ellipse cx="1674.5" cy="926.2969" fill="#ADD1B2" rx="11" ry="11" style="stroke:#181818;stroke-width:1.0;"/><path d="M1676.8438,921.9688 C1675.9063,921.5313 1675.3125,921.3906 1674.4375,921.3906 C1671.8125,921.3906 1669.8125,923.4688 1669.8125,926.1875 L1669.8125,927.3125 C1669.8125,929.8906 1671.9219,931.7813 1674.8125,931.7813 C1676.0313,931.7813 1677.1875,931.4844 1677.9375,930.9375 C1678.5156,930.5313 1678.8438,930.0781 1678.8438,929.6875 C1678.8438,929.2344 1678.4531,928.8438 1677.9844,928.8438 C1677.7656,928.8438 1677.5625,928.9219 1677.375,929.1094 C1676.9219,929.5938 1676.9219,929.5938 1676.7344,929.6875 C1676.3125,929.9531 1675.625,930.0781 1674.8594,930.0781 C1672.8125,930.0781 1671.5156,928.9844 1671.5156,927.2813 L1671.5156,926.1875 C1671.5156,924.4063 1672.7656,923.0938 1674.5,923.0938 C1675.0781,923.0938 1675.6875,923.25 1676.1563,923.5 C1676.6406,923.7813 1676.8125,924 1676.9063,924.4063 C1676.9688,924.8125 1677,924.9375 1677.1406,925.0625 C1677.2813,925.2031 1677.5156,925.3125 1677.7344,925.3125 C1678,925.3125 1678.2656,925.1719 1678.4375,924.9531 C1678.5469,924.7969 1678.5781,924.6094 1678.5781,924.1875 L1678.5781,922.7656 C1678.5781,922.3281 1678.5625,922.2031 1678.4688,922.0469 C1678.3125,921.7813 1678.0313,921.6406 1677.7344,921.6406 C1677.4375,921.6406 1677.2344,921.7344 1677.0156,922.0469 L1676.8438,921.9688 Z " fill="#000000"/><text fill="#000000" font-family="sans-serif" font-size="14" lengthAdjust="spacing" textLength="137" x="1688.5" y="931.1436">DistanceFromMesh</text><line style="stroke:#181818;stroke-width:0.5;" x1="1660.5" x2="1827.5" y1="942.2969" y2="942.2969"/><text fill="#000000" font-family="sans-serif" font-size="14" lengthAdjust="spacing" textLength="142" x="1665.5" y="959.292">meshid : resourceID</text><line style="stroke:#181818;stroke-width:0.5;" x1="1660.5" x2="1827.5" y1="966.5938" y2="966.5938"/></g><!--class Mesh--><g id="elem_Mesh"><rect fill="#F1F1F1" height="48" id="Mesh" rx="2.5" ry="2.5" style="stroke:#181818;stroke-width:0.5;" width="69" x="1709.5" y="1091.2969"/><ellipse cx="1724.5" cy="1107.2969" fill="#ADD1B2" rx="11" ry="11" style="stroke:#181818;stroke-width:1.0;"/><path d="M1726.8438,1102.9688 C1725.9063,1102.5313 1725.3125,1102.3906 1724.4375,1102.3906 C1721.8125,1102.3906 1719.8125,1104.4688 1719.8125,1107.1875 L1719.8125,1108.3125 C1719.8125,1110.8906 1721.9219,1112.7813 1724.8125,1112.7813 C1726.0313,1112.7813 1727.1875,1112.4844 1727.9375,1111.9375 C1728.5156,1111.5313 1728.8438,1111.0781 1728.8438,1110.6875 C1728.8438,1110.2344 1728.4531,1109.8438 1727.9844,1109.8438 C1727.7656,1109.8438 1727.5625,1109.9219 1727.375,1110.1094 C1726.9219,1110.5938 1726.9219,1110.5938 1726.7344,1110.6875 C1726.3125,1110.9531 1725.625,1111.0781 1724.8594,1111.0781 C1722.8125,1111.0781 1721.5156,1109.9844 1721.5156,1108.2813 L1721.5156,1107.1875 C1721.5156,1105.4063 1722.7656,1104.0938 1724.5,1104.0938 C1725.0781,1104.0938 1725.6875,1104.25 1726.1563,1104.5 C1726.6406,1104.7813 1726.8125,1105 1726.9063,1105.4063 C1726.9688,1105.8125 1727,1105.9375 1727.1406,1106.0625 C1727.2813,1106.2031 1727.5156,1106.3125 1727.7344,1106.3125 C1728,1106.3125 1728.2656,1106.1719 1728.4375,1105.9531 C1728.5469,1105.7969 1728.5781,1105.6094 1728.5781,1105.1875 L1728.5781,1103.7656 C1728.5781,1103.3281 1728.5625,1103.2031 1728.4688,1103.0469 C1728.3125,1102.7813 1728.0313,1102.6406 1727.7344,1102.6406 C1727.4375,1102.6406 1727.2344,1102.7344 1727.0156,1103.0469 L1726.8438,1102.9688 Z " fill="#000000"/><text fill="#000000" font-family="sans-serif" font-size="14" lengthAdjust="spacing" textLength="37" x="1738.5" y="1112.1436">Mesh</text><line style="stroke:#181818;stroke-width:0.5;" x1="1710.5" x2="1777.5" y1="1123.2969" y2="1123.2969"/><line style="stroke:#181818;stroke-width:0.5;" x1="1710.5" x2="1777.5" y1="1131.2969" y2="1131.2969"/></g><!--class VolumeData--><g id="elem_VolumeData"><rect codeLine="150" fill="#F1F1F1" height="48" id="VolumeData" rx="2.5" ry="2.5" style="stroke:#181818;stroke-width:0.5;" width="120" x="446" y="243.7969"/><ellipse cx="461" cy="259.7969" fill="#ADD1B2" rx="11" ry="11" style="stroke:#181818;stroke-width:1.0;"/><path d="M463.3438,255.4688 C462.4063,255.0313 461.8125,254.8906 460.9375,254.8906 C458.3125,254.8906 456.3125,256.9688 456.3125,259.6875 L456.3125,260.8125 C456.3125,263.3906 458.4219,265.2813 461.3125,265.2813 C462.5313,265.2813 463.6875,264.9844 464.4375,264.4375 C465.0156,264.0313 465.3438,263.5781 465.3438,263.1875 C465.3438,262.7344 464.9531,262.3438 464.4844,262.3438 C464.2656,262.3438 464.0625,262.4219 463.875,262.6094 C463.4219,263.0938 463.4219,263.0938 463.2344,263.1875 C462.8125,263.4531 462.125,263.5781 461.3594,263.5781 C459.3125,263.5781 458.0156,262.4844 458.0156,260.7813 L458.0156,259.6875 C458.0156,257.9063 459.2656,256.5938 461,256.5938 C461.5781,256.5938 462.1875,256.75 462.6563,257 C463.1406,257.2813 463.3125,257.5 463.4063,257.9063 C463.4688,258.3125 463.5,258.4375 463.6406,258.5625 C463.7813,258.7031 464.0156,258.8125 464.2344,258.8125 C464.5,258.8125 464.7656,258.6719 464.9375,258.4531 C465.0469,258.2969 465.0781,258.1094 465.0781,257.6875 L465.0781,256.2656 C465.0781,255.8281 465.0625,255.7031 464.9688,255.5469 C464.8125,255.2813 464.5313,255.1406 464.2344,255.1406 C463.9375,255.1406 463.7344,255.2344 463.5156,255.5469 L463.3438,255.4688 Z " fill="#000000"/><text fill="#000000" font-family="sans-serif" font-size="14" lengthAdjust="spacing" textLength="88" x="475" y="264.6436">VolumeData</text><line style="stroke:#181818;stroke-width:0.5;" x1="447" x2="565" y1="275.7969" y2="275.7969"/><line style="stroke:#181818;stroke-width:0.5;" x1="447" x2="565" y1="283.7969" y2="283.7969"/></g><!--class Boundary--><g id="elem_Boundary"><rect codeLine="152" fill="#F1F1F1" height="113.1875" id="Boundary" rx="2.5" ry="2.5" style="stroke:#181818;stroke-width:0.5;" width="182" x="524" y="376.2969"/><ellipse cx="577.25" cy="392.2969" fill="#ADD1B2" rx="11" ry="11" style="stroke:#181818;stroke-width:1.0;"/><path d="M579.5938,387.9688 C578.6563,387.5313 578.0625,387.3906 577.1875,387.3906 C574.5625,387.3906 572.5625,389.4688 572.5625,392.1875 L572.5625,393.3125 C572.5625,395.8906 574.6719,397.7813 577.5625,397.7813 C578.7813,397.7813 579.9375,397.4844 580.6875,396.9375 C581.2656,396.5313 581.5938,396.0781 581.5938,395.6875 C581.5938,395.2344 581.2031,394.8438 580.7344,394.8438 C580.5156,394.8438 580.3125,394.9219 580.125,395.1094 C579.6719,395.5938 579.6719,395.5938 579.4844,395.6875 C579.0625,395.9531 578.375,396.0781 577.6094,396.0781 C575.5625,396.0781 574.2656,394.9844 574.2656,393.2813 L574.2656,392.1875 C574.2656,390.4063 575.5156,389.0938 577.25,389.0938 C577.8281,389.0938 578.4375,389.25 578.9063,389.5 C579.3906,389.7813 579.5625,390 579.6563,390.4063 C579.7188,390.8125 579.75,390.9375 579.8906,391.0625 C580.0313,391.2031 580.2656,391.3125 580.4844,391.3125 C580.75,391.3125 581.0156,391.1719 581.1875,390.9531 C581.2969,390.7969 581.3281,390.6094 581.3281,390.1875 L581.3281,388.7656 C581.3281,388.3281 581.3125,388.2031 581.2188,388.0469 C581.0625,387.7813 580.7813,387.6406 580.4844,387.6406 C580.1875,387.6406 579.9844,387.7344 579.7656,388.0469 L579.5938,387.9688 Z " fill="#000000"/><text fill="#000000" font-family="sans-serif" font-size="14" lengthAdjust="spacing" textLength="67" x="597.75" y="397.1436">Boundary</text><line style="stroke:#181818;stroke-width:0.5;" x1="525" x2="705" y1="408.2969" y2="408.2969"/><text fill="#000000" font-family="sans-serif" font-size="14" lengthAdjust="spacing" textLength="164" x="530" y="425.292">solidthreshold : double</text><text fill="#000000" font-family="sans-serif" font-size="14" lengthAdjust="spacing" textLength="163" x="530" y="441.5889">functionid : resourceID</text><text fill="#000000" font-family="sans-serif" font-size="14" lengthAdjust="spacing" textLength="170" x="530" y="457.8857">minfeaturesize : double</text><text fill="#000000" font-family="sans-serif" font-size="14" lengthAdjust="spacing" textLength="151" x="530" y="474.1826">meshbboxonly : bool</text><line style="stroke:#181818;stroke-width:0.5;" x1="525" x2="705" y1="481.4844" y2="481.4844"/></g><!--class Color--><g id="elem_Color"><rect codeLine="160" fill="#F1F1F1" height="80.5938" id="Color" rx="2.5" ry="2.5" style="stroke:#181818;stroke-width:0.5;" width="182" x="741" y="392.2969"/><ellipse cx="808.75" cy="408.2969" fill="#ADD1B2" rx="11" ry="11" style="stroke:#181818;stroke-width:1.0;"/><path d="M811.0938,403.9688 C810.1563,403.5313 809.5625,403.3906 808.6875,403.3906 C806.0625,403.3906 804.0625,405.4688 804.0625,408.1875 L804.0625,409.3125 C804.0625,411.8906 806.1719,413.7813 809.0625,413.7813 C810.2813,413.7813 811.4375,413.4844 812.1875,412.9375 C812.7656,412.5313 813.0938,412.0781 813.0938,411.6875 C813.0938,411.2344 812.7031,410.8438 812.2344,410.8438 C812.0156,410.8438 811.8125,410.9219 811.625,411.1094 C811.1719,411.5938 811.1719,411.5938 810.9844,411.6875 C810.5625,411.9531 809.875,412.0781 809.1094,412.0781 C807.0625,412.0781 805.7656,410.9844 805.7656,409.2813 L805.7656,408.1875 C805.7656,406.4063 807.0156,405.0938 808.75,405.0938 C809.3281,405.0938 809.9375,405.25 810.4063,405.5 C810.8906,405.7813 811.0625,406 811.1563,406.4063 C811.2188,406.8125 811.25,406.9375 811.3906,407.0625 C811.5313,407.2031 811.7656,407.3125 811.9844,407.3125 C812.25,407.3125 812.5156,407.1719 812.6875,406.9531 C812.7969,406.7969 812.8281,406.6094 812.8281,406.1875 L812.8281,404.7656 C812.8281,404.3281 812.8125,404.2031 812.7188,404.0469 C812.5625,403.7813 812.2813,403.6406 811.9844,403.6406 C811.6875,403.6406 811.4844,403.7344 811.2656,404.0469 L811.0938,403.9688 Z " fill="#000000"/><text fill="#000000" font-family="sans-serif" font-size="14" lengthAdjust="spacing" textLength="38" x="829.25" y="413.1436">Color</text><line style="stroke:#181818;stroke-width:0.5;" x1="742" x2="922" y1="424.2969" y2="424.2969"/><text fill="#000000" font-family="sans-serif" font-size="14" lengthAdjust="spacing" textLength="163" x="747" y="441.292">functionid : resourceID</text><text fill="#000000" font-family="sans-serif" font-size="14" lengthAdjust="spacing" textLength="170" x="747" y="457.5889">minfeaturesize : double</text><line style="stroke:#181818;stroke-width:0.5;" x1="742" x2="922" y1="464.8906" y2="464.8906"/></g><!--class Property--><g id="elem_Property"><rect codeLine="166" fill="#F1F1F1" height="96.8906" id="Property" rx="2.5" ry="2.5" style="stroke:#181818;stroke-width:0.5;" width="182" x="307" y="384.2969"/><ellipse cx="361.75" cy="400.2969" fill="#ADD1B2" rx="11" ry="11" style="stroke:#181818;stroke-width:1.0;"/><path d="M364.0938,395.9688 C363.1563,395.5313 362.5625,395.3906 361.6875,395.3906 C359.0625,395.3906 357.0625,397.4688 357.0625,400.1875 L357.0625,401.3125 C357.0625,403.8906 359.1719,405.7813 362.0625,405.7813 C363.2813,405.7813 364.4375,405.4844 365.1875,404.9375 C365.7656,404.5313 366.0938,404.0781 366.0938,403.6875 C366.0938,403.2344 365.7031,402.8438 365.2344,402.8438 C365.0156,402.8438 364.8125,402.9219 364.625,403.1094 C364.1719,403.5938 364.1719,403.5938 363.9844,403.6875 C363.5625,403.9531 362.875,404.0781 362.1094,404.0781 C360.0625,404.0781 358.7656,402.9844 358.7656,401.2813 L358.7656,400.1875 C358.7656,398.4063 360.0156,397.0938 361.75,397.0938 C362.3281,397.0938 362.9375,397.25 363.4063,397.5 C363.8906,397.7813 364.0625,398 364.1563,398.4063 C364.2188,398.8125 364.25,398.9375 364.3906,399.0625 C364.5313,399.2031 364.7656,399.3125 364.9844,399.3125 C365.25,399.3125 365.5156,399.1719 365.6875,398.9531 C365.7969,398.7969 365.8281,398.6094 365.8281,398.1875 L365.8281,396.7656 C365.8281,396.3281 365.8125,396.2031 365.7188,396.0469 C365.5625,395.7813 365.2813,395.6406 364.9844,395.6406 C364.6875,395.6406 364.4844,395.7344 364.2656,396.0469 L364.0938,395.9688 Z " fill="#000000"/><text fill="#000000" font-family="sans-serif" font-size="14" lengthAdjust="spacing" textLength="64" x="382.25" y="405.1436">Property</text><line style="stroke:#181818;stroke-width:0.5;" x1="308" x2="488" y1="416.2969" y2="416.2969"/><text fill="#000000" font-family="sans-serif" font-size="14" lengthAdjust="spacing" textLength="95" x="313" y="433.292">name : string</text><text fill="#000000" font-family="sans-serif" font-size="14" lengthAdjust="spacing" textLength="163" x="313" y="449.5889">functionid : resourceID</text><text fill="#000000" font-family="sans-serif" font-size="14" lengthAdjust="spacing" textLength="170" x="313" y="465.8857">minfeaturesize : double</text><line style="stroke:#181818;stroke-width:0.5;" x1="308" x2="488" y1="473.1875" y2="473.1875"/></g><!--class Composite--><g id="elem_Composite"><rect codeLine="173" fill="#F1F1F1" height="64.2969" id="Composite" rx="2.5" ry="2.5" style="stroke:#181818;stroke-width:0.5;" width="209" x="62.5" y="400.7969"/><ellipse cx="123.25" cy="416.7969" fill="#ADD1B2" rx="11" ry="11" style="stroke:#181818;stroke-width:1.0;"/><path d="M125.5938,412.4688 C124.6563,412.0313 124.0625,411.8906 123.1875,411.8906 C120.5625,411.8906 118.5625,413.9688 118.5625,416.6875 L118.5625,417.8125 C118.5625,420.3906 120.6719,422.2813 123.5625,422.2813 C124.7813,422.2813 125.9375,421.9844 126.6875,421.4375 C127.2656,421.0313 127.5938,420.5781 127.5938,420.1875 C127.5938,419.7344 127.2031,419.3438 126.7344,419.3438 C126.5156,419.3438 126.3125,419.4219 126.125,419.6094 C125.6719,420.0938 125.6719,420.0938 125.4844,420.1875 C125.0625,420.4531 124.375,420.5781 123.6094,420.5781 C121.5625,420.5781 120.2656,419.4844 120.2656,417.7813 L120.2656,416.6875 C120.2656,414.9063 121.5156,413.5938 123.25,413.5938 C123.8281,413.5938 124.4375,413.75 124.9063,414 C125.3906,414.2813 125.5625,414.5 125.6563,414.9063 C125.7188,415.3125 125.75,415.4375 125.8906,415.5625 C126.0313,415.7031 126.2656,415.8125 126.4844,415.8125 C126.75,415.8125 127.0156,415.6719 127.1875,415.4531 C127.2969,415.2969 127.3281,415.1094 127.3281,414.6875 L127.3281,413.2656 C127.3281,412.8281 127.3125,412.7031 127.2188,412.5469 C127.0625,412.2813 126.7813,412.1406 126.4844,412.1406 C126.1875,412.1406 125.9844,412.2344 125.7656,412.5469 L125.5938,412.4688 Z " fill="#000000"/><text fill="#000000" font-family="sans-serif" font-size="14" lengthAdjust="spacing" textLength="79" x="143.75" y="421.6436">Composite</text><line style="stroke:#181818;stroke-width:0.5;" x1="63.5" x2="270.5" y1="432.7969" y2="432.7969"/><text fill="#000000" font-family="sans-serif" font-size="14" lengthAdjust="spacing" textLength="197" x="68.5" y="449.792">basematerialid : resourceID</text><line style="stroke:#181818;stroke-width:0.5;" x1="63.5" x2="270.5" y1="457.0938" y2="457.0938"/></g><!--class MaterialMapping--><g id="elem_MaterialMapping"><rect codeLine="178" fill="#F1F1F1" height="64.2969" id="MaterialMapping" rx="2.5" ry="2.5" style="stroke:#181818;stroke-width:0.5;" width="175" x="142.5" y="549.2969"/><ellipse cx="167.85" cy="565.2969" fill="#ADD1B2" rx="11" ry="11" style="stroke:#181818;stroke-width:1.0;"/><path d="M170.1938,560.9688 C169.2563,560.5313 168.6625,560.3906 167.7875,560.3906 C165.1625,560.3906 163.1625,562.4688 163.1625,565.1875 L163.1625,566.3125 C163.1625,568.8906 165.2719,570.7813 168.1625,570.7813 C169.3813,570.7813 170.5375,570.4844 171.2875,569.9375 C171.8656,569.5313 172.1938,569.0781 172.1938,568.6875 C172.1938,568.2344 171.8031,567.8438 171.3344,567.8438 C171.1156,567.8438 170.9125,567.9219 170.725,568.1094 C170.2719,568.5938 170.2719,568.5938 170.0844,568.6875 C169.6625,568.9531 168.975,569.0781 168.2094,569.0781 C166.1625,569.0781 164.8656,567.9844 164.8656,566.2813 L164.8656,565.1875 C164.8656,563.4063 166.1156,562.0938 167.85,562.0938 C168.4281,562.0938 169.0375,562.25 169.5063,562.5 C169.9906,562.7813 170.1625,563 170.2563,563.4063 C170.3188,563.8125 170.35,563.9375 170.4906,564.0625 C170.6313,564.2031 170.8656,564.3125 171.0844,564.3125 C171.35,564.3125 171.6156,564.1719 171.7875,563.9531 C171.8969,563.7969 171.9281,563.6094 171.9281,563.1875 L171.9281,561.7656 C171.9281,561.3281 171.9125,561.2031 171.8188,561.0469 C171.6625,560.7813 171.3813,560.6406 171.0844,560.6406 C170.7875,560.6406 170.5844,560.7344 170.3656,561.0469 L170.1938,560.9688 Z " fill="#000000"/><text fill="#000000" font-family="sans-serif" font-size="14" lengthAdjust="spacing" textLength="120" x="184.15" y="570.1436">MaterialMapping</text><line style="stroke:#181818;stroke-width:0.5;" x1="143.5" x2="316.5" y1="581.2969" y2="581.2969"/><text fill="#000000" font-family="sans-serif" font-size="14" lengthAdjust="spacing" textLength="163" x="148.5" y="598.292">functionid : resourceID</text><line style="stroke:#181818;stroke-width:0.5;" x1="143.5" x2="316.5" y1="605.5938" y2="605.5938"/></g><!--class Mesh--><g id="elem_Mesh"><rect codeLine="195" fill="#F1F1F1" height="48" id="Mesh" rx="2.5" ry="2.5" style="stroke:#181818;stroke-width:0.5;" width="69" x="471.5" y="94.7969"/><ellipse cx="486.5" cy="110.7969" fill="#ADD1B2" rx="11" ry="11" style="stroke:#181818;stroke-width:1.0;"/><path d="M488.8438,106.4688 C487.9063,106.0313 487.3125,105.8906 486.4375,105.8906 C483.8125,105.8906 481.8125,107.9688 481.8125,110.6875 L481.8125,111.8125 C481.8125,114.3906 483.9219,116.2813 486.8125,116.2813 C488.0313,116.2813 489.1875,115.9844 489.9375,115.4375 C490.5156,115.0313 490.8438,114.5781 490.8438,114.1875 C490.8438,113.7344 490.4531,113.3438 489.9844,113.3438 C489.7656,113.3438 489.5625,113.4219 489.375,113.6094 C488.9219,114.0938 488.9219,114.0938 488.7344,114.1875 C488.3125,114.4531 487.625,114.5781 486.8594,114.5781 C484.8125,114.5781 483.5156,113.4844 483.5156,111.7813 L483.5156,110.6875 C483.5156,108.9063 484.7656,107.5938 486.5,107.5938 C487.0781,107.5938 487.6875,107.75 488.1563,108 C488.6406,108.2813 488.8125,108.5 488.9063,108.9063 C488.9688,109.3125 489,109.4375 489.1406,109.5625 C489.2813,109.7031 489.5156,109.8125 489.7344,109.8125 C490,109.8125 490.2656,109.6719 490.4375,109.4531 C490.5469,109.2969 490.5781,109.1094 490.5781,108.6875 L490.5781,107.2656 C490.5781,106.8281 490.5625,106.7031 490.4688,106.5469 C490.3125,106.2813 490.0313,106.1406 489.7344,106.1406 C489.4375,106.1406 489.2344,106.2344 489.0156,106.5469 L488.8438,106.4688 Z " fill="#000000"/><text fill="#000000" font-family="sans-serif" font-size="14" lengthAdjust="spacing" textLength="37" x="500.5" y="115.6436">Mesh</text><line style="stroke:#181818;stroke-width:0.5;" x1="472.5" x2="539.5" y1="126.7969" y2="126.7969"/><line style="stroke:#181818;stroke-width:0.5;" x1="472.5" x2="539.5" y1="134.7969" y2="134.7969"/></g><!--reverse link Image3D to ImageStack--><g id="link_Image3D_ImageStack"><path d="M1397,177.5769 C1397,195.9469 1397,199.8969 1397,219.1369 " fill="none" id="Image3D-backto-ImageStack" style="stroke:#181818;stroke-width:1.0;"/><polygon fill="none" points="1397,159.5769,1391,177.5769,1403,177.5769,1397,159.5769" style="stroke:#181818;stroke-width:1.0;"/></g><!--reverse link ImageStack to ImageSheet--><g id="link_ImageStack_ImageSheet"><path codeLine="23" d="M1397,328.3819 C1397,355.4439 1397,376.5799 1397,400.3929 " fill="none" id="ImageStack-backto-ImageSheet" style="stroke:#181818;stroke-width:1.0;"/><polygon fill="#181818" points="1397,316.3819,1393,322.3819,1397,328.3819,1401,322.3819,1397,316.3819" style="stroke:#181818;stroke-width:1.0;"/><text fill="#000000" font-family="sans-serif" font-size="13" lengthAdjust="spacing" textLength="23" x="1371.8078" y="389.8374">1..*</text></g><!--reverse link ScalarRef to Scalar--><g id="link_ScalarRef_Scalar"><path codeLine="41" d="M888,1159.4479 C888,1178.3019 888,1189.9439 888,1207.1415 " fill="none" id="ScalarRef-backto-Scalar" style="stroke:#181818;stroke-width:1.0;"/><polygon fill="none" points="888,1147.4479,884,1153.4479,888,1159.4479,892,1153.4479,888,1147.4479" style="stroke:#181818;stroke-width:1.0;"/><text fill="#000000" font-family="sans-serif" font-size="13" lengthAdjust="spacing" textLength="23" x="862.0531" y="1196.1137">0..*</text></g><!--reverse link VectorRef to Vector--><g id="link_VectorRef_Vector"><path codeLine="42" d="M1039,1159.4479 C1039,1178.3019 1039,1189.9439 1039,1207.1415 " fill="none" id="VectorRef-backto-Vector" style="stroke:#181818;stroke-width:1.0;"/><polygon fill="none" points="1039,1147.4479,1035,1153.4479,1039,1159.4479,1043,1153.4479,1039,1147.4479" style="stroke:#181818;stroke-width:1.0;"/><text fill="#000000" font-family="sans-serif" font-size="13" lengthAdjust="spacing" textLength="23" x="1013.0531" y="1196.1137">0..*</text></g><!--reverse link Input to Scalar--><g id="link_Input_Scalar"><path codeLine="55" d="M743.716,977.6642 C728.324,1020.3092 706.791,1101.4429 746,1163.2969 C768.767,1199.2131 816.517,1216.2361 850.347,1224.0549 " fill="none" id="Input-backto-Scalar" style="stroke:#181818;stroke-width:1.0;"/><polygon fill="#181818" points="747.79,966.3769,741.9906,970.6625,743.716,977.6642,749.5155,973.3785,747.79,966.3769" style="stroke:#181818;stroke-width:1.0;"/><text fill="#000000" font-family="sans-serif" font-size="13" lengthAdjust="spacing" textLength="23" x="819.5132" y="1218.7828">0..*</text></g><!--reverse link Input to Vector--><g id="link_Input_Vector"><path codeLine="56" d="M754.601,978.3638 C752.449,1022.6798 754.975,1108.1819 807,1163.2969 C813.709,1170.4039 933.773,1202.7152 998.47,1219.7352 " fill="none" id="Input-backto-Vector" style="stroke:#181818;stroke-width:1.0;"/><polygon fill="#181818" points="755.183,966.3779,750.8967,972.1768,754.601,978.3638,758.8873,972.5648,755.183,966.3779" style="stroke:#181818;stroke-width:1.0;"/><text fill="#000000" font-family="sans-serif" font-size="13" lengthAdjust="spacing" textLength="23" x="967.5029" y="1213.8934">0..*</text></g><!--reverse link Output to ScalarRef--><g id="link_Output_ScalarRef"><path codeLine="57" d="M872.8873,978.2855 C876.2403,1008.4605 880.803,1049.5229 884.547,1083.2169 " fill="none" id="Output-backto-ScalarRef" style="stroke:#181818;stroke-width:1.0;"/><polygon fill="#181818" points="871.562,966.3589,868.2491,972.7639,872.8873,978.2855,876.2002,971.8804,871.562,966.3589" style="stroke:#181818;stroke-width:1.0;"/><text fill="#000000" font-family="sans-serif" font-size="13" lengthAdjust="spacing" textLength="23" x="858.4629" y="1072.1035">0..*</text></g><!--reverse link Output to VectorRef--><g id="link_Output_VectorRef"><path codeLine="58" d="M901.8337,974.9575 C922.0037,994.4795 942.781,1014.8119 968,1040.2969 C981.776,1054.2179 996.82,1069.8379 1009.5,1083.1269 " fill="none" id="Output-backto-VectorRef" style="stroke:#181818;stroke-width:1.0;"/><polygon fill="#181818" points="893.211,966.6119,894.7404,973.6589,901.8337,974.9575,900.3042,967.9105,893.211,966.6119" style="stroke:#181818;stroke-width:1.0;"/><text fill="#000000" font-family="sans-serif" font-size="13" lengthAdjust="spacing" textLength="23" x="978.0474" y="1071.9949">0..*</text></g><!--reverse link Out to Scalar--><g id="link_Out_Scalar"><path codeLine="71" d="M1164.5861,978.352 C1165.7161,1022.632 1161.35,1108.0619 1109,1163.2969 C1096.18,1176.8289 985.322,1206.0658 925.658,1221.0432 " fill="none" id="Out-backto-Scalar" style="stroke:#181818;stroke-width:1.0;"/><polygon fill="#181818" points="1164.28,966.3559,1160.4344,972.456,1164.5861,978.352,1168.4318,972.2519,1164.28,966.3559" style="stroke:#181818;stroke-width:1.0;"/><text fill="#000000" font-family="sans-serif" font-size="13" lengthAdjust="spacing" textLength="23" x="933.4926" y="1215.2912">0..*</text></g><!--reverse link Out to Vector--><g id="link_Out_Vector"><path codeLine="72" d="M1175.4793,977.9912 C1189.7493,1020.6192 1209.19,1101.0839 1171,1163.2969 C1151.24,1195.4931 1110.65,1212.8057 1079.66,1221.7116 " fill="none" id="Out-backto-Vector" style="stroke:#181818;stroke-width:1.0;"/><polygon fill="#181818" points="1171.67,966.6119,1169.7815,973.5713,1175.4793,977.9912,1177.3678,971.0318,1171.67,966.6119" style="stroke:#181818;stroke-width:1.0;"/><text fill="#000000" font-family="sans-serif" font-size="13" lengthAdjust="spacing" textLength="23" x="1087.647" y="1216.1725">0..*</text></g><!--reverse link In to ScalarRef--><g id="link_In_ScalarRef"><path codeLine="73" d="M1044.2064,971.6275 C1022.2864,991.1875 997.24,1013.6429 968,1040.2969 C952.619,1054.3169 935.686,1069.9509 921.374,1083.2239 " fill="none" id="In-backto-ScalarRef" style="stroke:#181818;stroke-width:1.0;"/><polygon fill="#181818" points="1053.16,963.6379,1046.02,964.6481,1044.2064,971.6275,1051.3464,970.6172,1053.16,963.6379" style="stroke:#181818;stroke-width:1.0;"/><text fill="#000000" font-family="sans-serif" font-size="13" lengthAdjust="spacing" textLength="23" x="902.8855" y="1072.1119">0..*</text></g><!--reverse link In to VectorRef--><g id="link_In_VectorRef"><path codeLine="74" d="M1068.4719,978.0874 C1061.9419,1008.2624 1053.02,1049.5229 1045.72,1083.2169 " fill="none" id="In-backto-VectorRef" style="stroke:#181818;stroke-width:1.0;"/><polygon fill="#181818" points="1071.01,966.3589,1065.8314,971.3771,1068.4719,978.0874,1073.6505,973.0692,1071.01,966.3589" style="stroke:#181818;stroke-width:1.0;"/><text fill="#000000" font-family="sans-serif" font-size="13" lengthAdjust="spacing" textLength="23" x="1021.7341" y="1072.1035">0..*</text></g><!--reverse link Function to Input--><g id="link_Function_Input"><path codeLine="85" d="M595.1656,793.4526 C638.7666,833.2846 695.693,885.2899 731.528,918.0269 " fill="none" id="Function-backto-Input" style="stroke:#181818;stroke-width:1.0;"/><polygon fill="#181818" points="586.306,785.3589,588.0379,792.3589,595.1656,793.4526,593.4337,786.4525,586.306,785.3589" style="stroke:#181818;stroke-width:1.0;"/><text fill="#000000" font-family="sans-serif" font-size="13" lengthAdjust="spacing" textLength="8" x="716.3442" y="907.366">1</text></g><!--reverse link Function to Output--><g id="link_Function_Output"><path codeLine="86" d="M631.1053,771.0998 C687.5243,789.6048 752.501,816.6759 809,861.2969 C828.756,876.8989 845.381,900.4919 856.084,918.0189 " fill="none" id="Function-backto-Output" style="stroke:#181818;stroke-width:1.0;"/><polygon fill="#181818" points="619.703,767.3599,624.1575,773.0306,631.1053,771.0998,626.6508,765.429,619.703,767.3599" style="stroke:#181818;stroke-width:1.0;"/><text fill="#000000" font-family="sans-serif" font-size="13" lengthAdjust="spacing" textLength="8" x="843.9607" y="907.3561">1</text></g><!--reverse link Function to FunctionFromImage3d--><g id="link_Function_FunctionFromImage3d"><path d="M449.2964,773.6937 C385.0934,793.9537 309.117,821.2549 233,861.2969 C227.222,864.3359 221.395,867.6239 215.594,871.0749 " fill="none" id="Function-backto-FunctionFromImage3d" style="stroke:#181818;stroke-width:1.0;"/><polygon fill="none" points="466.462,768.2769,447.4908,767.9718,451.102,779.4156,466.462,768.2769" style="stroke:#181818;stroke-width:1.0;"/></g><!--reverse link FunctionFromImage3d to Image3D--><g id="link_FunctionFromImage3d_Image3D"><path codeLine="98" d="M119,1035.5399 C119,1060.1839 119,1073.4119 119,1090.9949 " fill="none" id="FunctionFromImage3d-backto-Image3D" style="stroke:#181818;stroke-width:1.0;"/><polygon fill="none" points="119,1023.5399,115,1029.5399,119,1035.5399,123,1029.5399,119,1023.5399" style="stroke:#181818;stroke-width:1.0;"/><text fill="#000000" font-family="sans-serif" font-size="13" lengthAdjust="spacing" textLength="8" x="110.025" y="1080.3262">1</text></g><!--reverse link Function to FunctionImplicit--><g id="link_Function_FunctionImplicit"><path d="M485.4836,797.3767 C444.4276,834.1967 397.46,876.3149 359.731,910.1509 " fill="none" id="Function-backto-FunctionImplicit" style="stroke:#181818;stroke-width:1.0;"/><polygon fill="none" points="498.884,785.3589,481.4776,792.9099,489.4895,801.8435,498.884,785.3589" style="stroke:#181818;stroke-width:1.0;"/></g><!--reverse link FunctionImplicit to Node_--><g id="link_FunctionImplicit_Node_"><path codeLine="104" d="M325,986.6609 C325,1020.3109 325,1060.9659 325,1091.0819 " fill="none" id="FunctionImplicit-backto-Node_" style="stroke:#181818;stroke-width:1.0;"/><polygon fill="#181818" points="325,974.6609,321,980.6609,325,986.6609,329,980.6609,325,974.6609" style="stroke:#181818;stroke-width:1.0;"/><text fill="#000000" font-family="sans-serif" font-size="13" lengthAdjust="spacing" textLength="23" x="299.0531" y="1080.0388">0..*</text></g><!--reverse link Function to PrivateExtensionFunction--><g id="link_Function_PrivateExtensionFunction"><path d="M543,803.3589 C543,840.1789 543,876.3149 543,910.1509 " fill="none" id="Function-backto-PrivateExtensionFunction" style="stroke:#181818;stroke-width:1.0;"/><polygon fill="none" points="543,785.3589,537,803.3589,549,803.3589,543,785.3589" style="stroke:#181818;stroke-width:1.0;"/></g><!--reverse link Node_ to Add--><g id="link_Node__Add"><path d="M1508.5294,750.6249 C1601.2494,758.2539 1740.14,781.5159 1846,861.2969 C1865.01,875.6269 1878.02,899.8779 1885.65,917.9309 " fill="none" id="Node_-backto-Add" style="stroke:#181818;stroke-width:1.0;"/><polygon fill="none" points="1490.59,749.1489,1508.0374,756.6047,1509.0214,744.6451,1490.59,749.1489" style="stroke:#181818;stroke-width:1.0;"/></g><!--reverse link Node_ to Min--><g id="link_Node__Min"><path d="M1368.6056,816.5121 C1356.5956,835.4381 1352.88,841.5939 1341,861.2969 C1329.58,880.2289 1317.11,901.9969 1308.03,918.0419 " fill="none" id="Node_-backto-Min" style="stroke:#181818;stroke-width:1.0;"/><polygon fill="none" points="1378.25,801.3139,1363.5395,813.2973,1373.6716,819.7269,1378.25,801.3139" style="stroke:#181818;stroke-width:1.0;"/></g><!--reverse link Node_ to MatVecMul--><g id="link_Node__MatVecMul"><path d="M1414,819.5579 C1414,858.1559 1414,889.5389 1414,918.0759 " fill="none" id="Node_-backto-MatVecMul" style="stroke:#181818;stroke-width:1.0;"/><polygon fill="none" points="1414,801.5579,1408,819.5579,1420,819.5579,1414,801.5579" style="stroke:#181818;stroke-width:1.0;"/></g><!--reverse link Node_ to FunctionCall--><g id="link_Node__FunctionCall"><path d="M1467.7383,815.8378 C1497.3583,854.4358 1524.29,889.5389 1546.18,918.0759 " fill="none" id="Node_-backto-FunctionCall" style="stroke:#181818;stroke-width:1.0;"/><polygon fill="none" points="1456.78,801.5579,1462.9784,819.4905,1472.4983,812.185,1456.78,801.5579" style="stroke:#181818;stroke-width:1.0;"/></g><!--reverse link Node_ to DistanceFromMesh--><g id="link_Node__DistanceFromMesh"><path d="M1507.0339,787.7172 C1552.2639,809.0222 1593.62,830.4929 1642,861.2969 C1664.97,875.9229 1689.01,894.5949 1707.98,910.2209 " fill="none" id="Node_-backto-DistanceFromMesh" style="stroke:#181818;stroke-width:1.0;"/><polygon fill="none" points="1490.75,780.0469,1504.4771,793.1452,1509.5907,782.2892,1490.75,780.0469" style="stroke:#181818;stroke-width:1.0;"/></g><!--reverse link DistanceFromMesh to Mesh--><g id="link_DistanceFromMesh_Mesh"><path codeLine="142" d="M1744,986.6609 C1744,1020.3109 1744,1060.9659 1744,1091.0819 " fill="none" id="DistanceFromMesh-backto-Mesh" style="stroke:#181818;stroke-width:1.0;"/><polygon fill="none" points="1744,974.6609,1740,980.6609,1744,986.6609,1748,980.6609,1744,974.6609" style="stroke:#181818;stroke-width:1.0;"/><text fill="#000000" font-family="sans-serif" font-size="13" lengthAdjust="spacing" textLength="8" x="1734.975" y="1080.0388">1</text></g><!--reverse link Node_ to In--><g id="link_Node__In"><path codeLine="144" d="M1325.6047,762.0729 C1260.0347,777.1379 1178.37,804.5249 1116,861.2969 C1099.23,876.5579 1088.58,900.4319 1082.52,918.1319 " fill="none" id="Node_-backto-In" style="stroke:#181818;stroke-width:1.0;"/><polygon fill="#181818" points="1337.3,759.3859,1330.5567,756.831,1325.6047,762.0729,1332.348,764.6278,1337.3,759.3859" style="stroke:#181818;stroke-width:1.0;"/><text fill="#000000" font-family="sans-serif" font-size="13" lengthAdjust="spacing" textLength="24" x="1057.1158" y="907.1016">0..1</text></g><!--reverse link Node_ to Out--><g id="link_Node__Out"><path codeLine="145" d="M1327.515,803.5283 C1299.445,822.9693 1277.65,839.0019 1250,861.2969 C1227.64,879.3279 1203.71,901.5629 1186.63,918.0119 " fill="none" id="Node_-backto-Out" style="stroke:#181818;stroke-width:1.0;"/><polygon fill="#181818" points="1337.38,796.6959,1330.17,796.8237,1327.515,803.5283,1334.725,803.4004,1337.38,796.6959" style="stroke:#181818;stroke-width:1.0;"/><text fill="#000000" font-family="sans-serif" font-size="13" lengthAdjust="spacing" textLength="24" x="1165.4648" y="907.3474">0..1</text></g><!--reverse link VolumeData to Boundary--><g id="link_VolumeData_Boundary"><path codeLine="183" d="M528.0565,301.7801 C542.6685,323.6311 558.539,347.3639 577.84,376.2279 " fill="none" id="VolumeData-backto-Boundary" style="stroke:#181818;stroke-width:1.0;"/><polygon fill="#181818" points="521.386,291.8049,521.3962,299.016,528.0565,301.7801,528.0463,294.569,521.386,291.8049" style="stroke:#181818;stroke-width:1.0;"/><text fill="#000000" font-family="sans-serif" font-size="13" lengthAdjust="spacing" textLength="24" x="547.5414" y="365.0824">0..1</text></g><!--reverse link VolumeData to Color--><g id="link_VolumeData_Color"><path codeLine="184" d="M563.8264,297.2264 C607.8304,318.8964 664.578,346.9539 723,376.2969 C733.247,381.4439 744.021,386.8889 754.644,392.2769 " fill="none" id="VolumeData-backto-Color" style="stroke:#181818;stroke-width:1.0;"/><polygon fill="#181818" points="553.061,291.9249,556.6765,298.1641,563.8264,297.2264,560.2109,290.9871,553.061,291.9249" style="stroke:#181818;stroke-width:1.0;"/><text fill="#000000" font-family="sans-serif" font-size="13" lengthAdjust="spacing" textLength="24" x="715.2859" y="381.1367">0..1</text></g><!--reverse link VolumeData to Property--><g id="link_VolumeData_Property"><path codeLine="185" d="M484.1272,301.8085 C468.3122,325.6785 449.75,353.6919 429.61,384.0889 " fill="none" id="VolumeData-backto-Property" style="stroke:#181818;stroke-width:1.0;"/><polygon fill="#181818" points="490.755,291.8049,484.1065,294.5974,484.1272,301.8085,490.7756,299.0159,490.755,291.8049" style="stroke:#181818;stroke-width:1.0;"/><text fill="#000000" font-family="sans-serif" font-size="13" lengthAdjust="spacing" textLength="23" x="409.438" y="373.2685">0..*</text></g><!--reverse link VolumeData to Composite--><g id="link_VolumeData_Composite"><path codeLine="186" d="M447.3342,297.0049 C388.1092,325.4819 297.82,368.8949 231.712,400.6819 " fill="none" id="VolumeData-backto-Composite" style="stroke:#181818;stroke-width:1.0;"/><polygon fill="#181818" points="458.149,291.8049,451.0083,290.8,447.3342,297.0049,454.475,298.0098,458.149,291.8049" style="stroke:#181818;stroke-width:1.0;"/><text fill="#000000" font-family="sans-serif" font-size="13" lengthAdjust="spacing" textLength="24" x="218.5838" y="389.5613">0..1</text></g><!--reverse link Composite to MaterialMapping--><g id="link_Composite_MaterialMapping"><path codeLine="187" d="M185.1016,475.8898 C195.7926,500.7508 205.972,524.4229 216.659,549.2729 " fill="none" id="Composite-backto-MaterialMapping" style="stroke:#181818;stroke-width:1.0;"/><polygon fill="#181818" points="180.361,464.8659,179.0567,471.958,185.1016,475.8898,186.4059,468.7976,180.361,464.8659" style="stroke:#181818;stroke-width:1.0;"/><text fill="#000000" font-family="sans-serif" font-size="13" lengthAdjust="spacing" textLength="23" x="188.5355" y="538.171">1..*</text></g><!--reverse link Boundary to Function--><g id="link_Boundary_Function"><path codeLine="189" d="M599.3301,501.2657 C584.9571,563.1487 564.845,649.7439 552.196,704.2009 " fill="none" id="Boundary-backto-Function" style="stroke:#181818;stroke-width:1.0;"/><polygon fill="none" points="602.045,489.5769,596.7913,494.5164,599.3301,501.2657,604.5839,496.3263,602.045,489.5769" style="stroke:#181818;stroke-width:1.0;"/><text fill="#000000" font-family="sans-serif" font-size="13" lengthAdjust="spacing" textLength="8" x="545.0566" y="693.3465">1</text></g><!--reverse link Color to Function--><g id="link_Color_Function"><path codeLine="190" d="M786.9212,482.1513 C731.5322,541.5653 635.661,644.4029 580.132,703.9659 " fill="none" id="Color-backto-Function" style="stroke:#181818;stroke-width:1.0;"/><polygon fill="none" points="795.104,473.3739,788.0868,475.035,786.9212,482.1513,793.9384,480.4902,795.104,473.3739" style="stroke:#181818;stroke-width:1.0;"/><text fill="#000000" font-family="sans-serif" font-size="13" lengthAdjust="spacing" textLength="8" x="577.4124" y="693.373">1</text></g><!--reverse link Property to Function--><g id="link_Property_Function"><path codeLine="191" d="M425.4223,492.4245 C453.9423,553.3965 497.689,646.9249 524.326,703.8739 " fill="none" id="Property-backto-Function" style="stroke:#181818;stroke-width:1.0;"/><polygon fill="none" points="420.338,481.5549,419.257,488.6845,425.4223,492.4245,426.5034,485.2949,420.338,481.5549" style="stroke:#181818;stroke-width:1.0;"/><text fill="#000000" font-family="sans-serif" font-size="13" lengthAdjust="spacing" textLength="8" x="512.7123" y="693.2663">1</text></g><!--reverse link MaterialMapping to Function--><g id="link_MaterialMapping_Function"><path codeLine="192" d="M301.0141,618.9383 C351.1981,644.8323 412.255,676.3359 466.469,704.3089 " fill="none" id="MaterialMapping-backto-Function" style="stroke:#181818;stroke-width:1.0;"/><polygon fill="none" points="290.35,613.4359,293.8479,619.7418,301.0141,618.9383,297.5162,612.6324,290.35,613.4359" style="stroke:#181818;stroke-width:1.0;"/><text fill="#000000" font-family="sans-serif" font-size="13" lengthAdjust="spacing" textLength="8" x="450.5417" y="696.6785">1</text></g><!--reverse link Mesh to VolumeData--><g id="link_Mesh_VolumeData"><path codeLine="196" d="M506,155.0869 C506,182.6169 506,216.1369 506,243.6169 " fill="none" id="Mesh-backto-VolumeData" style="stroke:#181818;stroke-width:1.0;"/><polygon fill="#181818" points="506,143.0869,502,149.0869,506,155.0869,510,149.0869,506,143.0869" style="stroke:#181818;stroke-width:1.0;"/></g><!--SRC=[hLR1Rjim3BtdAumUXgr0YmszzTObwv13cc8TYcsNGR6PHfWi6HAT9WloxvCiovOiESkXFWG87yL7Ff6qaIA3x6PndpqBLfU0akRPksnULepc52UJYkH_o0jeY_wzcKqEaqm_KqQKwcp6OktceKLscqbGefOvp6UTdPCIDA8q1NzfhCVcTnZm2JLb1Zi4NennIF6QYvgZZaSvTkPSi9HPRG1m21md4R5n6n1L13TTqjdxnuUl7_pJNiANLrVPnQVhwyiBFzgnLt16a7pVLw023PzomeZy1kj8HU18ro07Ydb7do57aJXgX4wToZt2mz4psK27rgtBA1Ecf8zDITROu1sjZrkZN-vzpNEaWj_95zrN7CEovxogdTPUBrXmMMCIRGvPeQEi8gpDo60sNdpGIHVZlRHUHG-YWB5gJfGIGylHAfQZDSpvUFuXbipTtKQOjxD6lPSSu8AgYf7zM7kvOEqaN7Xt747j3ITIkPUYj3DVT3jWB4thDhPljeJL8DPh1NYR5Q9UCGWnfKM425fJXY33HMKUf0mKxXdK9x3j2UmrjVnIPGkdNxlw4Ygv_Vm_YNObuqhlFBVEO-8kajT1fj5_-xIFacu9mXT3faosxZxFe__nyrVBx4yJGRg5e1qjx-aAXWkI3ZRa6OrgoUwAli66n87ZWl8p7GdgsLlKx3ntfzcKi3DFpAX2mdCmpR80jHazPPvIEwH6mrv_5CerdVbZEPkWNLiqyvoscntdNMp_8M7UUC45MwWnUzRF-irS4BaV5A04emLkTFeRmKmXmq5jzHkR_vBoDH2iDKJ_GdpU2BHQYPtWRA_HbH0ibdmgMBk03sz2V0p7IbGWSPzuVyTxvCrOfwAiXA880zeLKL3gAPUKi7JZXBtUE2v8LRaiprEe3TEtWjzAGIkaNVeRIU1wUGMYZeNm5UZ- -Pzmm_eQJvTTDop1sciIIqCkfpGwu8gTj6IjwcOuct4rgVR5_GC0]--></g></svg>